<?xml version="1.0" encoding="UTF-8"?>
<svg id="Layer_2" data-name="Layer 2" xmlns="http://www.w3.org/2000/svg" viewBox="0 0 215.51 43.72">
  <defs>
    <style>
      .cls-1 {
        fill: #fff;
      }
    </style>
  </defs>
  <g id="Layer_2-2" data-name="Layer 2">
    <g>
      <path class="cls-1" d="M67.19,21.11v3.34h-8.35V.62h6.69v3.34h-3.34v3.32h5v3.34h-5v10.48h5Z"/>
      <path class="cls-1" d="M73.93,9.2c1.39,0,2.57.51,3.54,1.54.97,1.02,1.46,2.26,1.46,3.72v5.23c0,1.45-.49,2.69-1.46,3.72-.97,1.02-2.16,1.54-3.54,1.54s-2.57-.51-3.54-1.54c-.97-1.02-1.46-2.26-1.46-3.72v-1.88h3.34v1.88c0,.53.16.98.48,1.35.32.37.71.56,1.18.56s.85-.19,1.18-.56c.32-.37.48-.82.48-1.35v-5.23c0-.53-.16-.98-.48-1.35-.32-.37-.71-.56-1.18-.56-1.39,0-2.57-.51-3.54-1.54-.97-1.02-1.46-2.26-1.46-3.72v-1.88c0-1.45.49-2.69,1.46-3.72.97-1.02,2.16-1.54,3.54-1.54s2.57.51,3.54,1.54c.97,1.02,1.46,2.26,1.46,3.72v1.88h-3.34v-1.88c0-.53-.16-.98-.48-1.35-.32-.37-.71-.56-1.18-.56s-.85.19-1.18.56c-.32.37-.48.82-.48,1.35v1.88c0,.53.16.98.48,1.35.32.37.71.56,1.18.56Z"/>
      <path class="cls-1" d="M81.91,5.4c0-1.45.49-2.69,1.46-3.72.97-1.02,2.16-1.54,3.54-1.54s2.57.51,3.54,1.54c.97,1.02,1.46,2.26,1.46,3.72v1.88h-3.34v-1.88c0-.53-.16-.98-.48-1.35-.32-.37-.71-.56-1.18-.56s-.85.19-1.18.56c-.32.37-.48.82-.48,1.35v14.27c0,.53.16.98.48,1.35.32.37.71.56,1.18.56s.85-.19,1.18-.56c.32-.37.48-.82.48-1.35v-1.88h3.34v1.88c0,1.45-.49,2.69-1.46,3.72-.97,1.02-2.16,1.54-3.54,1.54s-2.57-.51-3.54-1.54c-.97-1.02-1.46-2.26-1.46-3.72V5.4Z"/>
      <path class="cls-1" d="M94.15.62h3.34v19.05c0,.53.16.98.48,1.35.32.37.71.56,1.18.56s.85-.19,1.18-.56c.32-.37.48-.82.48-1.35V.62h3.34v19.05c0,1.45-.49,2.69-1.46,3.72-.97,1.02-2.16,1.54-3.54,1.54s-2.57-.51-3.54-1.54c-.97-1.02-1.46-2.26-1.46-3.72V.62Z"/>
      <path class="cls-1" d="M115.48,21.11v3.34h-8.35V.62h6.69v3.34h-3.34v3.32h5v3.34h-5v10.48h5Z"/>
      <path class="cls-1" d="M118.45.62h3.34v20.49h5v3.34h-8.35V.62Z"/>
      <path class="cls-1" d="M129.11,5.4c0-1.45.49-2.69,1.46-3.72.97-1.02,2.16-1.54,3.54-1.54s2.57.51,3.54,1.54c.97,1.02,1.46,2.26,1.46,3.72v19.05h-3.34v-3.34h-3.32v3.34h-3.34V5.4ZM135.77,17.79V5.4c0-.53-.16-.98-.48-1.35s-.71-.56-1.18-.56-.85.19-1.18.56c-.32.37-.48.82-.48,1.35v12.39h3.32Z"/>
      <path class="cls-1" d="M157.69.62v3.34h-2.5v20.49h-3.34V3.97h-2.5V.62h8.35Z"/>
      <path class="cls-1" d="M159.91,5.4c0-1.45.49-2.69,1.46-3.72.97-1.02,2.16-1.54,3.54-1.54s2.57.51,3.54,1.54c.97,1.02,1.46,2.26,1.46,3.72v19.05h-3.34v-3.34h-3.32v3.34h-3.35V5.4ZM166.58,17.79V5.4c0-.53-.16-.98-.48-1.35s-.71-.56-1.18-.56-.85.19-1.18.56-.48.82-.48,1.35v12.39h3.32Z"/>
      <path class="cls-1" d="M172.87.62h3.35v20.49h5v3.34h-8.35V.62Z"/>
      <path class="cls-1" d="M183.53.62h3.35v20.49h5v3.34h-8.35V.62Z"/>
      <path class="cls-1" d="M202.53,21.11v3.34h-8.35V.62h6.69v3.34h-3.34v3.32h5v3.34h-5v10.48h5Z"/>
      <path class="cls-1" d="M210.68.62c1.34.05,2.48.58,3.42,1.6.94,1.02,1.41,2.23,1.41,3.65v10.01c0,1.49-.52,2.75-1.56,3.79l1.56,4.78h-3.52l-1.07-3.37c-.13.02-.26.02-.4.02h-1.68v3.34h-3.35V.62h5.18ZM208.85,3.97v13.83h1.66c.46,0,.85-.19,1.18-.57.32-.38.48-.83.48-1.34V5.88c0-.53-.16-.98-.48-1.35s-.71-.56-1.18-.56h-1.66Z"/>
      <path class="cls-1" d="M61.24,43.52h-2.39v-13.79h2.39c1.1,0,2.01.3,2.71.88.38.31.67.68.87,1.09.2.41.34.87.41,1.38.07.51.11,1.06.11,1.65v3.78c0,.6-.04,1.15-.11,1.65-.07.51-.21.97-.41,1.38-.2.41-.49.78-.87,1.1-.71.58-1.61.88-2.71.88ZM61.2,41.3c.58,0,1.01-.13,1.28-.38.16-.1.3-.31.41-.63.12-.32.17-.88.17-1.7v-3.91c0-.83-.06-1.41-.18-1.72-.12-.31-.25-.52-.41-.62-.3-.25-.75-.38-1.35-.38v9.34h.07Z"/>
      <path class="cls-1" d="M73.88,43.52h-5.88v-13.79h5.88v2.23h-3.58v3.82h3.24v2.23h-3.24v3.29h3.58v2.22Z"/>
      <path class="cls-1" d="M82.16,43.52h-5.62v-13.79h2.29v11.57h3.33v2.22Z"/>
      <path class="cls-1" d="M97.3,43.52h-2.01l-2.62-6.8v6.8h-2.27v-13.79h2.03l2.6,6.75v-6.75h2.27v13.79Z"/>
      <path class="cls-1" d="M103.2,43.72c-.85,0-1.56-.23-2.14-.68-.39-.31-.67-.74-.84-1.28-.17-.54-.25-1.27-.25-2.19v-5.88c0-.94.08-1.67.25-2.21.17-.54.45-.96.84-1.27.56-.45,1.27-.67,2.14-.67s1.54.23,2.13.68c.4.31.68.74.86,1.28.17.54.26,1.27.26,2.19v5.88c0,.93-.09,1.66-.26,2.2-.17.54-.46.96-.86,1.28-.57.45-1.28.67-2.13.67ZM103.2,41.48c.36,0,.57-.04.64-.13.21-.17.32-.74.32-1.73v-5.95c0-.47-.02-.83-.05-1.07-.06-.37-.14-.59-.25-.66-.11-.1-.32-.15-.63-.15-.37,0-.6.05-.67.14-.19.13-.29.72-.29,1.74v5.95c0,.37,0,.66.03.88.04.38.1.62.17.73.03.04.06.07.08.09.08.11.3.16.65.16Z"/>
      <path class="cls-1" d="M116.12,43.52h-2.49l-2.22-4.92v4.92h-2.29v-13.79h2.12c1.43,0,2.51.35,3.25,1.06.74.71,1.11,1.75,1.11,3.13,0,1.9-.71,3.15-2.12,3.76l2.64,5.85ZM111.41,35.81c.53-.01.94-.1,1.21-.25.28-.16.46-.38.55-.66.09-.29.14-.63.14-1.02s-.05-.73-.14-1c-.1-.28-.28-.5-.56-.65s-.68-.24-1.2-.26v3.86Z"/>
      <path class="cls-1" d="M122.38,43.52h-2.29v-11.56h-2.18v-2.23h6.63v2.23h-2.16v11.56Z"/>
      <path class="cls-1" d="M133.08,43.52h-5.88v-13.79h5.88v2.23h-3.58v3.82h3.24v2.23h-3.24v3.29h3.58v2.22Z"/>
      <path class="cls-1" d="M143.72,43.52h-2.39v-13.79h2.39c1.1,0,2.01.3,2.71.88.38.31.67.68.87,1.09.2.41.34.87.41,1.38.07.51.11,1.06.11,1.65v3.78c0,.6-.04,1.15-.11,1.65-.07.51-.21.97-.41,1.38-.2.41-.49.78-.87,1.1-.71.58-1.61.88-2.71.88ZM143.68,41.3c.58,0,1.01-.13,1.28-.38.16-.1.3-.31.41-.63.12-.32.17-.88.17-1.7v-3.91c0-.83-.06-1.41-.18-1.72-.12-.31-.25-.52-.41-.62-.3-.25-.75-.38-1.35-.38v9.34h.07Z"/>
      <path class="cls-1" d="M156.37,43.52h-5.88v-13.79h5.88v2.23h-3.58v3.82h3.24v2.23h-3.24v3.29h3.58v2.22Z"/>
      <path class="cls-1" d="M164.64,43.52h-5.62v-13.79h2.29v11.57h3.33v2.22Z"/>
      <path class="cls-1" d="M174.98,43.72c-.85,0-1.55-.23-2.12-.68-.56-.46-.9-1.14-1.02-2.06-.06-.44-.09-.91-.09-1.43v-5.86c0-.9.08-1.63.25-2.16.16-.54.44-.97.82-1.29.58-.47,1.31-.7,2.17-.7.82,0,1.53.23,2.13.68.54.46.87,1.11.99,1.97.06.4.09.85.09,1.34v.98h-2.28v-.98c0-.81-.06-1.31-.19-1.5-.12-.17-.37-.25-.76-.25-.31,0-.53.05-.65.16-.06.04-.12.15-.16.33-.08.28-.12.74-.12,1.39v5.93c0,.65.04,1.12.13,1.4.05.19.1.3.14.33.12.1.35.15.68.15.3,0,.52-.05.66-.15.21-.19.31-.79.31-1.8v-1.04h2.27v1.04c0,.53-.03,1.01-.09,1.44-.12.92-.46,1.6-1.02,2.06-.57.46-1.28.69-2.15.69Z"/>
      <path class="cls-1" d="M188.07,43.52h-2.32l-.26-1.24-.24-1.23h-2.38l-.5,2.47h-2.33l2.84-13.79h2.37l2.83,13.79ZM184.78,38.76l-.72-3.6-.73,3.6h1.45Z"/>
      <path class="cls-1" d="M193.3,43.72c-.98,0-1.77-.3-2.36-.91-.59-.61-.88-1.42-.88-2.43v-10.65h2.29v10.62c0,.35.05.61.14.76.1.16.22.26.36.3.14.04.29.07.45.07.17,0,.32-.03.47-.08.15-.05.27-.16.36-.32.09-.16.14-.41.14-.74v-10.62h2.27v10.65c0,1.01-.29,1.82-.88,2.43-.59.61-1.37.91-2.36.91Z"/>
      <path class="cls-1" d="M202.43,43.72c-.85,0-1.55-.23-2.12-.68-.56-.46-.9-1.14-1.02-2.06-.06-.44-.09-.91-.09-1.43v-5.86c0-.9.08-1.63.25-2.16.16-.54.44-.97.82-1.29.58-.47,1.31-.7,2.17-.7.82,0,1.53.23,2.13.68.54.46.87,1.11.99,1.97.06.4.09.85.09,1.34v.98h-2.28v-.98c0-.81-.06-1.31-.19-1.5-.12-.17-.37-.25-.76-.25-.31,0-.53.05-.65.16-.06.04-.12.15-.16.33-.08.28-.12.74-.12,1.39v5.93c0,.65.04,1.12.13,1.4.05.19.1.3.14.33.12.1.35.15.68.15.3,0,.52-.05.66-.15.21-.19.31-.79.31-1.8v-1.04h2.27v1.04c0,.53-.03,1.01-.09,1.44-.12.92-.46,1.6-1.02,2.06-.57.46-1.28.69-2.15.69Z"/>
      <path class="cls-1" d="M215.51,43.52h-2.32l-.26-1.24-.24-1.23h-2.38l-.5,2.47h-2.33l2.84-13.79h2.37l2.83,13.79ZM212.22,38.76l-.72-3.6-.73,3.6h1.45Z"/>
      <g>
        <path class="cls-1" d="M24.75,37.86s-.59.31-.6.32c-.21.15-2.28-.77-2.92-1.3-4.04-3.33-6.73-7.55-4.43-12.89,1.22-2.83,3.68-3.92,4.99-6.15.51-.86.48-2.09-.62-2.37-2.36-.61-4.32,3.28-6.26,2.96-.98-.16-1.38-1.84-1.54-2.65-.24-1.24-.45-2.81-.56-4.07-.17-2-.1-4.08-.45-5.99-.03-.15-.46-.54-.65-.53-1.01.05-1.33.88-1.72,2.27-.68,3.52-.15,7.14.24,10.67-.02.11-.15-.05-.18-.09-.49-.64-.84-2.31-.89-3.12-.13-2.04-.13-5.01,0-7.04.12-1.84,1.03-3.86.69-5.68-.15-.81-.37-.86-1.07-.67-.38.1-.79.93-1.04,1.53-.67,1.58-1.06,3.43-1.26,5.12-1.03,5.55.13,9.43.03,10.01,0,.46-.56-.05-.67-.8,0,0-.91-6.01-.15-8.49.08-.67.43-2.27.35-2.8-.04-.24-.24-1-.87-1.03-.16,0-.38.18-.67.63-1.63,2.85-1.58,9.52-1.1,12.75.05.35.15.8.15,1.06,0,.18.04.34-.06.46-.29.25-.8-1.29-.89-2.12-.26-2.35-.18-4.86-.07-7.17s-1.29-1.64-1.84.04c-1.62,4.95-.16,13.81,2.11,18.4,1.93,3.92,4.31,6.97,7.54,9.88,1.98,1.78,5.66,4.52,8.71,4.21.02-.2-.38-.2-.68-.33.52-.32,1.06-.61,1.63-.88,1.78-.77,4.76-2.3,5.44-3.9-.19-.02-.52-.18-.67-.25Z"/>
        <path class="cls-1" d="M27.24,18.21c.16,1.5.38,3.06.36,4.57l-.18.11c-.14.6-.82,1.34-.7,1.98.2,1.07,2.81,3.29,3.31,4.7,1.58,4.46-2.63,10.93-6.55,12.99-1.1.58-2.4.35-3.57.75-.24-.06-.92.17-1.14.07-.08-.03-1.38-.21-1.38-.26,2.21-1.06,4.9-2.34,6.03-4.67,1.21-2.49.69-6.84-1.49-8.7-.86-.74-2.42-1.26-3.12-1.96-.51-.52-.34-1.51.38-1.67,1.06-.24,2.45.4,3.55.25.27-.04.28-.08.42-.3.64-1.01.29-5.59.15-6.96-.08-.81-.19-1.15-.33-2.67-.02-.2.04-.92.45-1.04.71-.21.78.39.97.99.48,2.12.66,3.67.84,5.45.04.85.12,1.56.26,1.46.28.06.05-3.31-.03-4.55-.12-1.86-.86-5.47.18-5.74.61-.16.88,1.14.88,1.14.14.61.63,3.52.72,4.07Z"/>
        <path class="cls-1" d="M35.8,3.02l-1.55-.16c-1.98-.02-3.05.09-4.93.85-.49.2-2.52,1.62-2.79,1.58-.49-.07-1.44-1.53-1.87-1.88-.89-.73-1.85-1.4-2.96-1.76-1.46-.48-2.48-.9-4.44-1.18.49-.25,1.19-.34,1.74-.4,1.63-.17,3.49-.12,4.95.67.71.39,2.32,2.3,2.95,2.35.69.06,2.52-1.15,3.35-1.3,2.06-.37,3.77.23,5.54,1.22Z"/>
        <path class="cls-1" d="M30.68,18.04c0-.16.21-1.11.39-.98.45-.34.81.83.94,2.23.14,1.5.18,5.11-.28,6.6-.16.53-.49-.29-.6-.24-.69.36-.87.1-.96-.61-.09-.09.56-3.83.51-7Z"/>
        <path class="cls-1" d="M29.4,15.3c.21.58.43,2.45.43,2.45.1,1.26.2,2.37.18,3.65-.02.86-.04,1.85-.09,2.76-.41-.18-1.6-.74-1.96-.8.25-2.83-.08-8.17.27-8.55.56-1.04,1.07.19,1.18.49Z"/>
        <path class="cls-1" d="M38.92,24.85c-.06.3-.03.36.09.18,2.23-2.87,3.81-9.83,4.64-9.98.89-.22.99.79,1.06,1.48.27,2.89-2.88,8.09-4.18,10.82-.14.32.09.18.09.18.55-.66,1.09-1.33,1.53-2.08.79-1.37,1.7-4.51,2.7-5.41.19-.17.45-.48.87-.16.27.21.18,1.27.16,1.64-.17,3.86-4.88,10.6-7.53,13.41-3.39,3.58-9.05,7.27-13.82,8.55-1.96.52-5.13.15-7.12-.34l2.6-.16c4.96-.49,8.49-4.68,9.68-9.11.94-3.46-.61-5.28-2.66-7.91-.82-1-.73-3.04.32-3.15,1.74-.18,3.52,2.66,4.93,2.86.42.06,2.42-4.39,3.23-6.66.68-1.89,1.67-5.9,2.74-5.46,1.37.29.14,3.96-.49,5.84-.57,1.72-1.28,3.4-1.87,5.12-.07.29-.04.35.09.18,1.5-2.25,2.74-6.04,3.59-8.66.31-.97.42-2.21,1.05-3.05.1-.13.5-.52.95-.52,1,0,.92.98.92,1.4-.02,1.6-1.46,5.47-2.05,7.13-.46,1.29-.96,2.62-1.52,3.87Z"/>
      </g>
    </g>
  </g>
</svg>