<?xml version="1.0" encoding="UTF-8"?>
<svg id="Layer_2" data-name="Layer 2" xmlns="http://www.w3.org/2000/svg" viewBox="0 0 62.66 69.13">
  <defs>
    <style>
      .cls-1 {
        fill: #fff;
      }
    </style>
  </defs>
  <g id="Layer_2-2" data-name="Layer 2">
    <path class="cls-1" d="M62.66,57.64C37.11,82.94-7.43,63.81,1.06,26.03,7.3-1.71,44.14-9.04,61.44,12.65l-9.47,9.94c-5.1-8.23-16.62-11.27-25.44-7.44-14.22,6.17-15.91,26.84-4.17,36.3,6.25,5.03,17.25,5.58,24.18,1.7,3.48-1.95,1.63-2.59,2.92-5.7.52-1.26,1.37-2.01,2.32-2.93-.89-.41-3.7-3.2-4.3-3.2-.66,0-1.41,1.19-2.17,1.59-.45.24-3.1,1.05-3.45,1.05h-6.19v-13.12h26.99v26.8Z"/>
  </g>
</svg>