<?xml version="1.0" encoding="UTF-8"?>
<svg id="Layer_2" data-name="Layer 2" xmlns="http://www.w3.org/2000/svg" viewBox="0 0 105.02 82.19">
  <defs>
    <style>
      .cls-1 {
        fill: #fff;
      }
    </style>
  </defs>
  <g id="Layer_2-2" data-name="Layer 2">
    <g>
      <path class="cls-1" d="M52.93,37.08c18.36-2.09,20.53,24.68,3.53,26.48-18.27,1.93-20.6-24.53-3.53-26.48ZM47.18,54.41v-7.37s.33-.38.48-.36l.04,2.02c3.1,2.13,3-2.74.95-3.36-1.08-.33-2.96-.26-3.46.92-.32.75-.32,6.92-.19,8.04.11.97.6,1.62,1.59,1.79,3.17.54,3.64-1.35,3.49-4.09l-2.19.11c-.66.46.36,2.46-.71,2.31ZM61.2,54.41v-7.73c1.07-.16.05,1.85.71,2.31.32.22,1.97.29,2.16-.29.68-4.16-4.92-5.2-5.3-.7-.12,1.41-.15,6,.38,7.12.69,1.45,3.82,1.37,4.56,0,.3-.54.67-2.66.15-3.02-2.69-.48-1.98.13-2.19,1.95-.04.36-.2.74-.49.36ZM54.31,45.47c-1.01-.22-2.65.16-3.75,0v10.27l.39.32h1.41s.39-.32.39-.32v-4.47l.73.36v4.23l1.82.15.36-.27v-4.35c0-.39-.85-1.03-1.21-1.21,1.77-.58,1.72-4.31-.12-4.71ZM58.3,45.47h-2.18v10.27l.38.34,1.79-.21v-10.39Z"/>
      <path class="cls-1" d="M25.29,82.19l-.3-.35c.29-2.44.35-5.19-.06-7.62,8.67-.02,17.34.02,26.01,0,2.54,0,5.18,0,7.72,0,8.43,0,16.86-.03,25.28,0v7.97H25.29ZM28.8,76.15v3.99c0,.55,1.85.97,2.18.24v-3.74h.48v4.11h.72s.12-1.69.12-1.69c.4.94.19,1.94,1.57,1.69v-4.59h-.72s-.12,1.21-.12,1.21l-.52-1.19-3.71-.02ZM34.12,76.52v3.87c0,.45,1.21.45,1.21,0v-3.87c0-.36-1.05-.57-1.21,0ZM35.57,76.15v4.59c2.65.66,2.41-2.09,2.19-4-.01-.11.01-.22-.05-.32l-2.14-.28ZM40.65,76.52v3.74l-.59-3.88-1.2-.24-.87,4.48.97.12v-1.21c.9-.2.17.97.88,1.18.1.03,1.95.04,2.12.02.29-.03.85-.23,1-.48.12-1.81.91-4.72-1.9-4.07l-.4.32ZM48.15,76.15h-3.39c-.26.89.48.67.48.72v3.5c0,.45,1.21.45,1.21,0v-3.5h.73v3.87h.97v-4.59ZM50.32,76.88c.17-.89-1.51-.95-1.83-.5l.12,4.26,1.71.1c.16-1.05-.84-.57-.75-1.81.04-.62.88-.37.75-1.08-1.26,0-1.33-.95,0-.97ZM50.56,76.15v4.59h.97s.12-1.94.12-1.94l.16,1.54.36.37,4.2.03c0-.44-.06-1.07.48-1.21l.23,1.1.98.1-.71-4.49c-1.91-1.06-1.42,3.76-1.83,3.77.14-.55-.52-1.67-.52-1.81,0-.29.72-.68.28-1.57-.37-.74-1.63-.43-2.3-.48v4.11l-.39-1.85c.49-1.91-.1-2.48-2.02-2.26ZM60.72,77.12l-.37-.96c-1.34-.4-.32,1.66-.18,2.35.13.64-.25,2.59.91,2.23.33-.1.34-.55.37-.83.15-1.26.29-2.5.47-3.75-1.09-.26-.65.65-1.21.96ZM68.46,80.14v-3.99h-.97v3.62c-.42.05-.23-.55-.24-.84-.04-.95.43-3.24-.97-2.66v3.02c-.56-.42-.76-.64-1.45-.24v-1.45c2.67.78.35-2.8-.99-1.11-.32.4-.33,3.05-.17,3.6.33,1.11,2.16.82,2.49-.31-.06,1.36,2.06,1.19,2.3.36ZM69.91,80.02v-3.5c0-.45-1.21-.45-1.21,0v3.87l.4.32,1.54.04v-.72s-.73,0-.73,0ZM70.88,76.88c.09.15,0,2.96,0,3.5,0,.45,1.21.45,1.21,0v-3.5h.73v3.5c.33.73,2.18.3,2.18-.24v-3.99h-.97v3.62c-.42.05-.23-.55-.24-.84-.02-.64.19-2.36-.23-2.68l-3.15-.1c-.25.88.46.68.48.72ZM75.23,76.52v3.87l.61.37.73-.49c.21.86,1.19.38,1.9.49l.52-1.22.23.98,1.1.23-.48-4.59h-1.45s-.49,3.86-.49,3.86l-.63-1.81c1.04-1.47-.02-2.39-1.62-2.01l-.4.32Z"/>
      <path class="cls-1" d="M32.88,35.77c-.26.15-.62,0-.83-.2l-9.78-8.59,1.82-2.3,9.81,8.56c.71.35-.89,2.44-1.02,2.52Z"/>
      <polygon class="cls-1" points="82.52 58 81.38 56.11 81.49 55.73 92.65 48.48 94.09 50.67 93.86 50.91 82.52 58"/>
      <path class="cls-1" d="M75.72,35.08c-.11-.68-1.46-1.76-1.12-2.41l9.45-8.45,1.81,2.53-10.15,8.34Z"/>
      <path class="cls-1" d="M17.92,48.13l10.17,7.11c.65.54-.39,2.42-.9,2.52-.61.12-8.94-6.14-10.27-6.85l-.13-.38,1.12-2.4Z"/>
      <path class="cls-1" d="M15.34,16.64c1.79,1.52,3.49,3.19,5.44,4.47.43.75-1.57,2.27-1.66,3.1l-6.17-4.83.37-1.21-.96.48c-.13-.82.62-1.15,1.07-1.71.38-.47.45-1.59,1.35-1.08.27.17.35.59.56.77ZM13.56,19.38c.61.52,1.48-1.99,1.45-2.41-1.07.54-1.19,1.36-1.45,2.41Z"/>
      <path class="cls-1" d="M95.54,18.65l-.96-.48.48,1.2c-2.17.92-3.86,2.88-5.72,4.33-.47.09-2.3-2.3-1.99-2.84,1.45-.95,2.81-2.13,4.08-3.3.39-.36,1.49-1.8,1.61-1.83,1.06-.23,1,.68,1.43,1.21s1.2.89,1.07,1.7Z"/>
      <path class="cls-1" d="M104.97,44.02l-.96-.48v1.08s-1.94.85-1.94.85l.48-.72c-1.91.55-2.56,2.88-4.52,3.59-.48.08-2.18-2.25-1.53-2.99.98-1.1,4.2-2.4,5.44-3.52.93-.17.43,2.79,1.57,2.66.21-1.24-1.18-2.51-.12-3.62.31.58,1.92,2.64,1.57,3.14Z"/>
      <path class="cls-1" d="M9.18,41.4c1.14,1.76,3.62,2.69,5.24,4.08.26.42-.75,3.19-1.81,2.78-.28-.11-4.71-3.18-4.86-3.43-.52-.84.42-4,1.44-3.42Z"/>
      <path class="cls-1" d="M52.98,11.65c.56-.12,1.09.18,1.6.22.53.04.96-.5,1.28.16l-.22,11.7-2.56-.23c-.48-.69.05-2.91,1.1-2.92l.24.73.25-7.49.72.48c.06-.97-.71-1.87-1.69-1.93l.67.84c-.65,1.21-.64,2.91-.98,4.29-.06.24-.07.73-.41.67v-6.52Z"/>
      <path class="cls-1" d="M55.88,7.78l-2.31-.23.38-2.66c-.7.14-.36,1.74-.48,1.93-1.14-.98-.19-3.03,0-4.35l-.48.96c-.44.04-.32-1.08-.85-.49l-1.57,2.54c-.03-1.21,1.24-4.19,2.68-3.89.36.08.69.87,1.32.85.27-.64.69-.73,1.31-.95l-.97,1.09.97.12v5.07Z"/>
      <path class="cls-1" d="M45.24,38.47c-3.6,3.45-5.68,7.85-5.33,12.93.1,1.43.56,2.63.87,3.97.06.25.32.79-.13.73-.25-.56-.33-1.2-.51-1.74-.07-.2-.41-.19-.45-.36-.22-.91.55-2.59-.73-2.73l.5-.39c-.5-1.53.99-3.37-.02-4.67,1.46.13,1-1.77.48-2.66l-.6.48c-.46-1.15,1.43-1.99.85-3.13l1.2-.5c.14.53-.46.65-.61.98-.12.27.13.6.08.68-.26.44-1.85.32-.07,1.72.6-.77.99-1.66.85-2.65l.7.23c.62-1.18,1.62-2.44,2.93-2.89Z"/>
      <path class="cls-1" d="M71.21,67.31c-.34.29-.91,1.32-1.54,1,1.95-2.15,4.75-3.87,5.55-6.79l.73.15c-.13-1.6,1.64-2.3,1.81-3.87l1.57,2.29c0,.32-3.63,2.23-4.1,2.67-1.35,1.27-2.29,3.04-4.03,4.55Z"/>
      <path class="cls-1" d="M60.72,34.84c.66.11.92.24,1.45-.24-.07,1.3,1.19,1.3,2.18,1.46v.72c-.78-.38-1.77-.97-2.66-.61.99,1.16,2.52,1.58,3.57,2.71.25.27.44.15.3.8-2.27-1.84-4.72-3.69-7.68-4.29-3.47-.7-6.83-.17-9.97,1.39-.52-.49,2.62-1.5,2.88-1.59.45-.14.93-.01,1.3-.11.2-.05.16-.46.27-.45,1.57.1,3.2-.02,4.82.24,1.71.28,3.17,1.35,4.75.93.07-.66,0-.39-.37-.47-1.18-.27-2.29-.95-3.65-1.21-.66-.13-2.16.21-2.75-.62l.97.02.48-1.34.02,1.43c1.28-.18,3.04,1.35,3.99.27.56-.64,1.29-3.42,1.03-4.2-.13-.52-2.19-1.08-2.38-.89l-.97,3.87.24-3.69c.22-.98,3.67-.64,3.83,1.22.06.68-1.94,4.35-1.66,4.65Z"/>
      <path class="cls-1" d="M44.91,61.52c5.1,3.85,10.11,5.07,16.22,2.36l3.22-1.86c-.88.33-.66,1.27-.73,1.32-.12.07-.65,0-.96.13-1.24.53-2.5,1.38-3.81,1.75-4.13,1.16-11.43-.01-14.33-3.43-.18-.21-.32-.27-.23-.61.05-.05.51.25.63.34Z"/>
      <path class="cls-1" d="M71.12,45.96c-.63-1.69-2.83-2.92.97-3.38l-1.71.87c.02,1.09.58,1.86,1.47,2.39-.06.26-.5.08-.72.12.37.99.42,2.63.52,3.71l1.17.4v-.97s4.11-.24,4.11-.24v-1.21s-4.35.24-4.35.24l.03-.93,1.05-.28c.62,2.1,1.32-.19,1.46-.24.13-.05.56-.09.6.12.13.64-.71.06-.48.84l1.43-.25c-.02-.56.27-1.91-.38-2.13l-3.47.45,2.57-1.14,1.41.66.58,3.71c-.29.84-3.21.72-3.92.93-.55.16-.82,1.21-1.72.9-.84-.29-.62-3.8-1.11-4.57.16-.02.34.03.48,0Z"/>
      <path class="cls-1" d="M33.63,52.72c0,.49-.74.06-.94.63-.16.45,0,1.44.34,1.8.41.45,3.45-1.13,2.53,1.19l-.25-.71c-4.34.08-.49,5.04,1.34,1.2.19.63.45.53,1.09.48l-3.38,1.7c-.12.62.12.89.72.96l-.36.47c-.45-.36-2.4-1.86-.6-1.57-.03-.57-1.05-.99-1.17-1.74-.09-.56.48-1.44.44-1.5-.11-.14-1.21-.26-.97-1.23l-.96.24.04-.93c1.04-.02.93-1.32,2.13-1Z"/>
      <path class="cls-1" d="M49.59,32.67l-1.84-3.16c-.34,0-.69.05-1,.2-1.32.65.78,2.18-.54,2.6.65.51.96,1.23.96,2.05l-2.41-3.76c-.98-.14-.63.73-.73.86-.02.03-.39-.21-.57-.17-.39.08-.81.62-1.12.29l1.8-1.52c1.09.1,1.27,1.13,2.07,1.64.08-.5-.46-1.15-.39-1.58.05-.3.75-.57.52-1.32l2.66.73.6,3.14Z"/>
      <path class="cls-1" d="M30.73,52.48c.13,1.85.39,4.33,1.08,6.06.17.42.99,1.18,1.19,1.67.1.26-.15.59.02.96.26.58,1.56.99,1.34,1.95-1.02-1.33-2.6-1.95-3.85-3.04l.89-1.7c-.32-1.73-1.05-3.79-1.15-5.53-.03-.48.05-.38.48-.36Z"/>
      <path class="cls-1" d="M46.93,16.96c-.4.1-.09-.4-.41-.49-.24-.06-.54.03-.8,0-.42-.37,3.22-5.7,3.87-6.28l-2.66,6.76Z"/>
      <path class="cls-1" d="M39.44,59.97c-.82,1.05-4.04,2.1-2.53,3.85,1.34,1.55,3.32-1.65,3.74-1.2-.05.56.14.92.71.99l-.95,1.19-.82-.95c-1.55,1.01-1.29,2.4.46,2.88.33,0,2.92-2.55,3.27-3.01.25-.33.06-.88.47-.85.07.45,0,.72-.23,1.1-.1.16-2.42,2.64-2.58,2.74-1.61,1.03-3.39-.7-2.52-2.39-1.25.75-1.91-.62-3.04-.95l.32-1.1c0-.21-1.57-1.23-.67-1.56l.49.86,3.87-1.59Z"/>
      <path class="cls-1" d="M71.36,35.32c-.9.03-.83-1.43-1.77-1.18l-3.19,2.87c-1.05-1.91.58-1.23,1.46-1.93-.91-1.84.43-.83.93-.98.33-.1.33-.63.41-.69.38-.28,2.07,1.37,2.15,1.91Z"/>
      <path class="cls-1" d="M69.91,48.86c.16,3.84-.69,8.15-3.33,11.04-.24.26-.25.67-.77.55l1.97-2.98c1.24-2.48,2.22-5.53,1.71-8.31-.09-.47.02-.29.43-.3Z"/>
      <path class="cls-1" d="M11.87,36.05c-.83.05-.74-.73-.74-1.33,0-.48.6-5.19.87-5.19.11,2.17.19,4.38-.12,6.52Z"/>
      <path class="cls-1" d="M.93,64.01c-.16.21-1.08.61-.9-.05l2.65-6.65c-.34,1.35-1.06,5.79-1.75,6.7Z"/>
      <path class="cls-1" d="M66.04,29.05c-.43.68-1.42-.44-2.04-.46-.27,0-.98.33-1.1.21-.09-.09.35-.99-1.09-.97-1.06.02-.95.66-1.91-.51l-3.78-.69c3.49-.13,6.76,1.13,9.91,2.42Z"/>
      <path class="cls-1" d="M75.23,55.62l.97.48-.36.48-3.51-1.93h1.21s.12-1.21.12-1.21l1.09.25-.25,1.45,1.9-.03c.25-.77.82-1.6.03-2.26-.42-.34-3.39-.92-3.98-.87-1.05.09-1.07,1.02-1.21.99-.6-.15.04-1.04.19-1.14.19-.12,1.23-.31,1.49-.3.31.02,3.75.8,3.91.93,1.03.8-.05,3.59-1.59,3.17Z"/>
      <polygon class="cls-1" points="95.79 29.41 95.96 29.23 96.76 34.72 96.27 35.45 95.79 35.2 95.79 29.41"/>
      <path class="cls-1" d="M67.49,63.11l-1.09-.72-.85,1.07,4.35,3.51c-1.13.3-.91-.44-1.44-.85-.99-.79-2.09-1.46-3.05-2.29l-.11-1.93c.1-.13.4.4.6.42.56.04.72-1.04,1.57.79Z"/>
      <path class="cls-1" d="M79.1,52.84c-.13,1.37-.84,3.05-.97,4.47-.39.07-.28-.62-.26-.86.08-.72.38-.98.48-1.46.59-3.08.65-5.91.27-9.03.22-.02.48,1.26.48,1.33,0,1.75.16,3.87,0,5.56Z"/>
      <path class="cls-1" d="M71.12,54.41l-.24.96,1.21.73-1.43-.22-.26,1.19,5.29.94.51-.93-.49,1.69-1.2-.48.48.72c-1.47.03-3.8-2.46-5.1-1.35-1.16,1,.11,2,.02,2.07-.83-.39-.96.08-1.69.24.76-1.3,1.77-2.67,2.01-4.14l.89-1.42Z"/>
      <path class="cls-1" d="M3.17,53.69c.07-1.85.36-4.4,1.69-5.8-.34,1.58-.66,3.48-1.17,4.99-.11.32-.07.74-.51.81Z"/>
      <path class="cls-1" d="M69.67,48.37l-1.16-3.79-2.22-4.19c1.97,1.97,3.46,5.17,3.38,7.97Z"/>
      <path class="cls-1" d="M30.49,51.99c-.35.02-.43-.87-.45-1.11-.16-1.73.29-4.95.77-6.66.07-.25.06-.73.41-.67-.49,2.82-.94,5.56-.73,8.45Z"/>
      <path class="cls-1" d="M55.88.05c.13,1.09-2.84,1.41-3.14.96-.17-1.61,2.13-.77,3.14-.96Z"/>
      <path class="cls-1" d="M45.73,36.29l-.24-1.21c.59.45.65.68,1.45.6-.81.33-1.24,1.16-2.18,1.09v.83s-1.93.86-1.93.86c-.01-.83,1.21-.67,1.57-1.45s-1.7-3.46-2.41-3.87c-.84-.49-1.44-.24-1.94.51-.92,1.39,1.68,2.74,2.29,3.84-1.09-.09-2.54-2.87-3.46-2.63l-.65.81,1.93,1.81-1.45.73.61-1.21c-1.39-1.88-3.28-.24-2.55,1.69l-.98-.13-1.19,1.82c-.02-.45.59-1.69.85-1.94.27-.25.74-.19.81-.27.15-.17-.04-.89.04-1.26.04-.17.39-.16.41-.21.07-.15-.23-.4-.06-.68s.61.04.98-.21c.65-.44,1.82-2.37,2.37-2.85.96-.83,1.96.02,2.21-.81l2.78,4.24.73-.13Z"/>
      <path class="cls-1" d="M32.67,49.82c-.51-.93-1.04-3.07.36-3.39.24-.05.43-.05.36.24-1.02.09-1.29,1.3-.74,2.07.52.73,1.56.49,2.28.62.4.07,1.45.1,1.6.45h-3.87Z"/>
      <path class="cls-1" d="M38.56,67.36c.9.79,2.04,1.33,2.81,2.27-1.09-.44-2.26-1.29-3.15-2.05-.65-.55-1.63-1.53-2.17-2.18-.23-.27-.59-.39-.48-.85.17-.19,2.66,2.51,2.99,2.81Z"/>
      <path class="cls-1" d="M75.47,59.24c-.37.9-1,3.05-2.17,2.41l.15.51c1.68.34-1.05,2.34-1.62,2.27-1.24-.15-2.16-1.2-1.19-2.29-2.52.87-.02,1.68.24,3.14-.1.11-.6-.49-.72-.61-.35-.4-2.04-2.57-2.18-2.89-.05-.1-.06-.4.12-.36.87,1.04,1.49,1.48,2.18,0l.84.84-.65.72c.72,1.6,2.73,1.2,2.8-.67l-2.63-2.1,3.24,1.19.47-1.12,1.13-1.04Z"/>
      <path class="cls-1" d="M52.74,26.63l-8.46,2.17c0-.34.69-.48.98-.59,2.27-.92,5.04-1.61,7.49-1.58Z"/>
      <path class="cls-1" d="M74.99,37.01l-1.44-1.56-.73.11.22-.94c-.48-.04-2.66-2.13-2.39-2.44,1.52,1.49,3.65,2.75,4.35,4.83Z"/>
      <path class="cls-1" d="M71.6,40.4c.03-.05-.07-.26.05-.43.18-.26,1.47-.82,1.61-1.44l-.45-1.17h-.73s-3.14,1.46-3.14,1.46c.92-1.09,2.33-1.88,2.78-3.26.96.74-.65,1.28-.85,1.93l1.53-.68c2.68,1.64.79,2.47-.8,3.58-.38.64-.38.42-.72.84-.36.44-.59,1-1.1,1.33-.55.12-.5-.62-.6-.72-.03-.03-.4.05-.49-.16l-2.65-3.7h1.21c-.52.97.91,2.62,1.94,2.42v1.45c.91.18,1.21-.82,1.81-1.22.24-.16.53-.17.61-.23Z"/>
      <path class="cls-1" d="M63.62,71.81l-4.1,1.33-2.91.35c.1-.47.48-.43.84-.48,2.09-.33,4.11-.75,6.17-1.2Z"/>
      <path class="cls-1" d="M35.57,51.03v1.69s-1.21,0-1.21,0c.29-.55.95-.34.73-1.2l-1.8-.02-.13.74h-.72s0-.96,0-.96l3.15-.24Z"/>
      <path class="cls-1" d="M64.38,30.46c.07.04.48-.22.75-.16.82.17,1.73.67,1.63,1.64-.78-.42-.99-1.37-2.04-1.22-.95.14-.83,1.31-1.58,1.7l.73-2.66c.37-.02.41.64.51.69Z"/>
      <path class="cls-1" d="M51.32,32.38c.56-.36,1.43.33,1.43.9,0,1.11-2.79,1.33-3.64,1.57.37-.82,1.42-.65,2.13-.89,1.39-.47,1.17-1.49-.2-1.29v-.72s.27.43.27.43Z"/>
      <path class="cls-1" d="M6.76,45.44l-.69.03c.75-.73.22-1.45.31-2.02.05-.36,1.34-1.94,1.5-2.57.55.41.25.38.06.78-.2.43-1.1,1.79-1.11,2.03-.03.36.69.89-.07,1.74Z"/>
      <path class="cls-1" d="M64.83,35.32l.7-1.33c-.12-.58-1.37-.43-1.19-.96.3-.89.55.11.77.2.29.11.59.21.91.15-.06-.91.52-.94,1.22-1.2l-2.41,3.14Z"/>
      <polygon class="cls-1" points="104.01 59.24 103.29 59.48 103.28 59.12 104.01 53.93 104.01 59.24"/>
      <path class="cls-1" d="M53.71,28.32v5.07c-.62-.31-.5-2.06-.49-2.76,0-.62-.06-1.38,0-1.95.06-.44-.08-.39.48-.36Z"/>
      <path class="cls-1" d="M40.04,57.7c.29.52.16.64.25.8.21.37,1.53,1.73,1.32,1.95-.57-.42-.88-.87-1.69-.73l.46-.6c-.43-.68-.74-.56-1.43-.36l.74-.62c.04-.75-.9-1.28-.94-1.36-.2-.41.55-2.43-1.49-2.13l.97-.24-.36-2.66c.08-.02.51.97.55,1.14.45,2.06.59,2.91,1.62,4.8Z"/>
      <path class="cls-1" d="M41.62,30.25c-.34.63-1.43,1.04-1.86,1.5-.05.06-.25,1.71-.68.43l-1.09.72c.92-1.05,2.32-2.2,3.63-2.65Z"/>
      <path class="cls-1" d="M34.84,41.36c-1.46.62-1.84,2.62.24,2.67-.14.62-1.32.01-1.58-.24-.66-.62.22-2.27.86-2.79l.48.36Z"/>
      <polygon class="cls-1" points="55.61 28.36 55.16 32.18 54.92 28.08 55.61 28.36"/>
      <path class="cls-1" d="M39.2,40.4l-.73-.12.73,1.08c-1.29-.26-.87-1.05-1.08-1.44-.21-.38-1.05-.52-1.09-1.21l2.18,1.69Z"/>
      <path class="cls-1" d="M37.99,42.33l-1.42-.04-1.48-1.65c.12-.11,2.72,1.24,2.9,1.69Z"/>
      <path class="cls-1" d="M38.23,50.79l-1.21-.97c.17-.45.61-.31.92-.9.28-.53.07-.97.04-1.51.6.18.59,1.05.44,1.52-.25.78-.89.36-.2,1.86Z"/>
      <path class="cls-1" d="M52.74,49.58c.01-.6-.03-1.21,0-1.81.02-.37-.23-.96.36-.84.57.54.73,2.68-.36,2.65Z"/>
    </g>
  </g>
</svg>