<?xml version="1.0" encoding="UTF-8"?>
<svg id="Layer_2" data-name="Layer 2" xmlns="http://www.w3.org/2000/svg" viewBox="0 0 76.05 72.64">
  <defs>
    <style>
      .cls-1 {
        fill: #fff;
      }
    </style>
  </defs>
  <g id="Layer_2-2" data-name="Layer 2">
    <g>
      <path class="cls-1" d="M76.05,21.09v51.54c-.3.04-.52-.02-.8-.11-.2-.07-1.78-1-1.85-1.09-.11-.17-.13-.35-.16-.54-.15-1.25.27-3.72-.03-4.74-.04-.15-2.01-2.16-2.16-2.19-.18-.04-.23.11-.33.2-.21.2-1.76,1.84-1.83,1.95-.34.59.19,1.81-.83,1.76-1.23-4.24-2.89-8.32-4.21-12.53v-17.23c1.7-3.64,2.49-8.28,4.1-11.88.13-.28.42-.85.74-.38.19.28-.02,1.26.16,1.79.12.35,1.81,1.52,2.07,1.99.32-.38,2.18-1.97,2.25-2.22.22-.8-.11-4.87.07-5.05.03-.03.37,0,.54-.08.68-.34,1.46-1.18,2.25-1.18ZM75.35,24.17v-2.24c-.24.25-1.28.6-1.28.91,0,.49.84,1.13,1.28,1.33ZM73.95,26.13c.32.02,1.42-1.14,1.39-1.31l-1.39-1.35v2.66ZM75.35,27.53v-1.96c-1.26.77-1.51,1.27,0,1.96ZM73.95,27.11v3.22l1.22-1.02c.32-.48.21-.85-.1-1.29-.1-.14-.99-1.06-1.12-.91ZM68.76,28.37v2.87c0,.23.22.42.48.35.15-.04,1.35-1.48,1.36-1.75,0-.12-1.49-1.67-1.84-1.47ZM67.92,64.92V29.07l-.5.98c0,11.4-.34,22.92.18,34.28l.32.59ZM75.35,29.77c-.29-.04-1.14.85-1.11,1.03.02.1.86.99,1.11.93v-1.96ZM71,34.95c.22.04.32-.02.5-.13.12-.08,1.55-1.51,1.61-1.61.22-.38.21-.9,0-1.28-.09-.16-1.47-1.51-1.69-1.67-.14-.11-.18-.27-.42-.21v4.9ZM73.95,34.25c.44-.11,1.42-1.05,1.42-1.47s-.97-1.36-1.42-1.47v2.94ZM66.94,61.98v-29.97c-.41.3-.66,1.11-.71,1.6v26.49c.2.57.29,1.46.71,1.88ZM75.35,33.83c-.17-.19-.96.79-1.12.91.26.17.69.82.91.91.29.12.2-.19.21-.35.04-.49-.02-.99,0-1.47ZM72.95,36.9c.34-.21.04-1.38.03-1.72,0-.36.38-.87-.08-1.2-.63.17-.7.67-.95.94s-.72.14-.67.67c.02.22.41.42.57.6.08.09.06.29.19.42.1.1.74.41.92.3ZM65.82,35.09c-.3-.04-.23-.01-.31.18-.17.37-.23.88-.25,1.29-.46,6.73.36,13.96,0,20.74l.5,1.75.07-23.95ZM73.95,35.23v2.94c.44-.11,1.42-1.06,1.42-1.47,0-.24-.76-1.08-1-1.26-.14-.11-.18-.27-.42-.21ZM71,35.79c-.49-.12-.46.29-.76.57-.43.38-1.3.94-1.44,1.5-.23.87.15,1.07.66,1.65.37.42,1,1.17,1.55,1.19v-4.9ZM64.84,55.96v-18.49l-.35.56c.25,5.44-.57,11.65-.07,17.02.03.34.05.75.43.9ZM75.35,37.75c-.25-.06-1.09.83-1.11.93-.04.26.83.96,1.11,1.03v-1.96ZM73.95,42.38c.53-.19,1.45-1.03,1.42-1.61-.03-.45-.95-1.34-1.42-1.47v3.08ZM69.29,39.76c-.13-.07-.25-.04-.39-.04.12,1.04-.38,2.07,0,3.08.21.06.27,0,.41-.09.07-.04,1.08-1.06,1.12-1.13.16-.3.19-.37.01-.67-.04-.07-1.09-1.11-1.16-1.14ZM71,41.54v4.69s.14.41.28.35c.51-.92,2.59-1.84,1.83-3.16-.1-.17-1.47-1.5-1.69-1.67-.14-.11-.18-.27-.42-.21ZM75.35,41.96c-.13-.15-.92.63-.96.8-.13.5.91,1.33.96.94v-1.74ZM73.95,43.36v2.94c.37-.05,1.37-1.05,1.4-1.34.07-.58-.34-.58-.56-.83-.24-.28-.4-.79-.84-.77ZM73.1,45.6c-.84-.1-1.12.91-1.83,1.2-.04.43,1.43,1.38,1.55,1.88.2-.05.28-.76.28-.92,0-.27-.14-.51-.13-.71.01-.46.23-.95.13-1.46ZM75.35,45.88c-.29-.04-1.14.85-1.11,1.03.02.1.86.99,1.11.93v-1.96ZM70.86,52.04v-4.9c-.55.57-2.12,1.68-2.12,2.45s1.57,1.88,2.12,2.45ZM73.95,50.5c.53-.19,1.45-1.03,1.42-1.61-.03-.45-.95-1.34-1.42-1.47v3.08ZM75.35,50.08c-1.27.49-1.25,1.49,0,1.96v-1.96ZM69.55,51.26c-.24-.17-.44-.4-.78-.34v3.08c.37.37,2.17-1.56,1.81-1.95-.03-.03-.24.02-.35-.06-.19-.13-.46-.58-.67-.73ZM73.95,51.48v2.8c.45-.11,1.64-1.21,1.37-1.66l-1.37-1.14ZM71.7,57.5c.62-1.12,2.03-1.45,1.41-2.88-.68-.41-1.13-1.16-1.68-1.67-.14-.13-.2-.26-.43-.21.15,1.64-.21,3.35.13,4.96l.57-.06c-.14.33-.33.19-.56.35l1.75,1.89c.38-.89.16-2.15.07-3.08l-1.26.7ZM75.35,55.82v-2.1l-1.12,1.05,1.12,1.05ZM73.95,58.2c.44-.11,1.42-1.05,1.42-1.47s-.97-1.36-1.42-1.47v2.94ZM75.35,57.64c-1.43.66-1.44,1.56,0,2.24v-2.24ZM69.32,62.4c-.21-.05-.45-.23-.54.09-.21.74.11,2.17-.02,2.99,1,.04.79-1.38,1.68-1.4-.27-.68-.71-.92-1.12-1.68.76.19.94.7,1.54,1.12v-5.18c-.37.39-1.96,1.67-2.07,2.06-.23.76.19,1.38.53,2ZM73.95,62.4c.52-.16,1.42-1.06,1.41-1.61,0-.42-.96-1.35-1.41-1.47v3.08ZM75.35,61.84c-1.38.57-1.43,1.64,0,2.1v-2.1ZM73.95,63.52v2.8c.42-.09,1.44-1.09,1.41-1.46,0-.1-.87-1.14-.98-1.24-.16-.14-.23-.1-.43-.09ZM75.35,65.9c-.29-.04-1.14.85-1.11,1.03.02.1.86.99,1.11.93v-1.96ZM73.95,70.1c.34,0,1.41-1.11,1.41-1.33s-1.07-1.32-1.41-1.33v2.66ZM75.35,69.68c-.3.05-1.37.98-1.4,1.19-.05.27.07.18.18.25.33.2.84.43,1.22.53v-1.96Z"/>
      <path class="cls-1" d="M5.32,64.08c-.05.07-.46.22-.64.41-.61.65-1.2,1.32-1.82,1.96-.24,1.37.1,2.94-.06,4.28-.13,1.07-1.78,1.97-2.8,1.89V20.95c.56-.16.51.2.73.33.67.39,1.33.81,2.05,1.1l.05,5.2c.72.72,1.47,1.76,2.35,2.2.46.23.15.17.38.42.46.51,1.05.97,1.58,1.4-.19-.44.25-2.97.14-3.08-.09-.1-.82.22-.42-.28.13-.11.38-.46.42-.63.09-.46-.29-2.08.47-1.87.42.12,1.16,2.34,1.34,2.86,1.08,3.02,1.96,6.12,3.05,9.13l.04,18.31c-1.08,3.05-2.01,6.17-3.13,9.2-.17.47-.86,2.64-1.28,2.64-.74,0-.37-1.25-.56-1.69-.11-.25-2.12-1.9-1.89-2.1.37-.33,1.35,1.47,1.68,1.12l.14-2.8c-.18,0-.34-.02-.52.04-.08.03-.99,1-1.16,1.18-.11.12-.09.4-.14.46ZM.7,24.03c.32,0,1.27-.97,1.27-1.19,0-.3-.94-.78-1.27-.77v1.96ZM2.1,26.41v-2.94c-1.76,1.22-1.73,1.7,0,2.94ZM.7,27.81c.29.04,1.14-.85,1.11-1.03-.02-.1-.86-.99-1.11-.93v1.96ZM2.1,27.25c-.53.19-1.45,1.03-1.42,1.61.03.45.95,1.34,1.42,1.47v-3.08ZM7.98,28.37v37.25c.43.07.21-.13.29-.33.21-.54.42-1.1.41-1.69-.14-11.46.25-22.99-.19-34.41l-.51-.82ZM.7,32.01c.39-.05,1.16-.82,1.13-1.18-.03-.26-.8-1.05-1.13-1.06v2.24ZM5.04,30.19v5.18l1.96-1.79c.33-.41.42-1.04.15-1.51-.09-.16-1.47-1.51-1.69-1.67-.14-.11-.18-.27-.42-.21ZM9.1,31.17v31.65c.2.03.19-.24.24-.39.18-.57.33-1.19.47-1.77v-27.46c-.1-.55-.29-1.1-.47-1.63-.05-.15-.03-.42-.24-.39ZM2.1,31.45l-1.27,1.04c-.52.82.75,1.51,1.27,2.04v-3.08ZM3.22,33.83c-.25-.22-.38.31-.4.5-.12,1.02.19,2.01-.01,3,.18.19,1.78-1.38,1.79-1.63.02-.53-.87-1.18-1.23-1.52-.12-.11-.12-.33-.14-.35ZM.7,35.93c.29.04,1.14-.85,1.11-1.03-.02-.1-.86-.99-1.11-.93v1.96ZM10.08,34.25v25.49c.38-.44.65-1.32.71-1.89.63-6.89-.49-14.73,0-21.72.02-.55-.22-1.06-.41-1.55-.08-.2.13-.41-.29-.33ZM2.1,35.37l-1.27,1.04c-.49.68.33,1.44.85,1.83.14.11.18.27.42.21v-3.08ZM5.04,36.07c-.24-.06-.28.1-.42.21-.26.2-1.65,1.54-1.75,1.75-.14.32-.14.76.06,1.06.63.41,1.14,1.26,1.69,1.67.14.11.18.27.42.21v-4.9ZM11.2,37.05v19.89l.43-1.32c-.35-5.64.45-11.8,0-17.38-.03-.33-.11-1-.43-1.18ZM.7,39.85c1.37-.6,1.08-1.23,0-1.96v1.96ZM2.1,39.57c-.28,0-1.41,1.17-1.4,1.33.3.49.86,1.15,1.4,1.33v-2.66ZM7.14,39.71c-.46-.23-1.64,1.15-1.63,1.47.01.26,1.32,1.47,1.63,1.61v-3.08ZM5.04,41.54v5.32l2.11-1.88c.63-1.47-.49-2.09-1.42-2.94-.27-.24-.19-.62-.69-.5ZM.7,43.92c1.08-.73,1.37-1.36,0-1.96v1.96ZM2.1,43.36c-.44.11-1.42,1.05-1.42,1.47,0,.5,1.03,1.26,1.42,1.61v-3.08ZM3.48,45.34c-.08-.05-.44-.05-.52,0-.34.21.15,2.67-.02,3.2.81-.12.42-.38.59-.67.04-.07.41-.19.56-.32,1.05-.94.15-1.09-.45-1.78-.09-.11-.09-.39-.16-.44ZM.7,47.84c.29.04,1.14-.85,1.11-1.03-.02-.1-.86-.99-1.11-.93v1.96ZM2.1,47.28l-1.24,1.06c-.5.68.29,1.4.82,1.81.14.11.18.27.42.21v-3.08ZM5.04,47.42c-.61-.09-.84.63-1.17.93-.56.52-1.56.87-.94,1.95.1.16,1.47,1.5,1.69,1.67.14.11.18.27.42.21v-4.76ZM.7,49.8v2.24c.22.03.47-.28.62-.43.09-.09.52-.53.51-.62-.01-.29-.98-1.37-1.13-1.19ZM5.6,53.3c.36-.46.72.41.91.56l.63.42v-3.08c-.19,0-.38-.02-.56.07-.07.04-1.08,1.08-1.12,1.16-.09.19-.07.56,0,.74-.18-.11-.39-.35-.42.07-.1,1.58.07,3.25,0,4.83.24.06.28-.1.42-.21.31-.24,1.77-1.7,1.82-1.97.27-1.37-1.06-1.63-1.68-2.59ZM2.1,51.48l-1.27,1.04c-.53.92.7,1.52,1.27,2.04v-3.08ZM.7,55.96c.29.04,1.14-.85,1.11-1.03-.02-.1-.86-.99-1.11-.93v1.96ZM2.1,58.48v-3.08c-.56.47-1.77,1.21-1.27,2.04l1.27,1.04ZM2.8,56.73c-.19.77.14,2.29,0,3.15.91.16.59-.17.83-.46.09-.1.5-.51.62-.62.07-.07.28,0,.38-.13.43-.53-.32-.66-.4-.78-.09-.16.01-.49-.03-.53-.05-.05-.66.05-.7,0-.05-.05.08-.44-.02-.54-.04-.04-.14,0-.19-.02-.21-.13-.39-.45-.49-.07ZM.7,59.88c1.37-.6,1.08-1.23,0-1.96v1.96ZM5.04,63.66v-4.69s-.2-.28-.28-.14c-.56.89-2.74,1.9-1.74,3.14.16.2,1.36,1.3,1.6,1.48.14.11.18.27.42.21ZM2.1,62.4v-2.8c-.35.24-1.43,1.05-1.39,1.47.02.27,1.26,1.48,1.39,1.33ZM.7,64.08c1.27-.49,1.25-1.49,0-1.96v1.96ZM2.1,63.66c-.44.11-1.42,1.05-1.42,1.47s.97,1.36,1.42,1.47v-2.94ZM.7,68c.13.15.98-.66.98-.91,0-.17-.64-.85-.78-.91-.29-.12-.2.19-.21.35-.04.49.02.99,0,1.47ZM2.1,67.58c-.32-.02-1.42,1.14-1.39,1.31.42.39.82,1.06,1.39,1.21v-2.52ZM.7,69.82v1.96c.36-.15,1.41-.47,1.4-.91,0-.09-1.24-.86-1.4-1.05Z"/>
      <path class="cls-1" d="M18.42,40.27c.38.12,2.29,6.72,2.66,7.56.29.06.19-.12.27-.28.61-1.28.94-2.99,1.38-4.37.3-.96.86-1.88.8-2.91h3.64v11.13c0,.14,1.1.86.98,1.19h-4.48c-.11-.35,1.12-1.18,1.12-1.33v-8.05l-.55.92-2.68,8.45c-.43-.03-1.13.19-1.37-.22l-3.38-9.85v10.08h-1.82v-12.32c.86.17,2.7-.22,3.43,0Z"/>
      <path class="cls-1" d="M18.56,27.25c-.25-.08-.22-.54-.21-.76.07-1.42,1.54-5.57,2.32-6.79,6.24-9.69,17.76-13.03,27.92-6.94,4.69,2.81,8.12,7.93,9.1,13.3.06.33-.02.7,0,1.04-.36.03-.23.02-.27-.21-.15-.9-.5-2.44-.78-3.29-.07-.22-.54-1.17-.69-1.27-.66-.48-3.14.42-4,.29-.06-.24.1-.28.21-.42.7-.91,1.86-1.59,2.45-2.59.01-.44-2.13-3.04-2.58-3.3-.18-.11-.28-.19-.5-.08-.38.24-3.19,2.08-3.36,1.91l1.82-3.91c-.57-.31-1.26-.6-1.8-.94-.4-.25-1.03-1.16-1.6-1.02-.14.04-.99.91-1.15,1.1-.19.22-1.48,2.24-1.89,1.82.04-.57-.06-1.18,0-1.74.03-.27.23-.5.28-.84.04-.28.05-1.11-.08-1.33-.27-.5-2.84-.81-3.48-.99l-1.56,4.07c-.56-1.32-.84-2.81-1.27-4.21-1.24.24-2.48.08-3.68.58.07.44-.12.93-.13,1.32,0,.45.38,2.9-.1,3.01-.3.07-1.97-3.13-2.39-3.49-.8.53-1.78.51-2.57,1.05-.25.17-.41.46-.64.63-.16.11-.45.12-.48.15-.2.22,1.1,3.51,1.25,4.05-.32.31-2.97-1.98-3.46-2.22-.27-.04-2.83,2.62-2.85,3.26.54.35.82,1.1,1.21,1.61.12.16.39.23.55.43.13.17.75,1.14.63,1.26-.51-.08-1.11-.26-1.6-.43-.48-.16-1.8-.83-2.18-.63-.48.26-1,2.22-1.19,2.74-.14.41-.74.74-.35,1.19.18.2,2.42,1.54,2.84,1.78.51.3.95.07.8.81h-4.55Z"/>
      <path class="cls-1" d="M30.11,41.82l.13-.5,3.65-3.63-4.21-4.27c2.64-.03,5.28.04,7.92,0,3.03-.04,6.1-.11,9.16-.08.18,0,.26-.12.42.15l-4.2,4.2,3.92,3.78c.12.22-.59.35-.63.35h-16.18ZM37.53,33.69c-.49-.28-.9,0-1.32-.01-.22,0-.45-.13-.71-.13-.63-.02-4.5-.05-4.75.14-.45.33.66.82.9,1.06.28.27,2.45,2.74,2.65,2.6,0-.17.09-.31.2-.43.84-.85,2.08-1.85,2.81-2.79.11-.14.27-.18.21-.42ZM42.43,37.47l-3.56-3.65c-.12-.11-.26-.16-.42-.14-.43.04-3.32,3.27-3.86,3.79h7.84ZM39.49,41.4h6.58c-.04-.62-.93-.91-1.26-1.23-.39-.38-1.54-2.14-2.03-2.13-.57,0-.64.63-.81.8-.42.41-1.01.77-1.44,1.22-.14.15-1.16,1.24-1.04,1.34Z"/>
      <path class="cls-1" d="M26.82,23.75c.35-.1.39-.86.5-1.16.04-.1.26-.1.27-.2.13-.67-2.06-3.21-2.1-4.11.23-.22,3.65,1.95,3.99,1.92.14-.01,1.14-1.07,1.18-1.29.15-.75-.2-1.03-.27-1.55-.04-.31-.23-2.22-.15-2.3l.52.18,2.29,2.41c.62.29,1.27-.45,1.95-.36-.14-.51.18-.82.27-1.2.22-.96.35-1.96.58-2.93.04-.17.03-.42.28-.21.06.05.58,1.3.66,1.51.17.43.45,1.85.67,2.13.17.23,1.7.41,2,.1.51-1.02,1-2.44,1.6-3.38.12-.2.27-.42.54-.37-.08,1.54.76,3.04.28,4.62.75-.08,1.24.78,1.93.47.82-.9,1.69-1.77,2.56-2.63.13-.13.17-.28.42-.22.09.1-.11,1.61-.15,1.88-.04.22-.23.37-.26.58-.04.27-.27,1.98-.25,2.08.06.28.98,1.11,1.4,1.04,1.14-.19,2.64-1.38,3.89-1.38.16.14-2.26,3.03-2.35,3.46-.09.41.77,2.14,1.02,2.14h3.99c-.04.55-.78.74-1.16.99-.47.31-1.09.81-1.64,1.05-1.77.81-1.38-.61-1.75-1.77-.48-1.53-2.36-4.17-3.65-5.17-3.91-3.02-8.82-3.89-13.34-1.57-1.02.52-2.52,1.83-3.33,2.55-.71.63-2.22,3.13-2.53,4.05-.1.29-.33,1.84-.5,1.95-.11.07-.38,0-.54.02.35-.95-1.08-1.42-1.63-1.87-.21-.17-.42-.51-.63-.69-.23-.21-.87-.27-.82-.79,1.1-.2,3.33.27,4.27,0Z"/>
      <path class="cls-1" d="M58.82,52.6l-2.1-4.48c-.12-.09-2.08,2-2.14,2.14-.2.5.27,2.03-.09,2.28-.19.13-1.78.12-1.91-.07v-12.06c.14-.2,1.9-.27,2.02.1l-.12,7.05c.24.06.28-.1.42-.21,1.35-1.03,2.49-2.77,3.71-3.99h2.17c.16.76-.57.85-.92,1.25-.21.24-.29.55-.48.78-.26.3-1.1.95-1.13,1.27l2.81,5.94h-2.24Z"/>
      <path class="cls-1" d="M50.42,52.6c-1.33-.05-2.54.47-2.24-1.4l-1.43,1.29c-.79.09-1.32.5-2.13.38-1.36-.21-3-1.65-2.73-3.13.06-.32.4-.75.37-1.17.32-.15.48-.71.65-.83.42-.33,1.31-.52,1.81-.64.15-.04.28-.2.47-.23.66-.12,2.17-.01,2.63-.17.18-.06.2-.16.23-.33.35-1.83-2.7-2.06-3.65-.98-.19.22-.26.67-.51.75-.29.1-1.46.11-1.57-.21-.33-.99,1.3-2.15,2.12-2.46.78-.29,1.85-.48,2.68-.38,1.56.18,2.85.92,3.02,2.58.23,2.28-.35,4.7.28,6.93ZM44.43,50.74c.45.46,2.08.44,2.62.1.63-.39,1.36-2.11.93-2.73-.35-.51-2.97.17-3.4.61-.43.44-.62,1.54-.14,2.02Z"/>
      <path class="cls-1" d="M40.47,45.6c-.56-.1-1.19.28-1.73.12-.37-.12-.48-.91-1.56-.97-.52-.03-1.76.2-1.87.8-.03.15.27.72.4.81.35.23,1.87.65,2.34.75.43.09.88-.04,1.31.09.22.07,1.12.92,1.26,1.12,1.08,1.66-.02,3.69-1.78,4.25-1.33.42-2.61.34-3.92-.08-.72-.23-1.96-1.11-1.72-1.99.67.09,1.01-.46,1.72-.25.25.08.65.58.98.7.45.17,1.75.19,2.21.05.49-.15.93-.84.66-1.31-.17-.29-2.14-.5-2.64-.65-.32-.1-1.45-.62-1.72-.8-.43-.29-.94-.98-1.04-1.48-.3-1.42.7-2.91,2.03-3.37.15-.05,1.06-.28,1.24-.3,1.36-.2,3.92.85,3.84,2.51Z"/>
      <path class="cls-1" d="M50.5,9.95c1.05.67,2.01,1.34,2.94,2.17,4.35,3.91,6.9,8.34,7.78,14.07.03.18.59.94.06,1.06-.29.06-.54-.99-.59-1.23-.31-1.38-.46-2.76-.95-4.1-2.08-5.79-7.02-10.69-12.58-13.19-13.56-6.08-29.37,2.8-31.62,17.17-.06.39-.42.59-.13,1.2-.32.08-.63.3-.83-.08.16-1.07.48-2.1.77-3.12C19.58,8.73,36.7,1.2,50.5,9.95Z"/>
      <path class="cls-1" d="M57.19,18.38c1.64,2.71,2.23,4.83,2.78,7.93.04.2.25.41.24.6,0,.41-.46.56-.56-.14-1.39-9.7-9.09-17.33-18.84-18.69-5.06-.71-10.01.67-14.48,3.16-.46.26-2.74,2.19-3.23,2.65-2.68,2.5-5.11,6.62-6.12,10.12-.24.82-.27,1.96-.55,2.81-.08.23-.15.49-.47.44.22-1.04.23-2.24.46-3.25,1.87-8.27,10.84-16.03,19.35-16.5,9.06-.51,16.73,3.14,21.42,10.88Z"/>
      <path class="cls-1" d="M48.26,11.06c4.32,2.47,8.16,6.74,9.85,11.51.49,1.38.66,3.1.99,4.54-.17-.02-.32.1-.42-.09-.18-.32-.2-1.33-.32-1.76-.48-1.82-1.39-4.44-2.37-6.03-4.93-8.02-14.62-12.18-23.9-9.39-4.01,1.2-5.92,2.89-8.92,5.65-2.54,2.34-4.51,6.2-5.36,9.63-.17.69.09,2.12-.87,2.14.42-1.89.71-3.81,1.47-5.6,4.91-11.51,18.69-16.97,29.85-10.59Z"/>
      <path class="cls-1" d="M31.79,43.36v9.24h-2.03c-.15,0-.2-.34-.22-.48-.2-1.69-.2-6.59,0-8.28.02-.14.06-.48.22-.48h2.03Z"/>
      <path class="cls-1" d="M45.9,21.4c.55.55,1.83,2.62,2.16,3.37.17.38,1.12,2.34.46,2.48-.47.1-.31-.79-.38-1.02-.47-1.57-2.14-4.18-3.49-5.2-.9-.68-2.66-1.51-3.76-1.84-1.75-.52-2.74-.7-4.54-.33-2.57.53-5.07,1.92-6.64,4-.35.46-1.35,2.03-1.52,2.54-.12.36-.22,1.45-.39,1.71-.15.24-.42.12-.48-.09-.07-.23.09-.67.18-.91.66-1.95,2.19-4.39,3.82-5.56,3.64-2.6,7.94-3.18,11.94-.91.45.26,2.35,1.48,2.64,1.77Z"/>
      <path class="cls-1" d="M45.58,23.27c.53.68,1.79,2.84,1.76,3.63,0,.21.09.41-.21.35-.3-.15-.93-2.06-1.21-2.57-2.43-4.41-8.34-5.92-12.61-3.3-1.8,1.1-3.01,3.03-3.96,4.9-.11.22-.04.53-.15.69s-.44.19-.49.14c-.27-.28.96-2.52,1.21-2.92,3.45-5.71,11.56-6.23,15.66-.92Z"/>
      <path class="cls-1" d="M45.94,27.11c-.05.05-.3.02-.43-.09-.2-.18-.62-1.57-.83-1.95-.74-1.37-3.62-3.45-5.16-3.66-2.92-.39-4.81.3-6.96,2.2-1.12.99-1.27,2.05-1.94,3.24-.08.14-.31.57-.51.33-.06-.62.36-1.02.53-1.43.26-.64.26-.99.74-1.61,1.98-2.55,5.3-3.97,8.59-3.18.61.15,2.84,1.21,3.3,1.61.22.2.24.49.43.69.21.23.54.26.7.42.45.45,1.19,1.89,1.4,2.52.05.17.22.84.15.9Z"/>
      <path class="cls-1" d="M26.47,4.42c-.01-.35.48-1.29.12-1.52-.19-.12-.61.17-.54-.23l1.68-.63c.13.12-.74,1-.5,1.53.21.47,1.56,1.09,2,1.37.11.07.38.09.18.31-.06.07-1.62.63-1.68.56-.1-.56.38-.8-.21-.98-.15.11.03.34-.21.28.08-.25-.61-.66-.7-.56-.03.39.02.87.34,1.13.13.1.76.14.49.41-.07.07-1.56.54-1.82.7-.1-.3.27-.53.25-.75-.04-.56-1.1-2.13-1.21-2.72-.06-.31.1-.58.01-.84-.24-.66-1.11-.55-1.16-.6-.24-.24.9-1.19,1.17-1.11.37.11,1.21,3.28,1.77,3.63Z"/>
      <path class="cls-1" d="M53.64,7.08c0-.22.05-.37.14-.56-.25-.2-.93.5-1.02.74-.11.28.24.71-.17.66-.29-.38-.94-.59-1.25-.83-.13-.1-.11-.4-.09-.43.04-.04.41.1.58.06.78-.15.88-1.09,1.24-1.68.53-.85,1.43-1.67,1.26-2.73.05-.05,1.19.31,1.36.39.11.06.25-.02.16.23-.14.39-2.44,3.09-2.23,3.31.78-.11,1.43-.2,1.19-1.12.36-.04,1.47.74,1.47,1.05-.38.22-1.19-.12-1.47.21-.32.37-.32,2.26-.21,2.8-.06.06-1.48-.78-1.54-.84-.2-.23.62-.51.56-.84,0,.03.15.61.28.56.03-.4.13-.78.15-1.19,0-.11.04-.51-.15-.28l-.28.49Z"/>
      <path class="cls-1" d="M17.09,14.51c-.19.35-.82,2.08-.98,2.24-.45.44-.25-1.06-.28-1.1-.19-.24-1.82-.1-2.23-.29.35.54,1.27.18,1.82.28,0,.2-.64.22-.79.23-.18.01-.5-.14-.59-.08-.07.05-.71,1.53-.72,1.62-.02.31.53.93.8,1.01.55.17.7-.14,1.16-.25.06.06-.64,1.62-.7,1.68-.08.08-.35.03-.29-.2-.59-1.55-2.14-2.56-3.14-3.87-.31-.31-.56.2-.91.15.03-.2.09-1.35.14-1.4.07-.07,1.61-.01,1.89,0,1.1.05,2.75.45,3.77.37.39-.03.65-.43,1.07-.38ZM13.58,15.77l-1.96-.14c-.17.15.84,1.04.98,1.19.16.16.14.63.48.2.06-.07.55-1.21.5-1.25Z"/>
      <path class="cls-1" d="M30.25,1.62c-1.58-.29.6-.83.85-.64.27.21.27,2.82.93,3,1.38.38.98-1.81.67-2.5-.14-.31-.72-.56-.49-.84.04-.05,1.27-.22,1.39-.13.13.11.47,2.82.58,2.92.07.07.5-.04.56,0,.02.01.01.4,0,.42-.04.05-1.25.44-1.32.43-.08,0-.08-.29-.15-.3-.39-.06-.62.48-1.13.56-1.77.28-1.66-1.39-1.6-2.65,0-.06.15-.17.14-.28-.15-.11-.4,0-.42,0Z"/>
      <path class="cls-1" d="M64.24,17.69c-.33.41-1.75.59-2.25.9-.36.23-.08.7-.57.52-.56-.21-.28-.87-.4-1.29-.11-.38-.77-.51-.65-1.25.35-2.12,2.2.33,2.6.43.47.13,1.43-.34.89-.9-.29-.2-1,.46-1.21-.34-.14-.54.21-.65.68-.53.83.21,1.47,1.76.9,2.45ZM62.59,17.05c-.43-.3-1.47-.6-1.39.18s1.48.64,1.39-.18Z"/>
      <path class="cls-1" d="M60.64,9.88l.98,1.82c-.99-.52-1.3.66-1.68,1.4.1.09,1.55-.25,1.73-.4.23-.19-.13-.76.44-.58.07.02.64,1.1.49,1.26-.32,0-.55-.23-.88-.23-1.19,0-4.54,1.43-5.38.75-.16-.13-.44-.78-.31-.93,1-.54.73.61,1.07.7.28.07,1.03,0,1.27-.19.16-.13,1.31-2.08,1.54-2.44.08-.13.26-.17.31-.28.15-.32-.01-.97.43-.87Z"/>
      <path class="cls-1" d="M20.51,7.87c.21.22.9,1.05,1.05,1.1.21.08.63-.27.56.13-.18.95-.85.59-1.17.93-.37.39-.36,1.37-1.37,1.09-1.22-.34-.06-2.07-.03-2.62.04-.61-.8-1.22-1.13-.57-.18.35.36.44.36.77,0,.18-.38.6-.52.62-.84.14-.36-2.04.87-2.22.92-.14.9.27,1.38.78ZM19.75,8.76c0,.57-.18,1.4.62,1.4.55-.57.12-1.35-.62-1.4Z"/>
      <path class="cls-1" d="M18.91,12.13c.17.19-.79,1.27-.98,1.47-.13.14-.18.27-.42.21.14-.49.22-.54-.14-.92-.24-.26-2.9-2.43-3.09-2.52-.33-.15-.51.02-.83.07-.08-.09.36-1.49.42-1.54s.32,0,.42.07l3.73,3.13c.3.24.56.09.89.02Z"/>
      <path class="cls-1" d="M47.9,3.02c-.73.2-3-1.38-2.46.29.26.81,1.3,1.13,2.04.83-.36,1.42-2.9.77-3.06-.38,0-.06.02-1.09.03-1.17.33-2.01,3.87-2.03,3.44.43ZM47.06,2.46c.16-1.1-.8-1.33-1.4-.49,0,.22,1.33.57,1.4.49Z"/>
      <path class="cls-1" d="M38.35.24c.1.16-.03.72.02.96-.19.23-.91-1.03-1.59-.83-1.16.35,1.55,1.39,1.73,1.59.63.71.07,1.75-.78,1.89-1.16.19-2.03-.05-1.74-1.39.61.08.56.8,1.22.95.33.08.85.12.88-.32-.15-.69-3.12-.91-2.02-2.59.39-.59,2.04-.65,2.28-.27Z"/>
      <path class="cls-1" d="M18.35,65.06c1.31-.34,1.34.97,1.89,1.82l.07-1.82h.7v2.87c0,.23-.74.32-.92.08l-1.04-1.83v1.96s-.7.22-.7-.07v-3.01Z"/>
      <path class="cls-1" d="M50.56,65.06c1.23-.08,2.65-.17,2.66,1.47.01,1.6-1.38,1.81-2.66,1.61v-3.08ZM51.26,65.62v1.96c1.61.3,1.58-2.27,0-1.96Z"/>
      <path class="cls-1" d="M61.06,68.14v-3.08c1.27-.07,2.61-.18,2.67,1.48.05,1.63-1.39,1.79-2.67,1.61ZM61.85,65.64c-.16.05-.21.13-.2.3.02.32.1,1.72.33,1.78,1.2.29,1.5-2.58-.13-2.07Z"/>
      <path class="cls-1" d="M40.89,2.18c-.05-.39.03-.86-.02-1.02-.07-.24-.54-.4-.4-.8.53.11,1.7-.59,1.54.28.53-.48,1.51-.45,1.23.46-.25.83-1.14-.14-1.37.1l-.28,2.38c.31-.14.84.13.56.42-.08.08-1.93-.26-2.24-.28l.7-.56s.19.14.14.28c.57-.26.19-.92.14-1.26Z"/>
      <path class="cls-1" d="M37.25,65.27c.1-.34,1.82-.28,2.07-.04.6.61-.25,1.41-.23,1.55.04.26.61.88.54,1.29-1.01.54-.77-.96-1.33-1.19-.44-.18-.22,1.04-.27,1.12-.18.28-.78.11-.78-.07,0-.56-.11-2.29,0-2.66ZM38.17,65.48c-.32.1-.35.99.13.98.73,0,.51-1.18-.13-.98Z"/>
      <path class="cls-1" d="M13.58,65.06v2.31c0,.37,1.12.37,1.12,0v-2.1c0-.18.52-.26.7-.21v2.45c0,.92-2.52,1.02-2.52,0v-2.45h.7Z"/>
      <path class="cls-1" d="M57.4,65.09c.14.08.94,2.65,1,3.06-1.04.24-.54-.7-1.47-.7-.94,0-.41.87-1.33.7-.23-.23.63-2.14.77-2.52.06-.16.06-.53.08-.55.03-.03.85-.04.95.02ZM57.14,65.9c-.42-.4-.58.77-.56,1.12h.7c-.03-.17-.1-1.08-.14-1.12Z"/>
      <path class="cls-1" d="M50.03,6.08c.04.06.37-.06.24.31-.34.1-1.72-.55-1.82-.77-.13-.28.37-.19.57-.41.38-.42.94-2,.83-2.6.27.02,1.35.11,1.4.35.08.4-1.58,2.51-1.22,3.12Z"/>
      <path class="cls-1" d="M28.57,67.3l.71-2.23h.69c.1.09-.67,2.46-.81,2.75-.27.56-.8.62-1.12.08-.09-.16-.98-2.74-.87-2.84,1.25-.26.92,1.47,1.4,2.24Z"/>
      <path class="cls-1" d="M43.96,65.08c.44.53-.44.65-.89.54-.33.65.75.62,1.03,1.06.65,1.01-.69,1.94-1.63,1.49-.26-.12-.46-.57-.31-.74.06-.06,1.55.7,1.27-.33-.06-.22-1.74-.44-1.19-1.63.24-.53,1.46-.74,1.73-.4Z"/>
      <path class="cls-1" d="M32.63,65.06h1.82c.19.9-.5.48-1.12.56-.11.79.34.74.98.7v.42c-.74,0-1.14-.01-.98.84.67.07,1.3-.32,1.12.56-.62-.09-1.23.18-1.82,0v-3.08Z"/>
      <rect class="cls-1" x="46.92" y="65.06" width=".7" height="3.08"/>
      <path class="cls-1" d="M24.51,65.06v3.08h-.7v-2.87c0-.18.52-.26.7-.21Z"/>
      <path class="cls-1" d="M51.92.96c.51.5-.46,1.65-1.07.72-.49-.74.61-1.16,1.07-.72Z"/>
    </g>
  </g>
</svg>