<?xml version="1.0" encoding="UTF-8"?>
<svg id="Layer_2" data-name="Layer 2" xmlns="http://www.w3.org/2000/svg" viewBox="0 0 103.89 82.84">
  <defs>
    <style>
      .cls-1 {
        fill: #fff;
      }
    </style>
  </defs>
  <g id="Layer_2-2" data-name="Layer 2">
    <g>
      <path class="cls-1" d="M3.11,72.57h1.85l3.06,8.19h-1.87l-.62-1.82h-3.06l-.64,1.82H0l3.11-8.19ZM2.94,77.59h2.12l-1.03-3h-.02l-1.07,3Z"/>
      <path class="cls-1" d="M8.23,72.57h1.63v8.19h-1.63v-8.19Z"/>
      <path class="cls-1" d="M14.82,76.91c-.1-.68-.5-1.02-1.2-1.02-1.04,0-1.39,1.05-1.39,1.93s.33,1.87,1.35,1.87c.77,0,1.19-.47,1.3-1.2h1.57c-.22,1.57-1.28,2.43-2.86,2.43-1.79,0-2.99-1.26-2.99-3.04s1.1-3.21,3.03-3.21c1.4,0,2.69.73,2.79,2.25h-1.59Z"/>
      <path class="cls-1" d="M16.93,76.65c.09-1.51,1.46-1.98,2.79-1.98,1.18,0,2.6.26,2.6,1.69v3.08c0,.54.06,1.08.21,1.32h-1.65c-.06-.18-.1-.38-.11-.57-.52.54-1.26.73-2,.73-1.14,0-2.02-.56-2.02-1.78.02-2.7,4.01-1.25,3.94-2.58,0-.69-.48-.8-1.06-.8-.63,0-1.02.25-1.08.89h-1.63ZM20.69,77.85c-.28.24-.85.25-1.35.34-.5.09-.96.28-.96.87s.47.76,1,.76c1.27,0,1.32-1,1.32-1.36v-.61Z"/>
      <path class="cls-1" d="M23.26,72.57h1.63v8.19h-1.63v-8.19Z"/>
      <path class="cls-1" d="M30.04,80h-.02c-.38.64-1.03.92-1.8.92-1.79,0-2.66-1.53-2.66-3.18s.88-3.07,2.63-3.07c.7,0,1.39.3,1.75.88h.02v-2.98h1.63v8.19h-1.55v-.76ZM28.61,75.89c-1.07,0-1.43.93-1.43,1.89s.42,1.9,1.43,1.9c1.07,0,1.4-.94,1.4-1.92s-.34-1.88-1.4-1.88Z"/>
      <path class="cls-1" d="M33.62,74h-1.14l1.1-1.63h1.8l-1.77,1.63ZM32.49,74.83h1.63v5.93h-1.63v-5.93Z"/>
      <path class="cls-1" d="M34.97,76.65c.09-1.51,1.46-1.98,2.79-1.98,1.18,0,2.6.26,2.6,1.69v3.08c0,.54.06,1.08.21,1.32h-1.65c-.06-.18-.1-.38-.11-.57-.52.54-1.26.73-2,.73-1.14,0-2.02-.56-2.02-1.78.02-2.7,4.01-1.25,3.94-2.58,0-.69-.48-.8-1.06-.8-.63,0-1.02.25-1.08.89h-1.63ZM38.73,77.85c-.28.24-.85.25-1.35.34-.5.09-.96.28-.96.87s.47.76,1,.76c1.27,0,1.32-1,1.32-1.36v-.61Z"/>
      <path class="cls-1" d="M48.3,80h-.02c-.38.64-1.03.92-1.8.92-1.79,0-2.66-1.53-2.66-3.18s.88-3.07,2.63-3.07c.7,0,1.39.3,1.75.88h.02v-2.98h1.63v8.19h-1.55v-.76ZM46.88,75.89c-1.07,0-1.43.93-1.43,1.89s.42,1.9,1.43,1.9c1.07,0,1.4-.94,1.4-1.92s-.34-1.88-1.4-1.88Z"/>
      <path class="cls-1" d="M52.05,78.19c.05,1.04.54,1.5,1.46,1.5.65,0,1.18-.4,1.28-.77h1.43c-.46,1.41-1.43,2-2.78,2-1.87,0-3.03-1.28-3.03-3.12s1.23-3.13,3.03-3.13c2.02,0,3,1.7,2.88,3.52h-4.28ZM54.7,77.16c-.15-.83-.5-1.26-1.3-1.26-1.05,0-1.32.8-1.35,1.26h2.65Z"/>
      <path class="cls-1" d="M59.92,72.57h3.69c2.05,0,2.83,1.3,2.83,2.63s-.78,2.63-2.83,2.63h-1.89v2.94h-1.8v-8.19ZM61.72,76.42h1.4c.83,0,1.58-.18,1.58-1.23s-.76-1.23-1.58-1.23h-1.4v2.45Z"/>
      <path class="cls-1" d="M69.91,74.67c1.87,0,3.07,1.24,3.07,3.13s-1.2,3.12-3.07,3.12-3.06-1.24-3.06-3.12,1.2-3.13,3.06-3.13ZM69.91,79.69c1.11,0,1.44-.94,1.44-1.89s-.33-1.9-1.44-1.9-1.43.95-1.43,1.9.33,1.89,1.43,1.89Z"/>
      <path class="cls-1" d="M73.67,74.83h1.55v.76h.02c.4-.64,1.03-.92,1.77-.92,1.86,0,2.7,1.5,2.7,3.19,0,1.58-.86,3.06-2.6,3.06-.72,0-1.38-.31-1.78-.89h-.02v2.82h-1.63v-8.02ZM78.08,77.81c0-.95-.38-1.91-1.42-1.91s-1.41.95-1.41,1.91.37,1.88,1.42,1.88,1.41-.92,1.41-1.88Z"/>
      <path class="cls-1" d="M80.24,76.65c.09-1.51,1.46-1.98,2.79-1.98,1.18,0,2.6.26,2.6,1.69v3.08c0,.54.06,1.08.21,1.32h-1.65c-.06-.18-.1-.38-.11-.57-.52.54-1.26.73-2,.73-1.14,0-2.02-.56-2.02-1.78.02-2.7,4.01-1.25,3.94-2.58,0-.69-.48-.8-1.05-.8-.63,0-1.02.25-1.08.89h-1.63ZM84,77.85c-.28.24-.85.25-1.35.34-.5.09-.96.28-.96.87s.47.76,1,.76c1.27,0,1.32-1,1.32-1.36v-.61Z"/>
      <path class="cls-1" d="M89.45,81.5c-.36.95-.93,1.34-2.04,1.34-.33,0-.67-.02-1-.06v-1.34c.31.03.63.07.95.06.42-.05.63-.38.63-.75,0-.13-.02-.25-.07-.37l-2.09-5.56h1.74l1.34,4.06h.02l1.3-4.06h1.69l-2.48,6.67Z"/>
      <path class="cls-1" d="M92.04,76.65c.09-1.51,1.46-1.98,2.79-1.98,1.18,0,2.6.26,2.6,1.69v3.08c0,.54.06,1.08.21,1.32h-1.65c-.06-.18-.1-.38-.11-.57-.52.54-1.26.73-2,.73-1.14,0-2.02-.56-2.02-1.78.02-2.7,4.01-1.25,3.94-2.58,0-.69-.48-.8-1.05-.8-.63,0-1.02.25-1.08.89h-1.63ZM95.8,77.85c-.28.24-.85.25-1.35.34-.5.09-.96.28-.96.87s.47.76,1,.76c1.27,0,1.32-1,1.32-1.36v-.61ZM95.24,74h-1.14l1.1-1.63h1.8l-1.77,1.63Z"/>
      <path class="cls-1" d="M98.33,74.83h1.55v.83h.03c.41-.68,1.12-.99,1.81-.99,1.73,0,2.17.97,2.17,2.44v3.65h-1.63v-3.35c0-.97-.28-1.46-1.04-1.46-.88,0-1.26.49-1.26,1.7v3.11h-1.63v-5.93Z"/>
      <path class="cls-1" d="M45.65,25.23l-1.09.3,1.07.45s.03.09.05.15c0,0,0,.01,0,.02,0,.02.02.04.03.06.01.03.02.05.03.07l-.63,1.03,1.13-.52s.08.04.13.06c.01,0,.03.01.04.02.06.02.11.04.15.05l.36,1.09.35-1.09s.11-.03.18-.06c.07-.03.12-.06.16-.08l.79.5.13-.12-.46-.84s.04-.07.06-.11c0-.01,0-.02.02-.04,0,0,0-.02,0-.02,0-.01.01-.03.02-.04l1.31-.54-1.29-.35s-.02-.04-.03-.07c0-.02-.02-.04-.03-.06-.01-.03-.03-.06-.04-.08l.59-1.06-1.19.48s-.02,0-.03-.02c0,0-.02,0-.02-.01,0,0,0,0-.01,0-.02,0-.05-.02-.07-.02l-.43-1.06-.43,1.06s-.05.02-.07.02l-.07.03-1.07-.47.47,1.01s-.05.09-.07.14c-.02.04-.04.1-.05.13ZM45.11,25.57l.49-.14c-.01.07-.02.14-.02.22,0,.04,0,.08.01.12l-.48-.2ZM45.58,26.89l.27-.45c.06.08.14.16.22.22l-.49.23ZM46.93,27.42l-.16-.47c.05,0,.1.02.16.02.05,0,.1,0,.15-.01l-.15.47ZM48.2,26.94l-.43-.27c.07-.06.13-.12.18-.19l.25.46ZM48.91,25.6l-.68.28c.01-.08.02-.16.02-.24s0-.15-.02-.23l.68.18ZM48.28,24.31l-.29.52c-.08-.11-.18-.21-.29-.29l.58-.23ZM47.15,24.32c-.07-.01-.14-.02-.21-.02s-.14.01-.21.02l.21-.53.21.53ZM45.67,24.31l.5.22c-.11.07-.19.16-.28.26l-.22-.48Z"/>
      <polygon class="cls-1" points="52.15 31.89 52.25 31.89 52.25 31.68 52.36 31.68 52.36 31.58 52.25 31.58 52.25 31.34 52.15 31.34 52.15 31.58 51.97 31.58 51.97 31.68 52.15 31.68 52.15 31.89"/>
      <rect class="cls-1" x="51.62" y="33.28" width=".26" height=".55"/>
      <rect class="cls-1" x="52.04" y="33.31" width=".26" height=".48"/>
      <rect class="cls-1" x="52.45" y="33.28" width=".26" height=".54"/>
      <rect class="cls-1" x="49.26" y="35.38" width=".39" height=".42"/>
      <rect class="cls-1" x="50.46" y="35.38" width=".36" height=".45"/>
      <rect class="cls-1" x="53.43" y="35.48" width=".29" height=".39"/>
      <rect class="cls-1" x="54.56" y="35.41" width=".39" height=".48"/>
      <rect class="cls-1" x="45.09" y="34.02" width=".23" height=".36"/>
      <rect class="cls-1" x="45.74" y="34.05" width=".26" height=".39"/>
      <rect class="cls-1" x="58.11" y="34.18" width=".26" height=".36"/>
      <rect class="cls-1" x="58.82" y="34.18" width=".29" height=".39"/>
      <path class="cls-1" d="M53.17,49.89h-.46v-.53h.52v-1.15h-2.38v1.15h.61v.46h-.56v-.42h-1.15v2.38h1.12v-.65h.59v.66h-.65v1.15h2.41v-1.12h-.55v-.62h.5v.58h1.12v-2.38h-1.12v.48ZM53.36,49.59h.75v2.01h-.75v-.58h-.86v.99h.55v.75h-2.05v-.79h.65v-1.02h-.96v.65h-.75v-2.01h.79v.42h.93v-.83h-.61v-.79h2.01v.79h-.52v.89h.83v-.48Z"/>
      <path class="cls-1" d="M64.35,34.15h-.43v-.53h.52v-1.15h-2.41v1.12h.61v.46h-.53v-.42h-1.19v2.41h1.1v1.16h2.38v-1.15h-.52v-.59h.46v.58h1.15v-2.41h-1.15v.52ZM64.54,33.82h.79v2.05h-.79v-.58h-.83v.96h.52v.79h-2.01v-.82h.65v-.99h-.96v.65h-.79v-2.05h.82v.42h.89v-.83h-.61v-.75h2.05v.79h-.52v.89h.8v-.52ZM62.08,36.03v-.62h.59v.62h-.59Z"/>
      <path class="cls-1" d="M42.09,34.02h-.43v-.53h.52v-1.15h-2.38v1.15h.61v.46h-.56v-.42h-1.15v2.41h1.07v1.16h2.41v-1.15h-.55v-.59h.46v.58h1.15v-2.41h-1.15v.48ZM42.28,33.72h.79v2.05h-.79v-.58h-.83v.96h.55v.79h-2.05v-.82h.65v-.99h-.96v.65h-.75v-2.05h.79v.42h.93v-.83h-.61v-.79h2.01v.79h-.52v.89h.8v-.48ZM39.82,35.93v-.62h.59v.62h-.59Z"/>
      <path class="cls-1" d="M50.98,22.48h2.38v-1.15h-.55v-.59h.5v.58h1.12v-2.41h-1.12v.48h-.46v-.53h.55v-1.15h-2.41v1.15h.61v.46h-.56v-.42h-1.15v2.41h1.1v1.16ZM50.82,20.49v.65h-.75v-2.05h.79v.42h.93v-.83h-.61v-.79h2.05v.79h-.55v.89h.83v-.48h.75v2.05h-.75v-.58h-.86v.96h.55v.79h-2.01v-.82h.61v-.99h-.96ZM51,21.3v-.62h.59v.62h-.59Z"/>
      <path class="cls-1" d="M60.51,38.88h0s0-.08,0-.08c0-.67,0-1.46,0-2.34h.01v-7.13h-.01c0-2.36,0-4.67,0-6.49v-.09l-16.6.03h-.09v13.49c-.05.17-.02.4,0,.52v1.12h-.05v.76h.05s0,2.23,0,2.23v.02c.01.07,1.22,6.86,8.47,6.86.02,0,.03,0,.05,0,6.4-.03,7.89-5.51,8.15-6.75h.01s.02-.19.02-.19h-.01c0-.24,0-.94,0-1.95ZM57.61,39.25c.02.06.48,1.35.82,1.67-.06.12-.12.24-.16.35-.04.09-.07.18-.1.23-.11.19-.05.47.04.67-.05.05-.1.1-.16.15-.15-.24-.37-.55-.41-.6l-.03-.04h-.05c-.25,0-.38.28-.47.5-.04.09-.08.17-.11.2-.07.06-.09.18-.09.31-.11,0-.21,0-.33-.01,0,0-.17,0-.44,0-.14-.21-.35-.44-.44-.53l-.05-.05-.06.03c-.14.07-.25.3-.35.5-.02.04-.04.08-.06.12-1.01.12-1.6.37-1.76.74-.04.05-.18.21-.33.45-.12.18-.19.37-.23.55-.06.21-.11.45-.1.71,0,.75.36,1.49,1.05,2.2-.44.11-1.8.37-3.57-.09.2-.17.55-.55.8-1.09h.04v-.07c.1-.26.19-.57.23-.91h0s0-.06,0-.06c0-.02.04-.3-.02-.64-.02-.24-.07-.48-.16-.75-.02-.04-.61-.98-2.15-1-.02-.03-.06-.11-.09-.18-.09-.22-.21-.48-.4-.54l-.06-.02-.04.04c-.07.08-.36.41-.5.65-.24-.02-.48-.04-.7-.06,0-.16-.01-.29-.08-.36-.04-.04-.07-.13-.11-.23-.09-.22-.21-.49-.43-.52h-.05s-.03.03-.03.03c-.07.08-.35.42-.49.68-.05-.05-.1-.1-.14-.16.09-.18.16-.5.04-.7-.01-.03-.03-.08-.05-.13-.04-.11-.1-.25-.17-.39.03-.11.07-.22.12-.33.1-.11.82-.93.79-1.57,0-.22-.1-.41-.29-.56-.38-.3-1.02-.37-1.34-.3-.32.07-.74.18-.97.24v-.34c.62-.06,3.33-.31,4.27.14.61.29.69.48.7.55,0,.04-.02.07-.03.07l-.03.03s-.22.41-.59.68c-.3.25-.45.75-.43,1.09,0,.18.06.31.15.38.03.02.05.05.08.08.14.17.29.37,1.91.42l.55.02c1.37.04,1.37.05,1.43.24l.04.13.1-.09c.06-.05.23-.17.36-.17.06,0,.18-.02.36-.05.43-.08,1.15-.21,1.72-.14l.33.05h0c.61.05.93-.04.93-.05,0,0,.21-.02.34-.23.14-.23.13-.57-.04-1.03l-.6-.74s-.29-.3-.22-.64c.07-.3.39-.55.96-.76,1.49-.54,3.59.03,3.95.15l.04.4c-.31-.12-1.09-.38-1.82-.27-.94.17-.88.9-.88.93ZM58.32,41.6c.03-.06.07-.15.11-.25.1-.23.25-.6.42-.64.34.32.7.7.72.82,0,.06.02.11.03.17.03.15.06.25-.02.38-.05.08-.18.18-.3.27-.21.16-.33.25-.33.36v.36h-.05l-.03-.4-.44-.43c-.09-.13-.22-.47-.12-.64ZM57.51,43.92s0,.09,0,.16h0l-.06-.37-.02-.02s-.21-.21-.27-.42c-.08-.25-.13-.67-.05-.75.06-.06.1-.15.15-.26.07-.16.15-.35.26-.38.14.19.43.6.47.72.03.21.03.48-.05.61-.02.02-.05.06-.08.1-.25.32-.36.48-.36.57v.02s0,.02,0,.02ZM56.09,43.55c-.14.32-.29.41-.29.41l-.04.02-.03.23-.02-.22-.02-.02c-.16-.16-.35-.38-.37-.45-.07-.18-.12-.46-.1-.5.06-.04.1-.13.18-.29.06-.12.14-.29.21-.37.24.26.47.57.47.67,0,.06.02.1.04.14.03.09.05.16-.03.39ZM53.46,43.8c.14.11.49.41.49.76,0,.11,0,.21,0,.3,0,0-.01.02-.02.03-.06.1-.07.26-.06.44-.16.01-.38.1-.43.36-.04.18-.05.3-.06.38h-.09l.08-.4v-.03c-.06-.1-.2-.41-.37-.51,0-.1-.02-.32.03-.57.07-.23.16-.42.26-.57.05-.07.11-.13.18-.19ZM54.18,44.81c.08-.17.19-.39.36-.53.23.24.45.54.44.64-.02.12.02.23.06.33.05.14.08.23.02.3-.05.06-.13.12-.21.18-.16.13-.33.26-.3.42v.31h-.04s0-.39,0-.39l-.04-.03c-.21-.14-.41-.32-.41-.38,0-.04,0-.1,0-.16,0-.04,0-.09,0-.13.02-.09.06-.26.08-.47.02-.03.03-.07.05-.11ZM53.1,46.05c-.09-.24-.14-.48-.16-.73.07.06.16.21.23.37l-.07.36ZM50.02,44.88c.02.16.05.3.08.39,0,.08,0,.16-.01.21,0,.06,0,.1,0,.14,0,.06-.18.24-.38.38l-.04.02-.03.43h-.05s0-.3,0-.3c.03-.18-.14-.31-.3-.44-.08-.06-.15-.12-.2-.18-.05-.07-.02-.16.02-.3.04-.11.07-.22.06-.33,0-.15.25-.46.44-.66.2.14.3.37.38.54.01.03.03.06.04.09ZM50.21,44.86s0-.02-.01-.03c0-.1-.01-.2,0-.31.02-.35.36-.65.49-.76.31.27.42.64.46.93.01.15,0,.29,0,.42-.13.1-.25.34-.32.5v.02s.04.41.04.41h-.07c-.01-.07-.04-.2-.09-.38-.02-.14-.08-.24-.18-.3-.08-.06-.17-.07-.24-.07,0-.01-.01-.04-.02-.06,0-.15-.01-.29-.06-.38ZM51,45.67c.03-.07.06-.13.09-.18-.02.11-.05.21-.08.31l-.02-.12ZM48.82,43.42c-.04.09-.25.32-.37.46l-.02.02-.03.24h-.02v-.21s-.03-.03-.03-.03c0,0-.15-.12-.3-.45-.09-.19-.08-.25-.05-.33.01-.05.03-.1.03-.16.02-.11.28-.44.48-.68.09.07.17.27.23.41.06.13.09.21.14.26.04.05,0,.35-.06.47ZM46.22,43.22s-.07-.08-.09-.11c-.06-.07-.06-.3-.01-.58.02-.14.3-.51.49-.75.1.05.18.24.24.39.05.11.09.21.14.28.08.08.02.49-.01.66v.09c-.07.2-.31.41-.31.41l-.02.02-.06.34h-.02v-.19c.02-.08-.06-.2-.35-.57ZM45.52,40.97c.07.14.13.29.18.41.02.05.04.1.06.14.1.18,0,.52-.09.61-.09.12-.41.44-.41.44l-.02.02-.06.39h-.03c0-.09-.02-.24-.02-.35,0-.14-.15-.25-.33-.39-.12-.09-.24-.19-.3-.27-.06-.09-.05-.16-.02-.29.02-.07.03-.15.03-.23.02-.15.44-.56.74-.82.05.02.15.09.27.33ZM45.8,29.4l.07.06s.44-.52,1.28-.59c.53-.01,1.21.16,2.14.67,0,0,0,0,0,0h-.03c-.07,0-.12.05-.16.09-.01.01-.04.04-.03.04-.07,0-.15,0-.22,0-.25.01-.51.02-.74-.09l-.09-.04-.04.09c-.08.19-.23.28-.39.24-.11-.11-.21-.2-.29-.12-.08.06-.11.15-.14.23,0,.03-.02.05-.03.07h-.05s-.02-.06-.03-.08c-.03-.1-.06-.2-.15-.26h-.03c-.1-.03-.24-.03-.34.02,0-.04.02-.08.04-.11l.06-.08-.08-.05c-.19-.14-.36-.06-.49,0-.03.01-.06.03-.09.04v-.1l-.12.04s-.04-.02-.06-.04c0,0-.02-.01-.03-.02,0,0,.01,0,.02-.01ZM45.7,29.58s.06.05.11.07v.12l.11-.02c.09-.01.17-.05.25-.09.1-.05.16-.08.23-.06-.04.11-.04.22-.03.32,0,.03,0,.06,0,.09h.18s.01-.07.04-.1c.06-.05.16-.05.25-.04.03.03.04.08.06.14.02.05.03.11.06.17l.03.05h.27l.03-.04s.05-.11.07-.16c.01-.04.03-.08.05-.11.03.02.06.06.1.09l.04.02c.23.07.45-.03.58-.26.25.1.5.09.75.08.07,0,.14,0,.21,0s.12-.05.16-.09c.01-.01.03-.03.03-.04.08,0,.15-.04.21-.08,0,0,0,0,0,0,.03.01.05.03.07.04h.02s.04.02.11.03c.62.28,3.31,1.47,3.84,1.53.25.03,1.64.47,2.98.89.62.2,1.26.4,1.83.57l-1.14,1.19h.57s-.03,1.59-.03,1.59h-1.01v-.5h.22s-1.25-1.1-1.25-1.1l-.03-.02h-2.66l-.03-.68.09-.03v-.06s.07-.61-.25-.96c-.16-.17-.38-.25-.65-.24-.28,0-.5.11-.66.29-.33.36-.3.92-.3.94v.09h.13v.66h-2.68l-1.58,1.12h.51l-.02.43h-1.15v-1.56h.52l-1.2-1.48v-.23h-.18v.22l-1.49,1.49h.58l-.03,1.77s-.07-.06-.11-.07l-.05-.02-.04.04s-.25.23-.41.42v-5.94c.26-.04,1.08-.2,1.66-.56v.06s.02.02.03.03ZM53.02,27.97h0s.02-.01.04-.03c.06-.04.11-.08.16-.11.28-.17.85-.35,1.52.25.43.37.68.56.82.66-.05,0-.11,0-.16,0-.04,0-.08,0-.12,0h-.04s-.28.2-.49.23h-.06v.07s-.02.07-.03.1c-.27.03-.5-.03-.76-.1-.05-.01-.12-.05-.18-.1-.11-.07-.23-.16-.38-.16h-.07v.05s0,0,0,0c-.02.02-.05.06-.05.11-.19,0-.36-.09-.51-.17l-.04-.02c-.18-.13-.29,0-.35.09-.06.07-.09.1-.14.09-.05,0-.13-.09-.13-.22h-.12c.13-.09.73-.49,1.1-.74ZM51.91,28.73c0,.19.12.35.25.35h0c.12.02.2-.07.26-.14.08-.1.1-.11.18-.06l.05.02c.18.09.41.21.67.18h.11s-.06-.1-.06-.1t0-.05s0,0,0,0c.1.01.18.07.27.13.08.05.15.11.23.12.21.05.43.11.66.11.05,0,.11,0,.17,0h.02s.02-.02.02-.02c.03-.03.07-.09.08-.15.2-.04.41-.18.48-.22.03,0,.06,0,.1,0,.1,0,.21,0,.33-.03.06.04.12.09.17.13.24.18.52.38.56.45,0,.01.02.02.03.03l-.03.04s1.46,1.2,2,1.71c.52.49,1.57,1.03,1.89,1.13,0,.27,0,.53,0,.8l-.07-.04v-.07s-.17,0-1.26-.31l-.24-.28v-.22h-.18v.22l-.11.11c-.59-.18-1.26-.39-1.91-.6-1.48-.47-2.75-.87-3.01-.9-.39-.04-2.22-.82-3.44-1.36.41-.06,1.04-.28,1.8-.95,0,0,.01,0,.02-.01ZM59.01,37.73v-.02c0-.09.01-.25.03-.31.02-.04.15-.17.29-.29l.21.23-.04.47c-.15-.03-.31-.06-.49-.09ZM52.85,41.41c-.15.03-.28.05-.32.05-.14,0-.29.08-.38.14-.11-.21-.34-.21-1.56-.25l-.55-.02c-.21,0-.4-.02-.56-.03v-.34c.09-.13.45-.66.48-.88.06-.2.12-.7-.07-.85-.04-.02-.07-.08-.1-.14-.08-.14-.19-.33-.49-.36h-.03s-.03.01-.03.01c0,0-.04.03-.1.07,0-.03.02-.05.02-.08,0-.11-.07-.21-.2-.32v-.46c.11-.05.34-.19.45-.49.05-.15.06-.26.06-.36h5.32c0,.08.01.18.04.29.11.33.36.47.48.52v.55c-.07.09-.12.19-.14.29-.02.07-.02.13-.01.2-.08-.1-.19-.19-.37-.19h-.05s-.58.39-.69.82c-.07.41.06.75.07.76v.02s.03.02.03.02c.18.14.38.35.38.44v.42c-.58-.05-1.26.07-1.68.15ZM49.3,40.91v.36h-.04v-.46c0-.21-.33-.48-.47-.57-.02-.08-.09-.34-.02-.64.05-.3.44-.59.55-.66.18.03.24.14.31.26.04.08.09.16.16.2.06.05.08.38,0,.66-.02.15-.3.59-.47.83l-.02.02ZM48.63,40.32v.02s.03.02.03.02c.2.14.41.36.41.44v.46c-.64-.08-.73-.19-.81-.29-.03-.04-.06-.08-.11-.12-.03-.02-.07-.1-.07-.23-.01-.3.13-.74.36-.94.05-.04.1-.09.15-.13,0,0,0,0,0,0-.1.41.03.75.04.77ZM44.7,37.83l-.03-.41.21-.23c.14.12.27.25.29.29v.02c.05.06.06.17.06.21v.09c-.19.01-.36.02-.53.03ZM44.01,36.53v-.22s0,0,0,0c.06-.13.34-.4.48-.54.11.08.3.34.45.58h0s-.16.69-.16.69l-.29.33c-.08-.2-.37-.47-.48-.56,0,0,0-.01,0-.02v-.24h0ZM44.83,33.86l1.4.03v1.71h1.5v-.03h.66l-.03-.59h3.46l.36-.33.35.29,3.46.03.03.69h.61s1.29,0,1.29,0l.03-1.78,1.37-.02.02,1.94v.02c-.07.08-.12.15-.16.23-.09-.12-.23-.22-.42-.19,0,0-.02,0-.03.01-.17,0-.27.15-.34.29-.04.06-.08.12-.11.17-.04-.08-.09-.17-.14-.25-.06-.11-.13-.2-.22-.24-.05-.03-.11-.05-.16-.05-.06,0-.12.04-.19.1,0,0-.01,0-.02.01-.12.11-.24.27-.34.43-.02-.03-.04-.06-.07-.1,0,0-.01-.01-.02-.02-.01-.02-.03-.04-.04-.05-.08-.1-.18-.18-.26-.24-.06-.04-.1-.08-.14-.11l-.03-.02h-.02s-.03-.01-.03-.01l-.04.02c-.4.17-.49.57-.5.87-.03-.03-.07-.07-.1-.1-.11-.14-.23-.22-.35-.28-.03-.02-.07-.04-.1-.06s-.06-.02-.09-.02h0s-.03,0-.03,0c0,0-.02,0-.03.01-.02,0-.04.01-.06.02-.15.08-.28.25-.38.41-.03.05-.06.09-.08.13,0,0-.01.03-.02.07-.01.03-.03.06-.04.08h-2.12v-.88s0-.36-.42-.36c-.45.03-.48.42-.48.42v.81h-2.3c-.02-.07-.04-.11-.04-.12-.08-.14-.35-.57-.58-.53-.03,0-.08,0-.17.08-.15.09-.32.23-.45.35-.01-.25-.07-.72-.53-.84l-.02-.02h-.05s0,0,0,0h0s0,0,0,0c-.04,0-.09.04-.15.12-.13.1-.32.27-.41.43-.03-.06-.07-.11-.12-.17-.1-.15-.21-.28-.32-.34,0,0,0,0,0,0l-.04-.04-.04.02s-.08,0-.11,0v-.26h-.18v.36c-.07.07-.12.16-.17.26-.02.05-.05.1-.08.16l-.1-.11c-.06-.14-.15-.3-.31-.35l-.05-.06-.05.05c-.17.02-.29.11-.37.22-.08-.13-.22-.33-.27-.42l.03-1.85ZM51.39,32.96c.01-.17.06-.46.24-.66.13-.14.31-.22.53-.23.22,0,.39.05.51.18.21.23.22.61.21.76h0s0-.06,0-.06h-1.49ZM51.39,33.02h0s0-.04,0-.06v.06ZM51.52,34.05v-.9h1.27l.03.9h2.77l.86.75-3.86-.03-.42-.35-.42.39h-4.1l1.07-.75h2.81ZM58.83,37.6h-.03s-.06-.24-.06-.24l-.41-.38v-.35l.02-.05s.02-.03.03-.05c.05-.04.09-.11.12-.19.01-.03.02-.05.03-.08.08-.11.15-.19.21-.21.15,0,.26.07.34.24l.03.07.04.12.09.48c-.13.11-.34.3-.38.4-.02.06-.03.17-.04.25ZM57.78,37.56h-.03s0-.29,0-.29l-.37-.33-.1-.34s.05-.08.08-.13c.08-.13.25-.42.35-.45.04-.01.07-.01.1,0,.05.03.11.12.19.24.03.06.06.12.1.18.02.03.03.06.05.09h0v.48l-.39.39.03.18ZM57.2,36.96l-.48.48.02.25h-.01s-.05-.32-.05-.32l-.4-.43h-.03c0-.05-.01-.12-.02-.2,0-.01,0-.02,0-.04.02-.29.07-.6.36-.7.02.01.05.03.08.05.08.07.16.14.23.21.08.09.16.19.19.31,0,.03,0,.06.02.08v.05s.04.12.04.12h0s.05.16.05.16ZM55.49,37.87v-.08s-.07-.02-.07-.02c-.01,0-.31-.09-.42-.42-.06-.21-.04-.36-.02-.43.02-.05.05-.1.08-.16.11-.16.21-.29.28-.34.01,0,.02-.01.04-.02,0,0,.01,0,.02,0,.04.01.08.03.12.05.1.07.21.15.31.25.06.08.1.17.13.3l-.06.41c-.05.07-.23.31-.37.42-.01.01-.03.03-.04.04ZM49.24,37.41c-.11.31-.38.39-.39.4l-.06.02v.11s-.03-.03-.04-.05c-.13-.1-.33-.35-.39-.42l-.07-.48h.01s.04-.04.04-.04c.15-.17.32-.35.42-.44.02-.01.04-.02.06-.03.1.06.38.26.46.56l.02.07h0c0,.08,0,.17-.05.3ZM48.06,36.97h-.06l-.44.44-.05.31h-.02s.03-.23.03-.23l-.45-.48.07-.32s.02-.04.02-.05c.07-.06.15-.16.27-.33.04-.06.09-.12.13-.18.02-.01.03-.03.05-.04h0c.21.21.34.33.37.38,0,.07.02.33.03.41v.07s.04,0,.04,0c0,0,0,.01,0,.02ZM46.45,37.63h-.03s.03-.22.03-.22l-.39-.39.03-.42.27-.47.14-.06c.08.08.18.18.26.28.04.06.08.12.1.16.02.03.03.04.04.06,0,.01.02.03.02.04,0,.02.02.05.04.06l-.07.31-.43.36v.29ZM45.7,36.39c.06.13.1.24.2.25l-.03.38-.42.42-.03.18h-.03c0-.06-.03-.14-.07-.21-.05-.1-.25-.28-.37-.38l.11-.47.02.03.06-.2s0,0,0-.01c.06-.03.16-.09.32-.24l.22.25s0,.01,0,.02ZM44.5,37.57v.15s-.01,0-.01,0c0-.04,0-.1.01-.15ZM45.63,37.52l.33-.33.29.29-.04.28c-.21,0-.42,0-.63.01l.04-.26ZM46.64,37.42l.32-.27.36.39-.03.26c-.21-.02-.43-.03-.65-.04v-.34ZM47.73,37.49l.34-.34h.04l.06.4.02.02s.27.33.43.46c.02.02.02.02.02.03,0,0-.02.01-.02.02l-.11.04s-.09-.05-.14-.07c-.18-.08-.42-.14-.69-.19l.06-.36ZM54.71,41.27v-.44c0-.21-.33-.49-.43-.57-.03-.08-.1-.34-.05-.63.08-.31.48-.6.58-.67.15.01.22.12.3.27.04.08.08.15.13.19.07.05.1.4.03.64-.05.17-.36.67-.47.85l-.04.36s-.03,0-.05,0ZM54.97,41c.08-.12.42-.66.48-.88.03-.11.05-.3.04-.47l.51.62c.17.48.12.73.05.85-.08.13-.2.15-.22.15,0,0-.31.09-.88.04l.02-.3ZM55.62,38.19s-.06-.14.03-.23c.17-.14.4-.46.41-.47l.06-.35s.06-.01.09-.03l.31.34.05.33c-.11.03-.22.06-.32.1-.26.09-.46.2-.63.32ZM56.93,37.7v-.19s.38-.39.38-.39l.26.24v.29c-.21,0-.43.03-.64.06ZM57.98,37.64l-.03-.2.29-.29.34.31.06.22c-.21-.02-.43-.04-.66-.04ZM59.68,37.8l.03-.33c.01.11.03.25.05.35l-.08-.02ZM59.72,37.28l-.3-.33-.12-.69h0s.18-.34.18-.34c.08-.1.16-.19.23-.24.15.15.42.44.49.58.06.12.02.37,0,.49-.12.1-.39.35-.47.53ZM59.79,35.5l-.04-.04-.05.02c-.05.02-.12.07-.19.13v-1.75s.48,0,.48,0l-.77-.88c.64.18.9.24,1.02.24.04,0,.06,0,.08-.02,0,1.01,0,2,0,2.91-.14-.22-.48-.56-.53-.61ZM60.32,31.89c0,.09,0,.18,0,.26-.33-.13-1.27-.62-1.76-1.07-.44-.41-1.45-1.26-1.85-1.58.45-.06,1.47-.46,1.65-.66.14-.16.32-.12.62-.01h.04c.19.06.96.44,1.31.62,0,.8,0,1.62,0,2.45ZM44.01,37.03c.15.14.3.31.31.38,0,.15-.03.41-.03.41v.04c-.12.01-.21.02-.28.03v-.86ZM59.96,37.92c-.01-.09-.07-.44-.07-.56.02-.08.24-.31.44-.48,0,.4,0,.78,0,1.14-.07-.02-.19-.06-.36-.1ZM60.34,22.93c0,.52,0,3.18,0,6.3-.31-.16-1.05-.53-1.26-.58h-.03c-.29-.11-.59-.21-.81.06-.16.19-1.42.65-1.64.61-.06-.09-.24-.23-.6-.49-.36-.26-.81-.59-1.12-.9-.62-.61-1.44-.53-1.77-.24-.32.23-1.32.9-1.33.9-1.02.9-1.79.94-2.06.92-.03-.01-.07-.03-.1-.04v.02s-.02,0-.03,0l.03-.04s-.03-.02-.04-.03c-.99-.62-1.78-.78-2.39-.73-.66,0-1.11.27-1.49.56-.52.39-1.4.56-1.7.61v-6.9l16.33-.03ZM44.01,38.6c.21-.06.67-.18,1.01-.26.28-.06.86,0,1.19.27.14.12.22.26.22.43.03.6-.74,1.44-.75,1.45l-.02.03c-.03.07-.05.14-.07.21-.12-.18-.23-.26-.36-.26h-.03l-.03.02c-.13.11-.81.68-.84.98,0,.07-.01.14-.03.2-.01.06-.02.12-.03.18-.18-.53-.25-.89-.26-.94v-2.29ZM44.37,42.12c.08.1.19.19.31.28.1.07.26.2.26.25,0,.17.03.42.03.43v.07s.36.06.36.06l.07-.52c.07-.07.27-.27.37-.39.05.07.11.13.17.19,0,0,0,0,0,.01-.04.24-.07.56.05.72.02.03.05.07.09.11.09.11.28.36.31.43v.39h.36l.07-.43c.07-.07.27-.27.33-.49v-.1c.03-.09.04-.19.05-.27.21.02.42.04.64.06,0,0,0,0,0,0,0,.05-.01.08-.02.13-.04.12-.05.23.06.46.13.28.25.43.31.49v.31h.37l.04-.34c.08-.09.32-.36.38-.48.04-.07.11-.33.09-.51.79.03,1.3.32,1.59.56l-.04.03s-.54.39-.61.89c-.09-.15-.2-.31-.39-.41l-.06-.03-.05.05c-.09.09-.54.56-.54.85.01.08-.02.16-.05.26-.05.15-.1.31,0,.47.06.08.15.14.23.21.11.09.24.19.23.28v.47l.4.06.04-.54c.13-.1.42-.33.42-.5,0-.03,0-.07,0-.12,0,0,0-.01,0-.02.03,0,.1,0,.16.04.05.04.08.1.1.19.09.3.09.43.09.43v.09h.22c-.33.67-.83,1.03-.86,1.06l-.04.03c-.48-.12-.93-.28-1.34-.47.06-.08.25-.4.16-.83-.1-.45-.5-.91-.67-.91h-.03l-.02.02s-.68.51-.68,1.01c-1.7-1.2-2.57-2.89-2.99-4.02ZM47.54,46.17c-.02-.32.37-.71.57-.86.11.07.4.38.48.76.07.31-.05.55-.11.65-.57-.14-.87-.47-.94-.55ZM55.55,46.22c.08-.36.35-.67.45-.75.15.11.59.48.56.86-.06.08-.34.38-.93.54-.05-.11-.15-.36-.09-.65ZM60.33,40.94c-.15.78-.91,3.78-3.59,5.47v-.03c.08-.57-.64-1.07-.67-1.09l-.02-.02h-.03c-.14,0-.54.46-.64.91-.1.45.13.83.14.84-.44.17-.92.31-1.44.41l-.04-.04c-.38-.37-.67-.75-.85-1.13h.36v-.09s0-.13.06-.43c.03-.17.18-.21.26-.22,0,0,0,.01,0,.02,0,.06,0,.11,0,.15,0,.17.29.39.45.5v.51l.41-.06v-.48c-.01-.07.12-.18.23-.27.08-.07.17-.13.23-.21.13-.15.06-.33,0-.48-.03-.09-.06-.17-.05-.25.04-.25-.41-.72-.54-.85l-.05-.05-.06.04c-.17.1-.29.27-.38.43-.02-.44-.45-.8-.58-.89,0,0,.01-.01.01-.01l.02-.03c.11-.28.64-.5,1.48-.62-.06.21.09.61.09.61.03.13.28.4.39.5l.04.36.32-.06.04-.29c.06-.05.19-.19.32-.47.1-.27.08-.38.03-.51-.01-.03-.02-.07-.03-.1,0-.04-.02-.08-.04-.13.2,0,.33,0,.32,0,.11,0,.21.02.31.02.01,0,.03,0,.04,0,.03.23.09.43.09.44.06.21.23.4.29.47l.07.47h.32v-.08c.02-.08.04-.22.02-.31.03-.09.24-.35.32-.45.03-.04.06-.08.08-.11.13-.22.1-.59.07-.76,0-.02-.02-.04-.03-.07.06-.04.11-.1.16-.15,0,0,0,.02.01.02l.4.4.04.5h.4v-.54s.16-.15.25-.23c.14-.1.28-.21.35-.32.11-.2.08-.36.04-.52-.01-.05-.02-.1-.03-.15-.04-.25-.68-.84-.8-.96l-.03-.02h-.04c-.15,0-.26.1-.36.24-.25-.28-.62-1.21-.74-1.55,0-.02-.04-.57.73-.71.76-.11,1.6.21,1.81.3,0,1.32,0,1.86.03,2.07-.01.02-.02.05-.02.07Z"/>
      <path class="cls-1" d="M35.28,16.26c-.96.3-1.82,1.05-2.93.26.75,1.02,1.79.9,2.93-.26Z"/>
      <path class="cls-1" d="M30.82,37.6c.4-.11.55-.11.59.39.15,2.12,1.12,3.92,2.41,5.55.72.9,1.67,1.55,2.79,1.9.69.21,1.39.35,1.88-.45.86,2.92,2.35,5.39,4.87,7.07,4.32,2.89,9,3.37,13.92,1.74,4.27-1.42,7.41-4,8.67-8.54.46.6,1.08.49,1.67.34.34-.08.67-.25.97-.43,2.56-1.53,3.84-3.88,4.3-6.75.13-.82.1-.83.91-.65,1.43.32,2.8-.35,3.33-1.61.32-.75.16-1.57-.36-1.87-.63-.36-1.36-.14-1.88.59,0,0,0,0,0,0-.27.25-.54.46-.84.02-.51-.66-.78-1.41-.7-2.23.14-1.59.14-3.15-.46-4.66l-.1-.07c.06,0,.12-.01.17-.02.51.04,1.02.08,1.52.13,1.18.12,2.15-.9,2.26-1.99.06-.58-.08-1.2-.66-1.49-.43-.21-.95-.27-1.33.2,0,0,0,0,0,0-.45.31-.48.83-.64,1.29-.04.11.05.29-.14.31-.15.01-.2-.14-.27-.24-.06-.09-.12-.19-.17-.28-.39-.93-.78-1.87-1.18-2.8-.39-.9-.83-1.78-1.62-2.41-.71-.55-1.48-.9-2.41-.58-.53.18-.92.55-.92,1.1,0,.53.03,1.14.73,1.33l.05-.03c-.04-.05-.07-.11-.11-.15-.43-.47-.6-1-.29-1.58.31-.58.84-.54,1.4-.43,1.62.31,2.41,1.47,2.96,2.86.38.96.8,1.9,1.29,2.82.07.14.1.32.21.4.57.46.16.71-.21.92-.72.4-1.53.11-2.01-.62-.33-.5-.24-1.08-.4-1.63-.14.38-.21.76-.42,1.08-.22.33-.48.63-.67.97-.19.33-.47.4-.79.33-.39-.08-.66-.34-.62-.75.03-.29.04-.62.52-.73.74-.17,1.34-.58,1.54-1.39.04-.1.07-.2-.02-.29-.03.07-.06.14-.09.21-.15.16-.3.32-.45.48-.6.64-1.77.56-2.29-.14-.15-.21-.23-.42-.21-.68.03-.37.41-.06.55-.26-.63-.3-.83-.2-.86.38-.04.6.27,1.01.73,1.34.3.21.57.35.3.84-.22.39-.19.94.27,1.27.44.33.91.25,1.39.04.33-.15.51-.47.84-.67.09.81-.18,1.52-.29,2.26-.24.33-.24.8-.63,1.12,0-.18,0-.31,0-.43,0-.15.04-.32-.13-.42-.5-.88-1.69-.84-2.36.09-.97,1.34-.77,3.28.82,3.98.31.13.3.26.16.53-.24.46-.37.95.03,1.48,0-.32-.04-.59,0-.85.07-.39.12-.94.53-1,.85-.12,1.61-.36,2.24-1.08.05,1.89-.88,2.93-2.64,3.1.02.04.03.09.06.11.05.04.11.11.16.11.86.03.82.65.84,1.25.07,2.08-.28,4.07-1.13,5.98-.1.12-.2.25-.3.37-.34.11-.24-.23-.34-.35-.24-.29-.53-.61-.89-.48-.63.22-.54-.14-.54-.51,0-8.06,0-16.12,0-24.18,0-.18-.07-.38.13-.61.22.67.47,1.25,1.26,1.18.7-.06.95-.55,1.02-1.19.26.12.42.31.56.51.7,1.06,1.75,1.65,2.9,2.05,1.4.49,2.68.15,3.87-.65.32-.22.53-.54.66-.91.42-1.16.04-1.77-1.14-1.79-.33,0-.24-.21-.27-.34-.12-.57-.45-.63-.95-.47-.26.09-.41.31-.69.47.03-.22.11-.41.17-.6.2-.42.1-.93-.11-1.34-.31-.71-1.39-1.01-1.64-.1-.08.29-.01.68.29.82.08.04.21.07.25.16.02.31-.47.91-.66,1.24.33-.34,1.4-1.22.6-1.6-.35-.09-.27-.63-.1-.82.16-.12.4-.17.6-.09.42.19.73.65.8,1.13-.21,0-.41-.02-.61,0-.11.01-.32.04-.25.23.35.96-.18,1.58-.9,2.16.88.17,1.43-.17,1.78-.85.13-.25.24-.45.54-.32.25.12.44.32.39.63-.09.5-.29.92-.78,1.17-.36.18-.75.17-1.17.22.6.51,1.48.13,1.98-.43.25-.28.47-.6.73-.87.11-.11.27-.28.46-.18.18.09.18.28.19.47.02.74-.82,1.82-1.62,2.02-1.51.36-2.87,0-4.05-.98-.46-.38-.89-.81-1.28-1.28-.54-.64-1.59-.59-1.87.04-.13.3-.06.5.29.48.2-.01.47-.25.44.18-.02.33-.24.54-.59.5-.75-.08-1.15-.98-.69-1.57.17-.22.39-.4.61-.58.55-.12,1.11-.11,1.66.05-.47-.29-1.08-.34-1.6-.14-.14-.04-.35.04-.41-.17-.06-.2.15-.25.25-.36.65-.75,1.6-1.19,2.09-2.13.24-.46.77-.75,1.11-1.16.32-.38.64-.53,1.07-.2.18.14.35.16.53-.03.29-.31.59-.61.9-.91.17-.16.14-.29,0-.46-.92-1.13-1.83-2.27-2.75-3.4-.12-.15-.23-.2-.38-.05-.44.44-.99.83-1.29,1.36-.17.3.25.76.39,1.15.02.04.04.08.05.12.05.32-.21.48-.38.67-.17.19-.27-.04-.36-.13-1.33-1.32-2.88-2.34-4.56-3.16-.2-.1-.35-.17-.23-.44.1-.22.23-.44.48-.28.81.51,1.07-.09,1.36-.64.14-.26.27-.52.44-.75.23-.32.16-.47-.19-.65-1.19-.61-2.37-1.26-3.55-1.89q-1.3-.7-1.97.62c-.44.86-.45.87.33,1.47.23.18.3.31.15.6-.15.29-.28.3-.57.2-1.57-.54-3.18-.88-4.83-1.07-1.17-.14-1.16-.15-1.29-1.31-.03-.27.06-.32.28-.41.47-.18,1.18-.04,1.37-.5.18-.42-.04-1-.09-1.52-.01-.11-.04-.22-.05-.33,0-.34-.18-.43-.51-.43-1.41.02-2.83,0-4.24,0s-1.46,0-1.52,1.49c0,.13-.02.27-.04.4-.09.5.04.81.63.81.6,0,.94.28.78.94-.03.11-.02.22,0,.34.03.31-.09.44-.41.47-1.84.15-3.6.64-5.38,1.09-.29.07-.53.28-.75-.2-.21-.45-.07-.64.28-.82.43-.22.56-.5.26-.95-.26-.39-.46-.82-.63-1.26-.16-.42-.33-.48-.73-.25-1.01.58-2.04,1.11-3.06,1.67-.49.27-1.23.43-1.39.84-.2.48.48.98.67,1.52.2.58.55.74,1.1.47.21-.1.39-.15.53.16.14.31-.08.34-.24.43-1.62.85-3.04,1.97-4.43,3.15-.15.12-.27.51-.56.22-.23-.24-.61-.48-.33-.9.56-.84.31-1.47-.43-2.02-.12-.09-.23-.22-.32-.34-.18-.25-.31-.23-.51.01-.92,1.13-1.86,2.25-2.78,3.37-.07.09-.24.21-.11.34.36.37.73.73,1.13,1.05.21.17.46-.03.68-.11.22-.07.37-.04.54.12.48.47.96.95,1.47,1.38.26.22.06.69.43.78.8.19,1.08.94,1.58,1.44.12.12.31.22.27.43-.05.21-.32.05-.44.17-.54-.27-1.23-.24-1.74.08.58-.16,1.17-.16,1.75-.03.75.64.84.93.5,1.69-.27.2-.53.4-.9.36-.32-.04-.36-.3-.41-.52-.02-.11.03-.26.24-.2.19.05.48.2.52-.16.04-.34-.15-.65-.49-.7-.53-.09-1.04-.06-1.45.43-.71.83-1.47,1.62-2.53,2.02-1.69.64-3.48.4-4.2-1.11-.18-.37-.45-.81-.02-1.07.42-.25.61.26.84.53.19.22.38.44.6.63.45.4.98.54,1.59.37-.12-.28-.35-.19-.53-.22-.64-.11-1.16-.63-1.23-1.23-.04-.36.09-.63.42-.75.37-.14.42.18.54.41.38.73,1.13,1.02,1.71.68-.47-.27-.82-.62-.93-1.16-.08-.4-.01-.72.24-.95-.07.43.63,1.01.88,1.27-.19-.33-.68-.93-.66-1.24.04-.09.16-.12.25-.16.3-.14.38-.53.29-.82-.25-.91-1.32-.61-1.64.1,0,.01-.01.03-.02.04,0-.02,0-.03,0-.05-.09.16-.14.33-.16.49-.06.27-.06.56.05.81.03.17.05.34.07.52-.88-.74-1.2-.69-1.59.24-.11.27-.23.1-.35.09-.84-.03-1.17.3-1.14,1.14.03.98.61,1.6,1.44,2.01,2.32,1.15,4.68-.12,5.88-1.51.24-.28.42-.61.84-.82-.02.75.35,1.13.97,1.22.45.06.83-.11.98-.6.31-.23.2-.63.32-.98.27.25.16.51.16.73,0,8.1,0,16.2,0,24.3,0,.13,0,.27,0,.4.02.25-.05.39-.34.31-.6-.17-1,.1-1.23.62-.13.3-.26.11-.39.07.3.76.95,1.15,1.52.92-.05-.21-.24-.08-.34-.14-.31-.18-.4-.45-.39-.79.01-.33.27-.39.48-.47.33-.12.58.09.72.34.23.4.28.86.01,1.26-.31.46-.79.58-1.31.45-.77-.18-1.37-.66-1.87-1.23-1.39-1.56-2.35-3.33-2.57-5.45-.09-.86.06-1.69.26-2.51.14-.58.57-.71,1.1-.39.09.06.19.14.29.15.6.07.81.41.73.98-.28.71-.14,1.45-.12,2.17.05,1.53.22,3.05,1.11,4.37.07.06.07.21.22.18,0-.11.04-.23-.11-.28-.05-.14-.1-.29-.15-.43-.76-1.94-.97-3.95-.83-6.01-.12-.85.87-.39,1.06-.88-1.94-.24-2.83-1.27-2.57-3.05.39.57.92.88,1.52.9.81.03,1.04.5,1.17,1.17.04.2-.05.44.18.65.03-.48.1-.94-.15-1.34-.19-.3-.1-.4.18-.53,1.11-.55,1.46-1.49,1.33-2.66-.1-.97-.78-1.78-1.64-1.98-.88-.2-1.56.48-1.31,1.33-.27.22-.26-.1-.35-.2-.15-.15-.11-.46-.45-.55.16.51.32.96.72,1.26.19.5.69.57,1.09.78.36.19.67.43.55.88-.11.45-.4.71-.9.75-.9.07-1.55-.32-2.09-.98-.43-.52-.58-1.15-.68-1.92-.15.47-.16.83-.05,1.14.33.93.26,1.89.24,2.85-.01.59-.23,1.13-.6,1.59-.4.5-.91.63-1.49.38-.54-.23-.52-.67-.33-1.23,0,.02.01.03.02.05.04-.03.09-.06.15-.1-.05-.07-.08-.11-.12-.16-.03.03-.07.07-.07.1,0,.02,0,.04.01.07-.41.3-.6.12-.78-.17-.05-.09-.1-.26-.27-.16-.21-.65-.73-.58-1.25-.54-.57.04-.82.41-.9.92-.1.6.08,1.15.45,1.63.79,1.05,1.84,1.38,3.29.98ZM74.76,24.8c.92-.16,1.34.25,1.26,1.25-.02.24-.01.49-.07.73-.2.79-.83,1.12-1.99,1.03.55-.94.7-1.96.8-3ZM31.27,14.1c.2-.09.44-.03.6.09.17.2.25.73-.1.82-.05.03-.1.05-.14.08-.34-.09-.94.24-1.03-.3.14-.3.37-.56.66-.69ZM66.01,42.04c0,3.02-1.16,5.52-3.32,7.57-2.09,1.98-4.66,3.01-7.44,3.62-3.86.85-7.5.25-10.91-1.65-3.36-1.88-5.21-4.87-5.94-8.6-.03-.17-.01-.36-.01-.54,0-8.26,0-16.52-.01-24.77,0-.55.12-.71.69-.7,4.38.03,8.75.01,13.13.01s8.75.01,13.13-.01c.57,0,.69.15.69.7-.02,8.12-.02,16.25,0,24.37ZM44.29,14.38c-.1-.08-.28-.19-.36-.31,5.57-2.31,11.14-2.57,16.75.08-.29.27-.81.11-.84.54-.03.46.46.48.74.66.21.14.44.25.35.53-.09.25-.19.48-.59.48-1.93-.03-3.86-.02-5.79-.01-3.43.01-6.87.04-10.3.06-.32,0-.72.04-.74-.36,0-.27.17-.63.6-.64.31-.01.5-.25.57-.5.08-.29-.19-.37-.38-.52ZM74.9,34.91c.22.13.28-.1.39-.19.25-.19.49-.45.82-.33.35.13.43.5.48.82.12.69-.66,1.87-1.44,2.24-.73.34-1.57.17-2.22-.5,1.28-.11,1.76-.94,1.96-2.04ZM67.84,33.03c-.58-.2-.94-.97-.79-1.69.16-.78,1.09-1.68,1.86-1.81.26-.04.49,0,.64.24.07.61-.33.98-.7,1.36-1,.05-1.3.6-1.01,1.89ZM69.22,33.28c-.53,0-.92-.15-1.08-.69-.16-.55.23-.75.6-.96.11-.07.23-.13.35-.19.88-.41,1.26-1.18,1.46-2.07.1-.38.21-.76.31-1.15.1-.37.26-.57.63-.26.07.06.14.15.22.15.97.06,1.21.36,1.32,1.37.12,1.18.13,2.35.1,3.53-.02.81.3,1.46.8,2.04.21.39.49.78-.04,1.15-.48.33-1.17.29-1.55-.14-.92-1.01-.85-2.24-.73-3.47.07-.7.47-1.35.3-2.13-.22.18-.21.41-.24.64-.13,1.12-1.32,2.16-2.45,2.18ZM66.36,43.38c.18-.31.51-.31.83-.12.3.18.36.4.21.73-.16.36-.4.51-.82.48.58.39.95.22,1.61-.67.16-.08.27-.2.29-.39.84-1.06,1.07-2.32,1.16-3.61.07-1.09.03-2.2,0-3.29,0-.36.06-.59.44-.66.02,0,.04,0,.07-.01.42-.05.69-.67,1.2-.33.5.34.51.95.55,1.43.31,3.27-1.01,5.84-3.5,7.89-.27.22-.59.32-.91.39-.49.11-.96,0-1.23-.45-.27-.46-.14-.97.1-1.39ZM37.91,16.53c-.21-.25-.03-.56.2-.76.31-.26.65-.48.95-.78-.91.08-1.38-.49-1.89-1.03-.3-.32-.28-.55.05-.81.89-.71,1.72-1.49,2.77-1.96.04,0,.09,0,.13,0,.29-.47.71-.74,1.26-.81.04,0,.08,0,.12,0-.08-.3.18-.32.34-.39,2.75-1.1,5.56-2.04,8.49-2.55.33-.06.67-.05,1-.07h-.01c.53-.19,1.08-.04,1.62-.08.02.09.04.18.06.27.06,0,.13,0,.19,0,.02-.09.04-.17.06-.26,2.45.35,4.88.81,7.2,1.73.31.12.62.24.93.37.03-.04.06-.08.09-.12-1.91-1.02-3.99-1.56-6.09-1.98-1.35-.27-2.72-.57-4.11-.42-2.46.26-4.81.98-7.14,1.78-2.7.92-5,2.5-7.21,4.25-.28.22-.5.51-.75.77-.11.12-.24.29-.38.19-.18-.12-.07-.31.04-.47.52-.72,1.2-1.27,1.88-1.81,3.35-2.63,7.2-4.11,11.35-4.84.92-.16,1.85-.37,2.77-.38,1.83-.03,3.62.37,5.4.79,3.67.88,6.98,2.5,9.95,4.81.52.4.97.87,1.35,1.4.12.17.38.39.19.57-.23.23-.38-.11-.52-.24-.56-.51-1.12-1.02-1.77-1.43-.09-.15-.24-.23-.39-.29-.09-.15-.22-.25-.39-.28-.11-.13-.2-.3-.43-.2.04.17.19.22.31.31.12.09.25.18.37.27.13.11.26.21.39.32.14.14.29.27.42.43.23.28.75.5.6.87-.21.51-.52,1.05-1.15,1.22-.26.07-.51.08-.76-.1-.82-.61-1.77-.99-2.69-1.42-.14-.05-.29-.08-.48.04.16.03.27.06.39.08,1.27.75,2.55,1.47,3.68,2.42.2.17.55.31.33.62-.23.32-.56.07-.76-.08-1.14-.87-2.33-1.65-3.63-2.24-3.37-1.54-6.86-2.67-10.61-2.49-2.87.13-5.62.86-8.23,2.06-1.66.77-3.3,1.58-4.83,2.59-.19.13-.44.38-.64.14ZM35.8,31.12c-.57-.07-.73-.56-1.01-.94h0s0,0,0,0c-.04-.74.15-.9.85-.68,1.32.41,2.01,1.66,1.52,2.79-.11.26-.26.52-.6.63-.11-.25.09-.45.1-.68.01-.62-.19-1.04-.85-1.12ZM28.12,34.31c.37-.26.61.1.88.25.07.04.13.11.23.07.22.47.42.94.67,1.39.31.56.9.67,1.51.81-.55.67-1.28.72-2,.59-.74-.14-1.62-1.32-1.67-2.09-.02-.4.03-.78.38-1.02Z"/>
      <path class="cls-1" d="M36.11,43.53s0,0,0-.02h-.01s.01.01.02.02Z"/>
      <path class="cls-1" d="M33.32,24.99c0-.09,0-.19.01-.28-.02.1-.01.19-.01.28Z"/>
      <path class="cls-1" d="M36.66,22.13c.39-.51.33-1.28-.14-1.8-.4-.42-.88-.53-1.44-.43-1.52.27-2.3,1.36-2.89,2.63-.57,1.22-1.01,2.5-1.64,3.7-.38.15-.34-.18-.37-.36-.06-.36-.18-.68-.38-.98-.3-.44-.7-.58-1.22-.51-.52.07-.76.4-.91.86-.38,1.21.6,2.64,1.87,2.7.47.02.94,0,1.41-.04.39-.03.55.04.36.47-.29.66-.33,1.37-.34,2.1-.01,1.21.17,2.43-.14,3.64.41-.41.46-.98.39-1.44-.15-1.02.11-2,.06-3.01-.02-.4.11-.85.29-1.22.17-.35.42-.82.97-.49.19.11.25-.02.33-.1.35-.36.49-.13.58.2.06.21.1.42.18.75.15-.66-.09-1.18,0-1.76.26.2.45.38.67.52.5.32,1.04.47,1.55.08.51-.39.48-.94.21-1.45-.17-.32-.01-.41.2-.56.47-.35.91-.73.92-1.4,0-.25-.06-.46-.27-.57-.23-.12-.48-.12-.65.15.72.14.81.41.33.99-.52.63-1.62.69-2.21.11-.2-.2-.39-.42-.65-.72.15,1.05.79,1.47,1.6,1.69.39.11.46.37.5.69.04.4-.17.65-.52.76-.28.09-.66.13-.8-.17-.33-.75-1.18-1.24-1.19-2.15-.04.65-.15,1.25-.54,1.78-.5.68-1.51.8-2.13.25-.21-.19-.32-.37-.07-.6.74-1.02,1.13-2.2,1.59-3.35.45-1.11,1.11-2.04,2.18-2.6.65-.34,1.36-.57,2.06-.04.32.44.28.92.11,1.4-.12.34-.34.6-.75.52-.3-.07-.52-.22-.49-.6.03-.45.29-.59.72-.54-.77-.35-1.45-.03-1.81.8-.35.81-.05,1.54.78,1.88.09.14.21.13.34.07-.08-.06-.16-.12-.24-.18-.74-.85-.78-1.13-.29-2.06.53.92,1.33,1.1,1.85.41ZM28.3,25.56c.06-.47.26-.93.77-.95.45-.02.52.44.6.83.14.76.22,1.54.76,2.27-1.62.05-2.3-.68-2.12-2.15Z"/>
      <path class="cls-1" d="M68.98,22.56c.27-.16.36-.46.49-.76.61.96.39,1.77-.61,2.31.63.03,1.04-.26,1.25-.76.23-.56.2-1.13-.22-1.63-.38-.45-.81-.74-1.47-.48.54.01.67.39.63.76-.05.48-.48.51-.87.5,0,0-.05.03-.05.03.28.22.57.2.86.04Z"/>
      <path class="cls-1" d="M35.97,43.39s0-.01,0-.02c0,0,0,0-.01,0,0,0,0,0,0,.01,0,0,0,0,.01,0Z"/>
      <path class="cls-1" d="M36.11,43.51s0,0-.01,0c0,0,0,0,0,0h.01Z"/>
      <path class="cls-1" d="M36.1,43.51c0-.08-.05-.12-.12-.12,0,.09-.03.19.12.12Z"/>
      <path class="cls-1" d="M42.48,13.12c-.43.1-.81.33-1.17.57-.36.13-.71.26-1.12.65.58-.08.89-.36,1.24-.55.39-.19.78-.37,1.17-.56-.02-.02-.05-.05-.07-.07.19-.13.46-.13.6-.34-.02-.03-.05-.05-.07-.08-.23.08-.47.12-.64.31.02.02.05.05.07.07Z"/>
      <path class="cls-1" d="M42.4,12.76c.19-.14.29-.22.14-.47-.34-.6-.65-1.23-.98-1.84-.04,0-.08,0-.12,0,.26.56.53,1.11.79,1.67.07.15.22.28.04.47-.48.48-.97.43-1.33-.15-.25-.39-.5-.78-.75-1.17-.04,0-.09,0-.13,0,.08.43.37.75.56,1.11.64,1.16.69,1.16,1.77.39Z"/>
      <path class="cls-1" d="M51.39,7.45s0,0,0,0c0,0,0-.01.01-.02,0,0-.01.01-.01.01Z"/>
      <path class="cls-1" d="M51.25,9.21c.03,1.2.03,1.2,1.23,1.18.02,0,.04,0,.07,0,.56.05.84-.15.7-.76,0-.67,0-1.34,0-2.02-.06,0-.13,0-.19,0,0,.67-.01,1.34-.02,2.02.02.39-.09.63-.55.54-.17-.03-.36-.02-.53,0-.32.04-.47-.06-.5-.42-.06-.77-.11-1.54-.08-2.31-.23.26-.3.55-.22.9.06.28.08.57.09.86Z"/>
      <path class="cls-1" d="M63.04,13.08c.31.13.39,0,.51-.21h0c.02-.06.04-.12.06-.19.28-.33.53-.67.68-1.07.15-.19.3-.38.45-.57-.22-.17-.43-.36-.72-.42-.24-.16-.47-.32-.71-.47-.07-.05-.22-.13-.22.05-.01.53-.41.88-.63,1.3-.57,1.13-.59,1.1.58,1.57ZM62.53,11.87c.15-.32.39-.6.51-.92.2-.55.49-.55.88-.21.37.17.6.37.25.77-.22.36-.45.73-.67,1.09-.02.06-.05.12-.07.18-.47.33-.77-.14-1.08-.31-.25-.13.09-.4.18-.6Z"/>
      <path class="cls-1" d="M45.75,11.94c2.78-.61,5.55-1.26,8.44-.96-2.53-.55-5.88-.2-8.58.86-.53.18-1.06.37-1.59.56.02.06.04.11.06.17.56-.21,1.12-.42,1.67-.63Z"/>
      <path class="cls-1" d="M40.08,14.41c-.49.11-.81.27-1,.65.37-.08.7-.22,1-.65Z"/>
      <path class="cls-1" d="M55.12,11.01c-.23-.01-.45-.03-.68-.04.19.18.43.18.68.04Z"/>
      <path class="cls-1" d="M61.78,9.53c.08-.16-.14-.15-.26-.18-.03.04-.06.08-.09.12.13-.02.24.28.35.06Z"/>
      <path class="cls-1" d="M59.2,12.21c.09.19.26.12.4.13.09.19.26.12.4.13.11.17.25.18.47.05-.17-.05-.29-.08-.41-.11h0c-.14-.05-.27-.1-.41-.15-.13-.04-.27-.08-.4-.12h0c-.14-.09-.28-.15-.45-.03.13.13.26.1.39.1Z"/>
      <path class="cls-1" d="M43.39,12.76c-.05-.11-.19,0-.27.06.02.03.05.05.07.08.08-.03.28.04.2-.14Z"/>
      <path class="cls-1" d="M40.07,14.36s.03.03.04.04c.02-.03.03-.05.05-.08-.02-.02-.03-.03-.05-.04-.02.03-.03.05-.04.08Z"/>
      <path class="cls-1" d="M38.63,55.84l.03.03.52-.55-.06-.06s-.03.03-.1.03c-.03.03-.06,0-.1-.03,0,0-.03-.06-.1-.19-.06-.16-.16-.26-.26-.36-.23-.23-.48-.32-.78-.32-.32,0-.61.13-.84.39-.26.26-.36.55-.32.87.03.29.16.55.39.78.13.13.32.23.52.26.13.03.26.03.45.03v-.13c-.16,0-.29,0-.39-.03-.19-.03-.32-.1-.45-.23-.19-.19-.23-.42-.1-.68.06-.16.16-.32.32-.48.23-.23.42-.39.61-.45.19-.1.39-.03.55.1.13.13.19.32.16.55,0,.13-.03.29-.06.48Z"/>
      <path class="cls-1" d="M38.95,57.88c-.1-.06-.16-.13-.16-.19-.03-.06,0-.13.03-.19l.97-1.26c.06-.06.13-.1.19-.1.03,0,.1.03.19.1l.03-.06-.9-.71-.03.06c.06.06.13.13.13.16.03.06.03.13-.03.23l-.97,1.26c-.03.06-.13.1-.19.1-.03,0-.1-.03-.16-.1l-.06.06.9.71.06-.06Z"/>
      <path class="cls-1" d="M41.12,56.75l-.29-.19-.26-.13-.32-.19-.03.06c.06.06.13.1.13.13.03.06.03.13,0,.23l-.81,1.36c-.06.1-.13.13-.19.13-.03,0-.1-.03-.16-.1l-.06.1.9.55c.19.1.39.19.55.19h.1c.06,0,.1,0,.16-.03.1-.03.19-.1.26-.23.13-.16.13-.32.03-.52-.06-.1-.13-.19-.23-.26l.03-.03c.1.03.23.03.36.03.1-.03.19-.1.29-.19.1-.19.06-.39-.1-.58-.06-.13-.19-.23-.36-.32ZM40.6,58.37s0,.03-.03.03c-.06.13-.13.19-.23.23-.1.03-.19,0-.32-.06-.06-.03-.1-.1-.1-.16,0,0,0-.06.03-.1l.42-.71c.1.03.16.1.19.13.06.03.1.1.1.13.1.13.06.29-.06.52ZM41.18,57.07c0,.1-.03.19-.1.29-.06.16-.16.23-.26.26-.06,0-.16,0-.26-.03-.03-.03-.1-.06-.13-.1l.13-.23.23-.39s0-.03.03-.03c0-.03.03-.06.06-.06s.1,0,.16.03c.1.06.16.16.13.26Z"/>
      <path class="cls-1" d="M41.47,59.17c-.03.1-.06.13-.16.13-.03,0-.1,0-.16-.03l-.03.06.94.42c.16.1.36.13.52.13.13,0,.29,0,.42-.06.26-.1.45-.29.58-.58.13-.29.13-.58.03-.84-.1-.29-.32-.52-.68-.68l-.36-.16-.55-.26-.03.1c.06.03.13.06.13.1.06.06.06.13.03.19l-.68,1.49ZM42.57,58.04l.03-.13c.03-.06.06-.1.1-.1.03-.03.1-.03.16,0,.23.1.36.32.32.61,0,.16-.03.36-.13.58-.16.36-.32.55-.48.65-.19.06-.36.06-.52,0-.06-.03-.1-.06-.13-.13,0-.03,0-.06.03-.13l.61-1.36Z"/>
      <path class="cls-1" d="M44.73,60.66s-.1,0-.23-.03v.1l.97.32.03-.1c-.06,0-.1-.06-.13-.13-.03-.06-.03-.19-.06-.42l-.13-1.84h-.1l-.58.71-.65.71c-.1.13-.19.19-.23.23-.06.06-.13.06-.19.06l-.03.06.61.23.03-.1c-.06-.03-.13-.03-.16-.06-.03-.03-.06-.1-.06-.13.03-.03.06-.1.1-.16.03-.03.1-.1.19-.23l.39.13.29.13v.19c.03.06.03.1.03.13,0,.06-.03.1-.03.13s-.03.06-.06.06ZM44.51,59.88l-.32-.06.32-.36.19-.29.03.03.06.78-.29-.1Z"/>
      <path class="cls-1" d="M46.06,60.89c-.03.06-.06.13-.13.16-.03,0-.1,0-.19-.03v.1l.97.23c.13.03.26.06.39.06.19-.03.39-.06.55-.19.23-.16.39-.39.45-.68.06-.32.03-.58-.1-.81-.16-.26-.42-.42-.81-.52l-.1-.03-.87-.19v.06c.06.03.13.06.16.1s.06.1.03.19l-.36,1.55ZM46.58,60.98l.36-1.52c0-.06.03-.13.06-.13,0-.03.03-.03.1-.03h.06c.26.06.39.23.42.52.03.16.03.36-.03.58-.06.39-.19.61-.36.74-.03,0-.06.03-.1.06-.13.03-.26.06-.39.03-.1-.03-.13-.06-.13-.1-.03-.03-.03-.06,0-.16Z"/>
      <path class="cls-1" d="M50.45,61.63h-.19v.1l1.03.06c.06,0,.13,0,.23-.03.26,0,.48-.13.65-.29.23-.19.32-.45.32-.74.03-.32-.06-.61-.26-.81-.16-.16-.42-.29-.71-.32h-.16l-1-.06v.1c.1,0,.16.03.19.03.03.03.06.1.06.19l-.06,1.58c0,.1-.03.16-.1.19ZM51.16,59.72s.1-.03.16-.03.13,0,.19.03c.16.06.26.16.36.36.03.19.06.39.06.61-.03.39-.1.65-.23.78-.06.06-.13.13-.19.16-.1.03-.19.03-.29.03-.06,0-.1-.03-.13-.06s-.03-.06-.03-.13l.03-.76c.07.11.23.3.23.3v-.58l-.23.23.03-.77c0-.06.03-.13.03-.16Z"/>
      <path class="cls-1" d="M55.27,60.5c.1-.03.19-.06.26-.13.13-.06.23-.16.26-.26.03-.13.06-.23.03-.29-.03-.23-.13-.36-.29-.42-.13-.06-.32-.1-.55-.06h-.06l-1.03.16v.1c.1,0,.19,0,.23.03.03.03.06.1.1.23l.19,1.39c.03.13.03.19,0,.26-.03.03-.1.06-.23.1l.03.06.78-.1.29-.06-.03-.06c-.1,0-.16,0-.23-.03,0,0,0-.03-.03-.03-.03-.03-.03-.1-.06-.19l-.06-.61s.1,0,.13-.03c.13,0,.23-.03.29-.03ZM54.82,60.47l-.13-.84c0-.06,0-.1.03-.1.03-.03.06-.06.13-.06h.13c.06,0,.13.03.16.1.06.1.13.19.13.32.03.23,0,.36-.1.45-.03.03-.1.06-.19.06-.03.03-.1.03-.16.06Z"/>
      <path class="cls-1" d="M62.63,56.94l-.03-.1-.9.61.06.06s.06-.03.1-.03c.06,0,.13,0,.19.06l1.1.55.26.42c.06.1.1.16.06.23,0,.06-.06.13-.16.19l.06.06.94-.65-.06-.06c-.1.06-.16.1-.23.1-.03,0-.1-.06-.19-.16l-.32-.52-.03-1.2c0-.06,0-.1.03-.13,0-.03.03-.06.06-.1l-.03-.06-.58.39.03.06c.1-.03.16-.06.19-.1.03,0,.1.03.13.06,0,.03.03.1.03.19,0,.03,0,.1.03.13v.71l-.78-.45s-.06-.03-.1-.03c0-.03-.03-.03-.03-.03v-.1s.1-.06.16-.13Z"/>
      <path class="cls-1" d="M64.28,55.46l-.06.06.68,1.81c.03.16.06.26.06.29v.06c0,.06-.03.13-.06.16l.06.06v-.03l.48-.42-.06-.06c-.06.03-.1.06-.13.1-.06.03-.1.03-.13,0s-.06-.1-.1-.19c0,0-.03-.06-.06-.13,0-.03-.03-.06-.03-.1l.03-.06.52-.45.16.1c.06.03.1.03.13.06.03.03.06.03.1.06.03.03.03.06.03.1-.03.03-.06.1-.13.16l.03.06.78-.71-.03-.06c-.06.06-.13.06-.19.06s-.19-.06-.39-.16l-1-.45-.68-.32ZM64.96,56.85l-.1.1-.26-.78v-.03l.36.19.39.16-.39.36Z"/>
      <path class="cls-1" d="M65.93,54.29l-.45.55.06.03s.06-.03.1-.03h.26l1.16,1c.06.06.1.1.1.16.03.06-.03.13-.1.23l.06.06.48-.58-.06-.03c-.1.1-.19.13-.26.13-.03,0-.1-.06-.19-.13l-.94-.84,2.23.03.06-.06-1.45-1.26c-.06-.06-.1-.13-.1-.16,0-.06.03-.13.1-.19l-.06-.06-.45.55.03.03c.1-.06.16-.13.23-.13s.13.03.23.13l.74.61-.03.03-1.74-.06Z"/>
      <path class="cls-1" d="M57.76,59.01c-.19-.1-.39-.16-.58-.16-.06,0-.16.03-.26.03-.32.1-.58.26-.71.52-.16.29-.23.55-.13.87.06.32.23.55.45.71.19.13.42.19.65.19.1,0,.13,0,.23-.03.32-.06.55-.23.74-.48.16-.29.19-.58.13-.87-.1-.36-.26-.61-.52-.78ZM57.37,61.05h-.19c-.13-.03-.26-.16-.36-.32-.06-.13-.13-.32-.19-.58-.06-.26-.06-.42-.06-.58.03-.32.16-.52.39-.55.1-.03.16-.03.23,0,.1.03.13.06.19.16.16.13.26.39.32.71.06.23.1.45.1.61-.03.29-.16.48-.42.55Z"/>
      <path class="cls-1" d="M59.66,59.43c.1-.03.16-.1.26-.16.1-.1.16-.19.19-.32.03-.1.03-.19,0-.29-.06-.23-.19-.36-.36-.39-.13-.03-.29-.03-.48,0-.03.03-.1.03-.16.06l-.97.32v.06c.13-.03.19-.03.23,0,.06.03.1.1.13.19l.42,1.36c.03.13.06.19.03.26-.03.03-.1.1-.19.13l.03.06.48-.16.55-.16-.03-.06c-.1.03-.19.03-.23,0-.06-.03-.1-.1-.13-.23l-.16-.42-.03-.13h.03c.16-.06.29-.1.39-.13ZM59.21,59.46l-.26-.84c0-.06,0-.1.03-.1,0-.03.03-.06.1-.06.1-.03.16-.03.19-.03.06,0,.1.03.13.06.06.06.13.19.19.32.06.23.03.36-.03.45-.03.06-.13.1-.29.16,0,0-.03.03-.06.03Z"/>
      <path class="cls-1" d="M60.79,60.01l.03.06.52-.19.1-.03-.03-.06s-.06,0-.06.03h-.1c-.06,0-.1,0-.13-.03,0-.06-.03-.1-.03-.19v-.29l.26-.1.39-.19.16.16.06.06c.06.06.06.1.1.1v.13s-.1.06-.19.1l.03.1.97-.45-.03-.06c-.06.03-.13.03-.19,0-.06-.03-.16-.13-.32-.26l-.97-.94-.39-.36-.06.03.06,1.94c0,.16,0,.26-.03.32,0,.03-.06.1-.13.13ZM61.05,58.33l.29.29.29.29-.29.13-.29.13-.03-.81.03-.03Z"/>
      <path class="cls-1" d="M69.14,16.34s-.05-.03-.11-.07c.03.02.06.04.11.07Z"/>
      <path class="cls-1" d="M69.03,16.26c-.23-.14-.11-.07,0,0h0Z"/>
      <path class="cls-1" d="M69.09,16.28c1.14,1.16,2.18,1.28,2.93.26-1.11.79-1.97.04-2.93-.26Z"/>
      <path class="cls-1" d="M76.14,52.61c-.84-.24-1.46.2-2.11.57-.05.02-.1.04-.16.06,0-.08.01-.15.02-.23.39-1.09.84-2.16.95-3.32.24-2.6-.57-4.74-3.79-4.71-.6,0-.96.27-1.29.68-.68.84-1.19,1.78-1.71,2.71-2.24,3.97-5.25,7.02-9.85,8.16-2.75.68-5.52,1.14-8.35.7-2.66-.41-5.27-1.01-7.67-2.29-.64-.39-1.2-.92-1.9-1.22-.83-1.08-1.81-2.03-2.59-3.16-1.13-1.63-2.35-3.2-3.22-5-.25-.52-.64-.86-1.28-.73-.37.08-.76.09-1.12.18-2.22.6-3.03,2-2.62,4.28.21,1.16.48,2.3.77,3.44.13.18.04.2-.12.15-.35-.14-.69-.32-1.05-.43-.8-.25-1.56-.16-2.18.45-.57.56-.61,1.26-.36,1.99.11.31.19.64.32.94,1.02,2.4,2.24,4.7,3.46,7,.31.6.7,1.01,1.29,1.15l-.07.03s.05-.02.08-.03c.14.03.28.06.44.06,0,0,0-.01,0-.02.06.02.12.04.18.05.2.04.4,0,.6-.03.64-.11,1.29-.22,1.86-.54.08-.04.16-.1.19-.18,0-.01,0-.02,0-.03.04,0,.09,0,.13,0,.22-.05.02-.15.02-.23-.01-.45-.21-.85-.36-1.27-.09-.22-.08-.38.17-.48.44-.17.88-.36,1.33-.53-.17-.02-.33.01-.5.07-.88.3-.99.31-1.27-.58-.19-.61-.83-.83-.96-1.42-.02-.08-.08-.1-.16-.11v-.02h-.07c-.91-.02-2.99-.39-3.95-.65-.05-.03-.11-.04-.16-.07-1.41-.78-2.16-2.35-1.8-3.76.23-.92.93-1.4,1.74-1.23.81.17,1.47.77,2.34.73.03,0,.1.04.1.06.07.61.77.77.93,1.37.14.54.62.94.99,1.37.21.24.52.46.49.84.02,0,.04,0,.05,0,.84.8,1.52,1.76,2.53,2.38.19.12.02.28.05.42-.11.15-.51.08-.35.43.15-.15.31-.29.46-.44.47-.37.91-.95,1.56-.27,0,0,.06-.04.1-.07-.1-.29-.39-.35-.6-.49-2.15-1.4-3.83-3.21-4.95-5.52-.57-1.17-.65-2.38.07-3.5.7-1.08,1.44-2.12,1.67-3.5,1.53,2.71,3.22,5.16,5.63,7.02.57.5,1.19.93,1.88,1.25,2.79,1.65,5.85,2.4,9.04,2.64,2.33.17,4.62-.21,6.88-.79,3.34-.86,6.2-2.48,8.4-5.19,1.18-1.46,2.16-3.03,3.04-4.83.04,1.16.45,1.99,1.18,2.72.82.82,1.13,1.88.87,3.01-.3,1.3-.97,2.48-1.69,3.58-.91,1.4-2.28,2.37-3.59,3.38-1.36.8-2.71,1.6-4.18,2.19-2.8,1.12-5.74,1.49-8.72,1.69-3.18.22-6.26-.32-9.31-1.11-.7-.18-4.19-1.22-5.39-2.34,0,0,0-.01,0-.01-.03-.04-.06-.09-.11-.12-.01-.01-.1.05-.1.05.02.06.04.13.08.16,0,0,0,0,.01,0-.04,0-.07,0-.04.02,3.79,2.91,11.76,3.81,16.05,3.43,2.6-.23,5.15-.66,7.61-1.52,1.53-.53,3.04-1.14,4.25-2.27.27-.22.38.06.52.19.45.43.98.76,1.52,1.07.46.26,1.24.06,1.38.52.12.42-.3.98-.45,1.49-.05.16-.17.35.07.53.61.47,2.56.69,3.31.33,0,0,0,0,0,.01.49.09.79-.13,1.02-.55.86-1.56,1.73-3.11,2.59-4.67.5-.92,1.07-1.81,1.35-2.82.43-1.51-.07-2.91-1.47-3.31ZM29.34,58.27c1.62.53,2.56.65,3.31.65.19,0,.36,0,.53-.02l.26.9c.33,1.04,1.03,1.94,1.25,3.03l-2.66,1.02c-.2-.29-.45-.57-.57-.89-.09-.24-.7-.43-.15-.8-.04-.02-.08-.04-.12-.06-.35-.2-.51-.53-.62-.9-.14-.42-.34-1.05-.53-1.18-.5-.33-.56-.85-.88-1.23-.21-.24-.3-.52.19-.52ZM31.92,52.9c-.05.38-.35.53-.66.56-.29.03-.25-.31-.3-.49-.16-.68-.29-1.38-.45-2.06-.03-.13-.04-.19.09-.24.16-.07.29-.13.48-.02.61.37.86.92.91,1.58-.03.24-.05.46-.08.68ZM33.28,48.56c-.43.62-.85,1.25-1.18,1.98-.28-.17-.47-.35-.72-.46-1.51-.65-1.87-2.3-.74-3.51.47-.5,1.03-.9,1.74-1.05.88-.2,1.51.23,1.55,1.12.04.72-.24,1.34-.65,1.92ZM73.81,51.23c-.16.67-.29,1.36-.4,2.03-.1.63-.34.27-.5.21-.51-.2-.43-.66-.43-1.14-.11-.62.2-1.1.71-1.49.18-.14.33-.18.59-.06.39.18.05.36.03.46ZM70.95,48.27c-.3-.53-.52-1.08-.4-1.7.14-.8.64-1.14,1.43-1.02,1.51.23,2.61,1.71,2.39,3.21-.09.63-.4,1.07-1.01,1.28-.35.13-.71.26-1,.67-.34-.97-.96-1.66-1.41-2.44ZM76.01,57.69c-.13.1-.24.16-.3.28v-.02c-.89.27-3.16.67-4.11.69h-.07s0,.15,0,.15h.06c.18.02.37.02.57.02.77,0,1.76-.13,3.5-.71-.01.07-.01.15,0,.26.07.54-.35,1.14-.73,1.49-.51.46-.71,1.03-.95,1.6-.07.18-.22.24-.29.39-.15.3-.29.61-.43.91-.19.39-.47.75-.59,1.18-.97.13-1.9.09-2.75-.47-.34-.23-.46-.47-.26-.89.54-1.12,1.05-2.25,1.56-3.38.07-.16.12-.34.32-.39v-.02c-.16-.06-.38-.19-.48.02-.27.58-.9.89-1.06,1.57-.06.28-.17.71-.64.61-.58-.11-1.11-.33-1.46-.84-.1-.16.08-.32.19-.38,1.21-.76,2.03-1.87,2.84-3,.48-.66.98-1.28,1.39-2,.22-.38.6-1.02,1.38-1.03.5,0,.98-.39,1.49-.54.95-.29,1.65.12,1.92,1.1.33,1.16-.15,2.66-1.11,3.38Z"/>
      <path class="cls-1" d="M33.78,57.42s0,.03,0,.04c.01.02.03.03.05.03.02,0,.06,0,.06-.02,0-.02,0-.04,0-.07-.04,0-.08,0-.12,0Z"/>
      <path class="cls-1" d="M36.17,60.81s0,0,0,0c0,0,.01,0,.02,0,0,0-.01,0-.01,0Z"/>
      <path class="cls-1" d="M36.19,60.67s0,0,0-.01c0,0,0,0-.01,0,0,0,.01,0,.01,0Z"/>
    </g>
  </g>
</svg>