<?xml version="1.0" encoding="UTF-8"?>
<svg id="Layer_2" data-name="Layer 2" xmlns="http://www.w3.org/2000/svg" viewBox="0 0 250.81 80.34">
  <defs>
    <style>
      .cls-1 {
        fill: #fff;
      }
    </style>
  </defs>
  <g id="Layer_2-2" data-name="Layer 2">
    <g>
      <path class="cls-1" d="M74.68,30.41h-4.8l-1.1,3.72h-1.83l4.58-14.21h1.53l4.59,14.21h-1.84l-1.12-3.72ZM70.35,28.87h3.87l-1.94-6.46-1.93,6.46Z"/>
      <path class="cls-1" d="M81.19,34.12h-1.73v-14.99h1.73v14.99Z"/>
      <path class="cls-1" d="M87.57,32.84c.57,0,1.03-.18,1.38-.53.34-.35.53-.86.57-1.52h1.63c-.04,1.02-.4,1.86-1.08,2.52-.68.67-1.51,1-2.49,1-1.31,0-2.3-.41-2.99-1.23s-1.03-2.05-1.03-3.67v-1.16c0-1.59.34-2.81,1.03-3.64.68-.83,1.68-1.24,2.99-1.24,1.08,0,1.94.34,2.57,1.03s.97,1.62,1.01,2.8h-1.63c-.04-.78-.23-1.37-.56-1.76-.34-.39-.8-.59-1.39-.59-.77,0-1.34.25-1.71.76-.37.5-.56,1.33-.58,2.48v1.35c0,1.24.18,2.12.55,2.63.37.51.95.77,1.74.77Z"/>
      <path class="cls-1" d="M98.57,34.12c-.1-.23-.18-.61-.22-1.15-.61.9-1.39,1.35-2.34,1.35s-1.7-.27-2.24-.81c-.54-.54-.8-1.29-.8-2.27,0-1.07.36-1.92,1.09-2.56.73-.63,1.73-.95,3-.97h1.27v-1.12c0-.63-.14-1.08-.42-1.35s-.71-.4-1.28-.4c-.52,0-.94.16-1.27.46s-.49.7-.49,1.18h-1.73c0-.54.16-1.06.48-1.55.32-.49.75-.88,1.29-1.16.54-.28,1.14-.42,1.8-.42,1.08,0,1.9.27,2.46.81.56.54.85,1.32.86,2.35v5.33c0,.81.12,1.52.33,2.12v.16h-1.8ZM96.27,32.75c.42,0,.83-.12,1.21-.35.38-.23.66-.53.84-.88v-2.52h-.98c-.82.01-1.47.2-1.94.55-.48.35-.71.85-.71,1.49,0,.6.12,1.03.36,1.3.24.27.65.4,1.22.4Z"/>
      <path class="cls-1" d="M104.58,34.12h-1.73v-14.99h1.73v14.99Z"/>
      <path class="cls-1" d="M106.93,28.37c0-1.63.3-2.87.91-3.72.61-.85,1.48-1.28,2.62-1.28,1.01,0,1.79.41,2.36,1.23v-5.46h1.73v14.99h-1.58l-.09-1.13c-.57.88-1.38,1.33-2.43,1.33s-1.95-.43-2.57-1.27c-.62-.85-.94-2.05-.95-3.6v-1.08ZM108.65,29.35c0,1.18.18,2.05.53,2.61.35.56.92.83,1.72.83.86,0,1.5-.43,1.92-1.3v-5.32c-.44-.85-1.08-1.27-1.91-1.27s-1.37.28-1.72.83c-.35.55-.53,1.41-.54,2.56v1.05Z"/>
      <path class="cls-1" d="M119.13,19.14h2.19l-2.61,2.87h-1.45s1.88-2.87,1.88-2.87ZM119.07,34.12h-1.73v-10.56h1.73v10.56Z"/>
      <path class="cls-1" d="M127.33,34.12c-.1-.23-.18-.61-.22-1.15-.61.9-1.39,1.35-2.34,1.35s-1.7-.27-2.24-.81c-.54-.54-.8-1.29-.8-2.27,0-1.07.36-1.92,1.09-2.56.73-.63,1.73-.95,3-.97h1.27v-1.12c0-.63-.14-1.08-.42-1.35s-.71-.4-1.28-.4c-.52,0-.94.16-1.27.46s-.49.7-.49,1.18h-1.73c0-.54.16-1.06.48-1.55.32-.49.75-.88,1.29-1.16.54-.28,1.14-.42,1.8-.42,1.08,0,1.9.27,2.46.81s.85,1.32.86,2.35v5.33c0,.81.12,1.52.33,2.12v.16h-1.8ZM125.03,32.75c.42,0,.83-.12,1.21-.35.38-.23.66-.53.84-.88v-2.52h-.98c-.82.01-1.47.2-1.94.55-.48.35-.71.85-.71,1.49,0,.6.12,1.03.36,1.3.24.27.65.4,1.22.4Z"/>
      <path class="cls-1" d="M135.69,28.37c0-1.63.3-2.87.91-3.72.61-.85,1.48-1.28,2.62-1.28,1.01,0,1.79.41,2.36,1.23v-5.46h1.73v14.99h-1.58l-.09-1.13c-.57.88-1.38,1.33-2.43,1.33s-1.95-.43-2.57-1.27c-.62-.85-.94-2.05-.95-3.6v-1.08ZM137.41,29.35c0,1.18.18,2.05.53,2.61.35.56.92.83,1.72.83.86,0,1.5-.43,1.92-1.3v-5.32c-.44-.85-1.08-1.27-1.91-1.27s-1.37.28-1.72.83c-.35.55-.53,1.41-.54,2.56v1.05Z"/>
      <path class="cls-1" d="M149.74,34.32c-1.32,0-2.32-.39-3.03-1.18-.7-.78-1.06-1.93-1.07-3.45v-1.28c0-1.58.34-2.81,1.03-3.7.69-.89,1.64-1.34,2.87-1.34s2.16.39,2.77,1.18c.61.79.92,2.01.94,3.68v1.13h-5.89v.24c0,1.13.21,1.96.64,2.47.43.51,1.04.77,1.84.77.51,0,.95-.1,1.34-.29.39-.19.75-.5,1.09-.91l.9,1.09c-.75,1.05-1.89,1.58-3.42,1.58ZM149.54,24.85c-.72,0-1.25.24-1.59.74-.35.49-.54,1.25-.59,2.29h4.16v-.23c-.05-1-.23-1.72-.54-2.15-.32-.43-.79-.64-1.44-.64Z"/>
      <path class="cls-1" d="M73.64,52.75c0-.58-.15-1.01-.44-1.31-.3-.3-.83-.6-1.61-.92-1.42-.54-2.44-1.17-3.06-1.89-.62-.72-.93-1.58-.93-2.56,0-1.19.42-2.15,1.27-2.87.85-.72,1.92-1.08,3.23-1.08.87,0,1.64.18,2.32.55.68.37,1.2.88,1.57,1.55.37.67.55,1.43.55,2.28h-2.85c0-.66-.14-1.17-.42-1.51-.28-.35-.69-.52-1.22-.52-.5,0-.89.15-1.17.44-.28.3-.42.69-.42,1.19,0,.39.16.74.47,1.05.31.32.86.64,1.65.98,1.38.5,2.39,1.11,3.01,1.84.63.73.94,1.65.94,2.77,0,1.23-.39,2.2-1.18,2.89-.79.69-1.85,1.04-3.2,1.04-.91,0-1.75-.19-2.5-.56-.75-.38-1.34-.91-1.77-1.61-.42-.7-.64-1.53-.64-2.48h2.87c0,.82.16,1.41.48,1.78.32.37.84.55,1.56.55,1,0,1.5-.53,1.5-1.59Z"/>
      <path class="cls-1" d="M83.29,56.46c-.08-.16-.16-.44-.23-.82-.49.67-1.16,1.01-2,1.01s-1.61-.29-2.19-.88c-.58-.58-.87-1.34-.87-2.27,0-1.1.35-1.96,1.06-2.56.7-.6,1.72-.91,3.04-.92h.84v-.85c0-.47-.08-.81-.24-1-.16-.19-.4-.29-.71-.29-.69,0-1.03.4-1.03,1.21h-2.75c0-.97.36-1.77,1.09-2.41.73-.63,1.65-.95,2.77-.95s2.05.3,2.68.9c.63.6.95,1.46.95,2.57v4.95c.01.91.14,1.62.39,2.13v.17h-2.77ZM81.66,54.5c.31,0,.57-.06.78-.19.21-.12.37-.27.48-.44v-2.19h-.66c-.47,0-.83.15-1.1.45-.27.3-.4.7-.4,1.2,0,.78.31,1.17.91,1.17Z"/>
      <path class="cls-1" d="M90.18,45.94l.08,1.04c.62-.82,1.44-1.23,2.44-1.23,1.81,0,2.74,1.27,2.79,3.8v6.92h-2.76v-6.71c0-.6-.09-1.03-.27-1.3-.18-.27-.49-.4-.94-.4-.5,0-.89.25-1.17.77v7.65h-2.76v-10.53h2.59Z"/>
      <path class="cls-1" d="M100.67,43.35v2.59h1.41v2.06h-1.41v5.23c0,.42.06.7.17.86.11.16.33.23.66.23.26,0,.48-.02.65-.07l-.02,2.14c-.47.17-.97.26-1.52.26-1.78,0-2.68-1.02-2.7-3.06v-5.6h-1.22v-2.06h1.22v-2.59h2.75Z"/>
      <path class="cls-1" d="M108.59,56.46c-.08-.16-.16-.44-.23-.82-.49.67-1.16,1.01-2,1.01s-1.61-.29-2.19-.88-.87-1.34-.87-2.27c0-1.1.35-1.96,1.06-2.56.7-.6,1.72-.91,3.04-.92h.84v-.85c0-.47-.08-.81-.24-1-.16-.19-.4-.29-.71-.29-.69,0-1.03.4-1.03,1.21h-2.75c0-.97.36-1.77,1.09-2.41.73-.63,1.65-.95,2.77-.95s2.05.3,2.68.9c.63.6.95,1.46.95,2.57v4.95c.01.91.14,1.62.39,2.13v.17h-2.77ZM106.96,54.5c.31,0,.57-.06.78-.19.21-.12.37-.27.48-.44v-2.19h-.66c-.47,0-.83.15-1.1.45-.27.3-.4.7-.4,1.2,0,.78.31,1.17.91,1.17Z"/>
      <path class="cls-1" d="M115.49,45.94l.08,1.04c.62-.82,1.44-1.23,2.44-1.23,1.81,0,2.74,1.27,2.79,3.8v6.92h-2.76v-6.71c0-.6-.09-1.03-.27-1.3-.18-.27-.49-.4-.94-.4-.5,0-.89.25-1.17.77v7.65h-2.76v-10.53h2.59Z"/>
      <path class="cls-1" d="M122.4,50.88c0-1.73.29-3.01.88-3.86.58-.85,1.43-1.27,2.55-1.27.81,0,1.48.35,2.02,1.05v-5.27h2.77v14.94h-2.5l-.13-1.07c-.57.84-1.29,1.26-2.18,1.26-1.1,0-1.94-.42-2.52-1.26-.58-.84-.88-2.08-.89-3.72v-.8ZM125.17,51.57c0,1.04.11,1.76.33,2.17.22.41.59.62,1.12.62s.96-.24,1.23-.73v-4.81c-.27-.52-.68-.78-1.22-.78-.51,0-.88.2-1.11.61-.23.41-.35,1.14-.35,2.18v.73Z"/>
      <path class="cls-1" d="M136.9,56.66c-1.41,0-2.52-.42-3.31-1.26-.79-.84-1.19-2.05-1.19-3.62v-.84c0-1.66.36-2.94,1.09-3.84.73-.9,1.77-1.35,3.12-1.35s2.32.42,2.99,1.27c.67.85,1.01,2.1,1.02,3.75v1.35h-5.48c.04.78.21,1.35.52,1.72.3.36.77.54,1.41.54.92,0,1.69-.31,2.31-.94l1.08,1.66c-.34.47-.83.85-1.47,1.13s-1.34.43-2.09.43ZM135.16,50.2h2.75v-.25c-.01-.63-.12-1.1-.31-1.43-.19-.32-.53-.49-1.01-.49s-.83.17-1.05.52c-.22.34-.34.89-.38,1.65Z"/>
      <path class="cls-1" d="M147.37,48.59l-.92-.08c-.75,0-1.26.33-1.53.99v6.95h-2.76v-10.53h2.6l.08,1.14c.44-.89,1.03-1.33,1.8-1.33.31,0,.57.04.76.13l-.03,2.72Z"/>
      <path class="cls-1" d="M153.01,50.88c0-1.73.29-3.01.88-3.86.58-.85,1.43-1.27,2.55-1.27.81,0,1.48.35,2.02,1.05v-5.27h2.77v14.94h-2.5l-.13-1.07c-.57.84-1.29,1.26-2.18,1.26-1.1,0-1.94-.42-2.52-1.26-.58-.84-.88-2.08-.89-3.72v-.8ZM155.77,51.57c0,1.04.11,1.76.33,2.17.22.41.59.62,1.12.62s.96-.24,1.23-.73v-4.81c-.27-.52-.68-.78-1.22-.78-.51,0-.88.2-1.11.61-.23.41-.35,1.14-.35,2.18v.73Z"/>
      <path class="cls-1" d="M167.5,56.66c-1.41,0-2.52-.42-3.31-1.26-.79-.84-1.19-2.05-1.19-3.62v-.84c0-1.66.36-2.94,1.09-3.84.73-.9,1.77-1.35,3.12-1.35s2.32.42,2.99,1.27,1.01,2.1,1.02,3.75v1.35h-5.48c.04.78.21,1.35.52,1.72.3.36.77.54,1.41.54.92,0,1.69-.31,2.31-.94l1.08,1.66c-.34.47-.83.85-1.47,1.13-.64.29-1.34.43-2.09.43ZM165.77,50.2h2.75v-.25c-.01-.63-.12-1.1-.31-1.43-.19-.32-.53-.49-1.01-.49s-.83.17-1.05.52c-.22.34-.34.89-.38,1.65Z"/>
      <path class="cls-1" d="M187.47,50.48c0,2.34-.63,4.04-1.9,5.11l1.96,1.75-1.8,1.65-2.61-2.38-.75.05c-1.6,0-2.85-.54-3.76-1.63-.9-1.09-1.36-2.59-1.37-4.51v-2.22c0-1.94.45-3.46,1.35-4.56.9-1.09,2.15-1.64,3.75-1.64s2.8.52,3.71,1.58c.91,1.05,1.38,2.53,1.41,4.43v2.37ZM184.6,48.28c0-1.29-.19-2.24-.55-2.86-.37-.62-.93-.92-1.69-.92s-1.32.3-1.68.9c-.36.6-.55,1.51-.56,2.74v2.34c0,1.3.19,2.25.56,2.87.37.62.94.92,1.71.92s1.3-.31,1.67-.92c.37-.61.55-1.55.56-2.81v-2.27Z"/>
      <path class="cls-1" d="M194.57,55.5c-.57.77-1.34,1.16-2.3,1.16s-1.7-.33-2.2-1c-.5-.66-.75-1.63-.75-2.9v-6.82h2.75v6.89c.01,1.03.35,1.54,1.02,1.54.63,0,1.08-.27,1.36-.82v-7.61h2.77v10.53h-2.59l-.08-.96Z"/>
      <path class="cls-1" d="M199.2,43.21c0-.43.14-.78.41-1.05s.64-.41,1.09-.41.82.14,1.09.41c.27.27.41.62.41,1.05s-.13.77-.4,1.05c-.27.28-.63.42-1.09.42s-.82-.14-1.09-.42c-.27-.28-.4-.63-.4-1.05ZM202.09,56.46h-2.76v-10.53h2.76v10.53Z"/>
      <path class="cls-1" d="M207.11,56.46h-2.76v-14.94h2.76v14.94Z"/>
      <path class="cls-1" d="M209.24,43.21c0-.43.14-.78.41-1.05.27-.27.64-.41,1.09-.41s.82.14,1.09.41c.27.27.41.62.41,1.05s-.13.77-.4,1.05c-.27.28-.63.42-1.09.42s-.82-.14-1.09-.42c-.27-.28-.4-.63-.4-1.05ZM212.13,56.46h-2.76v-10.53h2.76v10.53Z"/>
      <path class="cls-1" d="M218.06,54.37c.8,0,1.2-.52,1.22-1.56h2.59c-.01,1.15-.37,2.08-1.06,2.78-.69.71-1.59,1.06-2.69,1.06-1.35,0-2.39-.42-3.1-1.26-.71-.84-1.08-2.08-1.09-3.73v-.84c0-1.65.35-2.91,1.06-3.78.7-.87,1.74-1.3,3.12-1.3,1.16,0,2.07.36,2.74,1.07.67.72,1.01,1.73,1.02,3.05h-2.59c0-.59-.1-1.04-.29-1.36-.19-.32-.5-.48-.93-.48-.48,0-.82.17-1.03.51-.21.34-.32,1-.33,1.98v1.07c0,.86.04,1.45.13,1.79.08.34.22.59.42.75.19.16.47.24.83.24Z"/>
      <path class="cls-1" d="M226.11,46.86c.6-.75,1.33-1.12,2.2-1.12.96,0,1.69.34,2.19,1.01.5.67.75,1.68.76,3.01v6.69h-2.76v-6.66c0-.62-.1-1.06-.29-1.34-.19-.28-.5-.41-.93-.41-.5,0-.89.23-1.17.69v7.72h-2.75v-14.94h2.75v5.34Z"/>
      <path class="cls-1" d="M238.23,56.46c-.08-.16-.16-.44-.23-.82-.49.67-1.16,1.01-2,1.01s-1.61-.29-2.19-.88-.87-1.34-.87-2.27c0-1.1.35-1.96,1.06-2.56.7-.6,1.72-.91,3.04-.92h.84v-.85c0-.47-.08-.81-.24-1-.16-.19-.4-.29-.71-.29-.69,0-1.03.4-1.03,1.21h-2.75c0-.97.36-1.77,1.09-2.41.73-.63,1.65-.95,2.77-.95s2.05.3,2.68.9c.63.6.95,1.46.95,2.57v4.95c.01.91.14,1.62.39,2.13v.17h-2.77ZM236.61,54.5c.31,0,.57-.06.78-.19.21-.12.37-.27.48-.44v-2.19h-.66c-.47,0-.83.15-1.1.45-.27.3-.4.7-.4,1.2,0,.78.31,1.17.91,1.17Z"/>
      <path class="cls-1" d="M242.29,50.86c0-1.6.38-2.85,1.13-3.75.75-.91,1.79-1.36,3.12-1.36s2.39.45,3.14,1.36,1.13,2.17,1.13,3.78v.67c0,1.6-.37,2.85-1.12,3.75-.75.9-1.79,1.35-3.13,1.35s-2.4-.45-3.15-1.36c-.75-.9-1.12-2.16-1.12-3.77v-.67ZM245.05,51.55c0,1.88.5,2.82,1.51,2.82.93,0,1.43-.78,1.5-2.35v-1.16c0-.96-.12-1.67-.39-2.14-.27-.46-.64-.69-1.13-.69s-.83.23-1.09.69c-.26.46-.39,1.18-.39,2.14v.69Z"/>
      <path class="cls-1" d="M16.78,23.25c-.14,0-.29-.05-.4-.16l-6.09-5.9-7.12,6.25c-.23.22-.6.21-.81-.03-.22-.23-.21-.59.03-.81l7.52-6.63c.22-.21.57-.21.79,0l6.08,5.89,5.93-5.89c.22-.22.57-.22.8,0l6.24,5.91,6.09-5.9c.19-.18.48-.22.7-.08l3.33,2.03c.27.17.36.52.19.79-.17.27-.52.36-.79.19l-2.95-1.8-6.16,5.98c-.22.22-.57.22-.79,0l-6.23-5.9-5.94,5.89c-.11.11-.26.17-.4.17"/>
      <path class="cls-1" d="M56.37,29.32c-.11,0-.21-.03-.31-.09l-8-4.87c-.28-.17-.37-.54-.2-.82.17-.28.54-.37.82-.2l8,4.87c.28.17.37.54.2.82-.11.18-.31.28-.51.28"/>
      <path class="cls-1" d="M0,0v68.32c0,3.88,3.14,7.02,7.01,7.02h16.01c5.5,0,6.75,5,6.75,5,0,0,.59-2.34,2.71-3.82.98-.68,2.29-1.18,4.03-1.18h16.01c2.62,0,4.91-1.44,6.11-3.56.58-1.02.91-2.2.91-3.46V0H0ZM49.78,9.11h2.2v3.48h3.48v2.2h-3.48v3.48h-2.2v-3.48h-3.48v-2.2h3.48v-3.48ZM39.26,22.81v-2.2h3.48v-3.48h2.2v3.48h3.48v2.2h-3.48v3.48h-2.2v-3.48h-3.48ZM32.22,30.9v-2.2h3.48v-3.48h2.2v3.48h3.48v2.2h-3.48v3.48h-2.2v-3.48h-3.48ZM25.18,39v-2.2h3.48v-3.48h2.2v3.48h3.48v2.2h-3.48v3.48h-2.2v-3.48h-3.48ZM18.14,47.1v-2.2h3.48v-3.48h2.2v3.48h3.48v2.2h-3.48v3.48h-2.2v-3.48h-3.48ZM11.1,55.36v-2.2h3.48v-3.48h2.2v3.48h3.48v2.2h-3.48v3.48h-2.2v-3.48h-3.48ZM3.39,6.2h46.27l-13.02,14.99-18.8,21.65L3.39,59.48V6.2ZM4.06,63.29v-2.2h3.48v-3.48h2.2v3.48h3.48v2.2h-3.48v3.48h-2.2v-3.48h-3.48ZM56.14,67.45c0,2-1.63,3.62-3.63,3.62h-16.01c-2.34,0-4.22.65-5.7,1.61-.38.24-.72.51-1.05.79-1.6-1.37-3.8-2.4-6.74-2.4h-14.69l14.51-16.71,18.8-21.65,14.49-16.68v51.43Z"/>
      <path class="cls-1" d="M26.99,58.27s6.94-8.92,22.76-1.35c0,0-2.91-.57-4.09-.26,0,0,7.14,1.99,8.86,6.22,0,0-5.94-3.4-10.57-2.33-.93.22-1.76.8-2.18,1.66-.32.66-.43,1.53.23,2.49h-4.43s1.12-1.73.43-3.31c-.69-1.58-3.65-1.96-11.57.26,0,0,4.81-3.31,5.67-3.57,0,0-3.22-.29-5.12.2"/>
    </g>
  </g>
</svg>