<?xml version="1.0" encoding="UTF-8"?>
<svg id="Layer_2" data-name="Layer 2" xmlns="http://www.w3.org/2000/svg" viewBox="0 0 146.54 80.28">
  <defs>
    <style>
      .cls-1 {
        fill: #fff;
      }
    </style>
  </defs>
  <g id="Layer_2-2" data-name="Layer 2">
    <g>
      <path class="cls-1" d="M102.28,41.12c.08.71.64.9,1.27.78.51-.1.66-.78.15-1.01-.74-.33-1.57-.39-2.26-.82-.7-.44-.9-1.35-.45-2.03.29-.44.72-.72,1.29-.82,1.35-.25,3-.11,3.3,1.55.01.07-.02.11-.09.11l-1.53.08c-.06,0-.12-.04-.12-.11h0c-.04-.68-.95-.8-1.36-.39-.1.1-.11.27,0,.37.13.14.29.22.48.26.53.1,1.02.23,1.48.38,1,.34,1.44.98,1.32,1.91-.21,1.6-2,1.89-3.36,1.68-1.08-.17-1.69-.79-1.85-1.87,0-.04.02-.08.07-.09h0l1.49-.12c.09,0,.17.06.18.14"/>
      <path class="cls-1" d="M126.65,41.14c.11.33.36.53.74.59.72.12,1.15-.2,1.29-.96.01-.07.08-.11.14-.1,0,0,0,0,.01,0l1.41.41s.06.05.05.08c-.41,1.61-1.72,2.13-3.22,1.91-1.27-.19-2.04-.91-2.32-2.17-.06-.28-.07-.71-.02-1.29.11-1.37,1.02-2.32,2.37-2.46,1.38-.15,2.56.21,3.11,1.58.05.14,0,.22-.14.26l-1.23.27c-.09.02-.18-.03-.21-.11-.19-.48-.54-.7-1.06-.66-1.25.09-1.2,1.8-.92,2.64"/>
      <path class="cls-1" d="M140,40.42c.01,1.46-1.16,2.66-2.63,2.67h-.64c-1.46.02-2.66-1.16-2.67-2.62v-.65c-.02-1.46,1.16-2.66,2.62-2.67h.64c1.46-.02,2.66,1.16,2.67,2.62v.65ZM138.2,39.6c0-.6-.48-1.09-1.08-1.09h-.17c-.6,0-1.09.48-1.09,1.08v1.06c0,.6.48,1.09,1.08,1.09h.17c.6,0,1.09-.48,1.09-1.08v-1.06Z"/>
      <path class="cls-1" d="M69.26,42.14l-.21.79s-.05.08-.1.08l-1.64.02c-.06,0-.11-.05-.11-.1,0-.01,0-.03,0-.04l2.1-5.58s.05-.07.1-.07l1.81-.02s.08.03.1.07l2.1,5.59c.02.05,0,.11-.06.14-.01,0-.03,0-.04,0l-1.67-.02s-.09-.03-.1-.08l-.23-.8s-.05-.08-.1-.08h-1.86s-.09.04-.1.09M69.7,40.73s0,.05.03.06c0,0,0,0,.02,0h1.11s.05-.03.05-.06c0,0,0,0,0-.01l-.56-1.81s-.04-.04-.06-.03c-.02,0-.03.02-.03.03l-.55,1.81Z"/>
      <path class="cls-1" d="M74.09,37.3s.04-.08.08-.08h2.74c1.37,0,2.47,1.12,2.47,2.48v.85c0,1.37-1.11,2.47-2.48,2.47h-2.74s-.08-.04-.08-.09v-5.63ZM75.85,38.66l.02,2.92c0,.07.06.12.12.12h.49c.62,0,1.12-.53,1.11-1.17v-.85c0-.64-.51-1.16-1.13-1.15h-.49c-.07,0-.12.06-.12.12h0Z"/>
      <path class="cls-1" d="M85.37,38.96c0-.2-.02-.2-.07,0l-1.02,3.97c-.02.08-.07.12-.16.12l-1.08-.02c-.08,0-.13-.04-.15-.12l-.99-3.92c-.06-.24-.09-.24-.09.01v3.97c0,.05-.02.08-.07.08h-1.29s-.07-.03-.07-.07v-5.67s.03-.07.07-.07h2.17c.06.01.1.04.12.11l.79,3.14c.04.17.08.17.13,0l.81-3.13c.02-.08.07-.12.16-.12h2.17s.05.02.05.05v5.65c0,.06-.04.1-.1.1h-1.29c-.07-.01-.1-.05-.1-.11l.02-3.96Z"/>
      <path class="cls-1" d="M88.04,37.23h1.68s.07.03.07.07v5.67s-.02.07-.06.07h-1.68s-.07-.03-.07-.07v-5.67s.02-.07.06-.07"/>
      <path class="cls-1" d="M92.72,43.02h-1.59s-.05-.01-.05-.04v-5.7s.02-.05.05-.05l1.61.02s.03,0,.04.02l2.04,3.02s.05.03.07.02c.02-.01.03-.03.02-.05v-2.97s.01-.05.04-.05h1.59s.05.02.05.04v5.7s-.02.05-.05.05h-1.61s-.03-.02-.04-.04l-2.06-3.02s-.05-.03-.07-.01c-.01,0-.02.03-.02.04l.02,2.96s-.02.05-.05.05"/>
      <path class="cls-1" d="M97.97,37.23h1.6c.06,0,.1.05.1.1v5.59c0,.06-.05.1-.1.1h-1.6c-.06,0-.1-.05-.1-.1v-5.59c0-.06.05-.1.1-.1"/>
      <path class="cls-1" d="M106.33,38.61v-1.31s.02-.07.06-.08h5.29s.07.04.07.08v1.29s-.05.07-.09.07h-1.63s-.07.04-.07.08v4.2s-.03.07-.07.07h-1.66s-.07-.03-.07-.07v-4.22s-.03-.07-.07-.07h0l-1.67.02s-.07-.03-.08-.07"/>
      <path class="cls-1" d="M116.49,40.52c.34.15.6.38.78.7.28.5.54,1,.78,1.51.04.08.13.11.21.08.04-.02.07-.05.08-.09l2.01-5.36c.03-.08.1-.13.19-.13h1.7c.07,0,.14.04.16.11l2.1,5.6s0,.07-.03.08c0,0-.02,0-.02,0h-1.68c-.07,0-.13-.04-.15-.1l-.21-.74c-.02-.07-.08-.12-.15-.12h-1.77c-.08,0-.14.03-.16.11l-.23.77c-.02.05-.05.08-.1.08h-3.62c-.12,0-.23-.07-.29-.18-.29-.57-.6-1.15-.93-1.73-.17-.3-.42-.44-.76-.42-.05,0-.08.03-.08.08v2.14c0,.06-.04.1-.1.1h-1.59c-.07.01-.11-.02-.11-.1v-5.64s.02-.05.05-.05c.93,0,1.92,0,2.97,0,.39,0,.77.04,1.15.14.9.22,1.22,1.13.98,1.99-.15.56-.54.92-1.16,1.09-.09.02-.09.05,0,.09M114.31,38.52v.94c0,.06.05.11.1.11h.75c.42,0,.76-.22.76-.49v-.15c0-.28-.34-.5-.76-.5h-.75c-.06,0-.11.05-.11.11M120.75,40.74s0,.05.03.06c0,0,0,0,.01,0h1.14s.05-.03.05-.05c0,0,0-.01,0-.01l-.58-1.8s-.03-.04-.06-.03c-.02,0-.03.02-.03.03l-.56,1.8Z"/>
      <path class="cls-1" d="M131.34,37.23h1.69s.06.03.06.06v5.68s-.03.06-.06.06h-1.69s-.06-.03-.06-.06v-5.68s.03-.06.06-.06"/>
      <path class="cls-1" d="M142.67,43l-1.61.03s-.05-.02-.05-.05h0s0-5.71,0-5.71c0-.03.02-.05.05-.05h1.58s.03.01.04.03l2.06,3.03s.04.03.07.01c.01,0,.02-.02.02-.04v-2.98s.01-.05.04-.05h1.61s.05.02.05.04l.02,5.7s-.02.05-.05.05h-1.64s-.03-.01-.04-.03l-2.04-3.01s-.04-.03-.07-.01c-.01,0-.02.02-.02.04l.04,2.95s-.02.05-.05.05h0Z"/>
      <path class="cls-1" d="M94.1,49.94c.63-.05.84-.48.97-1.02.02-.07.06-.1.13-.08l1.38.41c.06.02.1.08.08.14h0c-.49,1.69-1.92,2.13-3.46,1.82-1.73-.34-2.3-1.96-2.1-3.52.16-1.2.8-1.95,1.93-2.27.61-.17,1.44-.17,2.06.03.68.22,1.18.72,1.5,1.51.03.07,0,.16-.08.19,0,0-.01,0-.02,0l-1.31.3c-.08.02-.17-.03-.19-.11-.11-.36-.35-.58-.72-.66-.69-.14-1.2.28-1.34.95-.18.89-.14,2.4,1.17,2.3"/>
      <path class="cls-1" d="M72.23,47.13c0-.2-.03-.2-.08,0l-1.03,4.01c-.01.05-.06.09-.11.08h-1.13c-.06-.01-.11-.05-.12-.11-.28-1.02-.56-2.11-.84-3.27-.06-.26-.14-.52-.23-.79-.03-.09-.05-.09-.05,0l.03,4.08c0,.05-.03.08-.08.08l-1.29-.02c-.05,0-.09-.04-.09-.09v-5.59c0-.07.03-.1.1-.1h2.2s.08.02.09.06l.79,3.25s.04.05.07.04c.02,0,.04-.02.04-.04l.8-3.2c.02-.07.08-.11.15-.11h2.12c.07,0,.11.04.11.11v5.62s-.02.07-.07.07h-1.32s-.06-.03-.06-.07c.02-1.38.02-2.72,0-4.02"/>
      <path class="cls-1" d="M76.57,48.95c0,1.33,1.99,1.35,1.97-.1-.01-1.13-.01-2.26,0-3.38,0-.03.03-.06.06-.06h1.62c.07,0,.1.04.1.11.01,1.08.02,2.16,0,3.26-.02,2.07-1.49,2.67-3.26,2.5-1.35-.13-2.24-.9-2.26-2.3-.01-1.15-.01-2.31,0-3.49,0-.05.04-.08.08-.08h1.58c.07,0,.1.04.1.11,0,1.13,0,2.27,0,3.43"/>
      <path class="cls-1" d="M83.16,51.21h-1.6s-.05-.02-.05-.05v-5.71s.03-.05.06-.05h1.6s.03.02.04.03l2.04,3.02s.05.03.07.02c.02,0,.02-.03.02-.04v-2.97s.02-.05.05-.05h1.6s.05.02.05.05v5.71s-.02.05-.05.05h0l-1.63-.03s-.03,0-.04-.02l-2.04-3.01s-.05-.03-.07-.01c-.01,0-.02.02-.02.04l.02,2.97s-.02.05-.05.05"/>
      <path class="cls-1" d="M88.34,45.42h1.71s.04.02.04.04v5.7s-.02.04-.04.04h-1.71s-.04-.02-.04-.04v-5.7s.02-.04.04-.04"/>
      <path class="cls-1" d="M97.72,45.41h1.67s.07.03.07.07v5.65s-.03.07-.07.07h-1.67s-.07-.03-.07-.07v-5.65s.03-.07.07-.07"/>
      <path class="cls-1" d="M102.51,49.16v1.99s-.01.06-.04.06h-1.64c-.06,0-.11-.04-.11-.11v-5.58c0-.08.04-.11.11-.11.87.01,1.73.01,2.59,0,.92-.02,1.87.21,2.13,1.18.15.54.11,1.06-.12,1.54-.49,1.03-1.8.98-2.81.93-.07,0-.1.03-.1.1M102.51,46.73v1.04c.01.06.07.12.13.11h.45c.43,0,.77-.26.77-.57h0s0-.16,0-.16c0-.31-.35-.55-.78-.54h-.45c-.06,0-.12.06-.11.12"/>
      <path class="cls-1" d="M109.37,50.25h-1.9s-.05,0-.06.03l-.27.88s-.03.04-.06.04h-1.71s-.06-.03-.06-.07c0,0,0-.01,0-.02l2.15-5.67s.03-.04.06-.04l1.87.02s.05.02.06.04l2.11,5.65s0,.07-.04.08c0,0-.01,0-.02,0h-1.74s-.05-.02-.06-.04l-.27-.86s-.03-.04-.06-.04M107.83,48.92s0,.05.03.06c0,0,0,0,.01,0h1.12s.05-.02.05-.05c0,0,0-.01,0-.02l-.56-1.79s-.04-.04-.06-.03c-.02,0-.03.02-.03.03l-.55,1.8Z"/>
      <path class="cls-1" d="M116.63,49.82l.02,1.3s-.03.06-.06.06h0l-4.46.02s-.06-.03-.06-.06v-5.68s.04-.06.08-.06h1.66s.06.04.06.07v4.22s.03.06.07.06h2.64s.06.03.06.06"/>
      <polygon class="cls-1" points="136.67 36.86 137.88 36.86 138.82 35.6 137.45 35.6 136.67 36.86"/>
      <path class="cls-1" d="M13.59,61.88c-1,.36-1.77,1.05-2.31,2.06-.52.97-.84,1.9-1.04,2.98-.19,1-.81,2.76-2.13,2.31-.38-.13-.73-.41-1.05-.83-.99-1.32-.93-3.2-.52-4.72.16-.57.28-1.15.38-1.73.27-1.63.58-3.17.92-4.62.23-.98.52-1.91.87-2.78.38-.96.62-1.62.72-1.98.38-1.43.76-2.86.72-4.29.04-.01.07-.03.09-.06.03-.04.07-.07.11-.07.08,0,.12.03.13.12.05,1.11.1,2.14.15,3.11.05.99.28,1.99.46,2.97.45,2.49,1.4,4.95,2.69,7.2.03.06.04.12.03.18-.04.18-.12.23-.22.15M9.81,53.77c-.45,1.15-.94,2.35-1.21,3.53-.35,1.56-.67,3.12-.95,4.68-.02.12.01.14.11.06l3.67-3.3c.1-.09.13-.23.08-.35-.63-1.68-1.07-3.37-1.32-5.07-.06-.39-.13-.39-.23,0-.04.16-.09.31-.15.46M9.01,63.95s.03.08.07.08c.01,0,.02,0,.03,0,.36-.14.69-.07.97.2.06.06.15.05.2,0,.01-.01.02-.02.03-.04.56-1.19,1.39-2.11,2.48-2.77.06-.03.07-.08.04-.14l-.94-1.86s-.06-.05-.09-.03c0,0-.01,0-.02.01-.71.64-1.45,1.3-2.2,1.97-.21.18-.32.41-.36.68-.08.65-.15,1.29-.21,1.91M8.08,66.45c-.08.13-.11.12-.1-.04l.43-3.85s-.02-.05-.04-.06c-.01,0-.03,0-.04,0-.46.33-.93.75-1.08,1.33-.15.58-.24,1.14-.27,1.67-.07,1.05.29,2.6,1.38,3.03.15.06.32.02.43-.1.3-.33.5-.7.59-1.1.14-.59.29-1.21.46-1.88.07-.29-.06-.57-.28-.75-.08-.06-.2-.06-.27,0-.56.48-.82,1.12-1.2,1.72"/>
      <path class="cls-1" d="M55.92,27.07s-.07,0-.1-.02c-.02-.01-.04-.04-.06-.08-.13-.32-.31-.58-.54-.77-.27-.23-.66-.48-1.16-.77l-1.59-1.1c-.39-.41-.88-.74-1.47-.98-.06-.13-.15-.24-.26-.32-2.3-1.64-4.6-3.28-6.89-4.94-.2-.14-.39-.18-.58-.11.02-.17,0-.29-.1-.36-.7-.58-1.46-1.11-2.26-1.59-1.02-.84-2.1-1.58-3.24-2.2-.37-.46-.8-.86-1.31-1.19-.3-.2-.65-.28-1.03-.25-1.49-1.02-2.98-2.08-4.47-3.2-.49-.37-.69-.81-.59-1.34.08-.4.29-.85.66-1.36,1.42-1.98,2.96-4,4.64-6.06.99-1.22,3.44.47,4.27,1.15.4.33.82.65,1.25.96,5.01,3.62,10.18,7.34,15.5,11.14.51.36.43,1.15.27,1.66-.24.78-.29,1.52-.16,2.23.1.53.13,1.01.09,1.42-.25,2.65-.48,5.29-.7,7.94,0,.09-.06.13-.17.13M34.17,5c.46.4.53,1,.53,1.59,0,.11.04.13.11.04l3.98-5c.06-.07.05-.18-.03-.24h0c-.59-.47-1.24-.79-1.97-.96-.54-.13-.73.23-1.03.6-.85,1.06-1.71,2.16-2.57,3.28-.08.11-.18.22-.28.33-.09.1-.06.14.06.13.4-.04.87-.07,1.2.22M33.45,9.54c-.14.13-.18.1-.11-.08.38-1.1.9-3.03.41-3.87-.04-.06-.1-.1-.17-.1-1.1,0-2.12.96-2.5,1.9-.2.51-.04.76.39,1.07,2.83,2.01,5.64,4,8.42,5.99,5.13,3.66,10.26,7.31,15.4,10.96.08.06.13.04.14-.07.21-2.11.43-4.29.65-6.51.03-.32.51-4.38.14-4.67-.04-.12-.1-.21-.2-.28-5.28-3.79-10.44-7.5-15.5-11.15-.31-.23-.62-.47-.91-.74-.06-.05-.15-.05-.2,0,0,0,0,0,0,0-1.85,2.33-3.74,4.7-5.66,7.11-.1.12-.18.31-.3.41"/>
      <path class="cls-1" d="M35.33,12.09c.38-.04.72.05,1.03.25.51.34.94.73,1.31,1.19-.3.08-.68.12-1.13.12-8.17,0-16.38.01-24.64.02-.05,0-.09.04-.09.09.13,11.58.02,23.42.08,34.74,0,1.57.08,2.8.2,3.68.32,2.17.94,4.28,1.88,6.34,2.48,5.43,7.37,9.14,13.16,10.43,1.54.34,3.15.55,4.84.64,1.8.09,3.76-.27,5.51-.67,5.52-1.26,10.24-4.21,13.29-9.02,1.74-2.75,2.79-5.64,3.16-8.68.04-.32.06-.68.06-1.07-.02-8.67-.03-16.53-.03-23.58,0-.61.03-1.09.08-1.45.51.29.89.55,1.16.77.23.19.41.45.54.77.01.04.03.06.06.08.03.01.06.02.1.02l-.07.02c-.06.02-.08.06-.08.12,0,7.9,0,15.8-.02,23.7,0,2.36-.64,4.77-1.68,7.27-1.97,4.78-5.61,8.81-10.29,11.16-1.52.77-2.88,1.33-4.07,1.69-1.72.52-3.73.93-6.04,1.22h-1.46c-2.32-.19-4.53-.6-6.64-1.22-4.9-1.45-9.21-4.46-11.99-8.86.1.08.18.02.22-.15.02-.06,0-.12-.03-.18-1.29-2.25-2.24-4.71-2.69-7.2-.18-.97-.41-1.98-.46-2.97-.05-.97-.1-2.01-.15-3.11,0-.09-.05-.13-.13-.12-.05,0-.09.03-.11.07-.02.03-.05.05-.09.06-.02-5.18-.03-10.35-.03-15.53,0-7.09-.05-13.89-.17-20.39,0-.08.06-.14.14-.14l25.23-.13Z"/>
      <path class="cls-1" d="M40.91,15.74c.8.48,1.56,1,2.26,1.59.09.07.12.2.1.36l-28.35-.04c-.06,0-.11.05-.11.11,0,8.1,0,16.18.01,24.25,0,.26.05.47.15.65-.28.37-.4.82-.36,1.34.03.34.04.52.04.54.02.63.06,1.21.13,1.75,0,.7,0,1.38-.02,2.03-.03,1.02.06,1.84.24,2.77.41,2.02,1.09,3.95,2.04,5.77,1.57,3.01,3.85,5.29,6.82,6.84.26.16.55.3.86.43.31.13.6.25.88.38.68.3,1.4.5,2.15.6.18.02.5-.02.96-.12-.11.27.06.43.5.46.38.03.58.04.59.04,2.97.38,5.87.19,8.68-.57,1.71-.46,3.44-1.26,5.18-2.38.45-.29.91-.64,1.38-1.05.49-.42.9-.82,1.25-1.2.65-.7,1.3-1.56,1.95-2.57.86-1.32,1.42-2.78,1.92-4.24.21-.59.38-1.23.51-1.89.15-.74.26-1.39.31-1.97.16-1.67.14-3.46-.06-5.37.03-1.83.04-3.68,0-5.55,0-.14.03-.53.09-1.17.06-.6-.04-1.15-.29-1.65.18-.31.26-.69.26-1.13,0-3.86,0-7.76.01-11.68.59.24,1.08.56,1.47.98.01,8.55.02,17.09.01,25.62,0,.8-.08,1.62-.25,2.46-1,5.02-3.63,9.52-7.94,12.25-1.96,1.24-4.08,2.11-6.36,2.62-.99.22-2.09.39-3.3.51-1.14.12-2.17.14-3.1.08-3.44-.23-6.86-1.27-9.72-3.03-3.77-2.32-6.41-6.03-7.52-10.29-.64-2.47-.88-4.88-.87-7.59.03-10.59.01-20.87-.03-30.84,0-.05.04-.09.09-.09h27.44Z"/>
      <path class="cls-1" d="M50.72,35.86c.25.5.35,1.05.29,1.65-.06.65-.09,1.04-.09,1.17.03,1.87.03,3.72,0,5.55-1.85,1.27-3.61,2.6-5.28,4-1.44,1.21-2.16,1.82-2.17,1.83-1.82,1.5-3.68,3.06-5.56,4.66-.1.09-.29.23-.55.43-.5.37-.91.83-1.37,1.2-2.61,2.08-4.86,4.58-6.73,7.5-.23.36-.39.74-.56,1.13-.46.11-.77.15-.96.12-.75-.1-1.46-.3-2.15-.6-.28-.12-.57-.25-.88-.38-.31-.13-.6-.27-.86-.43.18-.3.34-.58.5-.86.8-1.39,1.97-2.66,3.28-3.93,1.14-1.11,2.19-2.05,3.14-2.83.3-.24.26-.33-.12-.26-.31.05-.62.07-.93.05-2.86-.21-5.72-1.88-8.09-3.6-2.43-1.77-4.72-3.76-6.86-5.96-.07-.54-.11-1.13-.13-1.75,0-.01-.01-.19-.04-.54-.04-.52.08-.97.36-1.34,1.67,2.17,3.27,3.96,5.43,5.56,3.42,2.55,7.86,4.14,12.21,4,1.39-.04,2.81-.45,4.25-1.24,2.95-1.6,5.63-4.22,7.93-6.95,2.16-2.56,4.14-5.29,5.94-8.18"/>
      <path class="cls-1" d="M46.04,39.77l-.31-.29c-.13-.12-.21-.09-.25.08-.21.92-.64,1.67-1.72,1.67-.4,0-.62-.35-.7-.69-.18-.74-.06-1.5.37-2.28.07-.13.04-.29-.07-.38l-.43-.38c-.09-.08-.17-.07-.22.04-.76,1.35-.97,2.71-.64,4.07,0,.02-.01.05-.04.05,0,0-.02,0-.03,0-2.63-1.13-3.61,1.74-3.75,3.65,0,.05-.05.09-.09.08-.02,0-.03,0-.05-.02-.99-.74-1.95-.7-2.88.14-.05.04-.08.1-.08.17l-.03.78c0,.2.07.23.22.11.52-.4,1.3-.73,1.84-.17.23.24.29.52.19.84-.29.9-1.54.84-2.27.83-.1,0-.18.08-.18.17h0s.06.97.06.97c0,.13.08.19.2.19,1.63.04,3.09-.47,3.36-2.27,0-.07.05-.09.11-.07,2.13.59,3.5-.02,4.11-1.83.26-.78.27-1.85.21-2.69,0-.11.04-.16.15-.13,1.31.27,2.24-.17,2.79-1.3.07-.14.15-.44.26-.92.04-.17,0-.32-.13-.44M41.96,43.55s0,.06-.01.09c0,0,0,0,0,0l-.7,2.08c-.08.25-.36.39-.61.3l-.39-.13c-.61-.21-.94-.89-.73-1.52l.23-.69c.21-.64.88-.98,1.5-.78l.39.13s0,0,0,0c.03,0,.05.03.08.04.03.02.06.03.09.05.02.02.04.05.05.07.02.03.04.05.06.08s.02.06.03.09c0,.03.02.06.02.09,0,.03,0,.07-.01.1"/>
      <path class="cls-1" d="M30.6,48.1c-.69-.03-1.87.08-2.21-.72-.18-.43-.09-.79.29-1.08.52-.41,1.33,0,1.79.34.09.07.14.05.14-.07l-.02-.89c0-.06-.02-.1-.06-.13-.91-.77-1.91-.99-2.91-.16-.04.03-.1.03-.13-.01-.01-.01-.02-.03-.02-.05-.2-1.99-1.1-4.79-3.76-3.65-.02.01-.05,0-.07-.02,0,0,0-.02,0-.03.34-1.44.12-2.81-.65-4.11-.04-.06-.11-.08-.17-.04,0,0-.01,0-.02.02l-.55.5s-.05.09-.03.14c.41.99.73,1.86.24,2.85-.12.25-.4.27-.64.27-.82-.02-1.34-.57-1.57-1.66-.04-.2-.14-.23-.29-.09l-.27.25c-.15.14-.21.3-.17.5.34,1.77,1.38,2.51,3.1,2.21.08-.01.11.02.11.1-.25,2.8.76,5.65,4.3,4.56.06-.02.12.01.14.07,0,0,0,.02,0,.02.13,1.71,1.77,2.3,3.34,2.23.13,0,.21-.08.22-.21l.05-.9c0-.13-.05-.2-.18-.2M25.94,45.6c-.69.71-1.42.36-1.74-.47-.18-.49-.33-1.06-.43-1.71-.04-.27.17-.38.39-.44,1.63-.5,1.98.68,2.03,1.92.01.29-.07.52-.25.71"/>
      <path class="cls-1" d="M32.21,73.25h1.45l17.92.02c.06,0,.11.05.11.11h0s-.04.8-.04.8c0,.06.04.11.1.11,0,0,0,0,0,0h12.78c.32,0,.33.07.05.21l-5.54,2.66s-.05.06-.03.09c0,.01.02.03.03.03l6.7,2.92s.02.03,0,.05c-.02.01-.04.02-.06.02h-19.19s-.09-.04-.09-.09v-.74s-.05-.09-.09-.09h-26.79c-.08,0-.15.07-.15.15h0s.01.63.01.63c0,.06-.05.12-.11.12H.2c-.26.01-.27-.04-.03-.14l6.54-2.84s.05-.06.04-.1c0-.02-.02-.03-.04-.04l-5.58-2.67c-.27-.13-.26-.19.04-.2h12.68c.1,0,.17-.09.17-.18h0s-.01-.71-.01-.71c0-.07.05-.13.12-.13h0l18.07-.02ZM50.94,74.16c0-.08-.07-.15-.15-.15H14.91c-.08,0-.15.07-.15.15v4.31c0,.08.07.15.15.15h35.87c.08,0,.15-.07.15-.15v-4.31ZM8.48,77.19s.04.05.03.07c0,.01-.02.02-.03.03l-4.75,2.08c-.24.1-.23.16.03.16l10.97.03c.15,0,.16-.03.02-.08-.11-.04-.22-.07-.33-.07-.22-.01-.39-.2-.39-.42v-3.77c0-.14-.08-.2-.21-.2H4.35c-.24.01-.26.07-.04.17l4.16,2ZM57.22,77.24s-.01-.06.02-.08c1.48-.65,2.89-1.33,4.23-2.03.13-.07.12-.1-.02-.1h-9.61c-.08,0-.11.03-.11.1l-.02,3.98c0,.1-.07.18-.16.21l-.65.18c-.08.02-.08.03,0,.03h11.17s.06-.02.06-.06c0-.02-.02-.05-.04-.06-1.6-.69-3.21-1.4-4.81-2.13-.03-.01-.05-.03-.06-.06M47.5,79.39s-.09-.08-.21-.08c-.12,0-.21.02-.22.06,0,.04.09.08.21.08.12,0,.21-.02.22-.06"/>
      <path class="cls-1" d="M47.29,79.31c.12,0,.21.04.21.08,0,.04-.1.06-.22.06-.12,0-.21-.04-.21-.08,0-.04.1-.06.22-.06"/>
      <path class="cls-1" d="M39.68,28.82c-.17-.11-.39-.11-.64,0-.85.39-1.59.81-2.21,1.27.52-1.39.82-2.67.89-3.84,0-.03,0-.06-.02-.08-.04-.06-.13-.08-.19-.04l-.35.23s-.08.03-.12.02c-.08-.02-.12-.1-.1-.18.15-.55.18-1.19.1-1.92,0,0,0,0,0-.01-.01-.05-.06-.08-.11-.07-.28.07-.5.23-.65.48-.45.74-.99,1.44-1.3,2.22-.24.6-.47,1.21-.69,1.83-.02.06-.09.13-.14.16-.02.01-.04.02-.06.02-.07,0-.14-.05-.14-.13-.14-2.15-.31-4.26-.53-6.33-.04-.38-.16-.74-.35-1.09-.05-.09-.12-.14-.21-.14-.12,0-.22.08-.23.2-.25,1.99-.39,4.03-.43,6.14,0,.43.02.85.07,1.27,0,.02,0,.04,0,.05-.02.04-.08.06-.12.04l-.05-.03c-.07-.04-.12-.1-.14-.18-.31-1.51-.79-2.9-1.46-4.17-.02-.04-.04-.09-.06-.14-.04-.14-.14-.18-.29-.11-.06.03-.11.09-.13.15-.29,1.05-.56,2.06-.83,3.04-.09.35-.17.72-.24,1.1-.07.39-.13.77-.19,1.13l-.27,1.82c-1.02-.04-1.75-.5-2.19-1.39-.41-.82-.73-1.67-.97-2.56-.02-.05-.06-.09-.11-.1-.09-.02-.15,0-.16.08-.25,1.19.38,2.78,1,3.8.63,1.05,1.32,2,2.07,2.84.76-.39,1.61-.63,2.55-.74,1.86-.22,3.64-.14,5.34.22.38.08.75.15,1.1.22.39.07.05.68.25.4.02-.03.17-.12.21-.12.08,0,.07.25.08.33l.6-.94,1.07-2.41c.3-.69.46-1.42.46-2.18,0-.06-.03-.11-.08-.15"/>
      <rect class="cls-1" x="32.02" y="48.35" width="1.76" height="1.76"/>
      <rect class="cls-1" x="31.56" y="46.59" width="2.68" height="1.71"/>
      <rect class="cls-1" x="30.87" y="44.86" width="4.05" height="1.7"/>
      <rect class="cls-1" x="30.3" y="43.21" width="5.2" height="1.62"/>
      <rect class="cls-1" x="29.89" y="41.39" width="6.01" height="1.76"/>
      <rect class="cls-1" x="29.28" y="39.75" width="7.24" height="1.58"/>
      <rect class="cls-1" x="28.79" y="38.05" width="8.21" height="1.65"/>
      <rect class="cls-1" x="28.47" y="36.35" width="8.86" height="1.66"/>
      <path class="cls-1" d="M28.21,36.33h9.37l.25-2.28s-5.2-2.02-9.75.08l.12,2.2Z"/>
      <path class="cls-1" d="M10.16,48.28s-.64,6.58,3.43,13.6l1,.63-1.22-2.41-2.17-7.87-.47-4.3-.58.35Z"/>
      <polygon class="cls-1" points="34.91 12.09 55.92 27.07 56.14 26.37 38.82 13.99 34.91 11.16 34.91 12.09"/>
      <path class="cls-1" d="M56.19,25.73l1.03-11.23s-.19-.82-1.73-1.61l-.2.36,1.17.95s.3.48.17.99l-1.16,9.77.72.76Z"/>
      <path class="cls-1" d="M39.01,5.63l-.17-.05s-.04-.02-.06-.03c-.04-.03-.06-.06-.07-.11s0-.08.04-.12c.06-.08.13-.1.23-.08l.44.12s.06.02.08.04c.04.03.06.06.06.09,0,.04,0,.07-.04.11l-1.02,1.15s-.09.08-.13.09c-.05.01-.1,0-.15-.04-.05-.04-.08-.08-.08-.13,0-.05.02-.1.06-.14l.81-.91Z"/>
      <path class="cls-1" d="M38.91,7.34s-.06-.06-.07-.1c0-.04,0-.08.03-.11.02-.02.05-.05.11-.08l1.34-.63-.59-.41s-.06-.06-.06-.1c0-.04,0-.08.04-.12.07-.1.16-.11.25-.04l.73.53s.07.07.08.12c0,.04,0,.09-.04.14-.03.04-.07.08-.12.1l-1.47.71s-.08.03-.11.03c-.03,0-.07-.01-.1-.04Z"/>
      <path class="cls-1" d="M40.67,8.6c-.13-.09-.2-.21-.21-.36-.01-.15.03-.29.14-.43.14-.19.3-.31.48-.35.18-.04.35,0,.51.12.12.09.18.18.18.29h0s.37-.41.37-.41c.04-.04.08-.07.13-.08.05-.01.1,0,.15.04.05.03.07.07.07.12,0,.05-.02.09-.06.13l-.83.93c-.06.07-.09.13-.09.18,0,.07,0,.12-.03.16-.03.05-.08.07-.13.08-.05,0-.11,0-.17-.05-.05-.04-.08-.09-.09-.14s0-.11.03-.15h0c-.15.05-.3.03-.45-.08ZM40.96,8.4c.08.06.17.08.25.05.09-.02.17-.09.24-.19.05-.08.08-.15.07-.22s-.04-.12-.11-.17c-.08-.06-.16-.07-.25-.05-.09.02-.17.08-.25.18-.05.07-.08.15-.07.22,0,.07.04.13.1.17Z"/>
      <path class="cls-1" d="M42.09,9.62c-.17-.12-.27-.26-.29-.42-.02-.16.02-.31.13-.47.13-.18.29-.29.47-.32.18-.03.36.01.53.13.14.1.21.21.23.35.02.13-.02.26-.11.39-.06.08-.11.13-.17.14-.05.01-.11,0-.17-.05l-.52-.38s-.05.1-.03.17c.02.07.07.14.16.2.04.03.1.05.16.07.06.02.11.03.13.05.03.02.05.05.06.09,0,.04,0,.07-.02.1-.04.06-.11.09-.21.09-.11,0-.22-.05-.34-.14ZM42.35,8.82l.39.28s.03-.02.04-.04c.03-.05.04-.09.04-.14,0-.05-.04-.1-.09-.14-.06-.04-.12-.06-.19-.05-.07,0-.13.04-.18.09Z"/>
      <path class="cls-1" d="M43.59,10.7c-.15-.11-.24-.22-.28-.34-.03-.08-.02-.14.02-.19.02-.03.05-.05.09-.06.03,0,.07,0,.11.03.02.02.06.07.1.15.04.08.1.15.16.19.11.08.18.08.22.02.02-.03.02-.07,0-.1-.02-.04-.05-.09-.11-.15-.08-.1-.13-.19-.16-.28s0-.19.07-.29c.07-.1.17-.15.29-.16s.25.05.4.16c.11.08.19.18.24.28.03.07.03.13,0,.18-.04.05-.08.07-.13.06-.05,0-.09-.04-.13-.09,0-.01-.02-.03-.04-.06-.02-.03-.04-.06-.06-.09-.02-.03-.05-.05-.08-.07-.04-.03-.07-.05-.1-.05-.03,0-.06.01-.08.04-.02.03-.02.06,0,.1.02.04.06.09.12.17.03.04.06.08.09.11.02.03.04.08.06.12.02.05.02.1,0,.15-.01.05-.03.1-.07.15-.03.05-.07.08-.11.11-.04.03-.09.05-.15.06-.06.01-.13,0-.21-.02s-.17-.07-.26-.14Z"/>
      <path class="cls-1" d="M44.77,11.55c-.17-.12-.27-.26-.29-.42-.02-.16.02-.31.13-.47.13-.18.29-.29.47-.32s.36.01.53.13c.14.1.21.21.23.35.02.13-.02.26-.11.39-.06.08-.11.13-.17.14-.05.01-.11,0-.17-.05l-.52-.38s-.05.1-.03.17.07.14.16.2c.04.03.1.06.16.07s.11.03.13.05c.03.02.05.05.06.09,0,.03,0,.07-.02.1-.05.06-.11.09-.21.09-.11,0-.22-.05-.34-.14ZM45.03,10.74l.39.28s.03-.02.04-.04c.03-.04.04-.09.04-.14,0-.05-.04-.1-.09-.14-.06-.04-.12-.06-.19-.05-.07,0-.13.04-.18.09Z"/>
      <path class="cls-1" d="M46.95,11.44c.13.09.19.21.2.35.01.14-.03.28-.14.43-.13.19-.29.3-.47.35-.18.05-.36.01-.52-.11-.12-.09-.18-.18-.19-.28h0s-.29.32-.29.32c-.09.1-.18.11-.27.05-.05-.04-.07-.08-.07-.13,0-.05.02-.09.05-.13l.78-.88s.05-.08.03-.12c-.02-.07,0-.13.05-.19.03-.04.08-.06.13-.06s.11,0,.15.04c.06.04.09.08.11.13.01.04.01.09,0,.15h0c.07-.02.15-.02.23,0,.08.02.16.05.22.1ZM46.18,12.16c.07.05.16.07.25.04.09-.02.18-.09.25-.19.06-.08.08-.15.08-.22,0-.07-.04-.13-.1-.18-.08-.06-.17-.07-.26-.05-.09.03-.18.09-.25.19-.06.08-.08.15-.08.22,0,.07.04.13.1.17Z"/>
      <path class="cls-1" d="M47.74,12.45l-.33.37s-.06.08-.07.11,0,.05.04.08c.02.01.04.02.07.03.03,0,.05.02.07.03.02.02.04.04.04.07s0,.06-.03.09c-.03.05-.08.08-.14.09-.08.02-.17,0-.28-.09-.12-.08-.17-.18-.17-.29s.06-.22.15-.32l.35-.39-.05-.04s-.06-.05-.06-.09,0-.07.03-.11c.03-.05.07-.07.12-.08.04,0,.09,0,.13.04l.06.04c.05-.04.1-.08.14-.1.1-.05.18-.06.24-.01.07.05.08.12,0,.2l-.1.12.14.1s.05.05.06.09,0,.07-.03.11c-.03.05-.07.07-.12.07-.05,0-.09,0-.13-.03l-.15-.11Z"/>
      <path class="cls-1" d="M47.86,13.67s-.1,0-.15-.04-.07-.08-.07-.12c0-.05.02-.09.05-.13l.62-.7s.08-.07.13-.08c.05-.01.1,0,.15.04.05.03.07.08.07.12,0,.05-.02.09-.06.13l-.62.7s-.08.07-.13.08ZM48.68,12.54c-.06-.04-.09-.09-.1-.15,0-.06,0-.12.05-.17.05-.07.11-.1.18-.11.07,0,.14,0,.21.06.06.04.09.09.1.15.01.06,0,.11-.04.17-.05.07-.11.11-.18.12-.07.01-.14,0-.21-.05Z"/>
      <path class="cls-1" d="M48.66,14.35c-.17-.12-.27-.26-.29-.42-.02-.16.02-.31.13-.47.13-.18.29-.29.47-.32s.36.01.53.13c.14.1.21.21.23.35.02.13-.02.26-.11.39-.06.08-.12.13-.17.14s-.11,0-.17-.05l-.52-.38s-.05.1-.03.17.07.14.16.2c.04.03.1.06.16.07.06.01.11.03.13.05.03.02.05.05.06.09,0,.04,0,.07-.02.1-.05.06-.11.09-.21.09-.11,0-.22-.05-.34-.14ZM48.92,13.54l.39.28s.03-.02.04-.04c.03-.05.05-.09.04-.14,0-.05-.04-.1-.1-.14-.06-.04-.12-.06-.19-.05-.07,0-.13.04-.18.09Z"/>
      <path class="cls-1" d="M49.65,14.96c-.05.01-.1,0-.15-.04s-.07-.08-.07-.12c0-.05.02-.09.06-.13l.43-.48s.04-.08.03-.12c-.02-.07,0-.13.05-.19.03-.04.08-.06.13-.06.06,0,.11,0,.15.04.11.08.13.18.07.3h0c.07-.03.15-.04.23-.03s.16.04.23.09c.15.11.2.24.18.4h0c.07-.02.15-.03.24-.02.09.01.16.04.22.08.13.1.2.21.2.35,0,.14-.06.29-.21.44l-.34.38s-.08.07-.13.08c-.05.01-.1,0-.15-.04-.05-.04-.07-.08-.07-.12s.02-.09.05-.13l.32-.35c.07-.08.11-.15.12-.22.01-.07,0-.12-.07-.17-.06-.04-.13-.05-.2-.03-.07.02-.15.07-.22.15l-.32.36s-.08.07-.13.08-.1,0-.15-.04c-.05-.03-.07-.08-.07-.12s.02-.09.05-.13l.32-.35c.15-.17.17-.3.06-.38-.06-.05-.13-.06-.21-.04-.08.02-.15.07-.22.15l-.32.35s-.08.07-.13.08Z"/>
      <path class="cls-1" d="M51.81,16.62c-.07-.05-.13-.11-.16-.19-.04-.07-.05-.14-.03-.21h0s-.03.02-.03.02c-.03.03-.06.05-.1.06-.04,0-.08,0-.12-.03-.04-.03-.06-.06-.06-.1s.01-.07.05-.11l1.08-1.21s.08-.07.13-.08c.05-.01.1,0,.15.04.05.04.07.07.07.12,0,.05-.02.09-.06.13l-.37.42h0c.05,0,.11,0,.18.02s.13.05.18.09c.13.09.2.21.21.35.01.14-.03.28-.14.43-.13.18-.29.3-.47.35s-.35.02-.52-.1ZM51.96,16.31c.08.06.16.07.25.05.09-.02.17-.08.24-.18.05-.08.08-.15.07-.22,0-.07-.04-.13-.1-.17-.08-.06-.17-.08-.26-.05-.09.02-.17.09-.24.19-.11.16-.1.29.03.38Z"/>
      <path class="cls-1" d="M52.81,17.24s-.1,0-.15-.04c-.05-.03-.07-.08-.07-.12,0-.05.02-.09.05-.13l.65-.73s.06-.06.11-.06c.04,0,.08,0,.12.03.04.03.06.06.07.09,0,.03,0,.06-.03.09l-.02.02h0c.06-.01.13-.02.19-.01.06,0,.12.02.16.06.04.03.06.06.07.1,0,.04,0,.08-.03.11-.03.04-.07.07-.11.08-.05.01-.09,0-.15-.04-.07-.05-.13-.07-.18-.06s-.11.05-.17.11l-.38.42s-.08.07-.13.08Z"/>
      <path class="cls-1" d="M53.78,18.03c-.17-.12-.27-.26-.29-.42-.02-.16.02-.31.13-.47.13-.18.29-.29.47-.32.18-.03.36.01.53.13.14.1.21.21.23.35.02.13-.02.26-.11.39-.06.08-.12.13-.17.14-.05.01-.11,0-.17-.05l-.52-.38s-.05.1-.03.17c.02.07.07.14.16.2.04.03.1.06.16.07.06.01.11.03.13.05.03.02.05.05.06.09,0,.03,0,.07-.02.1-.05.06-.11.09-.21.09-.11,0-.22-.05-.34-.14ZM54.04,17.23l.39.28s.03-.02.04-.04c.03-.04.04-.09.04-.14,0-.05-.04-.1-.09-.14-.06-.04-.12-.06-.19-.05-.07,0-.13.04-.18.09Z"/>
      <path class="cls-1" d="M40.46,11.89c-.13-.09-.2-.21-.21-.36-.01-.15.03-.29.14-.43.14-.19.3-.31.48-.35.18-.04.35,0,.51.12.12.09.18.18.18.29h0s.37-.41.37-.41c.04-.04.08-.07.13-.08s.1,0,.15.04c.05.03.07.07.07.12,0,.05-.02.09-.06.13l-.83.93c-.06.07-.09.13-.09.18,0,.07,0,.12-.03.16-.03.05-.08.07-.13.08-.05,0-.11,0-.17-.05-.05-.04-.08-.09-.09-.14s0-.11.03-.15h0c-.15.05-.3.03-.45-.08ZM40.75,11.69c.08.06.17.08.25.05.09-.02.17-.09.24-.19.06-.08.08-.15.07-.22,0-.07-.04-.12-.1-.17-.08-.06-.16-.07-.25-.05-.09.02-.17.08-.24.18-.05.07-.08.15-.07.22,0,.07.04.13.1.17Z"/>
      <path class="cls-1" d="M41.88,12.91c-.17-.12-.27-.26-.29-.42-.02-.16.02-.31.13-.47.13-.18.29-.29.47-.32.18-.03.36.01.53.13.14.1.21.21.23.35.02.13-.02.26-.11.39-.06.08-.12.13-.17.14-.05.01-.11,0-.17-.05l-.52-.38s-.05.1-.03.17c.02.07.07.14.16.2.04.03.1.06.16.07.06.02.11.03.13.05.03.02.05.05.06.09,0,.04,0,.07-.02.1-.05.06-.11.09-.21.08-.11,0-.22-.05-.34-.14ZM42.14,12.11l.39.28s.03-.02.04-.04c.03-.04.04-.09.04-.14,0-.05-.04-.1-.1-.14s-.12-.06-.19-.05c-.07,0-.13.04-.18.09Z"/>
      <path class="cls-1" d="M44.18,12.79l-.17-.05s-.04-.02-.06-.03c-.04-.03-.06-.06-.07-.11,0-.04,0-.08.04-.12.06-.08.13-.1.23-.08l.43.12s.06.02.08.04c.04.03.06.06.06.09,0,.04,0,.07-.04.11l-1.02,1.14s-.09.08-.13.09c-.05.01-.1,0-.15-.04-.05-.04-.08-.08-.08-.13,0-.05.02-.1.06-.14l.81-.91Z"/>
      <path class="cls-1" d="M44.39,14.71c-.17-.12-.28-.26-.33-.4-.05-.15-.03-.28.07-.41.08-.11.18-.18.29-.21.11-.02.23-.02.35.02h0c-.04-.07-.06-.14-.06-.22s.03-.15.08-.22c.09-.13.21-.19.37-.19.16,0,.32.06.49.18.15.11.25.23.29.35s.02.24-.05.35c-.06.09-.14.15-.24.17-.09.02-.19.02-.29,0h0c.13.17.13.35,0,.52-.11.15-.25.24-.42.25-.17.01-.35-.05-.55-.19ZM44.57,14.48c.09.06.17.09.26.07.09-.01.16-.06.21-.13.05-.07.06-.13.05-.2s-.06-.13-.13-.18c-.08-.06-.16-.08-.25-.07-.09,0-.16.05-.22.14-.05.07-.06.13-.05.2.01.07.06.13.13.18ZM45.16,13.82c.08.06.15.08.22.06.07-.01.12-.05.16-.1.03-.04.04-.09.03-.14s-.05-.11-.11-.15c-.07-.05-.14-.07-.21-.07s-.12.04-.16.1c-.04.05-.05.1-.05.16,0,.05.04.1.11.15Z"/>
      <path class="cls-1" d="M45.79,14.76c-.02-.14.02-.27.12-.41.12-.16.27-.26.48-.3.2-.03.39.01.58.15.16.12.25.25.28.41s-.01.31-.12.45c-.08.1-.16.19-.26.25-.1.06-.22.11-.37.15l-.59.2s-.08.02-.11.02c-.03,0-.06-.01-.1-.04-.04-.03-.06-.06-.07-.1,0-.04,0-.08.02-.11.02-.03.05-.05.1-.07l.48-.16h0c-.06-.01-.13-.04-.2-.1-.13-.09-.2-.2-.22-.34ZM46.56,15.03c.09-.01.18-.07.25-.16.05-.07.08-.15.07-.23-.01-.07-.05-.14-.12-.19-.09-.06-.18-.08-.28-.06-.1.02-.18.07-.24.16-.05.07-.07.14-.06.22.01.08.05.14.12.19.08.06.17.08.26.07Z"/>
      <path class="cls-1" d="M46.73,16.4s-.06-.06-.07-.1c0-.04,0-.08.03-.11.02-.02.05-.05.11-.08l1.34-.63-.59-.41s-.06-.06-.06-.1c0-.04,0-.08.04-.12.07-.1.16-.11.25-.04l.73.53s.07.07.08.12c0,.04,0,.09-.04.14-.03.04-.07.08-.12.1l-1.47.71s-.08.03-.11.03c-.03,0-.07-.01-.1-.04Z"/>
      <path class="cls-1" d="M18.71,77.6c-.09,0-.15-.03-.18-.08-.04-.05-.05-.12-.04-.19l.22-2.06c.02-.17.11-.26.29-.26h.53c.31,0,.54.07.7.22.16.15.24.35.24.6,0,.32-.09.57-.28.73s-.47.25-.84.25h-.3l-.06.53c-.02.18-.11.27-.28.27ZM19.19,75.44l-.1.93h.3c.38,0,.57-.17.57-.52,0-.12-.04-.22-.11-.3-.08-.08-.19-.11-.34-.11h-.32Z"/>
      <path class="cls-1" d="M21.73,77.63c-.36,0-.62-.1-.78-.29-.16-.19-.22-.46-.18-.8l.13-1.27c.02-.18.12-.27.29-.27.09,0,.15.03.18.08s.05.12.04.2l-.13,1.28c-.02.2,0,.35.09.46.08.11.22.17.39.17s.33-.06.43-.16c.1-.11.17-.26.19-.46l.13-1.28c.02-.18.12-.27.29-.27.09,0,.15.03.18.08.03.05.04.12.03.2l-.13,1.27c-.07.72-.46,1.08-1.15,1.08Z"/>
      <path class="cls-1" d="M24.66,77.6h-1.06c-.08,0-.14-.02-.18-.07-.04-.04-.06-.11-.05-.19l.22-2.08c.02-.17.12-.26.29-.26h1.05c.06,0,.11.02.14.05.04.04.05.09.05.15,0,.07-.02.13-.07.18-.05.05-.1.07-.17.07h-.82l-.06.62h.71c.06,0,.11.02.14.06.04.04.06.09.06.15,0,.07-.02.13-.07.18-.05.05-.1.07-.17.07h-.72l-.06.62h.81c.06,0,.11.02.14.05.04.04.06.09.06.15,0,.07-.02.13-.07.18-.05.05-.1.07-.17.07Z"/>
      <path class="cls-1" d="M25.78,77.52c-.05.05-.11.08-.2.08s-.14-.03-.18-.08c-.04-.05-.05-.12-.05-.19l.22-2.06c.02-.17.11-.26.29-.26h.64c.28,0,.5.06.66.18.16.12.23.31.23.56,0,.21-.06.39-.17.53-.11.14-.25.21-.42.21h0c.18,0,.31.08.38.24.08.15.1.36.07.64,0,.08-.03.14-.08.19-.05.05-.11.08-.2.08s-.15-.03-.18-.08c-.03-.05-.05-.12-.04-.19.01-.14.01-.26,0-.35s-.05-.15-.11-.19c-.05-.04-.1-.06-.14-.07-.04-.01-.1-.02-.16-.02h-.41s-.06.6-.06.6c0,.08-.03.14-.08.19ZM26.06,75.44l-.09.86h.4c.18,0,.32-.05.4-.14.09-.09.13-.21.13-.35,0-.12-.04-.21-.12-.27-.08-.07-.18-.1-.31-.1h-.42Z"/>
      <path class="cls-1" d="M28.48,77.6c-.08,0-.14-.03-.18-.08-.04-.05-.05-.12-.05-.19l.19-1.87h-.59c-.06,0-.11-.02-.15-.06-.04-.04-.06-.09-.06-.15,0-.08.02-.14.07-.18.05-.04.11-.07.18-.07h1.69c.06,0,.11.02.15.05.04.04.06.09.06.15,0,.08-.02.14-.07.18-.05.04-.11.07-.18.07h-.59l-.2,1.87c-.02.18-.11.27-.28.27Z"/>
      <path class="cls-1" d="M29.74,76.45c0-.41.13-.76.39-1.04.26-.28.6-.42,1.02-.42.35,0,.63.11.83.33.2.22.3.5.3.85,0,.27-.05.52-.16.73-.1.22-.27.4-.48.53-.22.14-.47.2-.77.2-.35,0-.63-.11-.83-.33-.2-.22-.3-.51-.3-.85ZM30.91,77.18c.26,0,.47-.09.62-.27s.23-.42.23-.72c0-.24-.05-.42-.16-.55-.11-.13-.27-.2-.48-.2-.26,0-.46.09-.62.28s-.24.42-.24.71c0,.23.06.42.17.55.11.14.27.2.47.2Z"/>
      <path class="cls-1" d="M34.15,77.6c-.08,0-.14-.03-.18-.08-.04-.05-.05-.12-.05-.19l.19-1.87h-.59c-.06,0-.11-.02-.15-.06-.04-.04-.06-.09-.06-.15,0-.08.02-.14.07-.18.05-.04.11-.07.18-.07h1.69c.06,0,.11.02.15.05.04.04.06.09.06.15,0,.08-.02.14-.07.18-.05.04-.11.07-.18.07h-.59l-.2,1.87c-.02.18-.11.27-.28.27Z"/>
      <path class="cls-1" d="M36.88,77.6h-1.06c-.08,0-.14-.02-.18-.07-.04-.04-.06-.11-.05-.19l.22-2.08c.02-.17.12-.26.29-.26h1.05c.06,0,.11.02.14.05.04.04.05.09.05.15,0,.07-.02.13-.07.18-.05.05-.1.07-.17.07h-.82l-.06.62h.71c.06,0,.11.02.14.06.04.04.06.09.06.15,0,.07-.02.13-.07.18-.05.05-.1.07-.17.07h-.72l-.06.62h.81c.06,0,.11.02.14.05.04.04.06.09.06.15,0,.07-.02.13-.07.18-.05.05-.1.07-.17.07Z"/>
      <path class="cls-1" d="M37.9,77.63c-.18,0-.33-.04-.43-.11-.08-.06-.12-.13-.12-.21,0-.06.02-.11.06-.15.04-.04.1-.07.16-.07.04,0,.1.01.17.04.07.03.14.04.2.04.07,0,.12-.04.16-.11s.07-.19.08-.35l.15-1.45c0-.07.03-.13.08-.18.05-.05.11-.07.19-.07.08,0,.14.02.18.07s.06.11.05.18l-.16,1.47c-.03.31-.11.54-.23.68s-.31.22-.56.22Z"/>
      <path class="cls-1" d="M41.2,77.27c.02.09,0,.17-.04.23-.05.06-.12.1-.21.1-.07,0-.13-.02-.16-.06-.03-.04-.06-.09-.08-.17l-.09-.36h-.97l-.17.36c-.03.08-.07.14-.11.17-.04.04-.09.06-.16.06-.09,0-.16-.03-.2-.1-.04-.07-.04-.14,0-.23l.83-1.75c.09-.2.16-.33.23-.41.07-.08.16-.11.27-.11s.2.04.25.11c.05.07.1.21.15.42l.45,1.74ZM39.87,76.56h.65l-.22-.9h0l-.42.9Z"/>
      <path class="cls-1" d="M42.45,77.6h-.61c-.08,0-.14-.02-.19-.07-.04-.04-.06-.11-.05-.19l.22-2.08c.02-.17.11-.26.29-.26h.61c.38,0,.67.1.87.3.2.2.3.48.3.83,0,.45-.13.81-.38,1.07s-.61.39-1.06.39ZM42.31,75.45l-.18,1.69h.37c.28,0,.5-.08.65-.25.15-.17.23-.41.23-.72,0-.23-.06-.41-.18-.54-.12-.12-.29-.19-.52-.19h-.37Z"/>
      <path class="cls-1" d="M46.2,77.27c.02.09,0,.17-.03.23-.05.06-.12.1-.21.1-.07,0-.13-.02-.16-.06-.03-.04-.06-.09-.08-.17l-.09-.36h-.97l-.17.36c-.03.08-.07.14-.11.17-.04.04-.09.06-.16.06-.09,0-.16-.03-.2-.1s-.04-.14,0-.23l.83-1.75c.09-.2.16-.33.23-.41.07-.08.16-.11.27-.11s.2.04.25.11.1.21.15.42l.45,1.74ZM44.86,76.56h.65l-.22-.9h0l-.42.9Z"/>
    </g>
  </g>
</svg>