<?xml version="1.0" encoding="UTF-8"?><svg xmlns="http://www.w3.org/2000/svg" viewBox="0 0 639.08 507.2"><defs><style>.uuid-6c35acbd-b62f-46a9-8680-644e314ae98f{fill:#003a49;}.uuid-1c40327a-a790-4e00-b20c-9cda29f581e5{isolation:isolate;}</style></defs><g class="uuid-1c40327a-a790-4e00-b20c-9cda29f581e5"><g id="uuid-d1f73fb1-6e2f-48f4-b8d9-be22b1025ef4"><g id="uuid-123cc002-204f-4116-b3c1-2e800edd64ff"><path class="uuid-6c35acbd-b62f-46a9-8680-644e314ae98f" d="M74.63,0l-36.95,50.72L0,0h74.63ZM149.26,0l-36.95,50.72L74.63,0h74.63ZM150.71,202.88l-36.95,50.72-37.68-50.72h74.63ZM150.71,304.32h-74.63l37.68-50.72,36.95,50.72ZM186.94,50.72l-36.95,50.72-37.68-50.72h74.63ZM187.67,152.16l-36.95,50.72-37.68-50.72h74.63ZM187.67,355.04h-74.63l37.68-50.72,36.95,50.72ZM224.62,101.44l-36.95,50.72-37.68-50.72h74.63ZM224.62,405.76h-74.63l37.68-50.72,36.95,50.72ZM261.57,50.72l-36.95,50.72-37.68-50.72h74.63ZM261.57,456.48h-74.63l37.68-50.72,36.95,50.72ZM298.53,0l-36.95,50.72L223.89,0h74.63ZM298.53,507.2h-74.63l37.68-50.72,36.95,50.72ZM340.55,0h74.63l-37.68,50.72L340.55,0ZM340.55,507.2l36.95-50.72,37.68,50.72h-74.63ZM377.51,50.72h74.63l-37.68,50.72-36.95-50.72ZM377.51,456.48l36.95-50.72,37.68,50.72h-74.63ZM414.46,101.44h74.63l-37.68,50.72-36.95-50.72ZM414.46,405.76l36.95-50.72,37.68,50.72h-74.63ZM451.41,152.16h74.63l-37.68,50.72-36.95-50.72ZM451.41,355.04l36.95-50.72,37.68,50.72h-74.63ZM452.14,50.72h74.63l-37.68,50.72-36.95-50.72ZM488.37,202.88h74.63l-37.68,50.72-36.95-50.72ZM488.37,304.32l36.95-50.72,37.68,50.72h-74.63ZM489.81,0h74.63l-37.68,50.72L489.81,0ZM564.45,0h74.63l-37.68,50.72L564.45,0Z"/></g></g></g></svg>