<?xml version="1.0" encoding="UTF-8"?>
<svg id="Layer_2" data-name="Layer 2" xmlns="http://www.w3.org/2000/svg" viewBox="0 0 226.16 105.35">
  <defs>
    <style>
      .cls-1 {
        fill: #fff;
      }
    </style>
  </defs>
  <g id="Layer_2-2" data-name="Layer 2">
    <g>
      <path class="cls-1" d="M112.37,25.81h8.33c.24,0,.46.16.54.41l7.05,20.72c.14.4-.14.83-.54.83h-6.58c-.25,0-.47-.17-.55-.42l-.98-3.17c-.08-.25-.3-.42-.55-.42h-6.45c-.25,0-.47.17-.55.42l-.98,3.17c-.08.25-.3.42-.55.42h-5.25c-.4,0-.68-.42-.54-.83l7.05-20.72c.08-.24.3-.41.54-.41M117.95,38.66l-1.52-5.15c-.17-.57-.93-.58-1.1,0l-1.54,5.15c-.12.4.16.8.55.8h3.05c.39,0,.67-.4.55-.8"/>
      <path class="cls-1" d="M130.29,26.43c0-.34.26-.62.58-.62h13.61c5.4,0,8.03,2.89,8.03,6.59,0,2.8-1.59,4.54-3.55,5.41-.31.14-.42.54-.27.85l4.13,8.2c.21.41-.07.91-.51.91h-6.83c-.23,0-.43-.14-.53-.36l-3.26-7.56c-.09-.22-.3-.36-.53-.36h-3.09c-.32,0-.58.28-.58.62v7.05c0,.34-.26.62-.58.62h-6.04c-.32,0-.58-.28-.58-.62v-20.72ZM142.45,35c1.68,0,2.54-.97,2.54-2.38s-.83-2.23-2.54-2.23h-4.38c-.32,0-.58.28-.58.62v3.38c0,.34.26.62.58.62h4.38Z"/>
      <path class="cls-1" d="M160.61,30.99h-5.66c-.32,0-.58-.28-.58-.62v-3.94c0-.34.26-.62.58-.62h19.82c.32,0,.58.28.58.62v3.94c0,.34-.26.62-.58.62h-5.63c-.32,0-.58.28-.58.62v15.55c0,.34-.26.62-.58.62h-6.22c-.32,0-.58-.28-.58-.62v-15.55c0-.34-.26-.62-.58-.62"/>
      <path class="cls-1" d="M178.5,25.81h17.99c.32,0,.58.28.58.62v3.66c0,.34-.26.62-.58.62h-10.73c-.32,0-.58.28-.58.62v2.12c0,.34.26.62.58.62h8.52c.32,0,.58.28.58.62v3.41c0,.34-.26.62-.58.62h-8.52c-.32,0-.58.28-.58.62v2.94c0,.34.26.62.58.62h10.73c.32,0,.58.28.58.62v3.66c0,.34-.26.62-.58.62h-17.99c-.32,0-.58-.28-.58-.62v-20.72c0-.34.26-.62.58-.62"/>
      <path class="cls-1" d="M199.53,43.35l6.02-1.73c.25-.07.51.06.65.29.7,1.21,1.93,2.03,4.18,2.03,2.39,0,3.16-.85,3.16-1.98,0-.94-.56-1.5-2.04-1.76l-4.69-.72c-5.08-.75-7.44-2.95-7.44-6.9s2.95-7.18,10.74-7.18c6.05,0,8.65,2.02,9.37,4.43.11.38-.14.77-.51.8l-5.18.44c-.25.02-.49-.13-.58-.37-.34-.94-1.11-1.5-3.19-1.5-2.51,0-3.25.78-3.25,1.82,0,.88.5,1.44,2.09,1.69l4.37.75c5.25.85,7.7,2.92,7.7,7.12,0,4.55-2.92,7.59-10.98,7.59-6.38,0-9.45-1.91-10.77-3.88-.23-.34-.05-.83.33-.94"/>
      <path class="cls-1" d="M106.12,54.7c0-.36.28-.66.62-.66h13.52c5.4,0,8.03,2.92,8.03,6.71,0,4.04-2.68,7.02-8.03,7.02h-6.32c-.34,0-.62.29-.62.66v6.9c0,.36-.28.66-.62.66h-5.97c-.34,0-.62-.29-.62-.66v-20.64ZM118.22,63.23c1.68,0,2.54-.97,2.54-2.41,0-1.32-.83-2.2-2.54-2.2h-4.28c-.34,0-.62.29-.62.66v3.3c0,.36.28.66.62.66h4.28Z"/>
      <path class="cls-1" d="M134.74,54.04h8.28c.26,0,.49.17.58.43l7.02,20.64c.14.43-.15.88-.58.88h-6.49c-.27,0-.5-.18-.59-.45l-.96-3.11c-.08-.27-.32-.45-.59-.45h-6.39c-.27,0-.5.18-.59.45l-.96,3.11c-.08.27-.32.45-.59.45h-5.17c-.43,0-.73-.45-.58-.88l7.02-20.64c.09-.26.32-.43.58-.43M140.28,66.83l-1.46-4.97c-.18-.61-.99-.61-1.18,0l-1.48,4.97c-.13.42.17.85.59.85h2.95c.42,0,.71-.43.59-.85"/>
      <path class="cls-1" d="M152.63,54.7c0-.36.28-.66.62-.66h13.58c5.4,0,8.03,2.88,8.03,6.59,0,2.78-1.57,4.51-3.52,5.4-.33.15-.45.57-.29.9l4.08,8.1c.22.44-.08.97-.54.97h-6.75c-.24,0-.46-.15-.56-.38l-3.24-7.51c-.1-.23-.32-.38-.56-.38h-3.03c-.34,0-.62.29-.62.66v6.97c0,.36-.28.66-.62.66h-5.97c-.34,0-.62-.29-.62-.66v-20.64ZM164.78,63.23c1.68,0,2.54-.97,2.54-2.38s-.83-2.23-2.54-2.23h-4.34c-.34,0-.62.29-.62.66v3.3c0,.36.28.66.62.66h4.34Z"/>
      <path class="cls-1" d="M184.04,54.04h8.28c.26,0,.49.17.58.43l7.02,20.64c.15.43-.15.88-.58.88h-6.49c-.27,0-.5-.18-.59-.45l-.96-3.11c-.08-.27-.32-.45-.59-.45h-6.39c-.27,0-.5.18-.59.45l-.96,3.11c-.08.27-.32.45-.59.45h-5.17c-.43,0-.73-.45-.58-.88l7.02-20.64c.09-.26.32-.43.58-.43M189.59,66.83l-1.47-4.97c-.18-.61-.99-.61-1.18,0l-1.48,4.97c-.13.42.17.85.59.85h2.95c.42,0,.71-.43.59-.85"/>
      <path class="cls-1" d="M106.76,82.27h6.12c.36,0,.64.31.64.68v15.16c0,.38.29.68.64.68h8.95c.36,0,.64.31.64.68v4.06c0,.38-.29.68-.64.68h-16.36c-.36,0-.64-.31-.64-.68v-20.58c0-.38.29-.68.64-.68"/>
      <path class="cls-1" d="M132.6,82.27h8.24c.27,0,.51.18.61.45l7,20.58c.15.45-.16.92-.61.92h-6.44c-.28,0-.52-.19-.61-.47l-.95-3.07c-.09-.28-.33-.47-.61-.47h-6.36c-.28,0-.52.19-.61.47l-.95,3.07c-.09.28-.33.47-.61.47h-5.11c-.45,0-.76-.47-.61-.92l7-20.58c.09-.27.33-.45.61-.45M138.11,95.02l-1.43-4.85c-.19-.64-1.04-.64-1.23,0l-1.45,4.85c-.13.44.18.89.61.89h2.88c.43,0,.74-.45.61-.89"/>
      <path class="cls-1" d="M159.12,82.96c0-.38.29-.68.64-.68h13.49c5.4,0,8.03,2.92,8.03,6.71,0,4.05-2.68,7.02-8.03,7.02h-6.29c-.36,0-.64.31-.64.68v6.85c0,.38-.29.68-.64.68h-5.91c-.36,0-.64-.31-.64-.68v-20.58ZM171.22,91.46c1.68,0,2.54-.97,2.54-2.42,0-1.32-.83-2.2-2.54-2.2h-4.25c-.36,0-.64.31-.64.68v3.24c0,.38.29.68.64.68h4.25Z"/>
      <path class="cls-1" d="M187.75,82.27h8.24c.27,0,.51.18.61.45l7,20.58c.15.45-.16.92-.61.92h-6.44c-.28,0-.52-.19-.61-.47l-.95-3.07c-.09-.28-.33-.47-.61-.47h-6.36c-.28,0-.52.19-.61.47l-.95,3.07c-.09.28-.33.47-.61.47h-5.11c-.45,0-.76-.47-.61-.92l7-20.58c.09-.27.33-.45.61-.45M193.26,95.02l-1.43-4.85c-.19-.64-1.04-.64-1.23,0l-1.45,4.85c-.13.44.18.89.61.89h2.88c.43,0,.74-.45.61-.89"/>
      <path class="cls-1" d="M205.29,99.13l10.31-10.8c.41-.43.12-1.17-.45-1.17h-8.73c-.36,0-.64-.31-.64-.68v-3.52c0-.38.29-.68.64-.68h18.72c.36,0,.64.31.64.68v3.92c0,.18-.07.36-.19.49l-10.29,10.8c-.41.43-.12,1.17.45,1.17h9.77c.36,0,.64.31.64.68v3.52c0,.38-.29.68-.64.68h-19.78c-.36,0-.64-.31-.64-.68v-3.92c0-.18.07-.36.19-.49"/>
      <path class="cls-1" d="M53.19,77.08c0,15.61-11.91,28.27-26.6,28.27S0,92.69,0,77.08s11.91-28.27,26.6-28.27,26.6,12.66,26.6,28.27"/>
      <path class="cls-1" d="M47.96,23.8c0,12.54-9.57,22.71-21.37,22.71S5.23,36.34,5.23,23.8,14.8,1.09,26.6,1.09s21.37,10.17,21.37,22.71"/>
      <path class="cls-1" d="M66.03,0h-6.48v.14c0-.08-.06-.14-.13-.14h-15.76c-.16,0-.18.23-.03.27,10.33,3.04,15.92,13.09,15.92,25.04v46.86c0,17.98,13.72,32.56,30.64,32.56h6.48V32.56C96.67,14.58,82.95,0,66.03,0M71.1,15.53c-1.62,0-2.93-1.39-2.93-3.11s1.31-3.11,2.93-3.11,2.93,1.39,2.93,3.11-1.31,3.11-2.93,3.11"/>
    </g>
  </g>
</svg>