<?xml version="1.0" encoding="UTF-8"?>
<svg xmlns="http://www.w3.org/2000/svg" viewBox="0 0 356.85 372.25">
  <defs>
    <style>
      .cls-1 {
        isolation: isolate;
      }

      .cls-2 {
        fill: #ccc;
        mix-blend-mode: multiply;
      }
    </style>
  </defs>
  <g class="cls-1">
    <g id="Layer_2" data-name="Layer 2">
      <g id="Figuras">
        <path class="cls-2" d="M54.69,149.22l-27.08,37.17L0,149.22h54.69ZM54.69,223.55H0l27.61-37.17,27.08,37.17ZM81.78,112.04l-27.08,37.19-27.61-37.19h54.7ZM81.78,260.73H27.08l27.61-37.18,27.08,37.18ZM178.96,371.72l134.35-185.33L178.96,0,43.54,186.39l135.41,185.33ZM108.86,74.87l-27.08,37.17-27.61-37.17h54.69ZM108.86,297.91h-54.69l27.61-37.18,27.08,37.18ZM135.94,37.71l-27.08,37.17-27.61-37.17h54.7ZM135.94,335.07h-54.7l27.61-37.17,27.08,37.17ZM163.02.53l-27.08,37.18L108.33.53h54.69ZM163.02,372.25h-54.69l27.61-37.18,27.08,37.18ZM193.82.53h54.7l-27.61,37.18L193.82.53ZM193.82,372.25l27.08-37.18,27.61,37.18h-54.7ZM220.91,37.71h54.7l-27.61,37.17-27.09-37.17ZM220.91,335.07l27.09-37.17,27.61,37.17h-54.7ZM247.99,74.87h54.69l-27.61,37.17-27.08-37.17ZM247.99,297.91l27.08-37.18,27.61,37.18h-54.69ZM275.07,112.04h54.7l-27.61,37.19-27.09-37.19ZM275.07,260.73l27.09-37.18,27.61,37.18h-54.7ZM302.16,149.22h54.69l-27.61,37.17-27.08-37.17ZM302.16,223.55l27.08-37.17,27.61,37.17h-54.69Z"/>
      </g>
    </g>
  </g>
</svg>