<?xml version="1.0" encoding="UTF-8"?>
<svg id="Layer_2" data-name="Layer 2" xmlns="http://www.w3.org/2000/svg" viewBox="0 0 233.29 52.59">
  <defs>
    <style>
      .cls-1 {
        fill: #fff;
      }
    </style>
  </defs>
  <g id="Layer_2-2" data-name="Layer 2">
    <g>
      <rect class="cls-1" x="0" y="45.08" width="7.04" height="7.22"/>
      <rect class="cls-1" y="36.53" width="7.04" height="7.22"/>
      <rect class="cls-1" x="0" y="28.11" width="7.04" height="7.22"/>
      <rect class="cls-1" x="8.56" y="36.57" width="7.04" height="7.22"/>
      <rect class="cls-1" x="17.16" y="36.53" width="7.04" height="7.22"/>
      <rect class="cls-1" x="25.72" y="36.57" width="7.04" height="7.22"/>
      <rect class="cls-1" x="8.64" y="19.5" width="7.04" height="7.22"/>
      <rect class="cls-1" x="17.2" y="19.54" width="7.04" height="7.22"/>
      <rect class="cls-1" x="37.84" y="45.02" width="7.04" height="7.22"/>
      <rect class="cls-1" x="37.83" y="36.47" width="7.04" height="7.22"/>
      <rect class="cls-1" x="37.83" y="28.04" width="7.04" height="7.22"/>
      <rect class="cls-1" x="46.1" y="19.47" width="7.04" height="7.22"/>
      <rect class="cls-1" x="54.67" y="19.52" width="7.04" height="7.22"/>
      <rect class="cls-1" x="25.55" y="28.04" width="7.04" height="7.22"/>
      <rect class="cls-1" x="25.67" y="45.14" width="7.04" height="7.22"/>
      <rect class="cls-1" x="63.38" y="28.11" width="7.04" height="7.22"/>
      <rect class="cls-1" x="84.28" y="45.14" width="7.04" height="7.22"/>
      <rect class="cls-1" x="92.84" y="45.18" width="7.04" height="7.22"/>
      <rect class="cls-1" x="75.71" y="27.99" width="7.04" height="7.22"/>
      <rect class="cls-1" x="75.7" y="19.43" width="7.04" height="7.22"/>
      <rect class="cls-1" x="75.7" y="11.01" width="7.04" height="7.22"/>
      <rect class="cls-1" x="75.79" y="36.9" width="7.04" height="7.22"/>
      <rect class="cls-1" x="84.28" y="19.5" width="7.04" height="7.22"/>
      <rect class="cls-1" x="92.84" y="19.54" width="7.04" height="7.22"/>
      <rect class="cls-1" x="101.45" y="19.45" width="7.04" height="7.22"/>
      <rect class="cls-1" x="101.35" y="36.67" width="7.04" height="7.22"/>
      <rect class="cls-1" x="121.77" y="45.32" width="7.04" height="7.22"/>
      <rect class="cls-1" x="130.33" y="45.37" width="7.04" height="7.22"/>
      <rect class="cls-1" x="138.94" y="45.28" width="7.04" height="7.22"/>
      <rect class="cls-1" x="121.75" y="19.53" width="7.04" height="7.22"/>
      <rect class="cls-1" x="130.31" y="19.58" width="7.04" height="7.22"/>
      <rect class="cls-1" x="113.11" y="27.99" width="7.04" height="7.22"/>
      <rect class="cls-1" x="113.19" y="36.9" width="7.04" height="7.22"/>
      <rect class="cls-1" x="138.85" y="28.15" width="7.04" height="7.22"/>
      <rect class="cls-1" x="151.25" y="36.41" width="7.04" height="7.22"/>
      <rect class="cls-1" x="151.24" y="27.86" width="7.04" height="7.22"/>
      <rect class="cls-1" x="151.33" y="45.32" width="7.04" height="7.22"/>
      <rect class="cls-1" x="176.9" y="28.24" width="7.04" height="7.22"/>
      <rect class="cls-1" x="159.7" y="19.53" width="7.04" height="7.22"/>
      <rect class="cls-1" x="168.27" y="19.58" width="7.04" height="7.22"/>
      <rect class="cls-1" x="188.56" y="36.69" width="7.04" height="7.22"/>
      <rect class="cls-1" x="188.55" y="28.14" width="7.04" height="7.22"/>
      <rect class="cls-1" x="188.55" y="19.71" width="7.04" height="7.22"/>
      <rect class="cls-1" x="188.64" y="45.23" width="7.04" height="7.22"/>
      <rect class="cls-1" x="225.96" y="36.6" width="7.04" height="7.22"/>
      <rect class="cls-1" x="225.95" y="28.04" width="7.04" height="7.22"/>
      <rect class="cls-1" x="226.04" y="45.14" width="7.04" height="7.22"/>
      <rect class="cls-1" x="200.22" y="28.08" width="7.04" height="7.22"/>
      <rect class="cls-1" x="200.3" y="36.62" width="7.04" height="7.22"/>
      <rect class="cls-1" x="208.95" y="19.72" width="7.04" height="7.22"/>
      <rect class="cls-1" x="217.52" y="19.76" width="7.04" height="7.22"/>
      <rect class="cls-1" x="208.91" y="45.26" width="7.04" height="7.22"/>
      <polygon class="cls-1" points="0 26.57 7.04 26.57 7.04 19.53 0 26.57"/>
      <polygon class="cls-1" points="25.62 19.47 25.62 26.51 32.66 26.51 25.62 19.47"/>
      <polygon class="cls-1" points="37.78 26.51 44.82 26.51 44.82 19.47 37.78 26.51"/>
      <polygon class="cls-1" points="63.33 19.47 63.33 26.51 70.37 26.51 63.33 19.47"/>
      <polygon class="cls-1" points="82.77 52.37 82.77 45.33 75.74 45.33 82.77 52.37"/>
      <polygon class="cls-1" points="108.57 45.33 101.53 45.33 101.53 52.37 108.57 45.33"/>
      <polygon class="cls-1" points="113.08 26.75 120.11 26.75 120.11 19.72 113.08 26.75"/>
      <polygon class="cls-1" points="138.75 19.53 138.75 26.57 145.79 26.57 138.75 19.53"/>
      <polygon class="cls-1" points="120.27 52.31 120.27 45.27 113.24 45.27 120.27 52.31"/>
      <polygon class="cls-1" points="145.97 36.69 138.94 36.69 138.94 43.73 145.97 36.69"/>
      <polygon class="cls-1" points="130.42 43.67 137.45 43.67 137.45 36.63 130.42 43.67"/>
      <polygon class="cls-1" points="176.77 19.6 176.77 26.63 183.8 26.63 176.77 19.6"/>
      <polygon class="cls-1" points="151.22 26.51 158.25 26.51 158.25 19.47 151.22 26.51"/>
      <polygon class="cls-1" points="225.96 19.6 225.96 26.63 232.99 26.63 225.96 19.6"/>
      <polygon class="cls-1" points="200.41 26.57 207.44 26.57 207.44 19.53 200.41 26.57"/>
      <polygon class="cls-1" points="224.48 45.02 217.44 45.02 217.44 52.06 224.48 45.02"/>
      <polygon class="cls-1" points="207.44 52.12 207.44 45.08 200.41 45.08 207.44 52.12"/>
      <rect class="cls-1" x="84.69" y="15.34" width="3.21" height="2.28"/>
      <rect class="cls-1" x="84.73" y="12.24" width="3.21" height="2.28"/>
      <rect class="cls-1" x="84.69" y="9.18" width="3.21" height="2.28"/>
      <rect class="cls-1" x="88.76" y="6.08" width="3.21" height="2.28"/>
      <rect class="cls-1" x="92.88" y="6.08" width="3.21" height="2.28"/>
      <rect class="cls-1" x="96.91" y="6.08" width="3.21" height="2.28"/>
      <rect class="cls-1" x="88.76" y="12.37" width="3.21" height="2.28"/>
      <rect class="cls-1" x="92.88" y="12.37" width="3.21" height="2.28"/>
      <rect class="cls-1" x="96.91" y="12.37" width="3.21" height="2.28"/>
      <rect class="cls-1" x="107.09" y="15.34" width="3.21" height="2.28"/>
      <rect class="cls-1" x="111.12" y="15.34" width="3.21" height="2.28"/>
      <rect class="cls-1" x="102.92" y="12.28" width="3.21" height="2.28"/>
      <rect class="cls-1" x="102.97" y="9.18" width="3.21" height="2.28"/>
      <rect class="cls-1" x="102.92" y="6.13" width="3.21" height="2.28"/>
      <rect class="cls-1" x="115" y="12.33" width="3.21" height="2.28"/>
      <rect class="cls-1" x="115.05" y="9.23" width="3.21" height="2.28"/>
      <rect class="cls-1" x="115" y="6.17" width="3.21" height="2.28"/>
      <rect class="cls-1" x="125.05" y="6.17" width="3.21" height="2.28"/>
      <rect class="cls-1" x="129.08" y="6.17" width="3.21" height="2.28"/>
      <rect class="cls-1" x="121.07" y="15.38" width="3.21" height="2.28"/>
      <rect class="cls-1" x="121.11" y="12.28" width="3.21" height="2.28"/>
      <rect class="cls-1" x="121.07" y="9.23" width="3.21" height="2.28"/>
      <rect class="cls-1" x="133.24" y="15.34" width="3.21" height="2.28"/>
      <rect class="cls-1" x="133.29" y="12.24" width="3.21" height="2.28"/>
      <rect class="cls-1" x="133.24" y="9.18" width="3.21" height="2.28"/>
      <rect class="cls-1" x="151.29" y="12.33" width="3.21" height="2.28"/>
      <rect class="cls-1" x="151.34" y="9.23" width="3.21" height="2.28"/>
      <rect class="cls-1" x="151.29" y="6.17" width="3.21" height="2.28"/>
      <rect class="cls-1" x="143.33" y="15.34" width="3.21" height="2.28"/>
      <rect class="cls-1" x="147.36" y="15.34" width="3.21" height="2.28"/>
      <rect class="cls-1" x="151.25" y="3.16" width="3.21" height="2.28"/>
      <rect class="cls-1" x="143.33" y="6.08" width="3.21" height="2.28"/>
      <rect class="cls-1" x="147.36" y="6.08" width="3.21" height="2.28"/>
      <rect class="cls-1" x="139.26" y="12.28" width="3.21" height="2.28"/>
      <rect class="cls-1" x="139.31" y="9.18" width="3.21" height="2.28"/>
      <rect class="cls-1" x="169.53" y="15.38" width="3.21" height="2.28"/>
      <rect class="cls-1" x="169.58" y="12.28" width="3.21" height="2.28"/>
      <rect class="cls-1" x="169.53" y="9.23" width="3.21" height="2.28"/>
      <rect class="cls-1" x="157.4" y="12.28" width="3.21" height="2.28"/>
      <rect class="cls-1" x="157.45" y="9.18" width="3.21" height="2.28"/>
      <rect class="cls-1" x="161.38" y="15.34" width="3.21" height="2.28"/>
      <rect class="cls-1" x="161.34" y="6.06" width="3.21" height="2.28"/>
      <rect class="cls-1" x="165.37" y="6.06" width="3.21" height="2.28"/>
      <rect class="cls-1" x="179.58" y="6.08" width="3.21" height="2.28"/>
      <rect class="cls-1" x="183.7" y="6.08" width="3.21" height="2.28"/>
      <rect class="cls-1" x="187.72" y="6.08" width="3.21" height="2.28"/>
      <rect class="cls-1" x="179.48" y="15.29" width="3.21" height="2.28"/>
      <rect class="cls-1" x="183.6" y="15.29" width="3.21" height="2.28"/>
      <rect class="cls-1" x="187.63" y="15.29" width="3.21" height="2.28"/>
      <rect class="cls-1" x="193.61" y="15.24" width="3.21" height="2.28"/>
      <rect class="cls-1" x="193.61" y="12.14" width="3.21" height="2.28"/>
      <rect class="cls-1" x="193.61" y="9.09" width="3.21" height="2.28"/>
      <rect class="cls-1" x="193.65" y="6.08" width="3.21" height="2.28"/>
      <rect class="cls-1" x="175.5" y="12.28" width="3.21" height="2.28"/>
      <rect class="cls-1" x="175.55" y="9.18" width="3.21" height="2.28"/>
      <rect class="cls-1" x="203.65" y="6.06" width="3.21" height="2.28"/>
      <rect class="cls-1" x="207.67" y="6.06" width="3.21" height="2.28"/>
      <rect class="cls-1" x="203.65" y="15.37" width="3.21" height="2.28"/>
      <rect class="cls-1" x="207.67" y="15.37" width="3.21" height="2.28"/>
      <rect class="cls-1" x="199.67" y="12.28" width="3.21" height="2.28"/>
      <rect class="cls-1" x="199.71" y="9.18" width="3.21" height="2.28"/>
      <rect class="cls-1" x="211.84" y="12.28" width="3.21" height="2.28"/>
      <rect class="cls-1" x="211.89" y="9.18" width="3.21" height="2.28"/>
      <rect class="cls-1" x="217.9" y="15.34" width="3.21" height="2.28"/>
      <rect class="cls-1" x="217.95" y="12.24" width="3.21" height="2.28"/>
      <rect class="cls-1" x="217.9" y="9.18" width="3.21" height="2.28"/>
      <rect class="cls-1" x="230.03" y="15.34" width="3.21" height="2.28"/>
      <rect class="cls-1" x="230.08" y="12.24" width="3.21" height="2.28"/>
      <rect class="cls-1" x="230.03" y="9.18" width="3.21" height="2.28"/>
      <rect class="cls-1" x="221.88" y="6.09" width="3.21" height="2.28"/>
      <rect class="cls-1" x="225.91" y="6.09" width="3.21" height="2.28"/>
      <rect class="cls-1" x="207.67" width="3.21" height="2.28"/>
      <polygon class="cls-1" points="84.69 8.36 87.89 8.36 87.89 6.08 84.69 8.36"/>
      <polygon class="cls-1" points="118.23 15.34 115.02 15.34 115.02 17.62 118.23 15.34"/>
      <polygon class="cls-1" points="121.04 8.39 124.25 8.39 124.25 6.11 121.04 8.39"/>
      <polygon class="cls-1" points="102.9 15.34 106.11 15.34 106.11 17.62 102.9 15.34"/>
      <polygon class="cls-1" points="139.28 8.36 142.49 8.36 142.49 6.08 139.28 8.36"/>
      <polygon class="cls-1" points="139.28 15.34 142.49 15.34 142.49 17.62 139.28 15.34"/>
      <polygon class="cls-1" points="157.52 15.34 160.73 15.34 160.73 17.62 157.52 15.34"/>
      <polygon class="cls-1" points="157.53 8.37 160.74 8.37 160.74 6.08 157.53 8.37"/>
      <polygon class="cls-1" points="154.43 15.31 151.22 15.31 151.22 17.59 154.43 15.31"/>
      <polygon class="cls-1" points="168.72 15.31 165.51 15.31 165.51 17.59 168.72 15.31"/>
      <polygon class="cls-1" points="172.58 8.39 169.37 8.39 169.37 6.11 172.58 8.39"/>
      <polygon class="cls-1" points="175.48 15.34 178.69 15.34 178.69 17.62 175.48 15.34"/>
      <polygon class="cls-1" points="175.52 8.37 178.73 8.37 178.73 6.08 175.52 8.37"/>
      <polygon class="cls-1" points="199.7 15.34 202.91 15.34 202.91 17.62 199.7 15.34"/>
      <polygon class="cls-1" points="199.65 8.37 202.86 8.37 202.86 6.08 199.65 8.37"/>
      <polygon class="cls-1" points="215.07 8.39 211.86 8.39 211.86 6.11 215.07 8.39"/>
      <polygon class="cls-1" points="215.07 15.31 211.86 15.31 211.86 17.59 215.07 15.31"/>
      <polygon class="cls-1" points="210.89 3.15 207.68 3.15 207.68 5.44 210.89 3.15"/>
      <polygon class="cls-1" points="217.92 8.37 221.13 8.37 221.13 6.08 217.92 8.37"/>
      <polygon class="cls-1" points="233.21 8.39 230 8.39 230 6.11 233.21 8.39"/>
      <polygon class="cls-1" points="136.38 8.37 133.17 8.37 133.17 6.09 136.38 8.37"/>
    </g>
  </g>
</svg>