<?xml version="1.0" encoding="UTF-8"?>
<svg id="Layer_2" data-name="Layer 2" xmlns="http://www.w3.org/2000/svg" viewBox="0 0 200.76 79.81">
  <defs>
    <style>
      .cls-1 {
        fill: #fff;
      }
    </style>
  </defs>
  <g id="Layer_2-2" data-name="Layer 2">
    <g>
      <path class="cls-1" d="M16.95,6.31c-.14-.4-.68-.74-.78-1.39-.38-2.47.87-1.78,1.85-2.65C18.97,1.42,18.43.03,20.71,0c1.79-.03,3.83,2.82,4.93,4.17.18,1.93-3.05,1.92-2.38,4.1,1.21.06,1.29-1.66,2.37-2.16.33-.15.57-.25.95-.22.23.02,3.64,2.41,3.72,2.63.89,2.49-2.2,3.28-1.92,3.68,1.27.28,4.36,2.9,4.36,4.11,0,.21-3.43,2.4-2.78,2.97,1.99.33,10.43-.61,11.43.4.03,4.05-.05,8.13,0,12.18,0,.39,0,.79,0,1.18.03,1.7-.03,3.41,0,5.11.1,6.15.84,12.49.41,18.68-.09,1.3-.11,3.02-1.59,2.54.31-.55.35-.96.39-1.57.49-.38.66-1.35,0-1.57.03-2.74.03-5.51,0-8.25l.39-.2-.39-.2c0-.79,0-1.57,0-2.36.61-.16.59-1.45,0-1.57-.02-.65.05-1.32,0-1.97.59-.08.59-1.08,0-1.18-.35-.9-17.07-.13-19.32-.39v24.76c.99-.48,1.42-1.84,2.76-1.57l-1.18,5.11c-.08-1.03.06-2.11,0-3.14-1.67.76-2.4.05-3.94-.39v8.25c0-.05-.41-.36-.41-.95-.02-2.07.37-4.62-.38-6.52,0-.39.01-.79,0-1.18,0-.09.63-1.12-.39-1.57.98.44,1.15.61,1.97,1.18.14.09.04.61.79.39.02-2.22-.02-4.46,0-6.68.05-6.28.02-12.59,0-18.86,0-2.61.02-5.25,0-7.86,0-.39,0-.79,0-1.18-.02-2.35.1-4.73,0-7.07-.06-1.42.5-2.49-1.18-2.75-3.66-.57-12.14-.19-16.16,0-.65.03-1.32-.02-1.97,0l-.39.39.18,38.54c1.53,4.93,10.98,2.67,15.01,3.11,1.22.13,1.16.53,1.76.8-.19-.08-.84.02-1.18,0-3.91-.28-11.95,1.01-14.78-1.18-.41-.32-1.78-1.81-1.78-2.16V19.28h11.83c-.46-1.94-3.43-1.41-2.78-4.08.11-.47.62-.16.81-.24.63.25-.13,1.17.16,1.58.26.36,1.29.42,1.83.95.5.49.71,1.71.79,1.77.38.27,1.58-.49,1.94-.37.06.02.17.64.97.78.91.16,2.02-.08,2.97,0,.67-3.22-2.05-1.99-3.94-1.18.11-1.7,1.97-1.83,3.34-1.56,1.85.36,1.18,2.09,1.41,2.33.12.13,2.88,0,3.53.02,1.31.02,2.63-.01,3.94,0-.76-2.15-1.97-1.56-3.94-1.57,0-.04-.57-.29-.39-.78,1.08.15,2.71-.27,3.68.06.83.28.79,1.79,2.02,1.88,1.6.13,1.26-1.22,1.48-1.45.29-.3,2.12-.35,2.28-1.09.2-.91-1.74-1.55-2.34-1.98-.41-.3-.58-1.17-1.06-1.33-1.34-.42-1.56,1.6-2.38,1.88-.71.24-3.84.3-4.03-.56.74-.94-.46-3,.33-3.53,1.46-.98,3.66,1.47,4.1,1.37.39-.08.81-.88,1.23-1.16.72-.49,2.16-.5,1.77-1.76-.15-.47-1.33-.61-1.8-.97-.4-.31-.46-1.13-.81-1.21-1.52-.34-2.26,2.41-4.48,1.59,1-1.47-1.2-1.05-.03-2.51.63-.78,2.79.9,2.02-2.34-.15-.61-1.66-.41-1.92-.73-.33-.39.2-2.15-1.47-2.3-1.98-.18-1.67,2.19-2.2,2.71-.08.08-1.55-.44-1.9.69-.42,1.57,1.78,1.55,2.16,2.09.94,1.35-.21,2.84-1.93,2.39-.43-.11-.22-.78-.26-.8-2.3-1.45-2.03-.51-3.59.56-.51.35-1.99.07-.95,1.8.56.93,2.59.17,1.78,3.14-1.69-.95-1.79.6-2.38.97-.5.31-.94.12-1.17.21-.05-1.11,2.07-1.99,2.36-2.56.43-.84-1.32-.51-1.71-1.47-.95-2.28,2-2.93,3.27-4.45.36-.1,1.93.13,2.39.23.12.34-.12,1.46,0,1.57.42.38,3.37-.79,0-1.57ZM23.47,11.42c-.9.26-1.46,3.08,1.57,2.78,3.28-.33-.81-3-1.57-2.78ZM40.6,20.46h-18.92l-.39,18.86h19.32v-18.86Z"/>
      <path class="cls-1" d="M16.95,7.88s-.18.69.26.8c1.72.45,2.86-1.04,1.93-2.39-.38-.55-2.57-.52-2.16-2.09.34-1.13,1.82-.62,1.9-.69.52-.52.22-2.89,2.2-2.71,1.67.15,1.14,1.91,1.47,2.3.26.31,1.77.11,1.92.73.77,3.24-1.4,1.56-2.02,2.34-1.17,1.46,1.03,1.03.03,2.51,2.22.82,2.96-1.94,4.48-1.59.35.08.41.9.81,1.21.46.36,1.65.5,1.8.97.39,1.26-1.06,1.27-1.77,1.76-.42.28-.85,1.08-1.23,1.16-.44.1-2.64-2.35-4.1-1.37-.79.53.41,2.59-.33,3.53.19.86,3.32.8,4.03.56.82-.28,1.04-2.3,2.38-1.88.48.15.65,1.03,1.06,1.33.6.44,2.54,1.07,2.34,1.98-.17.75-2,.8-2.28,1.09-.22.23.12,1.57-1.48,1.45-1.23-.1-1.19-1.6-2.02-1.88-.97-.33-2.6.09-3.68-.06-.18.5.39.74.39.78.08.48-.05,1.07,0,1.57-.65-.01-3.41.11-3.53-.02-.23-.24.44-1.96-1.41-2.33-1.37-.27-3.23-.14-3.34,1.56v.39c-.37-.11-1.56.65-1.94.37-.08-.06-.3-1.29-.79-1.77-.54-.53-1.58-.59-1.83-.95-.29-.41.47-1.33-.16-1.58.24-.1.46-.27.79-.39.23-.09.67.1,1.17-.21.59-.37.69-1.92,2.38-.97.81-2.97-1.22-2.21-1.78-3.14-1.04-1.73.43-1.45.95-1.8,1.56-1.08,1.3-2.02,3.59-.56ZM14.98,12.6c-.71,2.48,2.41,1.43,3.55,1.57.04,0,.28.57.79.39-.05-.77.08-1.59,0-2.36-.17-1.54-.41-1.81-2.18-1.61-.24.03-2.12,1.86-2.16,2Z"/>
      <path class="cls-1" d="M38.07,57.67c-.9-.11.14,1.44-.81.91-.25-.14-1.07-.94-1.18-1.18l-.59-3.53c-.16.74-.78,2.15-1.31,2.63-1.83,1.64-4.28.14-3.43,4.05h-1.18c.61-3.98-.89-2.15-2.58-3.52-.87-.71-.92-2.36-2.15-2.77-.11,1.74.2,5.79-2.37,5.11.14-1.52-.25-3.37.08-4.83.27-1.21,1.68-1.88,1.8-2.49.1-.48-.64-2.48-.71-3.47-.43-6.15,1.47-3.71,4.65-5.21.78-.37,1.06-1.54,1.51-1.66.56-.14,2.33,1.48,3.39,1.67,1,.19,2.21-.47,3.09.06.19.11,1.52,2.87,1.56,3.19.19,1.44-1.22,3.7-1.12,4.23.11.56,1.55,1.28,1.83,2.5.31,1.38-.02,2.99-.48,4.31ZM34.3,44.04c-.67,0-.91-.18-.79.59-.03.42.65.1.79.2.25.18,1.76,1.38,1.58,1.57-1.28.03-1.89,1.25-3.15.4.25.94-.37,2.1-.27,2.89.04.3.52.86.66,1.43-.65.01-1.95,4.37-.98,5.11.63-1.92,1.48-3.14.98-5.11.56,0,1.81,1.22,1.92-.67.05-.91-.94-.51-1.09-1.12-.1-.42.56-1.49.35-2.14.93-.2,1.14,3.35,1.96,2.36.08-.1.4-2.28.4-2.56-.03-1.6-.65-2.92-2.37-2.94ZM25.23,51.51c.26.77,2.93,2.19,3.15,1.96-.05-1.07-.83-2.3-1.97-2.36-.25-1.65,1-2.75,1.58-4.12-.74-.89-1.98-.14-1.59-1.58.07-.26,1.2.04.8-.98-3.3-.61-2.62,5.13-1.97,7.07ZM29.96,52.29c.97.76,2.85-3.84,1.57-4.91-.28-.24-1.78-.66-2.14-.57-.94.24.03,1.98-.91,2.55.93.39,1.34,2.84,1.47,2.94Z"/>
      <path class="cls-1" d="M18.92,73.13v-8.25c1.54.45,2.27,1.15,3.94.39.07,1.04-.08,2.11,0,3.14.09,1.11.51,3.12.39,3.54-.08.27-.63.38-.34,1.29.28.87,1.78,1.21,1.48,2.37-.07.26-2.44,2.69-2.72,2.83-2.03.94-1.64-.84-2.37-1.57-.22-.22-1.87-1.18-2.36-1.38-.02-.26,0-.53,0-.79.37-.35,1.96-1.25,1.97-1.57Z"/>
      <path class="cls-1" d="M70.17,46.2c-.2.64-2.17.78-2.36.59-.13-.12.09-1.88,0-2.36-3.26,1.02-5.22-1.03-4.73-4.33-4.57-.61-1.88,2.82-2.94,4.34-.35.51-1.36.54-1.82.21-.54-.38-.56-5.6-.19-6.14.77-1.13,1.96.24,2.39.27.46.03,1.16-.86,1.93-.63.53.16.51,1.19.85,1.19.74,0,1.76-1.12,2.76-1.19.52-.04,1.04.29,1.55.3.48,0,2.56-.75,2.56.27,0,1.56.32,6.44,0,7.47ZM66.11,39.78c-1.35.38-1.49,2.68-.28,3.29,2.77,1.4,3.15-4.1.28-3.29Z"/>
      <path class="cls-1" d="M57.55,44.43c-2.25,1.18-2.51-1.06-3.04-1.18-.36-.09-2.74-.1-3.05-.02-.44.12-.02.92-.45,1.24-.31.23-1.99.5-2.13.35-.36-.36,2.76-8.21,3.13-8.46.64-.43,1.64-.28,2.19.21.92.81,2.43,6.41,3.35,7.86ZM54,41.68c.22-.52-.73-3.1-1.18-2.75l-.79,2.75h1.97Z"/>
      <path class="cls-1" d="M149.8,36.18c2.59.07,7.43-.92,7.43,2.95,0,3.91-4.8,2.67-5.07,2.95-.18.18.24,2-.05,2.31-.21.23-2.32.61-2.32-.15v-8.06ZM154.86,38.2c-.21-.35-2.92-.62-3.1-.45v2.75c1.55.32,4.31-.31,3.1-2.3Z"/>
      <path class="cls-1" d="M138.76,36.18v8.25c-1.13.68-2.2-.23-2.56-.24-.6-.01-.87.77-2.16.47-4.65-1.06-1.94-8.86,2.36-5.73v-2.75s2.37,0,2.37,0ZM136.33,40.17c-1.2-1.92-4.39,1.69-1.91,2.91,1.93.95,2.59-1.81,1.91-2.91Z"/>
      <path class="cls-1" d="M164.77,38.74c.22-.71,4.52-.56,5.35-.23,3.82,1.53,1.11,7.94-2.98,5.93v2.36s-2.37,0-2.37,0c.39-2.06-.53-6.32,0-8.06ZM167.8,39.76c-1.56.5-1.24,4.08,1.04,3.44,1.92-.54,1.17-4.15-1.04-3.44Z"/>
      <path class="cls-1" d="M87.91,36.18v8.65c-.86.39-1.79-.63-2.18-.64-.66-.03-.82.9-2.44.35-4.23-1.45-1.79-8.01,2.64-6v-2.36s1.97,0,1.97,0ZM85.88,42.8c.61-.96.17-3.93-1.92-2.89-2.45,1.22.7,4.8,1.92,2.89Z"/>
      <path class="cls-1" d="M72.93,38.14c.23,1.2-.73,4.58.99,4.74,2.43.23.8-3.28,1.55-4.37.39-.57,1.62-.57,2.01,0s.34,5.75-.19,6.14c-.98.7-1.76-.44-2.2-.47-.4-.03-1.05.69-1.93.64-3.23-.16-1.99-4.58-2.2-6.68h1.98Z"/>
      <path class="cls-1" d="M195.83,38.27c.11.07.05.68.29.68.58-.01.86-.61,1.28-.72,3.68-.93,3.81,4.1,2.87,6.44-3.15.45-1.7-2.36-1.98-4.55-3.89-.73-1.6,2.96-2.55,4.33-1.92,2.78-2.09-4.53-1.73-5.65.23-.72,1.21-.88,1.83-.52Z"/>
      <path class="cls-1" d="M193.55,44.43c-1.19.81-2.12-.38-2.89-.31-1.08.09-1.95,1.59-3.63-.06-2.39-2.34,1.82-3.66,3.76-3.56-.86-1.82-2.5.43-3.94,0-.12-2.84,5.21-3.09,5.84-.91.39,1.36-.16,3.29.86,4.83ZM190.79,41.69c-.14-.14-1.84.15-2.13.36-1.68,1.24,2.57,2.28,2.13-.36Z"/>
      <path class="cls-1" d="M176.21,40.5c1.6-1.51-3.36.19-3.55,0-.16-3.06,5.27-3.12,5.83-.5.1.48.48,3.54.46,3.89-.1,1.81-1.62.29-2.21.23-.89-.08-2.67,1.74-4.1-.24-2.28-3.17,3.12-2.94,3.58-3.37ZM176.6,41.69c-.14-.14-1.84.15-2.13.36-1.68,1.24,2.57,2.28,2.13-.36Z"/>
      <path class="cls-1" d="M145.85,42.08h-4.34c.09,2.64,3.44-.11,3.94.4,1.22,1.23-3.32,3.66-5.54,1.28-4.22-4.54,6.27-9.05,5.93-1.68ZM143.88,40.9c-.1-1.82-2-1.36-2.76-.19l2.76.19Z"/>
      <path class="cls-1" d="M112.35,42.08h-4.34c.09,2.64,3.44-.11,3.94.4,1.22,1.23-3.32,3.66-5.54,1.28-4.22-4.54,6.27-9.05,5.93-1.68ZM110.37,40.9c.06-1.54-2.03-1.56-2.75-.58l2.75.58Z"/>
      <path class="cls-1" d="M182.52,41.68c1.11-.47,1.02-2.5,1.77-3.15.42-.36,1.55-.61,1.77-.39.47.47-2.87,7.96-3.95,8.44-1.54.69-3.5.05-1.94-1.15.37-.29,1.39-.25,1.53-.84.22-.98-3.03-5.79-2.33-6.45,1.29-1.23,3.18,2.44,3.16,3.53Z"/>
      <path class="cls-1" d="M118.65,40.5c-.53.53-2.74-1.02-3.54-.78-.23,1.28,1.77,1.06,2.64,1.49,4.78,2.34-4.2,5.69-5,1.84-.35-1.68,3.42.62,3.93.2.24-1.32-1.81-1.02-2.65-1.48-2.92-1.57-.05-4.62,3.27-3.26.67.27,1.98,1.37,1.35,1.99Z"/>
      <path class="cls-1" d="M127.61,39.04c.25.26.7,1.28.51,1.46-1.51.61-3.08-1.85-3.94,0,1.44.5,3.98.15,3.98,2.16,0,3.84-7.72,1.5-5.95-.19.87-.83,3.34,1.91,3.94,0-7.97-.95-1.79-6.78,1.46-3.43Z"/>
      <path class="cls-1" d="M94.51,38.22c3.9-.56,5.73,4.11,2.42,5.98-4.83,2.73-7.8-5.21-2.42-5.98ZM93.92,42.76c1.67,1.93,4.05-1.75,1.87-2.85-2.01-1.01-2.83,1.75-1.87,2.85Z"/>
      <path class="cls-1" d="M160.35,38.22c4.85-.59,5.42,6.38.65,6.58-4.39.19-5.05-6.05-.65-6.58ZM160.32,39.77c-1.35.37-1.49,2.68-.28,3.29,2.72,1.38,3.33-4.14.28-3.29Z"/>
      <path class="cls-1" d="M105.25,40.5c-1.08.5-2.3-.74-2.89-.71-1.95.09-1.8,3.04-.28,3.31,1.2.22,1.75-1.57,3.17-1.03.33,3.41-5.24,3.46-6.13.81-1.51-4.52,4.61-6.74,6.13-2.39Z"/>
      <path class="cls-1" d="M23.26,71.95c.15,1.37,2.41,1.58,2.27,3.27-.11,1.33-1.14,1.63-1.65,2.25-.82,1-.82,2.22-2.83,2.34-.56.03-4.02-2.71-4.32-3.16-.37-.55.23-1.03.22-1.17.49.2,2.14,1.16,2.36,1.38.72.73.34,2.51,2.37,1.57.29-.13,2.65-2.57,2.72-2.83.3-1.15-1.2-1.5-1.48-2.37-.29-.91.26-1.02.34-1.29Z"/>
      <path class="cls-1" d="M36.86,62.12c.13-.02.44-.59.99-.39-.09,1.46-2.74,1.48-4.1,1.53-.56.02-1.28-.42-2.02-.39-2.05.08-4.31.79-6.51.43v-1.18c3.67-.33,8.05.44,11.63,0Z"/>
      <path class="cls-1" d="M80.42,38.15v6.29h-1.97v-5.7c0-.52,1.46-.72,1.97-.59Z"/>
      <path class="cls-1" d="M91.06,44.44h-1.97v-6.29c.52-.13,1.97.07,1.97.59v5.7Z"/>
      <path class="cls-1" d="M121.41,44.44h-1.97v-5.7c0-.74,1.97-.74,1.97,0v5.7Z"/>
      <path class="cls-1" d="M18.92,73.13c-.01.32-1.6,1.22-1.97,1.57,0-.05-.56-.4-.37-.91.23-.6,1.1-.65,1.36-1.06.44-.7.2-5.73.2-7.07.75,1.9.36,4.45.38,6.52,0,.59.41.9.41.95Z"/>
      <path class="cls-1" d="M41.39,31.86c-.05-4.05.03-8.13,0-12.18.52.52.37.7.42,1.34.21,2.64.02,5.97-.02,8.69,0,.66.25,1.75-.4,2.16Z"/>
      <path class="cls-1" d="M191.97,36.19c.27.33-2.05,2.24-2.76,1.57-.95-.91,1.89-2.6,2.76-1.57Z"/>
      <path class="cls-1" d="M96.97,36.18c-.02,1.52-1.53,1.72-2.76,1.57.02-1.52,1.53-1.72,2.76-1.57Z"/>
      <rect class="cls-1" x="89.09" y="36.18" width="1.97" height="1.57"/>
      <path class="cls-1" d="M121.41,36.18v1.57c-1.23.21-2.53-.29-1.77-1.57h1.77Z"/>
      <path class="cls-1" d="M80.42,36.18v1.57c-1.23.21-2.53-.29-1.77-1.57h1.77Z"/>
      <path class="cls-1" d="M41.39,38.15c-.03-1.7.03-3.41,0-5.11.66,1.18.67,3.85,0,5.11Z"/>
      <path class="cls-1" d="M17.74,62.91c1.02.45.39,1.48.39,1.57-.36-.89-.68-1.22-1.58-1.57.34.02.99-.08,1.18,0Z"/>
      <path class="cls-1" d="M40.6,45.22c0-.52.01-1.05,0-1.57.59.13.61,1.41,0,1.57Z"/>
      <path class="cls-1" d="M40.6,57.8c.04-.52,0-1.05,0-1.57.66.23.49,1.19,0,1.57Z"/>
      <path class="cls-1" d="M40.6,41.68c-.03-.35.09-.96,0-1.18.59.1.59,1.1,0,1.18Z"/>
      <path class="cls-1" d="M40.6,47.97c0-.13,0-.26,0-.39l.39.2-.39.2Z"/>
      <path class="cls-1" d="M36.66,27.54l.79-3.14-3.54,1.18.39-3.14-3.15,1.18c.02-.72-.17-1.74-1.18-1.57l-.6,1.96c-.79.2-.81-.96-1.05-1.09-1.38-.8-1.32,1.2-1.51,2.27l-2.75-.78c.14,1.43,1.19,2.35.78,3.93-4.3-1.93-1.42.34-1.57.98-.12.53-1.53.35-1.19,1.18.24.58,1.97.7,1.57,1.97-.16.53-1.29.34-1.18.98,2.34.65,2.66-.28,1.97,2.36l2.76-.39v1.96c.38.42,3.12-2.4,2.76,1.18.89.25,1.45-.72,2.14-.75,1.67-.09,2.67,1.64,1.99-1.6l2.17.38c.63-1.77-1.1-2.24-1.18-2.36-.14-.24.86-.91.79-1.17,0,0,1.17,0,1.18,0,.01,0-.41-.4-.47-.44-.28-.22-.55-.46-.44-.86-.45-.14-.92-.2-1.39-.18-.07,0-.14,0-.2.04-.08.04-.13.12-.18.2-1.11,1.66-3.23,2.46-5.15,1.85-1.14-.36-2.12-1.17-2.74-2.2-.32-.52-.55-1.11-.54-1.72,0-.53.19-1.04.46-1.5.61-1.02,1.71-1.72,2.87-1.91,1.25-.21,2.87-.25,3.83.69,1.14,1.12,1.15,2.39,1.37,3.85,0,.06.02.12.06.17.06.07.15.09.24.11.37.07.78.09,1.13.26.51.24.96.13,1.51.07.81-.09,1.6-.3,2.41-.39.12-1.22-1.05-1.23-1.97-1.18l1.18-1.77c.01-.39-.56-.11-.79-.19-.51-.19-.78-.61-1.58-.39Z"/>
      <path class="cls-1" d="M19.32,20.07H3.15c4.02-.19,12.5-.57,16.16,0Z"/>
      <path class="cls-1" d="M20.5,38.93c-.66-2.25-.66-5.58,0-7.86.02,2.61,0,5.25,0,7.86Z"/>
      <path class="cls-1" d="M20.5,57.8c-.02,2.22.01,4.46,0,6.68-.74.22-.65-.3-.79-.39,1.11-1.74-.33-4.6.79-6.29Z"/>
      <path class="cls-1" d="M20.5,29.89c-.66-1.97-.66-5.08,0-7.07.1,2.34-.02,4.73,0,7.07Z"/>
      <path class="cls-1" d="M.79,20.46l.39-.39-.39.39Z"/>
      <path class="cls-1" d="M19.32,12.21c-.22-.05-.71.07-.79,0-.07-.07.28-1.26-1.31-.8-.36.1-.75,1.8-2.24,1.19.04-.14,1.92-1.98,2.16-2,1.77-.2,2.01.07,2.18,1.61Z"/>
      <path class="cls-1" d="M19.32,12.21c.08.76-.06,1.59,0,2.36-.51.18-.74-.39-.79-.39v-1.97c.08.07.57-.05.79,0Z"/>
      <path class="cls-1" d="M33.11,51.12c.49,1.97-.35,3.19-.98,5.11-.97-.74.33-5.1.98-5.11Z"/>
      <path class="cls-1" d="M26.41,51.12c1.14.05,1.92,1.29,1.97,2.36-.22.23-2.89-1.19-3.15-1.96.36.04.99-.4,1.18-.39Z"/>
      <path class="cls-1" d="M34.3,44.04v.79c-.14-.1-.82.22-.79-.2-.12-.76.12-.6.79-.59Z"/>
      <path class="cls-1" d="M4.73,33.82c-.07-.07-2.51.25-1.58-.78.07-.08.92-.11,1.29-.39.26-.2.3-.59.58-.78,2.23-1.56,5.13-2.34,6.21-5.11,1.21.33.89,1.25,1.56,1.97,1.35,1.45,4.72,2.88,6.13,4.51l-1.58.58-.39,20.83H5.32c-.11,0-.39-.46-.59-.59-.57-2.51.75-19.55,0-20.24ZM5.91,36.97c.03.39-.01.79,0,1.18.15,4.32.39,10.34,0,14.54-.01.14-1,.87,0,1.18,2.13.66,7.7-.49,10.25,0-.53-4.67.7-10.85,0-15.33-.3-1.93-1.65-.77-2.29-1.27-.19-.15-.03-.65-.07-.69-.16-1.74-.19-2.13,1.18-3.14-2.23.03-4.48-.06-6.7,0-.39,0-.79,0-1.18,0-.53.01-1.05-.02-1.58,0-.4,1.2.34,2.76.4,3.54ZM16.55,36.58c-.05-1.16.51-3.17-1.18-3.14v3.14s1.18,0,1.18,0Z"/>
      <path class="cls-1" d="M35.87,33.04c.07.26-.93.93-.79,1.17.07.13,1.81.6,1.18,2.36l-2.17-.38c.68,3.24-.32,1.51-1.99,1.6-.69.04-1.26,1-2.14.75.35-3.59-2.38-.76-2.76-1.18v-1.96s-2.76.39-2.76.39c.69-2.64.37-1.72-1.97-2.36-.11-.64,1.01-.45,1.18-.98.4-1.27-1.33-1.39-1.57-1.97-.34-.83,1.06-.65,1.19-1.18.15-.63-2.73-2.91,1.57-.98.41-1.58-.65-2.5-.78-3.93l2.75.78c.19-1.08.13-3.07,1.51-2.27.24.14.26,1.29,1.05,1.09l.6-1.96c1.01-.16,1.21.86,1.18,1.57l3.15-1.18-.39,3.14,3.54-1.18-.79,3.14c-.25.07-1.56,1.21-1.18,1.57l2.76-1.18c.22.08.8-.2.79.19l-1.18,1.77c.92-.05,2.09-.04,1.97,1.18l-3.55.4s-.56.12-.81-.25c-.52-.75-.88-3.09-.5-3.99.18-.43,1.55-.6.92-1.26-.2-.21-1.04,1.19-1.77,1.19-.93,0-1.35-1.51-2.38-1.6-.93-.08-3.32,1.18-3.93,1.2-.7.02-.98-.98-1.77-.79-.24.75.94,1.19.79,1.76-.1.39-1.05.5-1.14.64-.05.09.33.71.25,1.24-.05.3-.5.61-.53.89-.02.2.98,2.76,1.1,2.85.31.25,2.2.27,2.82.84.43.4.06,1.86,1.03,1.2.03-.02-.07-.55.12-.65.89-.47,2.23-.53,3.25-1.3.99-.75.75-2.06,2.56-1.58.06.08-.06.3,0,.39h-1.18c-.07.45.77.73.79.79Z"/>
      <path class="cls-1" d="M38.24,27.93l-2.76,1.18c-.38-.37.93-1.5,1.18-1.57.8-.22,1.07.2,1.58.39Z"/>
      <path class="cls-1" d="M36.27,32.25c.13.2.84.32.79.78h-1.18c-.02-.06-.86-.33-.79-.78h1.18Z"/>
      <path class="cls-1" d="M6.7,36.97c.65,0,1.33-.05,1.97,0,.39.03.8-.05,1.18,0,.5.06,1.47.76,2.37.39v.79c-2.13-.06-4.26.32-6.31,0-.01-.39.03-.79,0-1.18h.79Z"/>
      <path class="cls-1" d="M13.8,36.57s-.11.54.07.69c.64.51,1.99-.66,2.29,1.27-1.08-.03-2.07-.33-3.15-.39-.05-.51.07-1.08,0-1.57.22.05.71-.07.79,0Z"/>
      <path class="cls-1" d="M5.91,53.87c-1-.31-.01-1.04,0-1.18v1.18Z"/>
      <path class="cls-1" d="M8.28,33.43c-.06.59-1.13.59-1.18,0,.39,0,.79,0,1.18,0Z"/>
      <path class="cls-1" d="M10.25,38.93v3.93c-1.86.03-2.81.41-2.8-1.77,0-2.35.61-2.36,2.8-2.16Z"/>
      <path class="cls-1" d="M12.62,45.61c-.08.79.16,1.73-.02,2.47-.06.25-.52.27-.62.45-.2.33-.11.87-.19.95-.54.51-2.63-.06-2.68-1.28,0-.21.27-2.49.36-2.58.14-.15,2.56.09,3.15,0ZM10.25,46.79c-1.14,1.75.75,3.6.39,0h1.18s0-.78,0-.78c-.96-.13-1.11.08-1.57.78Z"/>
      <path class="cls-1" d="M9.46,50.72c1.28-1.54,3.93-.3,3.97.23.2,2.67-6.06,2.3-3.97-.23-.42.42.35,1.22.79.78s-.37-1.2-.79-.78Z"/>
      <rect class="cls-1" x="11.82" y="38.93" width="2.37" height="3.93"/>
      <path class="cls-1" d="M9.85,36.97c-.73-3,2.8-2.95,3.15-.39.07.5-.05,1.06,0,1.57-.26-.02-.53,0-.79,0v-.79c-.89.37-1.86-.33-2.37-.39Z"/>
      <path class="cls-1" d="M8.67,34.61v1.18c-.07.35.05.8,0,1.18-.64-.05-1.33,0-1.97,0v-2.75c.85-.03,1.31-.17,1.97.39Z"/>
      <path class="cls-1" d="M8.67,35.79v-1.18c.84.71.06.85,0,1.18Z"/>
      <path class="cls-1" d="M10.64,46.79c.36,3.6-1.54,1.75-.39,0h.39Z"/>
    </g>
  </g>
</svg>