<?xml version="1.0" encoding="UTF-8"?>
<svg id="Layer_2" data-name="Layer 2" xmlns="http://www.w3.org/2000/svg" viewBox="0 0 164.77 69.46">
  <defs>
    <style>
      .cls-1 {
        fill: #fff;
      }
    </style>
  </defs>
  <g id="Layer_2-2" data-name="Layer 2">
    <g>
      <path class="cls-1" d="M48.12,0v65.64c0,.29-3.84,3.74-4.44,3.83-1.12.17-13.98-14.04-16.18-15.72V20.58h-6.87v33.16c-5.44,5.15-10.5,11.04-16.18,15.72-.6-.09-4.44-3.53-4.44-3.83V0h48.12ZM43.54,4.57H4.58v57.63c4.25-3.09,7.68-7.12,11.46-10.75V16.01h16.04v35.45c3.74,3.68,7.27,7.57,11.46,10.75V4.57Z"/>
      <path class="cls-1" d="M70.12,34.76v-10.52h2.75v16.92c-1.08.29-.77-.28-1.05-.59-2.47-2.79-6.66-7.55-9.49-9.71-.46-.35-.58-.88-1.38-.68v10.06h-2.29v-16.92l11.46,11.43Z"/>
      <path class="cls-1" d="M58.66,18.3V1.83c2.62.01,6-.16,7.54,2.31,1.8,2.9-.34,4.14-.14,5.17.18.93,2.27,1.45,2.27,4.18-.01,5.53-5.7,4.95-9.67,4.8ZM60.96,9.15c4.61.38,4.87-5.47,0-4.58v4.58ZM60.95,16.01c6.2.64,6.2-5.68,0-5.04v5.04Z"/>
      <path class="cls-1" d="M118.24,62.66h-2.75v-7.09c0-.12-.5-1.12-.75-1.17-3.44-.77-2.28,6.37-2.46,8.26-5.17,1.43-1.19-7.36-3.49-8.18-3.26-1.17-1.49,5.66-2.07,7.43-.35,1.06-1.79.73-2.69.75v-10.52c1.85.57,4.04-.22,5.69,0,.77.1,1.46.79,1.94.82,1.32.09,2.48-2.49,5.23-.17.29.25,1.34,1.67,1.34,1.86v8Z"/>
      <path class="cls-1" d="M78.37.46v8.23c1.05-.04,1.31-.82,2.5-.95,6.79-.74,7.62,9.39,2.09,10.8-2.2.56-4.38-1.14-6.88-.25V.46h2.29ZM80.06,10.15c-2.92.9-1.82,6.92,1.63,6.25,3.51-.68,2.87-7.63-1.63-6.25Z"/>
      <path class="cls-1" d="M123.28,44.82v8.23c5.22-3.45,10.53,2.61,7.33,7.55-2.71,4.19-5.86,1.2-9.63,2.06v-17.84h2.29ZM123.86,59.8c3.08,3.23,7.21-2.9,3.81-4.94-3.61-2.17-5.77,2.87-3.81,4.94Z"/>
      <path class="cls-1" d="M70.57,49.85c-2.75-.89-3.92-2.03-6.88-.68-5.77,2.62-3.41,12.12,3.4,11.19,1.32-.18,2.17-1.32,3.47-1.35,1.02,4.82-5.29,4.53-8.37,3.09-5.46-2.56-5.91-10.17-1.5-14.08,2.78-2.46,10.97-3.57,9.86,1.84Z"/>
      <path class="cls-1" d="M139.32,30.19v9.83c0,.62-1.85.85-2.46.69-.36-.1-.26-1-.51-.92-.49.15-.9.77-1.87.9-5.16.67-7.61-4.7-4.99-8.65,2.83-4.27,5.9-.84,9.83-1.85ZM132.11,37.84c3.29,3.09,6.7-3.75,2.97-5.49-2.97-1.38-5.36,3.25-2.97,5.49Z"/>
      <path class="cls-1" d="M127.86,13.72h-7.33c.58,1.88,2.19,3.02,4.13,2.06,1.46-.72-.25-2.36,3.2-.68-1.65,5.73-9.76,4.54-10.1-1.62-.43-7.73,11.15-7.87,10.1.24ZM125.11,11.89c0-3.19-5.59-1.54-4.12,0,.16.17,3.41-.11,4.12,0Z"/>
      <path class="cls-1" d="M148.95,62.66c-1.01.28-2.17-.43-3-.4-.91.04-1.52.87-2.68.85-6.73-.17-6.49-12.41,1.31-10.95.76.14,1.2.9,1.84.92.15,0,.58-1.7,2.52-.93v10.52ZM142.86,54.52c-2.33.69-2.2,5.19-.48,5.78,5.46,1.86,5.66-7.31.48-5.78Z"/>
      <path class="cls-1" d="M150.32,18.3c-3.08-.91-5.25,1.33-8.12-.36-4.46-2.63-2.51-11.33,3.75-10.15.76.14,1.2.9,1.84.92.15,0,.58-1.7,2.52-.93v10.52ZM144.23,10.16c-2.88.85-2.22,6.94,1.62,6.24,3.48-.63,2.78-7.54-1.62-6.24Z"/>
      <path class="cls-1" d="M86.16,40.25c-3.32-.73-7.31,2.32-9.56-1.66-2.87-5.07,1.95-11.75,7.05-7.49.38-1.38,1.25-.89,2.52-.91v10.06ZM79.42,32.62c-2.37,1.94-.73,7.25,3.07,5.56,3.39-1.51.45-8.44-3.07-5.56Z"/>
      <path class="cls-1" d="M96.08,51.84c7.45-.21,7.45,11.07.37,11.3-7.2.23-7.92-11.08-.37-11.3ZM98.42,59.81c1.4-1.4.73-5.24-1.95-5.42-4.11-.28-4.05,5.77-.93,6.03.73.06,2.37-.1,2.88-.6Z"/>
      <path class="cls-1" d="M100.52,17.23c-5.81-5.54,3.75-13.63,8.34-7.64,4.3,5.61-3.45,12.3-8.34,7.64ZM103.44,10.16c-2.24.67-2.76,5.21.23,6.02,4.91,1.33,4.87-7.54-.23-6.02Z"/>
      <path class="cls-1" d="M108.5,29.84c8.62-1.5,9.11,12.26-.08,10.84-5.98-.93-5.75-9.83.08-10.84ZM111.72,37.85c2.11-2.1-.31-7.88-3.99-5.12-3.23,2.43,1.03,8.07,3.99,5.12Z"/>
      <path class="cls-1" d="M76.41,52.25c7.61-1.57,9.59,8,3.88,10.27-7.84,3.11-10.82-8.84-3.88-10.27ZM75.74,59.8c3.2,3.38,7.6-2.6,4.27-4.95-3.4-2.4-6.56,2.53-4.27,4.95Z"/>
      <path class="cls-1" d="M123.74,33.16c-.24-.75-2.57-.97-3.14-.62-1.14.71.03,6.62-.73,7.73-.62.9-2.54.34-2.54-.25v-9.83c2.73.95,6.1-1.84,8.26.68.19.23.91,1.68.91,1.84v7.32c0,.91-2.75.91-2.75,0,0-1.5.31-5.86,0-6.86Z"/>
      <path class="cls-1" d="M138.34,8.3c.34.55-.09,2.34.06,3.13-1.07.21-1.32-1.05-2.16-1.29-5.68-1.65-4.82,9.96,2.16,4.5.31,2.75.03,4.04-2.99,4.13-7.28.22-8.3-11.76.94-11,.43.04,1.85.29,2,.52Z"/>
      <path class="cls-1" d="M97.11,30.24c.31.36-.1,2.84.05,3.61-6.68-5.62-7.8,6.1-2.16,4.5.83-.23,1.09-1.51,2.16-1.3.72,3.58-.96,4.18-4.33,3.63-5.94-.97-5.57-10.15.47-10.94.67-.09,3.55.19,3.81.49Z"/>
      <rect class="cls-1" x="85.7" y="44.82" width="2.75" height="17.84"/>
      <path class="cls-1" d="M115.03,18.3h-2.75c-.25-.25.19-5.98.04-7.12-.12-.9-.92-.26-1-1.78-.1-2.03.86-1.53.95-1.93.23-.98-.12-2.3,0-3.35h2.75c.11.67-.16,3.52,0,3.66.44.41,2.54-1.32,1.85,2.48-.11.58-1.84.13-1.84.26v7.78Z"/>
      <rect class="cls-1" x="88.91" y=".46" width="2.29" height="17.84"/>
      <path class="cls-1" d="M156.74,21.95v11.89c-2.4-.11-5.41.81-6.53-1.95-1.25-3.08,1.6-6.09,4.69-4.91.24-1.93-1-5.39,1.84-5.03ZM154.79,31.91c1.27-1.29.1-4.46-2.18-3.33-2.39,1.2.18,5.34,2.18,3.33Z"/>
      <rect class="cls-1" x="142.07" y="22.87" width="2.29" height="17.38"/>
      <path class="cls-1" d="M164.53,30.64c-.17.18-3.82-.13-4.58,0,.7,3.99,3.48-.36,4.58.92.37.44-.94,1.85-1.38,2.04-4.21,1.79-6.73-3.89-3.9-6.17,3.33-2.69,6.42,2.04,5.29,3.21Z"/>
      <rect class="cls-1" x="93.95" y="7.78" width="2.75" height="10.52"/>
      <rect class="cls-1" x="70.58" y="7.78" width="2.75" height="10.52"/>
      <rect class="cls-1" x="133.82" y="52.14" width="2.29" height="10.52"/>
      <rect class="cls-1" x="99.45" y="30.19" width="2.29" height="10.06"/>
      <path class="cls-1" d="M71.36,2.35c2.33-.65,3.36,2.46,1.18,3.07-2.33.65-3.36-2.46-1.18-3.07Z"/>
      <path class="cls-1" d="M134.11,46.71c3.31-1.11,3.15,3.39.41,3.18-1.57-.12-1.6-2.78-.41-3.18Z"/>
      <path class="cls-1" d="M100.23,24.29c2.13-.53,2.93,3.31.29,3.54-1.7.15-2.17-3.06-.29-3.54Z"/>
      <path class="cls-1" d="M94.69,2.32c2.17-.71,3.52,2.44,1.23,3.09-2.51.71-2.5-2.68-1.23-3.09Z"/>
    </g>
  </g>
</svg>