<?xml version="1.0" encoding="UTF-8"?>
<svg id="Layer_2" data-name="Layer 2" xmlns="http://www.w3.org/2000/svg" viewBox="0 0 69.22 69.21">
  <defs>
    <style>
      .cls-1 {
        fill: #fff;
      }
    </style>
  </defs>
  <g id="Layer_2-2" data-name="Layer 2">
    <g>
      <path class="cls-1" d="M32.64.04c21.79-1.02,39.09,17.4,36.28,39.15-1.99,15.42-14.44,27.81-29.87,29.74C16.1,71.8-3.05,52.14.41,29.26,2.81,13.34,16.48.8,32.64.04ZM33.22,1.63C17.73,2.28,4.59,13.86,2.07,29.14c-3.62,22.01,15.04,41.14,37.11,38.13,14.42-1.96,26.04-13.56,28.08-27.96C70.16,18.89,53.83.77,33.22,1.63Z"/>
      <path class="cls-1" d="M33.28,7.63c22.52-1.05,36.47,24.38,23.24,42.75-11.44,15.9-35.67,14.63-45.37-2.37C1.19,30.51,13.24,8.56,33.28,7.63ZM33.53,8.9C13.12,9.81,1.71,33.16,13.86,49.77c10.99,15.02,33.85,13.71,43.07-2.42,10.01-17.52-3.33-39.34-23.4-38.44Z"/>
      <path class="cls-1" d="M7.15,41.21c0,.28.26.54.15.81l-1.93,2.38,2.51-.7.16.7-3.82,1.09c.04-.24-.2-.48-.1-.7l2.01-2.49-2.61.76-.19-.7,3.82-1.15Z"/>
      <path class="cls-1" d="M23.96,63.82c-.94.97-2.75.66-3.17-.64-.55-1.69,1.07-3.54,2.81-2.68,1.28.63,1.27,2.38.36,3.33ZM22.5,60.99c-.4.08-.82.67-.94,1.03-.58,1.75,1.57,2.42,2.17.64.31-.93-.17-1.9-1.23-1.68Z"/>
      <path class="cls-1" d="M40.99,62.01c2.5-.24,2.93,3.83.55,4.12-2.67.32-3.14-3.87-.55-4.12ZM40.86,62.71c-1.63.34-.56,3.6,1,2.59,1.02-.67.37-2.87-1-2.59Z"/>
      <path class="cls-1" d="M63.44,40.59c1.06-.07,2.26.6,2.37,1.74.16,1.7-1.4,2.57-2.89,1.93-1.88-.79-1.48-3.53.52-3.67ZM63.54,41.37c-.56,0-1.07.32-1.16.9-.2,1.24,1.83,1.9,2.53,1,.78-.99-.37-1.92-1.37-1.91Z"/>
      <path class="cls-1" d="M61.09,49.94l1.78-.19c.05.06-.15.72-.23.77-.16.1-1.29.1-1.58.13-.27.03-.68.22-.35.47.28.22.75.44,1.08.61.07.1-.26.59-.35.69l-3.39-2.07c.51-.77.97-2.13,2.14-1.84.66.17,1.01.76.9,1.42ZM60.06,50.63c.15-.37.53-.71.26-1.11-.47-.69-1.13.02-1.28.57.18.08.89.61,1.02.54Z"/>
      <path class="cls-1" d="M49.68,8.31c.45.43.32,1.23-.19,1.56-.85.56-1.82-.41-2.61-.67l1.79-3.44c.07-.02.12,0,.19.03.33.14,1.31.69,1.53.96.54.65.15,1.6-.7,1.56ZM48.66,7.47c.33.15.83.57,1.14.17.38-.5-.39-.79-.74-.98-.05,0-.45.74-.41.81ZM48.37,8c-.14.01-.42.77-.54.91.35.26,1.09.75,1.38.18.3-.6-.45-.83-.85-1.09Z"/>
      <path class="cls-1" d="M37.63,64.99c-.07.09,1.24,1.34,1.15,1.46-.23.02-.54.26-.76.16-.25-.12-.92-1.13-1.18-1.38-.06-.1-.42,0-.42.04.02.23.18,1.33.1,1.43-.09.12-.57.03-.74.06l-.32-3.95c.76,0,1.96-.34,2.55.28.53.56.39,1.66-.39,1.88ZM36.35,64.6c1.66.2,1.6-1.61-.05-1.14l.05,1.14Z"/>
      <path class="cls-1" d="M31.89,6.46l-.19-3.82c.07-.06,1.49-.09,1.69-.06.95.11,1.22,1.22.48,1.78.93.22.89,1.51.08,1.9-.22.1-.78.21-1,.21h-1.05ZM33.32,3.21c-.22-.06-.67.04-.92,0l.06.89c.36,0,.93.07,1.1-.34.08-.19-.08-.51-.24-.56ZM32.53,5.82c.5.08,1.65-.11,1.24-.82-.27-.47-.87-.23-1.3-.26-.02.07.06.14.06.16v.92Z"/>
      <path class="cls-1" d="M62.79,22.86c2.89-.42,3.13,3.52.37,3.74-2.55.21-2.79-3.39-.37-3.74ZM63.18,23.56c-.87.11-1.84.95-1.25,1.85.65.99,2.79.16,2.5-1.03-.14-.56-.68-.89-1.25-.82Z"/>
      <path class="cls-1" d="M8.36,20.49l1.78-.32s-.15.7-.21.75c-.15.13-1.77.22-1.84.31-.04.05-.13.28-.09.34.09.14,1.23.54,1.24.67-.1.11-.23.56-.35.6-.18.05-3.01-1.54-3.4-1.76-.02-.07.02-.13.04-.19.16-.38.71-1.37,1.04-1.58.82-.53,2,.17,1.78,1.18ZM7.13,19.87c-.36.03-.58.57-.74.84l.98.53c.24-.32.57-.92.16-1.24-.08-.06-.31-.15-.4-.14Z"/>
      <path class="cls-1" d="M41.39,5.57c.06.23.78,1.58.7,1.66-.18-.03-.63.06-.77-.03-.11-.07-.58-1.37-.7-1.59-.11-.11-.35-.25-.43-.06s-.2,1.24-.27,1.29c-.06.04-.62-.06-.67-.12-.11-.15.67-3.32.74-3.76.67.12,1.92.21,2.26.88.37.72-.02,1.65-.86,1.73ZM40.37,4.86c1.53.53,1.79-1.04.19-1.15l-.19,1.15Z"/>
      <path class="cls-1" d="M55.27,53.9c.15-.02,1.64,1.64,1.87,1.87.96,1.21-.31,2.91-1.72,2.62-.85-.18-1.78-1.71-2.48-2.24-.01-.08.44-.58.59-.53l1.94,1.96c.54.4,1.37-.26,1.3-.84s-1.61-1.75-1.97-2.31c-.06-.16.39-.51.48-.52Z"/>
      <path class="cls-1" d="M17.36,57.03c.12-.07.66.38.62.52-1,1.08-2.08,3.49-3.85,2.02-1.68-1.4.54-2.99,1.34-4.14.12.05.6.39.57.51-.43.62-1.01,1.14-1.44,1.75-.4.56-.53,1.17.21,1.51.48.22.72.05,1.06-.3.51-.53,1-1.29,1.48-1.87Z"/>
      <path class="cls-1" d="M34.57,66.77c-.15,0-.67.14-.76.06-.05-.04-.23-.97-.27-1-.13-.11-1.42-.08-1.7-.13-.07.13-.34.9-.4.93-.07.05-.71,0-.76-.05l1.78-3.86c.12-.07.67-.05.79.04.27.19,1,3.25,1.28,3.75l.03.26ZM33.29,65.11l-.51-1.59-.64,1.53,1.15.06Z"/>
      <path class="cls-1" d="M57.71,53.45c.09-.13.73-1.08.8-1.09s.62.32.6.42c-.03.11-.88.97-.88,1.09l.79.67,1.05-1.4c.05-.04.59.35.57.47l-1.56,1.95-3.08-2.46c.12-.27,1.43-1.94,1.55-1.94.07,0,.48.33.47.41-.02.19-1.04,1.21-1.01,1.34l.7.55Z"/>
      <path class="cls-1" d="M16.59,12.65s-.33.61-.42.63c-.12.02-.75-.38-.91-.41-.13-.02-1.14.94-1.19,1.06-.08.2.35.76.33.92,0,.05-.45.49-.52.48l-1.55-3.84c.1-.11.47-.56.58-.54l3.68,1.71ZM14.48,12.45l-1.34-.64.57,1.47c.12-.09.83-.73.76-.83Z"/>
      <path class="cls-1" d="M46.03,4.56l.14,4.13-.76-.14-.02-1.07-1.49-.52c-.16,0-.59.69-.65.71-.21.04-.5-.21-.72-.2l2.71-3.13c.18-.11.58.15.79.21ZM45.41,6.78v-1.59l-1.02,1.18,1.02.42Z"/>
      <path class="cls-1" d="M5.43,22.78c.07.1-.61,1.53-.51,1.65l.73.25c.12-.01.4-1.2.48-1.26.05-.04.52.12.63.13l-.45,1.4.93.32.61-1.66.64.19c-.13.29-.72,2.25-.83,2.33-.16.11-3.18-1.13-3.61-1.25-.11-.15.71-1.96.74-2.3l.63.19Z"/>
      <path class="cls-1" d="M38.39,2.7s-.04.61-.07.63c-.06.06-1.46-.07-1.65-.12l-.06.89c.27.08,1.14,0,1.3.12.08.06.01.51.1.64l-1.47-.13c.03.19-.17.93-.03,1.03.16.12,1.4.09,1.68.12l-.06.7-2.49-.19.32-3.89,2.42.19Z"/>
      <path class="cls-1" d="M59.81,47.71l.13-.83,3.25.19-2.26-2.16c.03-.1.2-.68.22-.7.03-.03.18,0,.23.06l2.84,2.84c.16.16-.11.7-.29.74l-4.11-.13Z"/>
      <path class="cls-1" d="M9.32,47.58l-.7.13c.04-.38-.12-1.35-.56-1.45-.18-.04-.36,0-.45.16-.29.49.4,1.73-.43,2.32-1.03.73-1.91-.37-2.12-1.33-.15-.68-.22-.86.55-.97,0,.54.2,2.12,1.07,1.74.51-.22-.22-1.77.44-2.37.09-.08.3-.19.42-.22,1.21-.32,1.73,1.02,1.77,2Z"/>
      <path class="cls-1" d="M17.15,7.94s.24.53.26.63c-.45-.19-1.9.79-1.15,1.11.59.25,1.62-.71,2.36.06.83.86,0,1.83-.85,2.21-.62.28-.92.43-1.06-.39.48.02,1.8-.53,1.55-1.13-.24-.57-1.02-.07-1.46-.03-.93.1-1.59-.32-1.33-1.33.12-.47,1.32-1.36,1.68-1.14Z"/>
      <path class="cls-1" d="M60.45,21.06l3.02-.43c.14.03.42.63.36.69-.51-.03-4.09.57-4.21.41-.05-.07-.25-.52-.22-.59l2.68-3.06.47.6-2.1,2.4Z"/>
      <path class="cls-1" d="M66.19,29.67l-.7.06c.09-.35.19-1.77-.45-1.63-.6.13-.22,1.68-.99,2.13-.83.48-1.58-.12-1.78-.94-.06-.25-.12-1.23,0-1.41.07-.1.52-.04.67-.12-.03.52-.21.9-.05,1.42.1.33.43.73.78.44.44-.37.04-1.97,1.1-2.15,1.33-.23,1.58,1.22,1.42,2.22Z"/>
      <path class="cls-1" d="M2.95,29.86c0-.2-.15-.61-.04-.77.09-.13,2.72-.36,3.1-.44l-2.52-1.66c-.12-.19.07-.56.1-.77l3.5,2.27c-.01.23,0,.62-.24.69l-3.89.67Z"/>
      <path class="cls-1" d="M29.85,65.5c-.04.12-.04.65-.07.69-.07.11-.82.15-.98.14-3.06-.17-1.9-5.3,1.12-3.92.63.29.55.5.22,1.05-.83-.98-2.13-.71-2.31.62-.19,1.41.79,1.94,2.02,1.42Z"/>
      <path class="cls-1" d="M52.74,57.46c-1.28.03-1.98,1.02-1.15,2.14.87,1.18,1.95.69,2.45-.48.53.42.5.61.09,1.11-2.14,2.63-5.49-1.99-2.42-3.25.71-.29.73-.18,1.02.48Z"/>
      <path class="cls-1" d="M64.85,32.98l.45,1.08,1.2.14c.11.09-.79.81-.82.94-.05.18.23,1.12.18,1.16-.33-.02-.82-.53-1.11-.51-.19.01-1.01.56-1.06.51-.05-.29.22-.94.18-1.17-.02-.12-.92-.84-.81-.93.26-.04.96-.04,1.15-.16.11-.07.38-.79.5-.97.04-.06,0-.11.14-.08Z"/>
      <path class="cls-1" d="M5,33.99c.1.06,1,.08,1.2.14-.11.25-.75.67-.82.87-.08.27.13.92.18,1.23-.1.08-.93-.55-1.12-.55-.18,0-1.04.62-1.12.55.05-.4.22-.82.18-1.23l-.82-.87c.2-.06,1.1-.08,1.2-.14.06-.04.39-.96.55-1.07.16.11.49,1.03.55,1.07Z"/>
      <path class="cls-1" d="M47.96,59.57l-.32,2.71.64,1.5c-.26.01-.56.42-.76.15-.23-.31-.37-1.02-.6-1.28-.37-.41-1.59-.97-2.08-1.39-.05-.04-.19-.14-.13-.22.02-.03.56-.33.66-.37.21.12,1.51,1.16,1.6,1.14.04,0,.1-.1.1-.16l.14-1.81.76-.26Z"/>
      <path class="cls-1" d="M10.73,56.07l2.35-2.15c.03-.15-.71-.66-.75-.83-.04-.14.31-.47.44-.5.15-.04,1.87,2.02,2.16,2.25.04.15-.3.47-.41.59-.19-.1-.76-.91-.88-.89-.29.05-1.95,1.91-2.38,2.16-.08.01-.61-.47-.52-.62Z"/>
      <path class="cls-1" d="M21.23,59.45c.09.15-.16.52-.18.69l-1.15-.61-1.66,2.78-.7-.42,1.72-2.8c-.16-.1-.98-.53-1.02-.65s.23-.46.31-.57l2.67,1.58Z"/>
      <path class="cls-1" d="M9.77,47.96c.09.41,1.7,2.6,1.59,2.8-.02.03-.47.37-.56.32-.06-.04-.44-.82-.55-.95-.03-.04-.05-.08-.12-.06l-2.6,1.62c-.21.19-.57-.57-.54-.61l2.77-1.75-.63-1.02.64-.35Z"/>
      <path class="cls-1" d="M11.23,13.47c.09.12-.73.88-.76,1.08l2.49,1.92-.48.63-2.42-1.97c-.16-.03-.66.76-.82.88-.1-.1-.44-.29-.47-.42-.04-.18,1.63-1.99,1.8-2.32.24-.18.43.2.67.2Z"/>
      <path class="cls-1" d="M55.16,10.86l-1.98,2.4c-.15.08-.52-.34-.64-.45l2.01-2.39c.04-.17-.8-.69-.81-.75-.03-.17.31-.62.51-.5l2.2,1.88c.06.13-.25.58-.37.56-.15-.02-.89-.79-.94-.76Z"/>
      <path class="cls-1" d="M26.34,3.59l.77,3.12c.05.05,1.19-.39,1.37-.36.1.02.31.58.28.62l-2.23.57-.9-3.6c-.01-.31.48-.25.7-.35Z"/>
      <path class="cls-1" d="M11.9,51.36l.45.63-3.01,2.28c-.19.25-.62-.47-.57-.56l3.13-2.35Z"/>
      <path class="cls-1" d="M6.83,39.42c-.06.2.22.69.02.75l-3.85.71c.04-.2-.23-.75-.02-.82l3.84-.65Z"/>
      <path class="cls-1" d="M11.17,18.77c.06.08-.23.52-.3.62-.03.05,0,.1-.1.07l-3.22-2.13c.13-.09.31-.62.46-.6l3.16,2.04Z"/>
      <path class="cls-1" d="M52.98,8.25c.1.17-1.9,2.81-2.1,3.22-.12.07-.61-.29-.63-.4-.03-.18,1.88-2.71,2.09-3.12.07-.08.61.27.63.3Z"/>
      <path class="cls-1" d="M29.98,2.83l.58,3.73c-.01.23-.58.19-.77.22l-.57-3.83.76-.13Z"/>
      <path class="cls-1" d="M22.5,6.93c.76.76-.39,1.91-1.16,1.19s.37-1.98,1.16-1.19Z"/>
      <path class="cls-1" d="M57.57,14.64c1.42-.26,1.32,1.91-.05,1.55-.75-.2-.72-1.41.05-1.55Z"/>
      <path class="cls-1" d="M54.28,37.07c-.11.17.42.94.47,1.2.11.55-.25,1.02-.83.96-.17-.02-.37-.21-.44,0-.03.08.05.53,0,.77-.15.69-.59.5-.54,1.62.06,1.39.32,2.82-.7,4.02-.59.69-.97.12-1.61.31-.24.07-1.2.43-1.2.72,0,.16,1.31,1.05,1.53,1.27.53.52,1.42,2.01,1.69,2.71.09.25.17.44-.03.67-.09.1-1.31.76-1.45.78-.26.05-.39-.14-.54-.1-.18.04-1.33.8-1.6.96-.13.07-.43.16-.49.21-.15.13.08.48-.27.62-.2.08-.67.07-.88.02-.41-.1-1.1-1.2-1.43-1.57-.75-.84-3.15-3.33-4.11-3.6-.24-.07-.34.01-.38.26-.11.72.24,1.1.36,1.73.07.36.04.77.15,1.13.1.33.42.57.45.96,0,.15-.07.29-.04.41.08.32.41.39.28.97-.03.11-.15.21-.16.27-.02.25.51.79-.13,1.1-.11.05-1.1.33-1.18.32-.14-.02-.29-.17-.33-.31-.3-1.41-.54-2.94-1.17-4.25-.05-.11-.48-.86-.52-.88-.16-.11-.63.19-.87.22-.62.08-1.87.11-1.62-.82-.56.22-.76-.42-1.26-.5-.7-.11-1.25.4-1.23,1.1,0,.11.08.97.25.62.15-.31.13-.78.58-.85.13.27.33.42.26.76,1.26-.33.67.69.64,1.4.28-.23.17-1.22.72-1.07.07.02.2.15.22.23l-.4,3.08c.12.21.27-.35.28-.42.08-.62-.09-2.53.68-2.7.42-.09.28.57.35.64s.59-.17.62.43c.05.93-.62,2.22-.49,3.2.11-.02.11-.12.14-.21.11-.3.29-1.3.4-1.45s.45-.19.57-.07c.15.14.1.58.08.78-.03.31-.44,1.98-.62,2.12-.24.18-.55.02-.57.04-.09.07-.03.64-.6.63-1.16,0-1.68-.37-2.4-1.24-.2-.24-.35-.6-.54-.8-.14-.14-.33-.2-.47-.36-.32-.35-.54-1-.84-1.39-.3-.39-.86-.76-1.15-1.15-.18-.25-.24-.64-.35-.79-.12-.17-.62-.33-.91-.75-.42-.6-.25-.47-.83-.95-.41-.33-.31-.56-.55-.85-.11-.14-.31-.21-.44-.39-.22-.3-.34-.66-.61-.98-.48-.58-1.32-1.25-1.71-1.86-.34-.54-.34-1.43-.63-1.98-.17-.33-.79-1.19-1.07-1.42-.18-.15-.45-.26-.6-.42-.27-.28-.26-.69-.48-.93-.17-.19-.57-.32-.78-.53-.42-.42-.74-1.32-1.17-1.86-.46-.58-.94-.8-1.28-1.52-.5-1.05-1.01-2.13-1.68-3.1-.11-.16-.86-1.12-.96-1.14-.32-.06-.98.65-.9.96.03.12.18.18.18.4,0,.15-.14.35-.12.44.02.12.29.17.35.36s-.06.33-.03.53c.01.08.36.99.42,1.12.1.23.53.53.65.82.08.21.04.36.1.54.1.32.47.8.53,1.13.05.25-.11.41-.12.62,0,.19.09.34.06.56-.02.19-.18.37-.19.52-.01.16.11.29.12.45.05.51.03,1.04.33,1.51.06.1.22.13.31.28.13.23.36.94.32,1.2-.02.17-.16.33-.11.5,0,.03.36.51.4.56.28.28.57.15.47.72-.02.11-.28.58-.24.62.89-.15.52.67.29,1.15-.07.14-.48.68-.41.77.21-.14.4-.29.67-.26.42.04.14.48.19.72.03.12.18.19.21.29.1.34-.1.63-.24.91.34.03.69-.07.7.35.02.45-.69,1.6-1.15,1.72-.32.08-.7.12-.63-.3.02-.12.29-.45.24-.49h-.57c-.07-.2.27-.91.26-.99-.03-.15-.42-.08-.45-.1-.21-.2.44-1.32.51-1.59-.09-.1-.64.69-1.02.42-.35-.25.47-.97.51-1.25-.33.13-.58.25-.96.19-.2-.35,1.17-1.91,1.08-1.98-.17-.13-.35.32-.44.42-.14.15-.78.58-.96.45-.25-.4.24-.6.32-.93-.3.09-.55.25-.89.19-.03-.03.04-.52,0-.66-.03-.09-.18-.12-.24-.21-.35-.53.71-1.02.57-1.17-.32.08-.6.51-.92.45-.18-.03-.2-.26-.32-.39-.24-.27-.49-.13-.19-.63.19-.32.49-.34.6-.64-.18.02-.31.15-.49.18-.48.08-1.02-.27-.98-.78.02-.2.15-.27.11-.48-.02-.07-.44-.73-.52-.83-.15-.19-.42-.2-.41-.54,0-.15.1-.27.1-.38,0-.1-.09-.21-.1-.33-.04-.42.48-.64.7-.92-.25.03-.47.26-.67,0-.13-.16-.07-.32-.14-.5-.17-.42-.74-.84-.27-1.26l.58-.35c-.19,0-.76.06-.82-.17-.08-.27.43-.59.57-.79-.39.11-1.06.36-.96-.29.07-.42.83-.76,1.15-1.02.8-.67.98-1.81,1.96-2.31.24-.13,1.36-.49,1.42-.69s-.2-.36-.3-.58c-.13-.29-.15-.65-.25-.96-.7-2.15-1.91-3.44-1.32-5.88.27-1.12.92-2.35,1.51-3.33.32-.53.92-1.21,1.15-1.72.4-.92.42-1.75,1.05-2.72.52-.81,1.48-1.08,2.25-1.57.42-.26.81-.69,1.2-.9,2-1.08,3.98-1.46,6.23-1.29,2.07.15,3.88,1.19,5.8,1.85,1.21-.14,3.01-1.18,4.19-1.01.34.05.66.27,1.04.3.52.04,1.1-.13,1.65-.06.37.05.76.36,1.17.42.36.05.74-.03,1.1.04.42.09,1.03.54,1.53.7.47.15.95.2,1.42.37.7.26,1.42.7,2.15.91,1.39.4,2.16-.05,2.99,1.48.27.5,1.07,2.26,1.07,2.74,0,.47-.36.81-.36,1.14,0,.43.23,1.06.26,1.53.05.8-.15,1.64-.13,2.42.04,1.16.74,2.28.49,3.43-.05.23-.21.49-.23.72-.08.64.73,1.36,1.01,1.98.24.54.26,1.02.42,1.55.29.9,1.35,1.93.5,2.87-.35.38-1.56.63-1.61.72ZM39.48,32.03c.49-.16.65-.05.85.4.45,1.01,1.29,3.79,1.38,4.86.06.64-.15,1.38.43,1.87.48.41,1.39.34,1.54-.36.13-.65-.66-1.77-.88-2.47s-.17-1.42-.52-2.03c-.17-.29-.45-.49-.5-.9-.09-.75.35-1.58.74-2.2.23-.37.77-.93.84-1.33.08-.46-.24-2-.48-2.42-.12-.21-.33-.38-.45-.57-.37-.6-.38-1.55-.54-2.26-.16-.72-.35-1.45-.52-2.16-.51-2.08-3.4-4.94-5.15-6.13-.87-.59-3.84-1.71-4.93-2.02-1.81-.52-3.84-.36-5.65.08-.34.08-1.52.61-1.82.8-.21.14-.67.74-.71.95-.02.11.07.26.05.43s-.19.32-.19.45c0,.24.37.56-.07.89.93.19-.15,1.07-.39,1.52s-.56,1.84-.98,2.02c-.09.04-.26-.36-.27-.43-.03-.12,0-.51-.01-.53-.03-.03-.39.05-.51-.03-.08-.05-.1-.3-.16-.41-.06-.1-.21-.17-.25-.26-.12-.26.05-.56.03-.83-.22-.24-.61,1-.64,1.11-.23.78,0,.63.11,1.23.12.58.25,1.09.38,1.66.08.35,0,.7.05.91.04.18.31.58.4.81.15.39.15.62.23.98.04.17.44.72.59.75.14.03.31-.31.66-.15.21.09.26.49.39.57.11.07.42.1.62.21.4.23,1.02.62,1.42.88.52.34.72.74,1.41,1.08.63.31.41.09.93.09.53,0,.4.56.56.75.05.07.31.1.43.24.27.3.05.6.06.89,0,.28.11.52.06.82-.03.2-.25.42-.25.52,0,.14.21.18.29.29.26.36-.07.62-.03.92.02.15.22.31.28.49.24.81-.83,1.46-1.11,2.12l.54-.48c.36-.23.6-.08.54.35-.05.41-1.1,1.47-1.29,1.93-.26.1-.58.32-.62-.08-.03-.43.29-.85.44-1.24-1,.33-.43-.69-.19-1.15-.52.07-.53-.08-.57-.54-.05-.6-.18-1.49-.2-2.04,0-.18.08-.39.07-.51-.01-.13-.22-.25-.24-.46-.03-.29.44-1.06.43-1.13,0-.06-.2-.09-.24-.2-.04-.13,0-.33-.01-.47-.32.27-.58-.25-.61-.26-.11-.02-.26.11-.37.11-.12,0-.48-.28-.72-.34-.34-.09-1.08-.13-1.45-.15-.16,0-.5.09-.35.26.04.04.84.14,1.03.21,1.31.45,2.16,1.93,2.22,3.26.03.65-.23.35-.61.36-.14,0-.25.1-.39.12-.54.05-.51-.54-.76-.82-.21-.22-.79-.5-1.09-.56s-.74.06-.94-.28c-.45-.74.63-1.37,1.26-1.01l1.57,1.2c-.24-.77-.69-1.22-1.4-1.56-.52-.25-1.27-.63-1.65,0-.31.53-.49,1.6-.29,2.19.19.58.39.39.86.62-.02.24.07.57-.13.75-.1.09-.26.08-.33.24-.04.09-.1.47-.11.59-.03.66.26,1.29.83,1.62-.37-1.63.25-.46.61-.45.25,0,.34-.3.4-.32.11-.03.5.03.53,0,.03-.03-.04-.64.03-.83.19-.45.56-.21.68.15.1.31.36,1.78.31,2.05-.06.3-.46.39-.73.35-.14-.02-.24-.13-.39-.13-.17,0-.3.15-.51.14s-.32-.2-.47-.32c-.04-.03-.07-.2-.06.02.27.49.73.93,1.21,1.22.38.23,1.74.66,1.89.82.16.17.02.45.01.65-.02.55.25.6.61.92.06,0,.35-.77.35-.86,0-.18-.33-.31-.37-.46-.03-.1.07-.57.11-.69.1-.3,1.08-1.78,1.32-1.93.58-.36.44.14.61.52.08.17.25.3.31.46.06.16.03.34.09.48.03.08.4.39.48.42.2.06.54-.14.76-.19.52-.12,1.39,0,1.93.11.61.13.32.26.52.69.12.25.4.39.54.61.32.51.13.79-.05,1.3.21,0,.34-.17.5.04.33.43.24,1.32.42,1.55s.68-.11.85.17c.4.65-.09,1.46-.05,2.08.01.2.45,1.28.56,1.49s.18.42.48.33c.46-.14.27-1.17.31-1.54.1-.89.52-1.51,1.17-2.08.69-.6,1.69-.81,2.39-1.37.26-.21.39-.46.61-.67.1-.1.73-.68.78-.69.54-.15.25.81.65.92.35.09.35-.72.31-.94-.15-.85-1.09-1.35-1.83-.84-.25.17-.38.46-.58.64-.28.25-1.31,1.07-1.6,1.2-.42.19-.58.07-.57-.38,0-.09.14-.55-.03-.48-.22.1-.61.59-.83.76-.41.33-1.29.93-1.8,1.01-.43.07-.45-.22-.26-.52.69-1.09,1.98-1.79,2.89-2.72.16-.16.39-.27.51-.45.34-.51-.08-1.02.16-1.43.14-.24.68-.46.96-.51.37-.06,1.29.14,1.39-.2.05-.18-.13-1.44-.19-1.69-.26-1.06-1.98-1.71-.88-2.98-.07-.05-1.49.2-1.75.2-.49,0-1.08-.3-1.59-.32l-2.76.95c-.35-.05-.49-.39-.17-.63s1.93-1,2.3-1.08c.78-.17,1.68.05,2.47.11.61.05,1.6-.23,1.56.7ZM49.55,17.24c-.42-.1-.78-.34-1.2-.49-.86-.31-1.85-.47-2.69-.75-.33-.11-.59-.32-.91-.43-.67-.22-1.65-.44-2.37-.63-.66-.18-.99,0-1.6-.06-.59-.06-1.18-.54-1.76-.21l2.16.45c.28.16.15.46.29.6.12.12.41.06.61.35.13.2.15.54.25.69.09.13.42.1.45.33.04.28-.68.95-.58,1.37.37-.17.56-.61,1.01-.35.1.06.17.19.26.25.19.12,1.19.56,1.36.54.41-.03.58-.53.83-.77.59-.56,1.02-.29,1.7-.41.42-.07.78-.42,1.18-.48.29-.04.49.04.76.06.07,0,.24.04.22-.07ZM50.82,39.49c-.36-1.05.53-.87.99-1.27.18-.16.19-.4.35-.54.17-.15.49-.18.69-.33.09-.06.49-.46.23-.47l-1.84.26c-.41.52-.49,1.14-.93,1.68-.15.18-.58.69-.83.52-.06-.05-.06-.12-.06-.19-.04-.39.96-2.58,1.23-2.99.26-.39.68-1.02,1.2-1,.06.37.03.72-.06,1.08.6-.04,1.28-.33,1.88-.32.51,0,1.35.55,1.64-.14.17-.41-.48-1.49-.64-1.94-.18-.53-.25-1.1-.49-1.61-.36-.74-1.05-1.14-1.06-2.07,0-.3.16-.63.19-.9.1-.84-.25-1.54-.38-2.35-.18-.29-1.96-.37-2.09-.78-.11-.37.48-.54.31-.75-.04-.05-.83-.53-.95-.59-.89-.43-2.08-.24-1.54-1.7.15-.41.62-1.35,1.11-.81.33.36.15.76.25,1.15.21.81.71.92,1.31,1.24.66.35.4.81.73,1.06.15.11.57.21.67.02.09-.17.26-1.52.26-1.77,0-.49-.22-1.95-.49-2.32-.32-.44-1.56-.94-1.55-1.5,0-.23.23-.37-.03-.65-.41-.45-.9-.05-1.36.04-.48.09-.94-.02-1.31.02-.59.07-1.67.48-2.3.64-.59.15-1.73.1-1.86.82-.13.71-.16,2.64.09,3.3.72,1.91,1.33,2.4.82,4.68-.09.39-.83,2.43-.8,2.56.08.33.53.17.72.17,1.11-.01,2.72.06,3.75-.33.71-.27,1.17-.89,2.05-.88.22,0,.46.13.69.06.05-.02.35-.47.35-.52,0-.15-.28-.5-.42-.54-.47-.14-1.84.43-2.29.68-.26.14-.39.35-.69.39-.63.08-.45-.49-.24-.87.58-1.06,1.96-1.04,3-1.27.45-.1,1.12-.46,1.56-.33.65.19-.27,1.49-.31,1.83-.02.22.17.33.21.5.2.87-1.58,1.51-.72,2.5.6-.53.64-.02.61.55-.03.48-.16.94-.73.92-.87-.04-.55-1.19-.93-1.43-.27-.17-.79.84-1.34.32-.42-.39-.02-.84-.93-.8-.86.03-1.75.19-2.61.26-.58.04-1.17.06-1.75.06-.05.29.09.57.07.86s-.26.56-.26.83c0,.38.31.7.37,1.04.04.22-.02.42.06.64.16.4.87.91.98,1.18.17.4.3,1.68.5,1.92.05.06.84.53.96.57.43.16.78.01,1.1.11.12.04.27.29.33.29.02,0,.21-.16.3-.19.33-.11.44.01.71.02.33,0,1.34-.09,1.53.13.09.11.41.96.42,1.12.02.29-.14.5-.19.77-.2,1.11.14,1.49.7,2.38.37,0,.42-.56.44-.85.05-.66.09-2.25,0-2.87-.03-.24-.24-.41-.32-.63.61-.38,1.04-.36.76-1.25-.58.03-.57.46-.83.73-.08.09-.68.47-.76.42,0-.18-.22-.4-.26-.51.2.21-.57.71-.45,0h.45ZM19.33,24.5c-.11-.02-.16.06-.22.13-.17.16-.84,1.05-.93,1.24-.17.36.02.38.25.12.09-.1.97-1.43.9-1.49ZM19.65,26.54c-.08-.07-.6.49-.66.58-.15.2-.31.44-.29.7l.96-1.27ZM20.99,27.05c-.18-.03-.1.05-.14.14-.43.93-.96,1.43-1.4,2.24-.11.21-.27.44-.18.68.06.05.94-1.14,1.01-1.25.15-.25.62-1.18.68-1.42.03-.13.04-.25.03-.38ZM19.78,27.75c.05-.09-.04-.17-.06-.13-.05.09.04.17.06.13ZM19.65,27.82c-.07-.07-.2.06-.13.13s.2-.06.13-.13ZM19.52,28.01c-.11-.11-.39.47-.38.57.05-.07.44-.52.38-.57ZM27.3,34.51c-.36.02-.47.47-.51.76.17-.02.57-.7.51-.76ZM40.62,38.78s.02-.56,0-.66c-.14-.92-2-.71-1.3.34.16.24.62.44.89.44.06,0,.39-.11.4-.13ZM39.54,39.23c-.24-.17-1.02.1-1.07.36s.24.26.43.18l.64-.54ZM27.81,40.06c.22-.18.52-.38.51-.7-.22.16-.49.41-.51.7ZM16.27,40.63c.5-.15.98-.59,1.15-1.08l-.7.6-.45.48ZM28.02,41.11c.17-.07.98-.92.87-1.05-.43.21-.68.63-.93,1.02l.06.03ZM31.32,40.89s-.2.02-.28,0c-.19-.05-.45-.3-.47.17,0,.22.4.78.59.91s.45.13.56.4c.16.39-.05,1.12-.16,1.53-.25.9-.94,1.67-.55,2.6.16-.04.13-.25.23-.32.44-.3.56.63.64.88.02.06-.01.19.11.14.31-.13.19-.79.23-1.05.1-.73.35-1.45.32-2.2-.11.02-.11.13-.14.21-.13.31-.45,1.57-.59,1.71-.07.07-.34.1-.41.05-.02-.01-.11-.35-.11-.41-.03-.64.57-1.43.66-2.11.06-.42-.26-1.34.4-1.13.08.02.49.31.55.38.03.03.39.75.4.39,0-.11-.28-.62-.31-.83-.04-.3.02-.46.12-.73-.15-.01-.21.15-.33.21-.46.22-.24-.27-.47-.33-.13-.03-.43.22-.66.16-.38-.11-.29-.59-.32-.61ZM31.12,42.61c-.13-.02-.15.06-.2.15-.26.45-.9,1.96-.88,2.44,0,.2.09.36.13.54.26-.26.23-.73.37-1.06.12-.3.33-.54.44-.9.11-.38.17-.77.15-1.16ZM29.72,44.14l.51-1.34c-.38.32-.58.59-.57,1.12,0,.08-.05.24.06.22ZM40.42,42.81c-.21.05-.7.51-.93.67-.67.45-1.71.98-2.3,1.46-.21.18-.44.43-.29.73.05.09.21.14.29.22.25.29.05.62.06.95,0,.21.17,1.02.24,1.23.2.63.9,1.1,1.56,1.02.44-.05,1.77-.45,1.93-.88.12-.31.32-2.05.28-2.39-.03-.31-.23-.59-.25-.84-.02-.27.09-.61.06-.95-.03-.39-.12-1.35-.65-1.23ZM48.4,44.2c.03-.11-.05-.13-.09-.19-.24-.31-.63-.64-.89-.95-.31.41-.12,1.03-.86.89.13.31.42.5.67.7-.07-.87.61-.32,1.18-.45ZM41.87,44.52c-.08.02-.1.14-.1.22-.03.46.21,1.14.2,1.66,0,.34-.4,1.56.15,1.57l2.07-1.06c-.6-.61-1.13-1.3-1.72-1.91-.11-.11-.46-.52-.61-.48ZM33.42,47.33c.05.19.44.63.26.8-.16.15-1.12.26-1.34.19-.3-.09-.96-1.12-1.24-1.37-.11.09-.21.29-.37.25s-1.19-1.35-1.38-1.14c-.21.22.75.7.89.86.23.26.3.76.45.89s.37.07.53.17c.14.08.17.26.3.34.36.23.8.49,1.19.66.23.1.14.28.49.14.11-.05.97-.55.99-.61.04-.13-.32-.7-.41-.85-.04-.07-.25-.42-.35-.32ZM18.69,46.24c-.09-.05-.17.04-.13.06.09.05.17-.04.13-.06ZM46.36,47.45c-.47.26-2.33.82-2.47,1.32-.1.36.73,1.14,1.04,1.16.11,0,1.65-.33,1.72-.38.04-.02.11-.1.13-.13.12-.26-.42-1.58-.42-1.97ZM48.21,49.94c.2,0,.42-.18.61-.19.17,0,.37.13.54.03.09-.06.3-.73.25-.8-.49.27-.99.57-1.4.96ZM49.31,51.9c.11.06.81-.42.82-.47.01-.07-.1-.14-.11-.2-.08-.38.28-.87.24-1.29l-1.59.93c-.06.12.21.1.25.32.05.25-.08.38-.13.6.16-.08.31-.09.47,0,.04.02.04.11.05.11Z"/>
      <path class="cls-1" d="M32.53,27.31l.64-.13c.04.11.05.61.07.63.01.01.23,0,.34.07.13.08.13.27.23.34.17.11.53,0,.57.26.09.45-.45.65-.45.7,0,.02.15.11.18.2.13.41-.66.99-.74,1.4-.05.26.33.52-.07.81-.15.11-.55.16-.7.06-.02-.01-.3-.37-.31-.4-.11-.36.22-.57.37-.85-.94-.14-.3-.88-.32-.99,0-.04-.37-.29-.48-.55-.23-.58.13-.82-.58-1.2-.51-.27-.77-.1-.34-.9-.56-.07-.28-.48-.33-.72-.02-.1-.17-.17-.16-.32,0-.13.17-.36.17-.4-.02-.25-1.07-.1-.85-.93.27-1.03,1.34-.31,1.74.24.11.14.8,1.28.84,1.39.06.16,0,.3.04.4.04.11.18.16.21.31.04.19-.03.36-.06.54Z"/>
      <path class="cls-1" d="M24.05,18.77c.11.51-.32.78-.45,1.21l.58-.47c.95-.66.75.09.99.15.09.02.3-.18.44-.19.49-.03.36.57.28.89.23-.05.35-.24.61-.26,1.09-.08-.41,1.26-.54,1.57-.14.33-.16,1.45-.5,1.55-.73.2-.43-1.23-.32-1.6.05-.15.39-.78.36-.81-.13-.14-.53.74-.56.81-.13.33-.25,1.24-.75,1.17-.34-.05-.18-.9-.12-1.14.1-.38.36-.78.47-1.16l-.31.29c-.27.3-.33,1.23-.66,1.38-.49.21-.55-.28-.62-.65l-.57.19c-.28-.6.05-1.41.37-1.96.25-.44.72-1.13,1.29-.98ZM23.54,20.23c.03-.27-.09-.27-.06,0h.06ZM23.28,20.49c.12-.03.14-.14.13-.25-.03-.07-.15.17-.13.25ZM25.64,20.68c-.09-.05-.17.04-.13.06.09.05.17-.04.13-.06Z"/>
      <path class="cls-1" d="M35.27,34.39c-.18,1.35-.81.5-1.45.4-.39-.06-.84.11-1.14-.2-.09-.1-.13-.29-.2-.33-.12-.08-.52-.07-.74-.14s-1.06-.54-1.14-.71c-.13-.29-.04-.44.26-.52.44-.12.7.22,1.09.38.23.1.74.27.97.21.16-.04.28-.25.52-.24.26.01.71.31.96.31.51,0,.87-.71,1.42-.8.3-.05,1.44.1,1.75.19.43.12.93.55.88,1.04-.04.41-.75.3-1.04.37s-.52.21-.78.24c-.5.06-.9-.11-1.37-.19Z"/>
      <path class="cls-1" d="M31.27,36.15c.07.07.28.11.4.21.3.25.5.64.8.86s1.47.63,1.58.97c.14.46-.14.58-.53.47-.67-.19-1.56-.78-2.22-1.1-.28-.13-.58-.18-.87-.34-.16-.09-.28-.25-.4-.3-.44-.19-1.13.03-1.2-.72-.03-.35.53-1.67.76-1.9.45-.43.51.47.67.66.14.16.43.22.57.38.16.18.32.69.44.81Z"/>
      <path class="cls-1" d="M35.32,25.6c1.04-.16,2.08.48,3.04.36.25-.03.5-.2.77-.19.73.02.34.71-.09.93-1.2.61-3.07-.04-4.33-.26-.58-.43.2-.77.62-.84Z"/>
      <path class="cls-1" d="M36.08,36.19c-.22-.3-.85-.25-.75-.82.08-.42.93-.08,1.24-.09.15,0,.42-.09.56-.14.19-.07.55-.44.71-.11.27.55-.66,1.27-1.09,1.46-.61.26-.49-.02-.68-.29Z"/>
      <path class="cls-1" d="M27.87,20.69c.16.24-.62,1.19-.76,1.49-.18.41-.18,1.13-.57,1.34-.17.09-.33-.15-.4-.31-.13-.3.31-1.63.52-1.94.14-.22.54-.61.78-.69.08-.03.42.08.43.1Z"/>
      <path class="cls-1" d="M41.83,28.71c-.05,1.12-1.87,1.39-2.55.74-.28-.27-.33-.4,0-.64.53-.37.73.01,1.24.03.42.01.86-.22,1.31-.13Z"/>
      <path class="cls-1" d="M28.83,21.32c.06.59-.48.81-.59,1.29-.08.34.04.86-.36,1.04-.34.16-.57-.21-.57-.51,0-.4.53-1.63.89-1.78.19-.08.44-.01.64-.03Z"/>
      <path class="cls-1" d="M29.39,23.34c-.09.09-.46.11-.58.07-.44-.15.12-1.55.53-1.74.28-.13.59.05.56.36-.01.13-.44,1.23-.51,1.31Z"/>
      <path class="cls-1" d="M47.36,30.29c-.11.09-.35.1-.49.15-.03-.03-.04-.55-.08-.66-.05-.15-.28-.21-.31-.4-.04-.28.22-.53.25-.77.03-.23-.09-.41-.05-.62s.61-.83.5-.94c-.36-.04-1.03-.11-.96-.6.02-.13.43-.45.56-.65.27-.41.58-1.68,1.22-1.39.42.19.16,1.01.07,1.34-.07.25-.42.92-.43,1.03-.01.15.16.39.18.63.02.32-.21,1.25-.1,1.44.09.15.4.09.25.51-.03.1-.56.89-.62.94Z"/>
      <path class="cls-1" d="M45.43,35.06c-.56-.6.02-2.44,1.06-1.22.23.26.47.63.35.99s-.35.2-.56.27c-.31.1-.48.36-.85-.03Z"/>
      <path class="cls-1" d="M53.17,33.12c.31-.04.91,1.16.96,1.44.06.35-.21.6-.54.64-.35.05-.89-.4-.96-.74s.14-1.29.54-1.35Z"/>
      <path class="cls-1" d="M40.29,44.6c.07.06.17.48.14.58-.05.16-.36.12-.43.18-.04.04-.04.23-.09.32-.25.47-1.77.68-2.27.93-.37.04-.32-1-.19-1.22.09-.16,1.45-.77,1.71-.84.24-.06.96-.1,1.13.05Z"/>
    </g>
  </g>
</svg>