<?xml version="1.0" encoding="UTF-8"?>
<svg id="Layer_2" data-name="Layer 2" xmlns="http://www.w3.org/2000/svg" viewBox="0 0 74.98 64.27">
  <defs>
    <style>
      .cls-1, .cls-2 {
        fill: #fff;
      }

      .cls-2 {
        stroke: #000;
        stroke-miterlimit: 10;
        stroke-width: .41px;
      }
    </style>
  </defs>
  <g id="Layer_2-2" data-name="Layer 2">
    <g>
      <path class="cls-1" d="M22.21,35.86s-.03-.05-.05-.04c-.22,0-2.58-.05-2.58-.03,0,0,0-3.26,0-3.26h-1.22c-.07.1,0,.52,0,.64,0,.44,0,.88,0,1.32,0,.36.05.76,0,1.11-.03.2-.08.18-.27.18s-.4,0-.61,0c-.46,0-.94-.02-1.4.02-.29.02-.2.14-.21.42,0,.22-.02.45-.05.67h2.11c.17,0,.49-.08.49.13,0,.79-.1,9.32-.07,9.32h1.22c0-.98,0-1.97,0-2.96,0-1.64,0-3.29,0-4.93,0-.28,0-.56,0-.85,0-.14-.05-.38,0-.51.04-.11.03-.09.16-.11.15-.03.33,0,.49,0h1.97c0-.36,0-.73.02-1.09,0-.02,0-.04-.01-.06Z"/>
      <rect class="cls-2" x="52.09" y="31.72" width="2.44" height="3.26"/>
      <path class="cls-1" d="M13.94,20.88s0,11.09,0,11.82c0,4.74-.11,9.44-.11,14.18h-7.38c0-6.97-.04-13.94-.07-20.91,0-.18.15-1.75,0-1.85-.95-.62-1.91-1.23-2.86-1.85-2.09-1.35-4.01-.87-3.4-3.91,2.37.05,3.44-1.61,5.35-2.57,3.18-1.59,6.71-2.65,9.73-4,.29-.13,1.59-1.46,1.87-1.56.72-.24,3.16-.41,3.28-.52.15-.14-.12-.88.29-1.19s1.97-.54,2.7-.88c3.5-1.64,6.99-3.86,10.88-5.78.67-.33,1.66-.35,2.12-.62s.52-1.05.97-1.18c1.13-.35,2.04,1.1,2.86,1.54.9.47,2.92.98,3.53,1.66.43.47.18,1.02.3,1.21.14.23,4.6-.11,4.04,2.48h.81s.19-.81.19-.81l1.43,2.03.41-.8,7.62,4.31c.88,1.18,1.31,1.64,2.94,1.37l-.41.81c1.86-.61,1.91.64,2.53.95,2.44,1.21,6.66,3.35,8.6,4.99.52.44,2.6.82,1.3,2.63-.29.4-1.43.49-1.86.62-.33.1-3.36,1.19-3.36,1.42,0,7.43-.53,15.08.05,22.46-1.76.26-3.7.07-5.5.07v-13.56c0-1.59,1.03-12.51-.9-12.66-.05.26-.04.6-.04.91-.56,1.45-1.56-2.18-2.84-1.73-1.2,1.79-.6,3.71-1.02,5.69-.11-1.15-2.14-1.57-2.45-2.03-.3-.45-.05-1.3-.27-1.56-.31-.35-1.95.11-1.14-1.29-3.95.02-7.91-.1-11.84-.1-9.45,0-18.92.23-28.34.23ZM41.76,6.29c-2.47-1.5-3.73-1.32-6.5-1.38l-5.93,3.24c2.13.6,4.45,1.15,6.69.8.63-.1,1.05-.7,1.66-.81.19-.04,1.8,1.06,3.64,1.02.4,0,3.97-.53,3.44-1-1.13.21-2.2-1.37-3.01-1.87ZM25.67,10.19c-1.96.03-3.84,1.56-5.61,2.31-2.79,1.2-5.79,2.16-8.42,3.77-.62.38-1.55.73-1.41,1.63,1.03-.27,2.19.36,3.06.34.94-.02,9.02-4.72,10.15-5.62.79-.63,1.66-1.6,2.24-2.43ZM62.65,17.91l-8.53-4.07c-.48,1.98.93,1.73,2.02,2.66.55.48.77,1.3,1.33,1.54,1.02.43,2.65.31,3.77.27.49-.02,1.51.31,1.41-.4ZM40.1,23.6c-1.74-.28-4.07.2-5.89,0,.05.64,1.78.79,2.24.81,1.29.07,1.98-.3,2.86-.36.21-.01-.03.67.76.79,1.71.27,1.22-1.05.03-1.24Z"/>
      <rect class="cls-1" x="52.09" y="31.72" width="2.44" height="3.26"/>
      <path class="cls-1" d="M41.76,6.29c.82.5,1.88,2.07,3.01,1.87.52.47-3.05.99-3.44,1-1.85.03-3.45-1.06-3.64-1.02-.61.11-1.03.71-1.66.81-2.23.35-4.56-.2-6.69-.8l5.93-3.24c2.77.06,4.03-.12,6.5,1.38Z"/>
      <path class="cls-1" d="M25.67,10.19c-.58.83-1.45,1.81-2.24,2.43-1.13.9-9.21,5.6-10.15,5.62-.87.02-2.03-.61-3.06-.34-.14-.9.79-1.26,1.41-1.63,2.64-1.61,5.64-2.57,8.42-3.77,1.76-.76,3.65-2.28,5.61-2.31Z"/>
      <path class="cls-1" d="M62.65,17.91c.1.71-.92.38-1.41.4-1.12.04-2.75.16-3.77-.27-.55-.23-.77-1.06-1.33-1.54-1.09-.94-2.5-.69-2.02-2.66l8.53,4.07Z"/>
      <path class="cls-1" d="M40.1,23.6c1.19.19,1.69,1.51-.03,1.24-.79-.12-.55-.8-.76-.79-.88.06-1.58.43-2.86.36-.46-.03-2.19-.17-2.24-.81,1.82.2,4.15-.28,5.89,0Z"/>
      <g>
        <path class="cls-1" d="M2.31,49.62s0-.06-.01-.08c0-.02-.02-.04-.04-.06s-.05-.03-.09-.04c-.04-.01-.1-.02-.16-.03-.03,0-.05-.04-.05-.08v-.04s0-.04,0-.05c.1,0,.22.01.34.02s.23,0,.32,0,.2,0,.31,0c.12,0,.23-.01.33-.02,0,.02,0,.03,0,.05,0,.02,0,.03,0,.04,0,.05-.02.07-.05.08-.07,0-.12.02-.17.03-.04.01-.07.03-.09.04s-.03.04-.04.06c0,.02,0,.05,0,.08v2.12c0,.23-.02.42-.05.59-.03.16-.08.31-.16.44-.08.13-.18.25-.31.37-.13.12-.3.24-.5.38-.03-.02-.05-.04-.07-.06-.02-.02-.03-.04-.03-.06,0-.03,0-.05.02-.06.09-.09.17-.17.23-.25.06-.08.11-.17.14-.25s.06-.18.08-.27.02-.2.02-.32v-2.61Z"/>
        <path class="cls-1" d="M6.88,51.23c0,.19-.02.36-.06.51s-.11.29-.2.4c-.1.11-.23.2-.39.26-.16.06-.37.09-.61.09-.29,0-.53-.03-.7-.1-.18-.07-.32-.15-.41-.27-.1-.11-.16-.25-.19-.4-.03-.15-.05-.31-.05-.49v-1.63c0-.07-.02-.12-.06-.14-.04-.03-.13-.05-.26-.07-.04,0-.05-.04-.05-.09v-.04s0-.03,0-.05c.09,0,.2.01.3.02.11,0,.23,0,.38,0,.11,0,.23,0,.36,0,.12,0,.24-.01.33-.02,0,.02,0,.03,0,.05,0,.02,0,.03,0,.04,0,.06-.02.09-.05.09-.13.02-.23.04-.27.07-.05.03-.07.08-.07.14v1.52c0,.34.06.6.19.78.12.18.34.26.65.26s.54-.08.67-.25c.13-.17.2-.43.2-.81v-1.51c0-.07-.02-.11-.07-.14-.04-.03-.13-.05-.26-.07-.04,0-.06-.04-.06-.09,0,0,0-.02,0-.04,0-.02,0-.03,0-.05.09,0,.18.02.26.02.08,0,.17,0,.26,0,.11,0,.2,0,.28,0,.08,0,.16,0,.24-.02,0,.02,0,.03,0,.05,0,.02,0,.03,0,.04,0,.05-.02.08-.06.09-.12.01-.21.04-.25.07-.04.03-.07.08-.07.14v1.61Z"/>
        <path class="cls-1" d="M10.43,51.37v-1.74c0-.07-.02-.12-.07-.15s-.14-.05-.26-.07c-.04,0-.06-.04-.06-.09v-.04s0-.03,0-.05c.08,0,.16.02.24.02.08,0,.17,0,.27,0s.19,0,.27,0c.08,0,.15,0,.23-.02,0,.02,0,.03,0,.05,0,.02,0,.03,0,.04,0,.06-.02.09-.06.09-.11.02-.18.04-.22.07s-.06.08-.06.14v2.87s-.04,0-.07,0c-.03,0-.05,0-.06,0-.02,0-.05,0-.07-.02-.03-.01-.05-.04-.08-.07l-1.93-2.45v2.12s0,.06,0,.08c0,.02.02.04.04.05.02.02.05.03.09.04.04.01.1.02.16.04.02,0,.03.01.04.02s.02.04.02.07c0,.02,0,.05,0,.08-.08,0-.16-.01-.23-.02-.07,0-.16,0-.25,0s-.19,0-.27,0c-.09,0-.17,0-.24.02,0-.01,0-.03,0-.04v-.04s0-.06.02-.07c.01-.01.03-.02.04-.02.12-.02.2-.04.24-.07s.06-.08.06-.14v-2.48c0-.05-.02-.09-.05-.12-.03-.03-.11-.05-.23-.07-.04,0-.06-.04-.06-.09v-.02s0-.02,0-.03v-.04c.05,0,.09,0,.14,0,.04,0,.08,0,.13,0,.07,0,.14,0,.22,0,.07,0,.13,0,.18,0,.09,0,.16,0,.19.01.03,0,.06.02.08.05l1.63,2.06Z"/>
        <path class="cls-1" d="M13.43,49.49v2.58s0,.06,0,.08c0,.02.02.04.04.06s.05.03.08.04c.04.01.09.02.15.03.05,0,.07.04.07.08,0,0,0,.02,0,.04,0,.02,0,.04,0,.05-.1,0-.22-.01-.34-.02s-.22,0-.32,0-.2,0-.32,0c-.12,0-.23,0-.33.02,0-.01-.01-.03-.01-.05,0-.02,0-.03,0-.04,0-.02,0-.04.01-.06,0-.01.03-.03.07-.03.12-.02.2-.04.23-.07.03-.03.05-.08.05-.14v-2.58h-.43c-.09,0-.17,0-.23.03-.06.02-.12.05-.17.08-.05.04-.09.09-.13.15-.04.06-.08.13-.12.22-.01.03-.04.04-.07.04-.02,0-.04,0-.07-.01-.03,0-.04-.02-.06-.02.02-.08.04-.15.06-.21.02-.06.03-.12.04-.18.01-.08.02-.14.03-.2,0-.06.01-.1.02-.13.01-.03.04-.04.08-.04.04,0,.11,0,.21.01.11,0,.23.01.38.01h1.51c.15,0,.27,0,.38-.01s.18-.01.22-.01c.04,0,.06.01.08.04,0,.03.02.07.02.13,0,.06.02.13.03.2,0,.06.02.12.04.18s.04.13.06.21c-.02,0-.04.01-.06.02-.03,0-.05.01-.07.01-.04,0-.06-.01-.08-.04-.04-.08-.08-.16-.12-.22-.04-.06-.08-.11-.13-.15-.05-.04-.1-.07-.17-.08-.06-.02-.14-.03-.23-.03h-.43Z"/>
        <path class="cls-1" d="M16.49,51.36h-1.03l-.25.68s-.02.03-.02.05c0,.02,0,.04,0,.04,0,.04.02.07.05.09.03.02.1.04.21.06.05,0,.07.04.07.09,0,.02,0,.05,0,.08-.09,0-.18-.01-.28-.02-.1,0-.19,0-.29,0-.07,0-.13,0-.21,0-.07,0-.15,0-.24.02,0-.01,0-.03,0-.04v-.04c0-.06.02-.09.06-.1.1-.02.17-.04.22-.06s.08-.06.11-.12l1.18-2.82c.03-.06.07-.08.12-.08.02,0,.03,0,.05,0s.03,0,.05,0l1.18,2.91s.06.08.11.11c.06.02.12.04.18.05.05,0,.07.04.07.1,0,.03,0,.06,0,.09-.1,0-.21-.01-.31-.02-.1,0-.2,0-.29,0-.05,0-.1,0-.17,0-.07,0-.13,0-.2,0-.07,0-.14,0-.2,0-.07,0-.12,0-.17,0,0-.01,0-.03,0-.04v-.04s0-.05.02-.07c.01-.01.02-.02.04-.03.08-.02.15-.04.19-.06.04-.02.06-.05.06-.1,0-.02,0-.04-.01-.07l-.26-.7ZM16.4,51.11l-.42-1.1-.43,1.1h.84Z"/>
        <path class="cls-1" d="M22.87,50.84c0,.19-.03.38-.1.57-.07.19-.17.36-.3.51-.14.15-.31.27-.52.37-.21.09-.46.14-.76.14h-1c-.08,0-.18,0-.3,0-.11,0-.22,0-.32.02,0-.01,0-.03,0-.04v-.04s0-.06.02-.07c.01-.01.03-.02.04-.02.09-.02.17-.04.23-.07.06-.03.09-.08.09-.15v-2.46c0-.07-.02-.11-.07-.14-.05-.03-.13-.05-.24-.07-.03,0-.04-.02-.05-.03s0-.04,0-.06v-.04s0-.03,0-.05c.07,0,.13.01.18.01.05,0,.1,0,.15,0,.05,0,.09,0,.14,0h1.14c.28,0,.52.04.73.13s.39.2.53.34c.14.14.25.31.32.5.07.19.11.4.11.62ZM22.19,50.94c0-.25-.03-.47-.09-.66-.06-.18-.14-.33-.26-.45-.11-.12-.25-.2-.42-.25-.17-.05-.36-.08-.58-.08h-.3v2.52s0,.06.01.08c0,.02.03.04.06.05.03.01.07.02.12.03.05,0,.12,0,.21,0,.42,0,.74-.11.94-.34s.3-.53.3-.92Z"/>
        <path class="cls-1" d="M24.53,49.49v1.18h.69c.06,0,.1-.03.13-.08s.04-.13.06-.25c0-.03.01-.04.03-.05.02,0,.04-.01.06-.01,0,0,.03,0,.05,0,.02,0,.04,0,.05,0,0,.08-.01.16-.02.26s0,.18,0,.25c0,.06,0,.13,0,.21s0,.17.02.27c0,0-.03.01-.05.01-.02,0-.04,0-.05,0-.06,0-.09-.02-.09-.07-.02-.12-.04-.21-.07-.25-.03-.04-.07-.07-.12-.07h-.69v1.1c0,.07.04.11.13.14.08.02.23.03.43.03h.21c.1,0,.18-.01.25-.04.07-.03.13-.06.18-.11.05-.05.1-.1.14-.17.04-.06.08-.13.12-.21,0-.02.03-.04.07-.04.02,0,.04,0,.06.01.02,0,.05.02.07.03,0,.03-.01.05-.02.07s-.02.05-.02.07c-.02.04-.03.08-.04.12,0,.04-.02.08-.03.1,0,.03-.01.07-.02.11,0,.04-.02.08-.02.12,0,.04-.02.07-.03.1,0,.03-.01.05-.02.06-.01.03-.04.04-.08.04-.03,0-.06,0-.11,0s-.1,0-.16,0c-.06,0-.12,0-.17,0-.06,0-.11,0-.15,0h-1.11c-.09,0-.2,0-.33,0-.12,0-.23,0-.33.02,0-.01,0-.03,0-.05v-.05s.02-.08.05-.08c.12-.02.21-.05.27-.07s.08-.07.08-.14v-2.46s0-.06-.01-.08c0-.02-.03-.04-.06-.05-.03-.01-.06-.03-.11-.04-.04-.01-.1-.02-.17-.04-.03,0-.05-.04-.05-.09v-.05s0-.03,0-.05c.14,0,.26.02.37.02.11,0,.2,0,.28,0h1c.15,0,.27,0,.38-.01.11,0,.18-.01.22-.01.04,0,.06.01.08.04,0,.03.02.07.02.14,0,.07.02.14.04.22,0,.06.02.11.03.16.01.05.03.12.06.19-.02,0-.03.01-.05.02s-.04,0-.06,0c-.04,0-.06-.01-.08-.04-.04-.08-.08-.16-.12-.22-.04-.06-.08-.11-.13-.15-.05-.04-.1-.06-.17-.08s-.14-.02-.23-.02h-.65Z"/>
        <path class="cls-1" d="M29.85,51.36h-1.03l-.25.68s-.02.03-.02.05c0,.02,0,.04,0,.04,0,.04.02.07.05.09.03.02.1.04.21.06.05,0,.07.04.07.09,0,.02,0,.05,0,.08-.09,0-.18-.01-.28-.02-.1,0-.19,0-.29,0-.07,0-.13,0-.21,0-.07,0-.15,0-.24.02,0-.01,0-.03,0-.04v-.04c0-.06.02-.09.06-.1.1-.02.17-.04.22-.06s.08-.06.11-.12l1.18-2.82c.03-.06.07-.08.12-.08.02,0,.03,0,.05,0s.03,0,.05,0l1.18,2.91s.06.08.11.11c.06.02.12.04.18.05.05,0,.07.04.07.1,0,.03,0,.06,0,.09-.1,0-.21-.01-.31-.02-.1,0-.2,0-.29,0-.05,0-.1,0-.17,0-.07,0-.13,0-.2,0-.07,0-.14,0-.2,0-.07,0-.12,0-.17,0,0-.01,0-.03,0-.04v-.04s0-.05.02-.07c.01-.01.02-.02.04-.03.08-.02.15-.04.19-.06.04-.02.06-.05.06-.1,0-.02,0-.04-.01-.07l-.26-.7ZM29.75,51.11l-.42-1.1-.43,1.1h.84Z"/>
        <path class="cls-1" d="M33.03,52.49c-.27,0-.51-.04-.72-.13s-.38-.2-.51-.35c-.13-.15-.24-.32-.3-.53-.07-.2-.1-.42-.1-.65,0-.19.03-.39.1-.58s.17-.37.31-.53c.14-.16.32-.29.54-.39s.48-.15.79-.15c.17,0,.32.01.47.04.15.02.3.06.47.1,0,.09.02.2.04.34.02.14.05.27.08.4-.02,0-.04,0-.06.01s-.05,0-.06,0c-.03,0-.05,0-.07-.01s-.03-.03-.04-.05c-.04-.11-.08-.2-.12-.27-.05-.07-.1-.13-.16-.18-.06-.04-.14-.08-.22-.1s-.18-.03-.3-.03c-.18,0-.33.03-.47.09s-.25.15-.34.26c-.09.11-.16.25-.21.41-.05.16-.07.34-.07.54,0,.21.03.41.09.59.06.18.14.34.24.48.1.13.22.24.36.31.14.08.29.11.45.11.13,0,.24-.01.34-.04.09-.02.17-.06.24-.11.07-.05.12-.12.17-.19.05-.08.09-.17.13-.28,0-.03.03-.04.05-.06.02-.01.04-.02.07-.02.02,0,.04,0,.06,0s.04,0,.06.02c-.02.06-.04.12-.06.19-.02.07-.04.14-.07.22-.02.07-.04.15-.06.22-.02.07-.03.15-.05.21-.16.03-.32.05-.49.06-.17.01-.35.02-.55.02Z"/>
        <path class="cls-1" d="M36.44,52.49c-.27,0-.51-.04-.72-.13s-.38-.2-.51-.35c-.13-.15-.24-.32-.3-.53-.07-.2-.1-.42-.1-.65,0-.19.03-.39.1-.58s.17-.37.31-.53c.14-.16.32-.29.54-.39s.48-.15.79-.15c.17,0,.32.01.47.04.15.02.3.06.47.1,0,.09.02.2.04.34.02.14.05.27.08.4-.02,0-.04,0-.06.01s-.05,0-.06,0c-.03,0-.05,0-.07-.01s-.03-.03-.04-.05c-.04-.11-.08-.2-.12-.27-.05-.07-.1-.13-.16-.18-.06-.04-.14-.08-.22-.1s-.18-.03-.3-.03c-.18,0-.33.03-.47.09s-.25.15-.34.26c-.09.11-.16.25-.21.41-.05.16-.07.34-.07.54,0,.21.03.41.09.59.06.18.14.34.24.48.1.13.22.24.36.31.14.08.29.11.45.11.13,0,.24-.01.34-.04.09-.02.17-.06.24-.11.07-.05.12-.12.17-.19.05-.08.09-.17.13-.28,0-.03.03-.04.05-.06.02-.01.04-.02.07-.02.02,0,.04,0,.06,0s.04,0,.06.02c-.02.06-.04.12-.06.19-.02.07-.04.14-.07.22-.02.07-.04.15-.06.22-.02.07-.03.15-.05.21-.16.03-.32.05-.49.06-.17.01-.35.02-.55.02Z"/>
        <path class="cls-1" d="M39.27,52.07s0,.06,0,.08c0,.02.02.04.04.06s.05.03.09.04c.04.01.1.02.17.03.03,0,.05.03.05.08,0,0,0,.02,0,.04,0,.02,0,.04,0,.05-.1,0-.22-.01-.34-.02-.12,0-.22,0-.32,0s-.2,0-.32,0c-.12,0-.23,0-.33.02,0-.01,0-.03,0-.05v-.04c0-.05.02-.08.05-.08.07,0,.12-.02.16-.03.04-.01.07-.03.09-.04s.03-.04.04-.06c0-.02,0-.05,0-.08v-2.46s0-.06,0-.08c0-.02-.02-.04-.04-.06s-.05-.03-.09-.04-.1-.02-.16-.03c-.03,0-.05-.04-.05-.08v-.04s0-.04,0-.05c.1,0,.22.01.33.02.12,0,.22,0,.32,0s.2,0,.32,0c.12,0,.23-.01.34-.02,0,.02,0,.03,0,.05,0,.02,0,.03,0,.04,0,.05-.02.07-.05.08-.07,0-.12.02-.17.03s-.07.03-.09.04-.03.04-.04.06c0,.02,0,.05,0,.08v2.46Z"/>
        <path class="cls-1" d="M40.23,50.84c0-.23.04-.44.13-.64.09-.2.21-.37.36-.52s.33-.27.53-.36c.2-.09.42-.13.64-.13s.45.04.66.12.38.2.53.34c.15.15.27.32.35.52s.13.42.13.66-.04.44-.13.64c-.09.2-.21.38-.36.53-.15.15-.33.27-.53.35-.2.09-.42.13-.65.13s-.45-.04-.66-.12c-.2-.08-.38-.2-.52-.34-.15-.15-.26-.32-.35-.52s-.13-.42-.13-.66ZM41.96,52.24c.14,0,.26-.03.37-.09s.21-.14.29-.25.14-.23.19-.37.07-.29.07-.45c0-.23-.02-.45-.07-.65s-.11-.37-.2-.52-.2-.26-.34-.34c-.14-.08-.29-.12-.47-.12-.12,0-.23.03-.33.08-.11.05-.2.12-.28.22-.08.1-.15.21-.2.35-.05.14-.07.29-.07.47,0,.24.02.47.07.67.05.21.12.38.21.53.09.15.2.26.33.35.13.08.28.12.45.12ZM42.14,48.19c.1.04.18.08.23.15.05.06.08.12.08.18,0,.04-.01.07-.03.1s-.05.05-.1.06c-.07.02-.14.04-.2.06s-.12.04-.17.06c-.06.02-.12.04-.18.07s-.13.06-.21.09c-.03-.02-.05-.04-.06-.06s-.01-.04-.01-.05c0-.03,0-.05.02-.06l.64-.58Z"/>
        <path class="cls-1" d="M46.69,51.37v-1.74c0-.07-.02-.12-.07-.15s-.14-.05-.26-.07c-.04,0-.06-.04-.06-.09v-.04s0-.03,0-.05c.08,0,.16.02.24.02.08,0,.17,0,.27,0s.19,0,.27,0c.08,0,.15,0,.23-.02,0,.02,0,.03,0,.05,0,.02,0,.03,0,.04,0,.06-.02.09-.06.09-.11.02-.18.04-.22.07s-.06.08-.06.14v2.87s-.04,0-.07,0c-.03,0-.05,0-.06,0-.02,0-.05,0-.07-.02-.03-.01-.05-.04-.08-.07l-1.93-2.45v2.12s0,.06,0,.08c0,.02.02.04.04.05.02.02.05.03.09.04.04.01.1.02.16.04.02,0,.03.01.04.02s.02.04.02.07c0,.02,0,.05,0,.08-.08,0-.16-.01-.23-.02-.07,0-.16,0-.25,0s-.19,0-.27,0c-.09,0-.17,0-.24.02,0-.01,0-.03,0-.04v-.04s0-.06.02-.07c.01-.01.03-.02.04-.02.12-.02.2-.04.24-.07s.06-.08.06-.14v-2.48c0-.05-.02-.09-.05-.12-.03-.03-.11-.05-.23-.07-.04,0-.06-.04-.06-.09v-.02s0-.02,0-.03v-.04c.05,0,.09,0,.14,0,.04,0,.08,0,.13,0,.07,0,.14,0,.22,0,.07,0,.13,0,.18,0,.09,0,.16,0,.19.01.03,0,.06.02.08.05l1.63,2.06Z"/>
        <path class="cls-1" d="M50.84,52.49c-.27,0-.51-.04-.72-.13s-.38-.2-.51-.35c-.13-.15-.24-.32-.3-.53-.07-.2-.1-.42-.1-.65,0-.19.03-.39.1-.58s.17-.37.31-.53c.14-.16.32-.29.54-.39s.48-.15.79-.15c.17,0,.32.01.47.04.15.02.3.06.47.1,0,.09.02.2.04.34.02.14.05.27.08.4-.02,0-.04,0-.06.01s-.05,0-.06,0c-.03,0-.05,0-.07-.01s-.03-.03-.04-.05c-.04-.11-.08-.2-.12-.27-.05-.07-.1-.13-.16-.18-.06-.04-.14-.08-.22-.1s-.18-.03-.3-.03c-.18,0-.33.03-.47.09s-.25.15-.34.26c-.09.11-.16.25-.21.41-.05.16-.07.34-.07.54,0,.21.03.41.09.59.06.18.14.34.24.48.1.13.22.24.36.31.14.08.29.11.45.11.13,0,.24-.01.34-.04.09-.02.17-.06.24-.11.07-.05.12-.12.17-.19.05-.08.09-.17.13-.28,0-.03.03-.04.05-.06.02-.01.04-.02.07-.02.02,0,.04,0,.06,0s.04,0,.06.02c-.02.06-.04.12-.06.19-.02.07-.04.14-.07.22-.02.07-.04.15-.06.22-.02.07-.03.15-.05.21-.16.03-.32.05-.49.06-.17.01-.35.02-.55.02Z"/>
        <path class="cls-1" d="M52.6,50.84c0-.23.04-.44.13-.64.09-.2.21-.37.36-.52s.33-.27.53-.36c.2-.09.42-.13.64-.13s.45.04.66.12.38.2.53.34c.15.15.27.32.35.52s.13.42.13.66-.04.44-.13.64c-.09.2-.21.38-.36.53-.15.15-.33.27-.53.35-.2.09-.42.13-.65.13s-.45-.04-.66-.12c-.2-.08-.38-.2-.52-.34-.15-.15-.26-.32-.35-.52s-.13-.42-.13-.66ZM54.33,52.24c.14,0,.26-.03.37-.09s.21-.14.29-.25.14-.23.19-.37.07-.29.07-.45c0-.23-.02-.45-.07-.65s-.11-.37-.2-.52-.2-.26-.34-.34c-.14-.08-.29-.12-.47-.12-.12,0-.23.03-.33.08-.11.05-.2.12-.28.22-.08.1-.15.21-.2.35-.05.14-.07.29-.07.47,0,.24.02.47.07.67.05.21.12.38.21.53.09.15.2.26.33.35.13.08.28.12.45.12Z"/>
        <path class="cls-1" d="M59.58,49.34s.04-.05.06-.07.1-.02.22-.02c.03,0,.06,0,.12,0,.05,0,.11,0,.16,0,.06,0,.12,0,.18,0,.06,0,.11,0,.15,0,0,.02,0,.03,0,.05v.04c0,.05-.02.08-.05.09-.07,0-.12.02-.15.03-.04,0-.07.02-.09.04s-.03.03-.04.05,0,.04,0,.07c0,0,0,.07,0,.19,0,.12.01.26.02.44,0,.17.02.36.03.56,0,.2.02.39.03.58,0,.18.02.34.02.47,0,.13.01.22.01.25,0,.03,0,.06.01.08,0,.02.02.04.04.06s.05.03.09.04c.04.01.09.02.15.03.04,0,.05.04.05.09,0,.02,0,.05,0,.08-.11,0-.22-.01-.31-.02-.09,0-.2,0-.32,0-.11,0-.22,0-.35,0-.12,0-.22,0-.31.02,0-.03,0-.06,0-.08,0-.04,0-.06.02-.07.01-.01.02-.02.03-.02.13-.02.22-.05.26-.08.04-.03.06-.08.06-.14,0,0,0-.06,0-.16s0-.21-.01-.35-.01-.29-.02-.46c0-.16-.02-.32-.02-.46s-.01-.27-.02-.37,0-.17-.01-.19l-1,2.34s-.03.05-.04.07c-.01.01-.03.02-.05.02h-.03s-.02,0-.03,0l-1.14-2.73s0,.13-.01.26c0,.13-.01.28-.02.44,0,.17-.02.34-.03.53,0,.18-.01.36-.02.51s-.01.29-.02.39,0,.16,0,.17c0,.03,0,.05,0,.08,0,.02.02.04.04.06s.05.03.09.04c.04.01.09.02.16.04.04,0,.05.04.05.09,0,0,0,.02,0,.04,0,.01,0,.03,0,.05-.09,0-.17-.01-.25-.02s-.15,0-.23,0c-.07,0-.15,0-.25,0-.1,0-.19,0-.26.02,0-.01,0-.03,0-.04v-.04s0-.06.01-.07.02-.02.04-.02c.1-.02.17-.05.22-.08s.07-.07.08-.13c0-.03,0-.11,0-.24,0-.13.02-.29.03-.47s.02-.38.03-.58.02-.39.03-.57c0-.17.01-.32.02-.44,0-.12,0-.18,0-.19,0-.06-.02-.1-.05-.12s-.11-.05-.24-.07c-.04,0-.05-.03-.05-.09v-.04s0-.03,0-.05c.04,0,.1,0,.18,0,.08,0,.15,0,.23,0,.08,0,.15,0,.22,0,.07,0,.12,0,.15,0,.06,0,.1,0,.14,0,.03,0,.06.01.08.02s.03.02.04.03c0,.01.01.03.02.04l.91,2.2.93-2.2Z"/>
        <path class="cls-1" d="M64.21,51.23c0,.19-.02.36-.06.51s-.11.29-.2.4c-.1.11-.23.2-.39.26-.16.06-.37.09-.61.09-.29,0-.53-.03-.7-.1-.18-.07-.32-.15-.41-.27-.1-.11-.16-.25-.19-.4-.03-.15-.05-.31-.05-.49v-1.63c0-.07-.02-.12-.06-.14-.04-.03-.13-.05-.26-.07-.04,0-.05-.04-.05-.09v-.04s0-.03,0-.05c.09,0,.2.01.3.02.11,0,.23,0,.38,0,.11,0,.23,0,.36,0,.12,0,.24-.01.33-.02,0,.02,0,.03,0,.05,0,.02,0,.03,0,.04,0,.06-.02.09-.05.09-.13.02-.23.04-.27.07-.05.03-.07.08-.07.14v1.52c0,.34.06.6.19.78.12.18.34.26.65.26s.54-.08.67-.25c.13-.17.2-.43.2-.81v-1.51c0-.07-.02-.11-.07-.14-.04-.03-.13-.05-.26-.07-.04,0-.06-.04-.06-.09,0,0,0-.02,0-.04,0-.02,0-.03,0-.05.09,0,.18.02.26.02.08,0,.17,0,.26,0,.11,0,.2,0,.28,0,.08,0,.16,0,.24-.02,0,.02,0,.03,0,.05,0,.02,0,.03,0,.04,0,.05-.02.08-.06.09-.12.01-.21.04-.25.07-.04.03-.07.08-.07.14v1.61Z"/>
        <path class="cls-1" d="M67.76,51.37v-1.74c0-.07-.02-.12-.07-.15s-.14-.05-.26-.07c-.04,0-.06-.04-.06-.09v-.04s0-.03,0-.05c.08,0,.16.02.24.02.08,0,.17,0,.27,0s.19,0,.27,0c.08,0,.15,0,.23-.02,0,.02,0,.03,0,.05,0,.02,0,.03,0,.04,0,.06-.02.09-.06.09-.11.02-.18.04-.22.07s-.06.08-.06.14v2.87s-.04,0-.07,0c-.03,0-.05,0-.06,0-.02,0-.05,0-.07-.02-.03-.01-.05-.04-.08-.07l-1.93-2.45v2.12s0,.06,0,.08c0,.02.02.04.04.05.02.02.05.03.09.04.04.01.1.02.16.04.02,0,.03.01.04.02s.02.04.02.07c0,.02,0,.05,0,.08-.08,0-.16-.01-.23-.02-.07,0-.16,0-.25,0s-.19,0-.27,0c-.09,0-.17,0-.24.02,0-.01,0-.03,0-.04v-.04s0-.06.02-.07c.01-.01.03-.02.04-.02.12-.02.2-.04.24-.07s.06-.08.06-.14v-2.48c0-.05-.02-.09-.05-.12-.03-.03-.11-.05-.23-.07-.04,0-.06-.04-.06-.09v-.02s0-.02,0-.03v-.04c.05,0,.09,0,.14,0,.04,0,.08,0,.13,0,.07,0,.14,0,.22,0,.07,0,.13,0,.18,0,.09,0,.16,0,.19.01.03,0,.06.02.08.05l1.63,2.06Z"/>
        <path class="cls-1" d="M70.61,51.36h-1.03l-.25.68s-.02.03-.02.05c0,.02,0,.04,0,.04,0,.04.02.07.05.09.03.02.1.04.21.06.05,0,.07.04.07.09,0,.02,0,.05,0,.08-.09,0-.18-.01-.28-.02-.1,0-.19,0-.29,0-.07,0-.13,0-.21,0-.07,0-.15,0-.24.02,0-.01,0-.03,0-.04v-.04c0-.06.02-.09.06-.1.1-.02.17-.04.22-.06s.08-.06.11-.12l1.18-2.82c.03-.06.07-.08.12-.08.02,0,.03,0,.05,0s.03,0,.05,0l1.18,2.91s.06.08.11.11c.06.02.12.04.18.05.05,0,.07.04.07.1,0,.03,0,.06,0,.09-.1,0-.21-.01-.31-.02-.1,0-.2,0-.29,0-.05,0-.1,0-.17,0-.07,0-.13,0-.2,0-.07,0-.14,0-.2,0-.07,0-.12,0-.17,0,0-.01,0-.03,0-.04v-.04s0-.05.02-.07c.01-.01.02-.02.04-.03.08-.02.15-.04.19-.06.04-.02.06-.05.06-.1,0-.02,0-.04-.01-.07l-.26-.7ZM70.52,51.11l-.42-1.1-.43,1.1h.84Z"/>
        <path class="cls-1" d="M73.41,52.02c0,.07.04.11.13.14.09.02.23.03.44.03h.19c.08,0,.15,0,.21-.03.06-.02.11-.05.16-.09.05-.04.09-.1.13-.16.04-.07.07-.15.11-.24,0-.03.03-.04.07-.04.02,0,.04,0,.06.01s.05.02.07.03c-.03.1-.05.22-.07.34-.02.12-.04.24-.06.36,0,.04-.01.06-.03.07-.02,0-.04.01-.06.01-.03,0-.06,0-.11,0-.05,0-.1,0-.15,0-.06,0-.11,0-.17,0s-.11,0-.15,0h-1.11c-.09,0-.2,0-.33,0-.12,0-.23,0-.33.02,0-.01,0-.03,0-.05v-.05s.02-.08.05-.08c.12-.02.21-.05.27-.07s.08-.07.08-.14v-2.46s0-.06,0-.08c0-.02-.02-.04-.04-.06-.02-.02-.05-.03-.09-.04-.04-.01-.1-.02-.17-.03-.03,0-.05-.04-.05-.08v-.04s0-.04,0-.05c.1,0,.22.01.33.02.12,0,.22,0,.31,0,.05,0,.1,0,.16,0,.06,0,.12,0,.18,0,.06,0,.13,0,.19,0,.06,0,.12,0,.17,0,0,.02,0,.03,0,.05,0,.02,0,.03,0,.04,0,.05-.02.07-.05.08-.14.02-.23.05-.28.08-.05.03-.07.08-.07.14v2.39Z"/>
        <path class="cls-1" d="M15.06,55.55s.02-.08.02-.1c0-.05-.02-.08-.06-.1-.04-.02-.12-.04-.22-.05-.04,0-.06-.03-.06-.09,0,0,0-.01,0-.02,0,0,0-.02,0-.03v-.04s.07,0,.11,0c.04,0,.09,0,.14,0,.05,0,.1,0,.15,0,.05,0,.1,0,.14,0,.09,0,.19,0,.27,0,.09,0,.16,0,.22-.02v.04s0,.02,0,.03v.02c0,.06-.02.09-.06.1-.11.01-.18.03-.22.05s-.08.07-.11.13l-1.21,2.89s-.03,0-.04,0h-.04s-.04,0-.06-.01c-.01,0-.02-.03-.04-.07l-1.15-2.84s-.02-.04-.03-.06c-.01-.02-.03-.03-.05-.05-.02-.01-.05-.02-.09-.03-.04,0-.09-.02-.15-.02-.04,0-.06-.04-.06-.1v-.04s0-.03,0-.04c.05,0,.1,0,.17,0,.06,0,.12,0,.19,0,.06,0,.13,0,.19,0,.06,0,.11,0,.16,0,.11,0,.23,0,.35,0,.13,0,.24-.01.34-.02,0,.02,0,.03,0,.05v.04c0,.06-.02.09-.06.09-.1,0-.18.03-.22.05-.04.02-.06.05-.06.09,0,.02,0,.05.01.08l.72,1.94.76-1.9Z"/>
        <path class="cls-1" d="M17.27,55.38v1.18h.69c.06,0,.1-.03.13-.08s.04-.13.06-.25c0-.03.01-.04.03-.05.02,0,.04-.01.06-.01,0,0,.03,0,.05,0,.02,0,.04,0,.05,0,0,.08-.01.16-.02.26s0,.18,0,.25c0,.06,0,.13,0,.21s0,.17.02.27c0,0-.03.01-.05.01-.02,0-.04,0-.05,0-.06,0-.09-.02-.09-.07-.02-.12-.04-.21-.07-.25-.03-.04-.07-.07-.12-.07h-.69v1.1c0,.07.04.11.13.14.08.02.23.03.43.03h.21c.1,0,.18-.01.25-.04.07-.03.13-.06.18-.11.05-.05.1-.1.14-.17.04-.06.08-.13.12-.21,0-.02.03-.04.07-.04.02,0,.04,0,.06.01.02,0,.05.02.07.03,0,.03-.01.05-.02.07s-.02.05-.02.07c-.02.04-.03.08-.04.12,0,.04-.02.08-.03.1,0,.03-.01.07-.02.11,0,.04-.02.08-.02.12,0,.04-.02.07-.03.1,0,.03-.01.05-.02.06-.01.03-.04.04-.08.04-.03,0-.06,0-.11,0s-.1,0-.16,0c-.06,0-.12,0-.17,0-.06,0-.11,0-.15,0h-1.11c-.09,0-.2,0-.33,0-.12,0-.23,0-.33.02,0-.01,0-.03,0-.05v-.05s.02-.08.05-.08c.12-.02.21-.05.27-.07s.08-.07.08-.14v-2.46s0-.06-.01-.08c0-.02-.03-.04-.06-.05-.03-.01-.06-.03-.11-.04-.04-.01-.1-.02-.17-.04-.03,0-.05-.04-.05-.09v-.05s0-.03,0-.05c.14,0,.26.02.37.02.11,0,.2,0,.28,0h1c.15,0,.27,0,.38-.01.11,0,.18-.01.22-.01.04,0,.06.01.08.04,0,.03.02.07.02.14,0,.07.02.14.04.22,0,.06.02.11.03.16.01.05.03.12.06.19-.02,0-.03.01-.05.02s-.04,0-.06,0c-.04,0-.06-.01-.08-.04-.04-.08-.08-.16-.12-.22-.04-.06-.08-.11-.13-.15-.05-.04-.1-.06-.17-.08s-.14-.02-.23-.02h-.65Z"/>
        <path class="cls-1" d="M20.7,56.9h-.21v1.02c0,.08.03.13.1.16.06.03.17.06.33.08.05,0,.07.04.07.1,0,.03,0,.06,0,.09-.1,0-.21-.01-.36-.02-.14,0-.3,0-.46,0-.12,0-.23,0-.34,0s-.21,0-.31.02c0-.01,0-.03,0-.04v-.04c0-.06.02-.09.05-.09.07-.01.12-.03.17-.04.04-.01.08-.02.1-.04.02-.01.04-.03.05-.05,0-.02.01-.05.01-.08v-2.46c0-.07-.02-.11-.07-.14-.05-.03-.14-.05-.27-.07-.02,0-.03-.02-.04-.03,0-.01-.01-.04-.01-.07v-.04s0-.03,0-.04c.09,0,.2.01.32.02s.23,0,.32,0h.74c.17,0,.33.02.47.06.14.04.25.1.35.18.1.08.17.17.22.28.05.11.08.23.08.36,0,.17-.05.33-.16.47-.11.14-.25.25-.44.32l.77,1.12c.06.08.13.14.2.18.08.03.15.06.21.07.02,0,.03.01.04.02s.01.03.01.06v.04s0,.03,0,.05c-.04,0-.09,0-.15,0-.07,0-.13,0-.2,0s-.14,0-.21,0c-.07,0-.13,0-.17,0-.07,0-.14-.03-.21-.09-.07-.06-.14-.13-.2-.23l-.76-1.12ZM20.64,56.65c.1,0,.19,0,.27-.03.08-.02.15-.05.21-.1.06-.05.1-.11.13-.19s.05-.18.05-.3c0-.2-.05-.36-.15-.48-.1-.12-.27-.18-.52-.18h-.15v1.28h.15Z"/>
        <path class="cls-1" d="M24.14,55.38v1.18h.69c.06,0,.1-.03.13-.08s.04-.13.06-.25c0-.03.01-.04.03-.05.02,0,.04-.01.06-.01,0,0,.03,0,.05,0,.02,0,.04,0,.05,0,0,.08-.01.16-.02.26s0,.18,0,.25c0,.06,0,.13,0,.21s0,.17.02.27c0,0-.03.01-.05.01-.02,0-.04,0-.05,0-.06,0-.09-.02-.09-.07-.02-.12-.04-.21-.07-.25-.03-.04-.07-.07-.12-.07h-.69v1.1c0,.07.04.11.13.14.08.02.23.03.43.03h.21c.1,0,.18-.01.25-.04.07-.03.13-.06.18-.11.05-.05.1-.1.14-.17.04-.06.08-.13.12-.21,0-.02.03-.04.07-.04.02,0,.04,0,.06.01.02,0,.05.02.07.03,0,.03-.01.05-.02.07s-.02.05-.02.07c-.02.04-.03.08-.04.12,0,.04-.02.08-.03.1,0,.03-.01.07-.02.11,0,.04-.02.08-.02.12,0,.04-.02.07-.03.1,0,.03-.01.05-.02.06-.01.03-.04.04-.08.04-.03,0-.06,0-.11,0s-.1,0-.16,0c-.06,0-.12,0-.17,0-.06,0-.11,0-.15,0h-1.11c-.09,0-.2,0-.33,0-.12,0-.23,0-.33.02,0-.01,0-.03,0-.05v-.05s.02-.08.05-.08c.12-.02.21-.05.27-.07s.08-.07.08-.14v-2.46s0-.06-.01-.08c0-.02-.03-.04-.06-.05-.03-.01-.06-.03-.11-.04-.04-.01-.1-.02-.17-.04-.03,0-.05-.04-.05-.09v-.05s0-.03,0-.05c.14,0,.26.02.37.02.11,0,.2,0,.28,0h1c.15,0,.27,0,.38-.01.11,0,.18-.01.22-.01.04,0,.06.01.08.04,0,.03.02.07.02.14,0,.07.02.14.04.22,0,.06.02.11.03.16.01.05.03.12.06.19-.02,0-.03.01-.05.02s-.04,0-.06,0c-.04,0-.06-.01-.08-.04-.04-.08-.08-.16-.12-.22-.04-.06-.08-.11-.13-.15-.05-.04-.1-.06-.17-.08s-.14-.02-.23-.02h-.65Z"/>
        <path class="cls-1" d="M29.66,56.73c0,.19-.03.38-.1.57-.07.19-.17.36-.3.51-.14.15-.31.27-.52.37-.21.09-.46.14-.76.14h-1c-.08,0-.18,0-.3,0-.11,0-.22,0-.32.02,0-.01,0-.03,0-.04v-.04s0-.06.02-.07c.01-.01.03-.02.04-.02.09-.02.17-.04.23-.07.06-.03.09-.08.09-.15v-2.46c0-.07-.02-.11-.07-.14-.05-.03-.13-.05-.24-.07-.03,0-.04-.02-.05-.03s0-.04,0-.06v-.04s0-.03,0-.05c.07,0,.13.01.18.01.05,0,.1,0,.15,0,.05,0,.09,0,.14,0h1.14c.28,0,.52.04.73.13s.39.2.53.34c.14.14.25.31.32.5.07.19.11.4.11.62ZM28.99,56.82c0-.25-.03-.47-.09-.66-.06-.18-.14-.33-.26-.45-.11-.12-.25-.2-.42-.25-.17-.05-.36-.08-.58-.08h-.3v2.52s0,.06.01.08c0,.02.03.04.06.05.03.01.07.02.12.03.05,0,.12,0,.21,0,.42,0,.74-.11.94-.34s.3-.53.3-.92Z"/>
        <path class="cls-1" d="M31.8,57.24h-1.03l-.25.68s-.02.03-.02.05c0,.02,0,.04,0,.04,0,.04.02.07.05.09.03.02.1.04.21.06.05,0,.07.04.07.09,0,.02,0,.05,0,.08-.09,0-.18-.01-.28-.02-.1,0-.19,0-.29,0-.07,0-.13,0-.21,0-.07,0-.15,0-.24.02,0-.01,0-.03,0-.04v-.04c0-.06.02-.09.06-.1.1-.02.17-.04.22-.06s.08-.06.11-.12l1.18-2.82c.03-.06.07-.08.12-.08.02,0,.03,0,.05,0s.03,0,.05,0l1.18,2.91s.06.08.11.11c.06.02.12.04.18.05.05,0,.07.04.07.1,0,.03,0,.06,0,.09-.1,0-.21-.01-.31-.02-.1,0-.2,0-.29,0-.05,0-.1,0-.17,0-.07,0-.13,0-.2,0-.07,0-.14,0-.2,0-.07,0-.12,0-.17,0,0-.01,0-.03,0-.04v-.04s0-.05.02-.07c.01-.01.02-.02.04-.03.08-.02.15-.04.19-.06.04-.02.06-.05.06-.1,0-.02,0-.04-.01-.07l-.26-.7ZM31.71,57l-.42-1.1-.43,1.1h.84Z"/>
        <path class="cls-1" d="M35.88,57.9c0,.07.04.11.13.14.09.02.23.03.44.03h.19c.08,0,.15,0,.21-.03.06-.02.11-.05.16-.09.05-.04.09-.1.13-.16.04-.07.07-.15.11-.24,0-.03.03-.04.07-.04.02,0,.04,0,.06.01s.05.02.07.03c-.03.1-.05.22-.07.34-.02.12-.04.24-.06.36,0,.04-.01.06-.03.07-.02,0-.04.01-.06.01-.03,0-.06,0-.11,0-.05,0-.1,0-.15,0-.06,0-.11,0-.17,0s-.11,0-.15,0h-1.11c-.09,0-.2,0-.33,0-.12,0-.23,0-.33.02,0-.01,0-.03,0-.05v-.05s.02-.08.05-.08c.12-.02.21-.05.27-.07s.08-.07.08-.14v-2.46s0-.06,0-.08c0-.02-.02-.04-.04-.06-.02-.02-.05-.03-.09-.04-.04-.01-.1-.02-.17-.03-.03,0-.05-.04-.05-.08v-.04s0-.04,0-.05c.1,0,.22.01.33.02.12,0,.22,0,.31,0,.05,0,.1,0,.16,0,.06,0,.12,0,.18,0,.06,0,.13,0,.19,0,.06,0,.12,0,.17,0,0,.02,0,.03,0,.05,0,.02,0,.03,0,.04,0,.05-.02.07-.05.08-.14.02-.23.05-.28.08-.05.03-.07.08-.07.14v2.39Z"/>
        <path class="cls-1" d="M39.74,57.24h-1.03l-.25.68s-.02.03-.02.05c0,.02,0,.04,0,.04,0,.04.02.07.05.09.03.02.1.04.21.06.05,0,.07.04.07.09,0,.02,0,.05,0,.08-.09,0-.18-.01-.28-.02-.1,0-.19,0-.29,0-.07,0-.13,0-.21,0-.07,0-.15,0-.24.02,0-.01,0-.03,0-.04v-.04c0-.06.02-.09.06-.1.1-.02.17-.04.22-.06s.08-.06.11-.12l1.18-2.82c.03-.06.07-.08.12-.08.02,0,.03,0,.05,0s.03,0,.05,0l1.18,2.91s.06.08.11.11c.06.02.12.04.18.05.05,0,.07.04.07.1,0,.03,0,.06,0,.09-.1,0-.21-.01-.31-.02-.1,0-.2,0-.29,0-.05,0-.1,0-.17,0-.07,0-.13,0-.2,0-.07,0-.14,0-.2,0-.07,0-.12,0-.17,0,0-.01,0-.03,0-.04v-.04s0-.05.02-.07c.01-.01.02-.02.04-.03.08-.02.15-.04.19-.06.04-.02.06-.05.06-.1,0-.02,0-.04-.01-.07l-.26-.7ZM39.65,57l-.42-1.1-.43,1.1h.84Z"/>
        <path class="cls-1" d="M44.42,58.38c-.27,0-.51-.04-.72-.13s-.38-.2-.51-.35c-.13-.15-.24-.32-.3-.53-.07-.2-.1-.42-.1-.65,0-.19.03-.39.1-.58s.17-.37.31-.53c.14-.16.32-.29.54-.39s.48-.15.79-.15c.17,0,.32.01.47.04.15.02.3.06.47.1,0,.09.02.2.04.34.02.14.05.27.08.4-.02,0-.04,0-.06.01s-.05,0-.06,0c-.03,0-.05,0-.07-.01s-.03-.03-.04-.05c-.04-.11-.08-.2-.12-.27-.05-.07-.1-.13-.16-.18-.06-.04-.14-.08-.22-.1s-.18-.03-.3-.03c-.18,0-.33.03-.47.09s-.25.15-.34.26c-.09.11-.16.25-.21.41-.05.16-.07.34-.07.54,0,.21.03.41.09.59.06.18.14.34.24.48.1.13.22.24.36.31.14.08.29.11.45.11.13,0,.24-.01.34-.04.09-.02.17-.06.24-.11.07-.05.12-.12.17-.19.05-.08.09-.17.13-.28,0-.03.03-.04.05-.06.02-.01.04-.02.07-.02.02,0,.04,0,.06,0s.04,0,.06.02c-.02.06-.04.12-.06.19-.02.07-.04.14-.07.22-.02.07-.04.15-.06.22-.02.07-.03.15-.05.21-.16.03-.32.05-.49.06-.17.01-.35.02-.55.02Z"/>
        <path class="cls-1" d="M48.12,57.24h-1.03l-.25.68s-.02.03-.02.05c0,.02,0,.04,0,.04,0,.04.02.07.05.09.03.02.1.04.21.06.05,0,.07.04.07.09,0,.02,0,.05,0,.08-.09,0-.18-.01-.28-.02-.1,0-.19,0-.29,0-.07,0-.13,0-.21,0-.07,0-.15,0-.24.02,0-.01,0-.03,0-.04v-.04c0-.06.02-.09.06-.1.1-.02.17-.04.22-.06s.08-.06.11-.12l1.18-2.82c.03-.06.07-.08.12-.08.02,0,.03,0,.05,0s.03,0,.05,0l1.18,2.91s.06.08.11.11c.06.02.12.04.18.05.05,0,.07.04.07.1,0,.03,0,.06,0,.09-.1,0-.21-.01-.31-.02-.1,0-.2,0-.29,0-.05,0-.1,0-.17,0-.07,0-.13,0-.2,0-.07,0-.14,0-.2,0-.07,0-.12,0-.17,0,0-.01,0-.03,0-.04v-.04s0-.05.02-.07c.01-.01.02-.02.04-.03.08-.02.15-.04.19-.06.04-.02.06-.05.06-.1,0-.02,0-.04-.01-.07l-.26-.7ZM48.03,57l-.42-1.1-.43,1.1h.84Z"/>
        <path class="cls-1" d="M50.92,56.98v.94c0,.08.03.13.1.16.06.03.17.06.33.08.05,0,.07.04.07.1,0,.03,0,.06,0,.09-.1,0-.21-.01-.36-.02-.14,0-.3,0-.46,0-.12,0-.23,0-.34,0s-.21,0-.31.02c0-.01,0-.03,0-.04v-.04c0-.06.02-.09.05-.09.07-.01.12-.03.17-.04.04-.01.08-.02.1-.04.02-.01.04-.03.05-.05,0-.02.01-.05.01-.08v-2.46c0-.07-.02-.11-.07-.14-.05-.03-.14-.05-.27-.07-.02,0-.03-.02-.04-.03,0-.01-.01-.04-.01-.07v-.04s0-.03,0-.04c.09,0,.2.01.32.02s.23,0,.32,0h.74c.35,0,.62.08.82.24s.29.38.29.66c0,.13-.02.25-.07.37s-.12.22-.22.3c-.1.09-.21.16-.35.21-.14.05-.29.08-.47.08h-.37ZM51.07,56.74c.2,0,.36-.05.48-.15.12-.1.18-.27.18-.51,0-.22-.05-.39-.14-.51s-.27-.18-.52-.18h-.15v1.36h.15Z"/>
        <path class="cls-1" d="M54,57.96s0,.06,0,.08c0,.02.02.04.04.06s.05.03.09.04c.04.01.1.02.17.03.03,0,.05.03.05.08,0,0,0,.02,0,.04,0,.02,0,.04,0,.05-.1,0-.22-.01-.34-.02-.12,0-.22,0-.32,0s-.2,0-.32,0c-.12,0-.23,0-.33.02,0-.01,0-.03,0-.05v-.04c0-.05.02-.08.05-.08.07,0,.12-.02.16-.03.04-.01.07-.03.09-.04s.03-.04.04-.06c0-.02,0-.05,0-.08v-2.46s0-.06,0-.08c0-.02-.02-.04-.04-.06s-.05-.03-.09-.04-.1-.02-.16-.03c-.03,0-.05-.04-.05-.08v-.04s0-.04,0-.05c.1,0,.22.01.33.02.12,0,.22,0,.32,0s.2,0,.32,0c.12,0,.23-.01.34-.02,0,.02,0,.03,0,.05,0,.02,0,.03,0,.04,0,.05-.02.07-.05.08-.07,0-.12.02-.17.03s-.07.03-.09.04-.03.04-.04.06c0,.02,0,.05,0,.08v2.46Z"/>
        <path class="cls-1" d="M56.01,57.9c0,.07.04.11.13.14.09.02.23.03.44.03h.19c.08,0,.15,0,.21-.03.06-.02.11-.05.16-.09.05-.04.09-.1.13-.16.04-.07.07-.15.11-.24,0-.03.03-.04.07-.04.02,0,.04,0,.06.01s.05.02.07.03c-.03.1-.05.22-.07.34-.02.12-.04.24-.06.36,0,.04-.01.06-.03.07-.02,0-.04.01-.06.01-.03,0-.06,0-.11,0-.05,0-.1,0-.15,0-.06,0-.11,0-.17,0s-.11,0-.15,0h-1.11c-.09,0-.2,0-.33,0-.12,0-.23,0-.33.02,0-.01,0-.03,0-.05v-.05s.02-.08.05-.08c.12-.02.21-.05.27-.07s.08-.07.08-.14v-2.46s0-.06,0-.08c0-.02-.02-.04-.04-.06-.02-.02-.05-.03-.09-.04-.04-.01-.1-.02-.17-.03-.03,0-.05-.04-.05-.08v-.04s0-.04,0-.05c.1,0,.22.01.33.02.12,0,.22,0,.31,0,.05,0,.1,0,.16,0,.06,0,.12,0,.18,0,.06,0,.13,0,.19,0,.06,0,.12,0,.17,0,0,.02,0,.03,0,.05,0,.02,0,.03,0,.04,0,.05-.02.07-.05.08-.14.02-.23.05-.28.08-.05.03-.07.08-.07.14v2.39Z"/>
        <path class="cls-1" d="M59.05,57.9c0,.07.04.11.13.14.09.02.23.03.44.03h.19c.08,0,.15,0,.21-.03.06-.02.11-.05.16-.09.05-.04.09-.1.13-.16.04-.07.07-.15.11-.24,0-.03.03-.04.07-.04.02,0,.04,0,.06.01s.05.02.07.03c-.03.1-.05.22-.07.34-.02.12-.04.24-.06.36,0,.04-.01.06-.03.07-.02,0-.04.01-.06.01-.03,0-.06,0-.11,0-.05,0-.1,0-.15,0-.06,0-.11,0-.17,0s-.11,0-.15,0h-1.11c-.09,0-.2,0-.33,0-.12,0-.23,0-.33.02,0-.01,0-.03,0-.05v-.05s.02-.08.05-.08c.12-.02.21-.05.27-.07s.08-.07.08-.14v-2.46s0-.06,0-.08c0-.02-.02-.04-.04-.06-.02-.02-.05-.03-.09-.04-.04-.01-.1-.02-.17-.03-.03,0-.05-.04-.05-.08v-.04s0-.04,0-.05c.1,0,.22.01.33.02.12,0,.22,0,.31,0,.05,0,.1,0,.16,0,.06,0,.12,0,.18,0,.06,0,.13,0,.19,0,.06,0,.12,0,.17,0,0,.02,0,.03,0,.05,0,.02,0,.03,0,.04,0,.05-.02.07-.05.08-.14.02-.23.05-.28.08-.05.03-.07.08-.07.14v2.39Z"/>
        <path class="cls-1" d="M62.91,57.24h-1.03l-.25.68s-.02.03-.02.05c0,.02,0,.04,0,.04,0,.04.02.07.05.09.03.02.1.04.21.06.05,0,.07.04.07.09,0,.02,0,.05,0,.08-.09,0-.18-.01-.28-.02-.1,0-.19,0-.29,0-.07,0-.13,0-.21,0-.07,0-.15,0-.24.02,0-.01,0-.03,0-.04v-.04c0-.06.02-.09.06-.1.1-.02.17-.04.22-.06s.08-.06.11-.12l1.18-2.82c.03-.06.07-.08.12-.08.02,0,.03,0,.05,0s.03,0,.05,0l1.18,2.91s.06.08.11.11c.06.02.12.04.18.05.05,0,.07.04.07.1,0,.03,0,.06,0,.09-.1,0-.21-.01-.31-.02-.1,0-.2,0-.29,0-.05,0-.1,0-.17,0-.07,0-.13,0-.2,0-.07,0-.14,0-.2,0-.07,0-.12,0-.17,0,0-.01,0-.03,0-.04v-.04s0-.05.02-.07c.01-.01.02-.02.04-.03.08-.02.15-.04.19-.06.04-.02.06-.05.06-.1,0-.02,0-.04-.01-.07l-.26-.7ZM62.82,57l-.42-1.1-.43,1.1h.84Z"/>
        <path class="cls-1" d="M11.6,62.61c0,.19-.03.38-.1.57-.07.19-.17.36-.3.51-.14.15-.31.27-.52.37-.21.09-.46.14-.76.14h-1c-.08,0-.18,0-.3,0-.11,0-.22,0-.32.02,0-.01,0-.03,0-.04v-.04s0-.06.02-.07c.01-.01.03-.02.04-.02.09-.02.17-.04.23-.07.06-.03.09-.08.09-.15v-2.46c0-.07-.02-.11-.07-.14-.05-.03-.13-.05-.24-.07-.03,0-.04-.02-.05-.03s0-.04,0-.06v-.04s0-.03,0-.05c.07,0,.13.01.18.01.05,0,.1,0,.15,0,.05,0,.09,0,.14,0h1.14c.28,0,.52.04.73.13s.39.2.53.34c.14.14.25.31.32.5.07.19.11.4.11.62ZM10.92,62.71c0-.25-.03-.47-.09-.66-.06-.18-.14-.33-.26-.45-.11-.12-.25-.2-.42-.25-.17-.05-.36-.08-.58-.08h-.3v2.52s0,.06.01.08c0,.02.03.04.06.05.03.01.07.02.12.03.05,0,.12,0,.21,0,.42,0,.74-.11.94-.34s.3-.53.3-.92Z"/>
        <path class="cls-1" d="M13.99,61.26v1.18h.69c.06,0,.1-.03.13-.08s.04-.13.06-.25c0-.03.01-.04.03-.05.02,0,.04-.01.06-.01,0,0,.03,0,.05,0,.02,0,.04,0,.05,0,0,.08-.01.16-.02.26s0,.18,0,.25c0,.06,0,.13,0,.21s0,.17.02.27c0,0-.03.01-.05.01-.02,0-.04,0-.05,0-.06,0-.09-.02-.09-.07-.02-.12-.04-.21-.07-.25-.03-.04-.07-.07-.12-.07h-.69v1.1c0,.07.04.11.13.14.08.02.23.03.43.03h.21c.1,0,.18-.01.25-.04.07-.03.13-.06.18-.11.05-.05.1-.1.14-.17.04-.06.08-.13.12-.21,0-.02.03-.04.07-.04.02,0,.04,0,.06.01.02,0,.05.02.07.03,0,.03-.01.05-.02.07s-.02.05-.02.07c-.02.04-.03.08-.04.12,0,.04-.02.08-.03.1,0,.03-.01.07-.02.11,0,.04-.02.08-.02.12,0,.04-.02.07-.03.1,0,.03-.01.05-.02.06-.01.03-.04.04-.08.04-.03,0-.06,0-.11,0s-.1,0-.16,0c-.06,0-.12,0-.17,0-.06,0-.11,0-.15,0h-1.11c-.09,0-.2,0-.33,0-.12,0-.23,0-.33.02,0-.01,0-.03,0-.05v-.05s.02-.08.05-.08c.12-.02.21-.05.27-.07s.08-.07.08-.14v-2.46s0-.06-.01-.08c0-.02-.03-.04-.06-.05-.03-.01-.06-.03-.11-.04-.04-.01-.1-.02-.17-.04-.03,0-.05-.04-.05-.09v-.05s0-.03,0-.05c.14,0,.26.02.37.02.11,0,.2,0,.28,0h1c.15,0,.27,0,.38-.01.11,0,.18-.01.22-.01.04,0,.06.01.08.04,0,.03.02.07.02.14,0,.07.02.14.04.22,0,.06.02.11.03.16.01.05.03.12.06.19-.02,0-.03.01-.05.02s-.04,0-.06,0c-.04,0-.06-.01-.08-.04-.04-.08-.08-.16-.12-.22-.04-.06-.08-.11-.13-.15-.05-.04-.1-.06-.17-.08s-.14-.02-.23-.02h-.65Z"/>
        <path class="cls-1" d="M21.04,61.81s-.06.01-.09.01c-.05,0-.08,0-.1-.03-.02-.02-.03-.04-.04-.06-.08-.19-.17-.32-.29-.4-.12-.08-.28-.12-.48-.12-.16,0-.29.04-.4.12-.11.08-.17.19-.17.35,0,.12.04.22.12.29.08.07.19.14.31.19s.26.11.41.16c.14.05.28.12.41.2.13.08.23.18.31.3.08.12.12.28.12.47,0,.12-.02.25-.06.36-.04.12-.11.22-.2.31-.09.09-.21.16-.35.22-.14.05-.31.08-.5.08-.22,0-.41-.02-.58-.07-.17-.05-.31-.1-.42-.15,0-.14-.03-.28-.05-.41-.02-.14-.04-.27-.07-.39.03-.01.07-.02.11-.02s.07,0,.09.02.04.04.05.08c.04.12.09.23.14.32.05.09.11.16.18.22.07.06.15.1.24.12s.19.04.31.04c.1,0,.19-.01.26-.04.07-.03.13-.06.18-.11s.08-.1.1-.16c.02-.06.03-.13.03-.19,0-.14-.04-.25-.12-.33-.08-.08-.18-.15-.3-.2-.12-.05-.25-.1-.39-.15-.14-.05-.27-.11-.39-.18-.12-.07-.22-.17-.3-.28s-.12-.27-.12-.47c0-.13.02-.25.07-.37.05-.11.12-.21.21-.29.09-.08.2-.15.33-.2.13-.05.28-.07.44-.07.14,0,.28.02.41.04.14.03.3.08.47.15,0,.1.02.21.03.33.01.12.03.23.05.33Z"/>
        <path class="cls-1" d="M24.21,63.13h-1.03l-.25.68s-.02.03-.02.05c0,.02,0,.04,0,.04,0,.04.02.07.05.09.03.02.1.04.21.06.05,0,.07.04.07.09,0,.02,0,.05,0,.08-.09,0-.18-.01-.28-.02-.1,0-.19,0-.29,0-.07,0-.13,0-.21,0-.07,0-.15,0-.24.02,0-.01,0-.03,0-.04v-.04c0-.06.02-.09.06-.1.1-.02.17-.04.22-.06s.08-.06.11-.12l1.18-2.82c.03-.06.07-.08.12-.08.02,0,.03,0,.05,0s.03,0,.05,0l1.18,2.91s.06.08.11.11c.06.02.12.04.18.05.05,0,.07.04.07.1,0,.03,0,.06,0,.09-.1,0-.21-.01-.31-.02-.1,0-.2,0-.29,0-.05,0-.1,0-.17,0-.07,0-.13,0-.2,0-.07,0-.14,0-.2,0-.07,0-.12,0-.17,0,0-.01,0-.03,0-.04v-.04s0-.05.02-.07c.01-.01.02-.02.04-.03.08-.02.15-.04.19-.06.04-.02.06-.05.06-.1,0-.02,0-.04-.01-.07l-.26-.7ZM24.12,62.88l-.42-1.1-.43,1.1h.84Z"/>
        <path class="cls-1" d="M29.3,63.14v-1.74c0-.07-.02-.12-.07-.15s-.14-.05-.26-.07c-.04,0-.06-.04-.06-.09v-.04s0-.03,0-.05c.08,0,.16.02.24.02.08,0,.17,0,.27,0s.19,0,.27,0c.08,0,.15,0,.23-.02,0,.02,0,.03,0,.05,0,.02,0,.03,0,.04,0,.06-.02.09-.06.09-.11.02-.18.04-.22.07s-.06.08-.06.14v2.87s-.04,0-.07,0c-.03,0-.05,0-.06,0-.02,0-.05,0-.07-.02-.03-.01-.05-.04-.08-.07l-1.93-2.45v2.12s0,.06,0,.08c0,.02.02.04.04.05.02.02.05.03.09.04.04.01.1.02.16.04.02,0,.03.01.04.02s.02.04.02.07c0,.02,0,.05,0,.08-.08,0-.16-.01-.23-.02-.07,0-.16,0-.25,0s-.19,0-.27,0c-.09,0-.17,0-.24.02,0-.01,0-.03,0-.04v-.04s0-.06.02-.07c.01-.01.03-.02.04-.02.12-.02.2-.04.24-.07s.06-.08.06-.14v-2.48c0-.05-.02-.09-.05-.12-.03-.03-.11-.05-.23-.07-.04,0-.06-.04-.06-.09v-.02s0-.02,0-.03v-.04c.05,0,.09,0,.14,0,.04,0,.08,0,.13,0,.07,0,.14,0,.22,0,.07,0,.13,0,.18,0,.09,0,.16,0,.19.01.03,0,.06.02.08.05l1.63,2.06Z"/>
        <path class="cls-1" d="M33.04,61.26v2.58s0,.06,0,.08c0,.02.02.04.04.06s.05.03.08.04c.04.01.09.02.15.03.05,0,.07.04.07.08,0,0,0,.02,0,.04,0,.02,0,.04,0,.05-.1,0-.22-.01-.34-.02s-.22,0-.32,0-.2,0-.32,0c-.12,0-.23,0-.33.02,0-.01-.01-.03-.01-.05,0-.02,0-.03,0-.04,0-.02,0-.04.01-.06,0-.01.03-.03.07-.03.12-.02.2-.04.23-.07.03-.03.05-.08.05-.14v-2.58h-.43c-.09,0-.17,0-.23.03-.06.02-.12.05-.17.08-.05.04-.09.09-.13.15-.04.06-.08.13-.12.22-.01.03-.04.04-.07.04-.02,0-.04,0-.07-.01-.03,0-.04-.02-.06-.02.02-.08.04-.15.06-.21.02-.06.03-.12.04-.18.01-.08.02-.14.03-.2,0-.06.01-.1.02-.13.01-.03.04-.04.08-.04.04,0,.11,0,.21.01.11,0,.23.01.38.01h1.51c.15,0,.27,0,.38-.01s.18-.01.22-.01c.04,0,.06.01.08.04,0,.03.02.07.02.13,0,.06.02.13.03.2,0,.06.02.12.04.18s.04.13.06.21c-.02,0-.04.01-.06.02-.03,0-.05.01-.07.01-.04,0-.06-.01-.08-.04-.04-.08-.08-.16-.12-.22-.04-.06-.08-.11-.13-.15-.05-.04-.1-.07-.17-.08-.06-.02-.14-.03-.23-.03h-.43Z"/>
        <path class="cls-1" d="M36.84,63.13h-1.03l-.25.68s-.02.03-.02.05c0,.02,0,.04,0,.04,0,.04.02.07.05.09.03.02.1.04.21.06.05,0,.07.04.07.09,0,.02,0,.05,0,.08-.09,0-.18-.01-.28-.02-.1,0-.19,0-.29,0-.07,0-.13,0-.21,0-.07,0-.15,0-.24.02,0-.01,0-.03,0-.04v-.04c0-.06.02-.09.06-.1.1-.02.17-.04.22-.06s.08-.06.11-.12l1.18-2.82c.03-.06.07-.08.12-.08.02,0,.03,0,.05,0s.03,0,.05,0l1.18,2.91s.06.08.11.11c.06.02.12.04.18.05.05,0,.07.04.07.1,0,.03,0,.06,0,.09-.1,0-.21-.01-.31-.02-.1,0-.2,0-.29,0-.05,0-.1,0-.17,0-.07,0-.13,0-.2,0-.07,0-.14,0-.2,0-.07,0-.12,0-.17,0,0-.01,0-.03,0-.04v-.04s0-.05.02-.07c.01-.01.02-.02.04-.03.08-.02.15-.04.19-.06.04-.02.06-.05.06-.1,0-.02,0-.04-.01-.07l-.26-.7ZM36.75,62.88l-.42-1.1-.43,1.1h.84Z"/>
        <path class="cls-1" d="M43.11,62.5c.14.01.26.04.38.08s.22.09.3.16.15.15.2.24c.05.09.07.19.07.3,0,.15-.03.28-.09.4s-.14.21-.24.29c-.1.08-.23.14-.38.17-.15.04-.31.06-.49.06h-.85c-.06,0-.12,0-.2,0-.07,0-.14,0-.21.01-.04,0-.08,0-.12,0-.04,0-.08,0-.11,0v-.03s0-.02,0-.03v-.02s0-.06.02-.07c.01-.01.03-.02.04-.02.11-.02.2-.04.24-.07.05-.03.07-.08.07-.14v-2.46c0-.07-.02-.11-.06-.14-.04-.03-.13-.05-.25-.07-.03,0-.04-.02-.05-.04,0-.02,0-.04,0-.07v-.02s0-.01,0-.02c0-.01,0-.02,0-.03.1,0,.21.01.33.02.12,0,.22,0,.3,0h.68c.21,0,.38.02.52.06.14.04.25.1.33.17.08.07.14.15.17.25.03.09.05.19.05.29,0,.19-.06.34-.19.45-.12.11-.28.2-.47.25h0ZM42.44,62.41c.13,0,.23-.02.32-.05.08-.03.15-.08.2-.13.05-.06.09-.12.11-.19.02-.07.03-.15.03-.23s-.01-.15-.04-.21c-.02-.07-.06-.12-.12-.17-.05-.05-.12-.09-.21-.12-.08-.03-.19-.04-.3-.04h-.08v1.15h.08ZM42.36,63.79c0,.08.04.12.11.14.07.02.15.03.24.03.23,0,.39-.05.5-.14s.17-.25.17-.47c0-.12-.02-.22-.06-.31-.04-.09-.1-.16-.16-.22-.07-.06-.15-.1-.24-.13-.09-.03-.19-.04-.29-.04h-.26v1.14Z"/>
        <path class="cls-1" d="M47.03,63.13h-1.03l-.25.68s-.02.03-.02.05c0,.02,0,.04,0,.04,0,.04.02.07.05.09.03.02.1.04.21.06.05,0,.07.04.07.09,0,.02,0,.05,0,.08-.09,0-.18-.01-.28-.02-.1,0-.19,0-.29,0-.07,0-.13,0-.21,0-.07,0-.15,0-.24.02,0-.01,0-.03,0-.04v-.04c0-.06.02-.09.06-.1.1-.02.17-.04.22-.06s.08-.06.11-.12l1.18-2.82c.03-.06.07-.08.12-.08.02,0,.03,0,.05,0s.03,0,.05,0l1.18,2.91s.06.08.11.11c.06.02.12.04.18.05.05,0,.07.04.07.1,0,.03,0,.06,0,.09-.1,0-.21-.01-.31-.02-.1,0-.2,0-.29,0-.05,0-.1,0-.17,0-.07,0-.13,0-.2,0-.07,0-.14,0-.2,0-.07,0-.12,0-.17,0,0-.01,0-.03,0-.04v-.04s0-.05.02-.07c.01-.01.02-.02.04-.03.08-.02.15-.04.19-.06.04-.02.06-.05.06-.1,0-.02,0-.04-.01-.07l-.26-.7ZM46.94,62.88l-.42-1.1-.43,1.1h.84ZM47.01,59.96c.1.04.18.08.23.15.05.06.08.12.08.18,0,.04-.01.07-.03.1-.02.03-.05.05-.1.06-.07.02-.14.04-.2.06s-.12.04-.17.06c-.06.02-.12.04-.18.07s-.13.06-.21.09c-.03-.02-.05-.04-.06-.06s-.01-.04-.01-.05c0-.03,0-.05.02-.06l.64-.58Z"/>
        <path class="cls-1" d="M50.78,62.78h-.21v1.02c0,.08.03.13.1.16.06.03.17.06.33.08.05,0,.07.04.07.1,0,.03,0,.06,0,.09-.1,0-.21-.01-.36-.02-.14,0-.3,0-.46,0-.12,0-.23,0-.34,0s-.21,0-.31.02c0-.01,0-.03,0-.04v-.04c0-.06.02-.09.05-.09.07-.01.12-.03.17-.04.04-.01.08-.02.1-.04.02-.01.04-.03.05-.05,0-.02.01-.05.01-.08v-2.46c0-.07-.02-.11-.07-.14-.05-.03-.14-.05-.27-.07-.02,0-.03-.02-.04-.03,0-.01-.01-.04-.01-.07v-.04s0-.03,0-.04c.09,0,.2.01.32.02s.23,0,.32,0h.74c.17,0,.33.02.47.06.14.04.25.1.35.18.1.08.17.17.22.28.05.11.08.23.08.36,0,.17-.05.33-.16.47-.11.14-.25.25-.44.32l.77,1.12c.06.08.13.14.2.18.08.03.15.06.21.07.02,0,.03.01.04.02s.01.03.01.06v.04s0,.03,0,.05c-.04,0-.09,0-.15,0-.07,0-.13,0-.2,0s-.14,0-.21,0c-.07,0-.13,0-.17,0-.07,0-.14-.03-.21-.09-.07-.06-.14-.13-.2-.23l-.76-1.12ZM50.71,62.54c.1,0,.19,0,.27-.03.08-.02.15-.05.21-.1.06-.05.1-.11.13-.19s.05-.18.05-.3c0-.2-.05-.36-.15-.48-.1-.12-.27-.18-.52-.18h-.15v1.28h.15Z"/>
        <path class="cls-1" d="M55.67,62.5c.14.01.26.04.38.08s.22.09.3.16.15.15.2.24c.05.09.07.19.07.3,0,.15-.03.28-.09.4s-.14.21-.24.29c-.1.08-.23.14-.38.17-.15.04-.31.06-.49.06h-.85c-.06,0-.12,0-.2,0-.07,0-.14,0-.21.01-.04,0-.08,0-.12,0-.04,0-.08,0-.11,0v-.03s0-.02,0-.03v-.02s0-.06.02-.07c.01-.01.03-.02.04-.02.11-.02.2-.04.24-.07.05-.03.07-.08.07-.14v-2.46c0-.07-.02-.11-.06-.14-.04-.03-.13-.05-.25-.07-.03,0-.04-.02-.05-.04,0-.02,0-.04,0-.07v-.02s0-.01,0-.02c0-.01,0-.02,0-.03.1,0,.21.01.33.02.12,0,.22,0,.3,0h.68c.21,0,.38.02.52.06.14.04.25.1.33.17.08.07.14.15.17.25.03.09.05.19.05.29,0,.19-.06.34-.19.45-.12.11-.28.2-.47.25h0ZM55,62.41c.13,0,.23-.02.32-.05.08-.03.15-.08.2-.13.05-.06.09-.12.11-.19.02-.07.03-.15.03-.23s-.01-.15-.04-.21c-.02-.07-.06-.12-.12-.17-.05-.05-.12-.09-.21-.12-.08-.03-.19-.04-.3-.04h-.08v1.15h.08ZM54.92,63.79c0,.08.04.12.11.14.07.02.15.03.24.03.23,0,.39-.05.5-.14s.17-.25.17-.47c0-.12-.02-.22-.06-.31-.04-.09-.1-.16-.16-.22-.07-.06-.15-.1-.24-.13-.09-.03-.19-.04-.29-.04h-.26v1.14Z"/>
        <path class="cls-1" d="M59.59,63.13h-1.03l-.25.68s-.02.03-.02.05c0,.02,0,.04,0,.04,0,.04.02.07.05.09.03.02.1.04.21.06.05,0,.07.04.07.09,0,.02,0,.05,0,.08-.09,0-.18-.01-.28-.02-.1,0-.19,0-.29,0-.07,0-.13,0-.21,0-.07,0-.15,0-.24.02,0-.01,0-.03,0-.04v-.04c0-.06.02-.09.06-.1.1-.02.17-.04.22-.06s.08-.06.11-.12l1.18-2.82c.03-.06.07-.08.12-.08.02,0,.03,0,.05,0s.03,0,.05,0l1.18,2.91s.06.08.11.11c.06.02.12.04.18.05.05,0,.07.04.07.1,0,.03,0,.06,0,.09-.1,0-.21-.01-.31-.02-.1,0-.2,0-.29,0-.05,0-.1,0-.17,0-.07,0-.13,0-.2,0-.07,0-.14,0-.2,0-.07,0-.12,0-.17,0,0-.01,0-.03,0-.04v-.04s0-.05.02-.07c.01-.01.02-.02.04-.03.08-.02.15-.04.19-.06.04-.02.06-.05.06-.1,0-.02,0-.04-.01-.07l-.26-.7ZM59.5,62.88l-.42-1.1-.43,1.1h.84Z"/>
        <path class="cls-1" d="M63.34,62.78h-.21v1.02c0,.08.03.13.1.16.06.03.17.06.33.08.05,0,.07.04.07.1,0,.03,0,.06,0,.09-.1,0-.21-.01-.36-.02-.14,0-.3,0-.46,0-.12,0-.23,0-.34,0s-.21,0-.31.02c0-.01,0-.03,0-.04v-.04c0-.06.02-.09.05-.09.07-.01.12-.03.17-.04.04-.01.08-.02.1-.04.02-.01.04-.03.05-.05,0-.02.01-.05.01-.08v-2.46c0-.07-.02-.11-.07-.14-.05-.03-.14-.05-.27-.07-.02,0-.03-.02-.04-.03,0-.01-.01-.04-.01-.07v-.04s0-.03,0-.04c.09,0,.2.01.32.02s.23,0,.32,0h.74c.17,0,.33.02.47.06.14.04.25.1.35.18.1.08.17.17.22.28.05.11.08.23.08.36,0,.17-.05.33-.16.47-.11.14-.25.25-.44.32l.77,1.12c.06.08.13.14.2.18.08.03.15.06.21.07.02,0,.03.01.04.02s.01.03.01.06v.04s0,.03,0,.05c-.04,0-.09,0-.15,0-.07,0-.13,0-.2,0s-.14,0-.21,0c-.07,0-.13,0-.17,0-.07,0-.14-.03-.21-.09-.07-.06-.14-.13-.2-.23l-.76-1.12ZM63.27,62.54c.1,0,.19,0,.27-.03.08-.02.15-.05.21-.1.06-.05.1-.11.13-.19s.05-.18.05-.3c0-.2-.05-.36-.15-.48-.1-.12-.27-.18-.52-.18h-.15v1.28h.15Z"/>
        <path class="cls-1" d="M68.33,63.13h-1.03l-.25.68s-.02.03-.02.05c0,.02,0,.04,0,.04,0,.04.02.07.05.09.03.02.1.04.21.06.05,0,.07.04.07.09,0,.02,0,.05,0,.08-.09,0-.18-.01-.28-.02-.1,0-.19,0-.29,0-.07,0-.13,0-.21,0-.07,0-.15,0-.24.02,0-.01,0-.03,0-.04v-.04c0-.06.02-.09.06-.1.1-.02.17-.04.22-.06s.08-.06.11-.12l1.18-2.82c.03-.06.07-.08.12-.08.02,0,.03,0,.05,0s.03,0,.05,0l1.18,2.91s.06.08.11.11c.06.02.12.04.18.05.05,0,.07.04.07.1,0,.03,0,.06,0,.09-.1,0-.21-.01-.31-.02-.1,0-.2,0-.29,0-.05,0-.1,0-.17,0-.07,0-.13,0-.2,0-.07,0-.14,0-.2,0-.07,0-.12,0-.17,0,0-.01,0-.03,0-.04v-.04s0-.05.02-.07c.01-.01.02-.02.04-.03.08-.02.15-.04.19-.06.04-.02.06-.05.06-.1,0-.02,0-.04-.01-.07l-.26-.7ZM68.24,62.88l-.42-1.1-.43,1.1h.84Z"/>
      </g>
      <rect class="cls-1" x="35.12" y="9.72" width="5.46" height="8.11" rx=".37" ry=".37"/>
      <path class="cls-1" d="M25.85,46.74v-17.53c-.18.18-.6-.09-.51-.34l-1.24-1.24c.08-.09.17-.17.25-.26l-.03-2.76h26.55v2.22l-1.64,1.64v12.07c0,.39.07,6.17-.07,6.17h-4.17c-.22,0-.45.02-.67,0-.25-.03-.25,0-.28-.26-.08-.6,0-1.27,0-1.87,0-1.12,0-2.24,0-3.37,0-1.21.12-2.49.05-3.7-.07-1.23-.47-2.48-.73-3.69-.08-.36-.16-.73-.32-1.07-.79-1.69-2.44-2.94-4.26-3.29-2.44-.48-4.48.77-6.02,2.53-.26.3-.52.6-.72.94-.78,1.35-.63,3.17-.75,4.68-.1,1.26-.03,2.55-.02,3.82,0,.33.01,5.31.02,5.31h-5.45Z"/>
      <path class="cls-1" d="M19.12,39.76c0-.76.34-1.47.73-2.12s.83-1.28,1.07-2c.05-.16.17-.38.34-.32.11.93-.37,1.82-.82,2.63-.38.67-.75,1.35-1.13,2.02-.04.07-.08.14-.15.16-.13.04-.24-.09-.31-.2-.44-.7-.89-1.39-1.33-2.09-.47-.74-.96-1.56-.87-2.44,1,1.18,1.86,2.48,2.55,3.86.12-.3.23-.6.33-.9"/>
      <path class="cls-1" d="M31.56,46.7h1.02c3.63,0,7.32-.18,10.93,0,.08-.69.07-1.41.07-2.1,0-1.1,0-2.2,0-3.3,0-1.48-.06-2.76-.26-4.22-.2-1.48-.52-4.39-1.84-5.26-1.37-.89-3.45-.65-4.85,0-1.73.79-3.07,2.25-4.14,3.82-1.2,1.76-.92,3.84-.91,5.88,0,.49.03,5.18-.02,5.18Z"/>
    </g>
  </g>
</svg>