<?xml version="1.0" encoding="UTF-8"?>
<svg id="Layer_2" data-name="Layer 2" xmlns="http://www.w3.org/2000/svg" viewBox="0 0 128.2 79.86">
  <defs>
    <style>
      .cls-1 {
        fill: #fff;
      }
    </style>
  </defs>
  <g id="Layer_2-2" data-name="Layer 2">
    <g>
      <path class="cls-1" d="M24.76,4.62v.02s.01.07.01.07c-.05.56-.2,1.11-.33,1.65-.22,1.04-.4,2.09-.55,3.14-.22,1.49.44,2.96.89,4.35l.03.06.08.02c.37,0,.63.2.98.27.41.07.8-.35,1.1-.58.44-.33.87-.67,1.21-1.1.62-1.4.27-2.91.42-4.32.45-.79,1.18-1.24,1.9-1.77.53-1.66-.09-3.46.53-5-.35-.65-.82-.75-1.34-.8-1.04-.1-2.07-.22-3.11-.33-.54-.06-1.09-.11-1.63-.16-.28-.02-1.13-.31-1.31.02-.04.08-.05.18-.05.27,0,.92-.01,1.84-.02,2.76,0,.39.13.6.4.88.12.12.24.24.37.34.07.05.14.09.22.13.06.03.16.03.2.1"/>
      <path class="cls-1" d="M1.98,33.79c1.94-.55,3.92.29,5.69-.64v-5.77c-.31-.66-1.11-.28-1.2-.95.43-.32.95-.42,1.46-.48.16-1.78.02-3.38-1.23-4.77-1.56.46-3.14.38-4.59.96.05,1.45-.14,2.79.13,4.12.94.01,1.82-.01,2.55.54-.05.36-.23.52-.5.61-.83-.39-1.63-.38-2.52.28.32,2.01-.36,4.04.21,6.09"/>
      <path class="cls-1" d="M54.29,72.46c-.16-.96-.06-1.95-.08-2.93-.02-.88-.79-.8-1.46-.91-.58-.1-1.16-.18-1.74-.25-.24-.03-3.31-.29-3.31-.12v2.72c-.06,0-.12,0-.17-.02-.53-.05-3.22.05-3.22.05-1.25,0-6.17.06-7.43.07h.05c-1.91.02-5.83.01-7.8.08-.31-.05-1.13.04-2.11.06-1.13.04-5.45,0-6.45-.05-.54.07-6.53,0-6.98-.02.06.08-3.11.19-3.39.19-.36,0-.82-.04-1.31-.05-.1-1.04-.54-1.74-1.55-2.4-.27-.12-.96-.26-1.31-.08-1.01.52-2.08.45-3.15.47-1.25.94-1.31,2.1-.98,3.33.08.31.12.61.12.92,0,1.33.03,2.66,0,3.98-.03.84.17,1.58.66,2.3.34.03,1.85-.05,2.04-.03.3,0,.02.07.37.07.91.02,1.81,0,2.72,0,1.91-.01,3.82-.03,5.73-.04,2.5-.02,5.01-.04,7.51-.06,2.69-.02,5.37-.05,8.06-.07,2.46-.02,4.92-.04,7.38-.06,2.03-.02,4.1-.13,6.12-.05,2.12.09,4.25.05,6.36-.12.73-.06,1.46-.13,2.18-.23.66-.1,1.14-.33,1.72-.61.64-.3,1.28-.6,1.78-1.12.08-.08-.07-1.13-.07-1.31.02-.58.15-1.17.09-1.75-.06-.64-.29-1.25-.4-1.88v-.08ZM15.07,73.2c.13.02.17.05.21.06-.08-.04,12.23-.05,13.2-.04.56,0,4.39-.08,4.77-.12h-.14c.49-.07,14.19-.28,14.59-.29v1.61c-.06,0-.12,0-.17,0h0c-.53-.06-2.7.03-2.96,0l-.25.05c-1.25-.01-6.17.06-7.43.07h.05c-1.91.02-15.36.13-16.37.09-.54.07-1.21.02-1.74.06l.05-.02c-.57.03-8.4.13-8.68.13-.36,0-.82-.04-1.31-.05-.02-.54-.04-1.07-.04-1.61,1.61.03,5.74.08,6.21.06M48.74,77.64c-.21.01-.49.06-.73.03h0c-.59-.06-2.98.03-3.27,0l-.28.05c-1.38,0-14.56.08-16.73.15-.34-.05-1.25.03-2.33.06-1.25.04-6.01,0-7.12-.05-.59.07-9.31.17-9.81.19.29-.43.33-.93.38-1.46,1.61.03,3.18.08,4.81.07l-.06.02c.52-.02.98-.01,1.45-.03.13.02.17.05.21.06-.08-.04,12.23-.05,13.2-.04.56,0,15.28-.42,15.68-.39.69.02,3.15-.01,3.54-.02,0,.06.22.44.22.5.4.45,1.09.89.82.87"/>
      <path class="cls-1" d="M47.18,44.51c.11,1.05.45,2.08.46,3.16,0,.33.07.63.49.8,1.44-.38,2.96-.7,4.44-1.21.78-.27,1.27-.79,1.29-1.54.06-2.33.02-4.65.02-7.09-.49,0-.67-.4-1.09-.65-1.62.04-3.13.37-4.62.71-1.31,1.81-1.2,3.85-1,5.83"/>
      <path class="cls-1" d="M53.82,13.33c-1.86.12-3.7-.15-5.4.49-.33-.16-.9.87-.99,1.16.06.11-.07,2.45-.02,3.51.03.58.09,1.26.87,1.72,1.05-.48,2.31-.5,3.5-.86,1.24-.37,2.54-.52,3.76-1.03.13-1.47-.5-2.94.14-4.31.57-.24-1.46-.94-1.85-.67"/>
      <path class="cls-1" d="M48.13,36.94c1.97.29,3.79-.57,5.78-.58.76-2.51.64-4.93-.38-7.38-.63-.02-1.16-.17-1.59.09-1.24.75-2.67.93-3.99,1.37-.54,1.51-.42,5.43.18,6.5"/>
      <path class="cls-1" d="M35.3,8.65l-.02.02-.07.13c-.17.5-.29.99-.34,1.51-.02.29-.02.59,0,.89,0,.15.02.3.03.46,0,.09-.02.3.04.37l.07.04c.11.05.88.8,1.12.86.55.13,1.11.2,1.68.22.57.02,1.15.01,1.72,0,.2,0,.4,0,.61,0,.1,0,.2,0,.3,0,.08,0,.16.02.24,0,.08-.01.1-.07.14-.12l.12-.14c.05-.06.12-.14.12-.23.03-2.38.04-4.75.03-7.13,0-.25-.19-.49-.25-.64-.03-.08-.27-.17-.34-.2-.11-.06-.24-.1-.36-.14-.24-.07-.48-.11-.73-.12-.49-.03-.98.03-1.47,0-.16,0-.32-.02-.47-.05-.12-.02-.34-.13-.45-.07l-.1.1c-.14.16-.35.24-.39.48-.02.12-.01.23-.03.35-.02.18-.04.36-.06.54-.04.35-.07.69-.13,1.04-.11.65-.34,1.27-.87,1.7-.05.04-.12.08-.17.13"/>
      <path class="cls-1" d="M2.85,68.11c1.73-.11,3.3-.82,4.95-.62.79-1.96.4-3.95.48-6.07-2.24.37-4.32.84-6.34-.15-.51,2.3-.33,4.47.1,6.68.16.3.37.2.8.16"/>
      <path class="cls-1" d="M1.71,41.02c1.17,0,2.34-.02,3.51.02.87.03,1.65-.24,2.43-.53.12-1.88.64-3.71.23-5.7-2.08.11-4.1.41-6.08.4-.3.51-.21.92-.24,1.31-.14,1.5.09,3.01-.17,4.51.11,0,.21,0,.32,0"/>
      <path class="cls-1" d="M8.08,59.75c.7-1.64.11-3.16.18-4.72-1.28-.36-2.37.04-3.49.13-1.14.09-2.25-.48-3.34-.2.32,1.66.13,3.27.2,4.93.86.09,1.66.19,2.26.66,1.57.12,3.02.03,4.19-.8"/>
      <path class="cls-1" d="M4.31,47.28c1.28.34,2.43.09,3.55-.24.43-1.68-.28-3.35.52-4.94-.54,0-1.03,0-1.52,0-1.79-.02-3.59.12-5.38-.03l-.07.03-.07-.02c0,1.77-.18,3.54.09,5.38,1.03-.33,1.99-.41,2.88-.17"/>
      <path class="cls-1" d="M48.29,27.78c1.68.33,3.28-.66,4.93-.38.38.07.71-.06.96-.49.14-.25.03-.88.03-1.16,0-.45-.03-.89-.04-1.33,0-.45,0-.91.04-1.36.02-.27.3-.99.16-1.21-.04-.06-.09-.11-.14-.16-.28-.29-.29-.75-.51-1.08-.03-.05-.07-.1-.13-.12h-.14c-1.05.09-1.92.53-2.69,1.22-.3.27-.66.52-1.06.5-.16,0-.33-.05-.49,0-.38.16-.58.87-.6,1.23-.01.27.02.55.01.82-.01.4-.91,3.39-.32,3.5"/>
      <path class="cls-1" d="M8.02,48.38c-.55.18-1.15.06-1.71.31-.38.17-.93.2-1.32.05-1.14-.44-2.27-.16-3.47-.2-.02,1.74-.19,3.38.08,4.97,2.11.66,4.14.31,6.13.04.34-.43.23-.91.33-1.33.29-1.23-.06-2.5.23-3.74-.09-.03-.19-.07-.28-.1"/>
      <path class="cls-1" d="M54.09,49.07c-1.54-.74-3.78-.12-5.03,1.04-.71-.06-1.39.05-1.92.74-.09.82.29,1.35.32,2.18.01.34.47,1.88,2.57,1.42,1.31-.29,2.55-.26,3.72-.83-.23-1.55.72-2.96.34-4.56"/>
      <path class="cls-1" d="M53.38,55.28c-1.71.37-3.37.03-5.09.21-.35,1.58-1,3.11-.26,4.77.62.45,2.9.38,3.7.35,1.42-.05,2.08-.55,2.58-1.89.13-.35.15-.7.23-1.04.36-1.55.23-1.8-1.15-2.4"/>
      <path class="cls-1" d="M49.19,12.59c1.48.01,2.92-.51,4.38-.22.93-.64,1.32-1.39,1.18-2.3-.17-1.03-.48-2.03-.76-3.17-1.79.11-3.57-.42-5.29.49.12,1.68-.24,3.2-.53,4.64.22.55.59.55,1.03.56"/>
      <path class="cls-1" d="M48.57,66.86c1.8.83,3.64.8,5.64.55-.07-1.88-.13-3.69,0-5.69h-5.39c.44.88-.03,1.71.02,2.56.05.87-.62,1.68-.27,2.57"/>
      <path class="cls-1" d="M15.18,9.05c-.79,1.59-.84,2.98-.23,4.28,1.36.34,2.66-.29,4.05-.2.35-.78.55-1.47.41-2.18-.15-.74.63-1.43.13-2.16-1.54-.24-2.94.45-4.35.26"/>
      <path class="cls-1" d="M19.59,4.47c-1.66.05-3.23-.26-4.61.6-.81.98-.74,3.21-.46,3.17-.11.31,3.4-.37,5.19-.63.04-1.07.14-2.06-.12-3.14"/>
      <path class="cls-1" d="M33.39,9.06c-.06-.18-1.52-.4-2.25-.57-.92,1.23-1.53,3.63-1.08,4.53.04.15,2.25.21,3.27-.26.6-.48.22-1.11.21-1.68,0-.65.12-1.33-.15-2.02"/>
      <path class="cls-1" d="M34.73,7.87c.46-.1.8-2.38,1.19-3.69,0-.23-3.87-1.08-3.88-.73-.14,1.32-1.35,3.79-.92,3.86,1.24.41,3.49.68,3.62.57"/>
      <path class="cls-1" d="M23.36,13.29c.27-1.1-.12-1.91-.72-2.52-.23-.88.26-1.69-.2-2.49-.43.11-.81.2-1.22.3-.63.6-.37,1.41-.48,2.17-.58.81-1.15,1.66-.58,2.73,1.16.41,2.19-.14,3.2-.19"/>
      <path class="cls-1" d="M9.92,7.02c.02.84-.08,1.69.12,2.63,1.4-.28,2.7-.58,3.69-1.55-.02-.71.09-1.34-.22-1.9-.89-.15-1.76.1-2.6-.13-.42.06-.92-.24-1.24.27-.12.27.23.43.24.69"/>
      <path class="cls-1" d="M23.17,7.22v-.06c0-.32.03-.65.05-.97.02-.34.01-.69-.08-1.03l-.19-.13c-.27-.18-.41-.31-.67-.51-.19-.14,0-.26.05-.38.05-.11.08-.24.1-.36.02-.22.02-.52-.05-.73-.03-.09-.15-.11-.25-.14-.2-.06-.4-.08-.61-.06-.11,0-.21.02-.32.05-.09.02-.25.02-.31.09l-.03.05c-.46,1.07-.21,2.22-.25,3.34,0,.25-.05.49-.09.73v.05s.03.03.03.03c.37.3.84.53,1.33.52.23,0,.45-.05.66-.13.12-.05.24-.1.36-.16.09-.05.25-.08.28-.19"/>
      <path class="cls-1" d="M3.44,7.61c-.21-.2-.4-.34-.52.07.18.03.36.04.52-.07"/>
      <path class="cls-1" d="M42.21,12.89c.18-.1.15-.2.33-.3.11-.06.21-.13.33-.18.11-.05.24-.07.36-.09.24-.04.49-.04.73-.01.47.04.93.16,1.4.23.46.07.94.06,1.38-.11.1-.04.2-.09.29-.14v-4.74c-.45-.53-.9-.95-1.59-1.15-1.16.37-2.16.75-3.37,1.13v5.02c0,.06-.02.15,0,.21l.1.16h.02s.02-.02.02-.02Z"/>
      <path class="cls-1" d="M2.1,20.2c.45.57.92.45,1.36.41.73-.06,1.44-.25,2.16-.4.36-.07.72-.14,1.08-.18.2-.02.4-.02.59-.02.15,0,.39.07.53,0,.11-.06.14-.23.18-.34.06-.15.12-.31.17-.47.07-.23.04-.48.07-.72.16-1.3,1.38-3.67,1.83-4.53.8-.85,1.97-.77,3.07-.95.13-.97-.18-1.91.43-2.91-.77.13-1.48.45-2.18.79-.39.19-.75.39-1.17.52-.16.05-.37.06-.45-.08-.07-.13.03-.28,0-.42-.03-.17-.22-.25-.36-.36-.64-.48-.55-1.7-.49-2.4.03-.34.07-.76-.22-.95-.18-.11-.41-.08-.59.02-.32.18-.48.62-.85.7-1.27.28-2.47-.37-3.72-.26l-.09-.05c-.16.12-.34.1-.52.07-.8,1.77-.34,3.68-.61,5.46-.28.43-.57.72-1.07.8-.41.07-.92-.12-1.24.4.65.72,1.37,1.39,1.68,1.84.52,1.61.42,2.88.43,4"/>
      <path class="cls-1" d="M44.62,38.59c-.21,0-.43.1-.58.32-.18.27-.36.53-.55.81-1.74,2.47-3.45,5-4.82,7.71-1.22,2.4-2.01,5.34.38,7.28.86.7,1.92,1.1,2.97,1.36.58.14,1.72.48,2.52.48.22,0,.42-.03.58-.09h0c.13-.05.21-.18.21-.32v-16.8c0-.45-.36-.74-.72-.74"/>
      <path class="cls-1" d="M32.93,64.48c-.9,0-1.3.35-1.37.41l-.03.04.02-.03c-.1.14-.43.67.04,1.35.33.47.68,1.23,1.02,2.05.25.62.84,1.02,1.49,1.02h9.34c1.05,0,1.9-.88,1.9-1.97s-.83-1.88-1.82-1.88c-.1,0-.19,0-.29.02-1.22.2-2.56.35-3.85.35-1.43,0-2.8-.18-3.88-.69-1.12-.52-1.96-.68-2.57-.68"/>
      <path class="cls-1" d="M21.82,53.78c-.3,0-.6.19-.71.53v.02s-1.04,3.29-1.04,3.29c-.12.35-1.09,3.49,2.99,5.03,2.78,1.04,4.05,3.29,4.53,5.45.16.71.76,1.22,1.47,1.22h.66c.64,0,1.05-.69.77-1.28-.14-.28-.27-.52-.39-.69-1.06-1.53-.44-3.06.04-3.65.15-.18.99-1.1,2.78-1.1.87,0,1.97.22,3.32.85.81.38,1.91.52,3.1.52.94,0,1.94-.09,2.91-.23,1.77-.25,3.09-1.83,3.09-3.68v-.44c0-.49-.39-.86-.83-.86-.09,0-.17.01-.26.04h-.01c-2.06.7-4.77,1.34-7.88,1.34-2.21,0-4.62-.32-7.12-1.17-.61-.11-3.68-.85-6.84-4.9-.15-.2-.37-.29-.58-.29"/>
      <path class="cls-1" d="M11.26,49.67c-.42,0-.84.32-.84.86v17.35c0,.79.62,1.43,1.39,1.43.97,0,1.66-.96,1.39-1.92-.45-1.59-.68-3.26-.67-4.92,0-2.57,1.02-5.04.85-7.63-.11-1.68-.61-3.28-1.39-4.73-.17-.31-.45-.45-.73-.45"/>
      <path class="cls-1" d="M10.42,33.54v9.57c0,1.23.43,2.43,1.23,3.34,2.48,2.84,3.29,5.73,3.49,7.87.26,2.68-.37,4.68-.52,5.14-.61,3.41-.09,6.26.61,8.28.33.95,1.2,1.58,2.18,1.58h5.58c1.79,0,2.72-2.22,1.48-3.56-.5-.55-1.16-1.01-2.02-1.34-1.92-.72-3.23-1.85-3.89-3.34-.87-1.95-.28-3.83-.19-4.1l1.02-3.24c.7-2.24-.06-4.75-.44-5.74l-.03-.09c-.05-.11-.09-.22-.13-.33v-.02s-.01,0-.01,0c-.55-1.35-1.06-2.85-1.53-4.53-1.15-4.13-3.44-7.31-6.81-9.49"/>
      <path class="cls-1" d="M37.18,15.05h-7.94c-.81,0-1.45.74-1.34,1.57h0c.3,2.21,1.08,4.18,2.43,5.91l.02.02c.65.85,1.13,1.83,1.43,2.87.17.58.27,1.17.33,1.77.03.3.05.6.06.9,0,.2-.06.63.07.8.04.05.11.08.18.08h.06c.21-.05.33-.21.44-.39.44-.73.75-1.53,1.14-2.28.42-.81.83-1.61,1.29-2.39.62-1.07,1.26-2.13,1.94-3.17.56-.86,1.24-1.7,1.7-2.63l.04-.07c.66-1.38-.33-2.99-1.82-2.99"/>
      <path class="cls-1" d="M43.43,15.05h-.02c-.82,0-1.54.55-1.8,1.35-.34,1.06-.73,2.11-1.31,3.03-.88,1.4-1.8,2.78-2.66,4.19-.93,1.53-1.81,3.1-2.64,4.69-1.28,2.46-2.1,3.44-2.96,3.44-.11,0-.22-.02-.33-.05-.67-.18-1.05-.91-1.02-1.94v-.08s.19-1.73.19-1.73c.05-.51-.22-1.29-.61-2.07-.37-.74-.82-1.44-1.33-2.08-1.59-1.96-2.39-4.18-2.75-6.27-.25-1.43-1.45-2.48-2.86-2.48h-2.77c-1.75,0-3.21,1.38-3.36,3.17-.14,1.73-.03,3.5.49,5.19.42,1.37,1.27,2.31,2.26,3.4.26.29.53.58.79.9,1.58,1.84,3.8,4.71,4.85,8.24.38,1.28.91,2.02,1.58,2.21.16.05.33.07.48.07.91,0,1.73-.68,2.46-1.19.9-.63,1.78-1.29,2.63-2,1.68-1.39,3.25-2.92,4.71-4.56,2.48-2.78,4.74-5.76,6.89-8.82.65-.93,1-2.05,1-3.2v-1.43c0-1.09-.86-1.98-1.91-1.98"/>
      <path class="cls-1" d="M12.73,15.05c-1.28,0-2.31,1.07-2.31,2.39v12.14c1,.63,2.58,1.17,5.07,1.17.97,0,2.08-.08,3.35-.27.7-.1,1.01-.96.54-1.51-.25-.29-.51-.58-.76-.86-1.04-1.15-2.12-2.35-2.67-4.12-.57-1.85-.76-3.85-.58-6,.13-1.59-1.09-2.94-2.63-2.94"/>
      <path class="cls-1" d="M10.42,31.53c5.08,2.38,7.33,6.56,8.56,10.98.45,1.62.94,3.05,1.46,4.33l.05.12s.04.1.07.16l.04.1c.75,1.79,1.55,3.25,2.34,4.44.06.08.13.12.21.12.17,0,.33-.16.26-.37-1.23-3.68-.66-7.14,1.65-10l.04-.04c.58-.72.55-1.75-.05-2.46-.5-.59-.9-1.39-1.2-2.39-.24-.82-.56-1.63-.97-2.45-.56-1.14-1.7-1.82-2.91-1.82-.17,0-.34.01-.52.04-1.44.23-2.77.35-3.98.35-1.42,0-3.94-.78-5.05-1.1"/>
      <path class="cls-1" d="M45.3,23.51c-.57.51-1,1.39-1.46,2.03-.5.69-1.01,1.37-1.54,2.05-.58.75-1.18,1.49-1.8,2.21-.49.57-.98,1.14-1.49,1.7-2.28,2.51-4.76,4.84-7.44,6.9-.4.31-.81.61-1.22.91-1.58,1.14-3.27,2.24-4.33,3.9-1.31,2.05-1.47,4.7-.94,7.1.62,2.8,2.23,5.48,4.72,6.76,1.22.63,2.59.89,3.95,1.04.87.1,1.74.15,2.61.15,1.54,0,3.07-.16,4.56-.53-1.78-.34-3.43-1.45-4.35-3.06-.93-1.62-1.06-3.64-.66-5.48.4-1.84,1.29-3.53,2.32-5.09,2.04-3.11,4.65-5.88,5.98-9.37.9-2.37,1.14-4.95,1.2-7.47.01-.52.04-1.04.05-1.56.01-.53-.05-1.05-.05-1.58,0-.06-.13-.59-.11-.61"/>
      <path class="cls-1" d="M83.58,30.91c-.07-.15-.11-.32-.11-.5,0-.32.11-.76.34-1.32l.19-.47.34-.9,1.68-4.4,1.56,3.86c-.87,1.69-2.27,2.99-4,3.73M92.04,31.37c-.39-.07-.81-.12-1.06-.43-.25-.31-.41-.69-.56-1.06-1.18-2.84-2.35-5.68-3.53-8.52-.15,0-.29,0-.44,0-.87,2.25-1.74,4.49-2.6,6.74-.31.81-.63,1.62-1.05,2.38-.15.27-.32.57-.59.72-.41.24-1.11.18-1.11.18l-.02.35s.8.09,1.65-.23c.33-.13.68-.23,1.01-.38,1.68-.74,3.15-1.97,3.99-3.59.35.79.67,1.59.96,2.41.09.24.17.5.13.76-.09.49-.73.64-1.22.7-.22.03-.24.03-.24.03l.05.31h5c0-.07.04-.31.04-.31,0,0-.28-.04-.4-.07"/>
      <path class="cls-1" d="M74.81,29.96l3.77-8.56h3.17v.35h-.38c-.51,0-.84.04-1,.13-.16.08-.26.24-.32.47-.05.23-.08.77-.08,1.63v5.07c0,.81.02,1.35.06,1.6.04.25.14.44.31.56.17.12.48.18.95.18h.46l-.67.35h-4.27v-.35h.37c.44,0,.74-.06.91-.17.17-.11.28-.29.33-.52.05-.24.07-.79.07-1.65v-6.58l-4.09,9.27h-.36l-4.13-9.27v6.06c0,.83.02,1.39.08,1.69.05.3.21.56.47.79.26.23.64.35,1.11.39v.35h-3.7v-.35c.44-.02.8-.15,1.08-.36.28-.22.45-.48.51-.8.06-.32.09-.9.09-1.75v-4.5c0-.82-.02-1.35-.07-1.59-.05-.24-.15-.4-.31-.5-.15-.09-.49-.14-1.02-.14h-.28v-.35h3.15l3.79,8.56Z"/>
      <path class="cls-1" d="M100.13,29.96l3.77-8.56h3.17v.35h-.38c-.51,0-.84.04-1,.13-.16.08-.26.24-.32.47-.05.23-.08.77-.08,1.63v5.07c0,.81.02,1.35.06,1.6.04.25.14.44.31.56.17.12.48.18.95.18h.46v.35h-4.94v-.35h.37c.44,0,.74-.06.91-.17.17-.11.28-.29.33-.52.05-.24.07-.79.07-1.65v-6.58l-4.09,9.27h-.36l-4.13-9.27v6.06c0,.83.02,1.39.08,1.69.05.3.21.56.47.79.26.23.64.35,1.11.39v.35h-3.7v-.35c.44-.02.8-.15,1.08-.36.28-.22.45-.48.51-.8.06-.32.09-.9.09-1.75v-4.5c0-.82-.02-1.35-.07-1.59-.05-.24-.15-.4-.31-.5-.15-.09-.49-.14-1.02-.14h-.28v-.35h3.15l3.79,8.56Z"/>
      <path class="cls-1" d="M110.95,26.5h.74c.59,0,1.08-.06,1.44-.18.37-.12.67-.37.92-.75.24-.38.37-.85.37-1.41,0-.85-.21-1.48-.63-1.88-.42-.4-1.1-.6-2.04-.6-.35,0-.61,0-.79.03v4.79ZM110.95,26.88v2.17c0,.81.02,1.35.06,1.6.04.25.14.44.31.56.17.12.48.18.95.18h.34v.35h-4.74v-.35h.27c.44,0,.75-.06.92-.17.17-.11.28-.29.32-.52.05-.24.07-.79.07-1.65v-5.07c0-.82-.02-1.35-.07-1.59-.04-.24-.15-.4-.3-.5-.16-.09-.5-.14-1.02-.14h-.19v-.35l1.3-.05c1.04-.04,1.85-.05,2.43-.05,1.07,0,1.89.08,2.47.25.58.17,1.05.46,1.42.89s.55.97.55,1.62c0,.56-.13,1.06-.38,1.49-.25.43-.61.76-1.08.98-.47.22-1.3.34-2.48.34h-1.14Z"/>
      <path class="cls-1" d="M118.7,26.56c0,1.66.33,2.91.99,3.74.66.83,1.66,1.25,2.98,1.25,1.16,0,2.08-.42,2.76-1.25.68-.83,1.01-2.08,1.01-3.73s-.33-2.84-1-3.69c-.67-.86-1.63-1.28-2.9-1.28s-2.2.42-2.86,1.25c-.66.84-.99,2.07-.99,3.71M116.95,26.51c0-1.6.53-2.88,1.6-3.84,1.07-.97,2.4-1.45,4-1.45s2.96.48,4.04,1.43c1.08.96,1.62,2.26,1.62,3.91s-.52,2.9-1.55,3.89c-1.03.99-2.4,1.49-4.08,1.49s-2.99-.5-4.04-1.49c-1.05-.99-1.58-2.31-1.58-3.94"/>
      <path class="cls-1" d="M71.63,42.02l2.09-4.74h1.76v.19h-.21c-.28,0-.47.02-.55.07-.09.05-.15.13-.18.26-.03.13-.04.43-.04.9v2.81c0,.45.01.75.03.89.02.14.08.24.17.31.09.07.27.1.53.1h.25v.19h-2.74v-.19h.2c.24,0,.41-.03.51-.09.09-.06.15-.16.18-.29.03-.13.04-.44.04-.91v-3.65l-2.27,5.14h-.2l-2.29-5.14v3.36c0,.46.01.77.04.94.03.17.12.31.26.44s.35.2.62.21v.19h-2.05v-.19c.24-.01.44-.08.6-.2.15-.12.25-.27.28-.44.03-.18.05-.5.05-.97v-2.49c0-.46-.01-.75-.04-.88-.03-.13-.08-.22-.17-.27-.09-.05-.27-.08-.56-.08h-.16v-.19h1.75l2.1,4.74Z"/>
      <path class="cls-1" d="M79.4,39.54v2.27c0,.38,0,.61.02.71.01.1.05.17.12.22.07.05.2.07.39.07v.19c-.43,0-.74.05-.94.14h-.05c-.09-.15-.14-.42-.14-.8-.17.27-.37.47-.59.6-.22.14-.47.2-.73.2-.23,0-.44-.05-.61-.16-.18-.11-.3-.23-.37-.39-.07-.15-.1-.38-.1-.69v-1.18c0-.4,0-.64-.02-.73-.01-.09-.06-.15-.13-.2-.07-.04-.21-.06-.41-.06v-.19h1.17v2.4c0,.24.01.41.04.52.03.11.1.2.22.28.12.08.25.12.4.12.22,0,.42-.07.62-.21.2-.14.33-.29.4-.45.07-.16.11-.39.11-.68v-.78c0-.38,0-.61-.01-.69,0-.08-.04-.15-.11-.21-.06-.06-.2-.09-.4-.09h-.09v-.19h1.21Z"/>
      <path class="cls-1" d="M80.5,43.12v-1.14h.16c.19.66.53.98,1.03.98.21,0,.37-.06.48-.19.11-.13.16-.27.16-.43,0-.18-.06-.33-.17-.44-.12-.12-.34-.26-.67-.42-.35-.17-.6-.34-.75-.51-.15-.16-.23-.36-.23-.6s.08-.45.24-.65c.16-.21.39-.31.69-.31s.55.12.75.37c.04-.04.1-.14.16-.31h.16v1.07h-.16c-.06-.26-.17-.48-.33-.66-.16-.18-.35-.28-.57-.28-.17,0-.31.05-.41.16-.1.1-.16.22-.16.36,0,.15.06.28.17.39.11.11.33.24.65.39.48.22.77.43.88.63.11.21.16.41.16.6,0,.3-.1.55-.3.74-.2.19-.45.28-.75.28-.32,0-.6-.13-.85-.39-.08.08-.14.21-.19.36h-.16Z"/>
      <path class="cls-1" d="M85.75,40.55c0-.07.01-.12.01-.17,0-.25-.07-.44-.22-.58-.15-.14-.32-.21-.53-.21-.51,0-.82.32-.92.96h1.66ZM86.49,40.72h-2.41c-.01.17-.02.29-.02.37,0,.61.09,1.07.29,1.37.19.31.47.46.85.46.51,0,.88-.23,1.09-.69h.2c-.09.29-.27.51-.54.67-.27.16-.56.24-.87.24-.29,0-.57-.07-.83-.22-.26-.15-.47-.36-.64-.63-.17-.27-.25-.6-.25-.98,0-.55.16-1,.48-1.36.32-.36.72-.54,1.2-.54.45,0,.8.14,1.05.41.25.28.38.57.39.9"/>
      <path class="cls-1" d="M87.84,41.29c0,.61.1,1.04.3,1.29.2.25.48.37.84.37s.65-.12.85-.37c.2-.25.29-.68.29-1.29s-.1-1.04-.29-1.3c-.19-.26-.48-.39-.85-.39s-.65.13-.85.39c-.2.26-.29.69-.29,1.3M87.14,41.27c0-.53.18-.97.53-1.33.35-.36.79-.53,1.31-.53s.96.18,1.31.54c.35.36.53.8.53,1.33,0,.58-.18,1.04-.54,1.38-.36.33-.8.5-1.31.5s-.94-.17-1.3-.51c-.36-.34-.54-.8-.54-1.37"/>
      <path class="cls-1" d="M96.56,40.16c-.19-.16-.37-.28-.56-.36-.19-.08-.38-.12-.56-.12-.32,0-.58.12-.8.37-.21.24-.32.64-.32,1.2s.11.98.33,1.25c.22.27.49.4.81.4.21,0,.41-.05.6-.15.18-.1.35-.25.51-.46v-2.13ZM96.56,39.91v-1.35c0-.37,0-.6-.01-.7-.01-.1-.05-.17-.12-.22-.07-.05-.2-.08-.38-.08h-.09v-.19c.34,0,.71-.07,1.12-.18h.09v4.65c0,.4,0,.65.02.74.01.09.06.15.13.19.07.04.21.06.42.06v.19c-.41,0-.77.04-1.09.11-.03-.13-.05-.34-.05-.63-.21.21-.42.36-.64.47-.22.1-.45.16-.69.16-.45,0-.83-.18-1.16-.54-.33-.36-.49-.8-.49-1.31,0-.56.17-1.02.5-1.37.33-.35.73-.52,1.19-.52.23,0,.46.04.66.13.21.09.41.21.59.38"/>
      <path class="cls-1" d="M100.53,40.55c0-.07.01-.12.01-.17,0-.25-.07-.44-.22-.58-.15-.14-.32-.21-.53-.21-.51,0-.82.32-.92.96h1.66ZM101.27,40.72h-2.41c-.01.17-.02.29-.02.37,0,.61.09,1.07.29,1.37.19.31.47.46.85.46.51,0,.88-.23,1.09-.69h.2c-.09.29-.27.51-.54.67-.27.16-.56.24-.87.24-.29,0-.57-.07-.83-.22-.26-.15-.47-.36-.64-.63-.17-.27-.25-.6-.25-.98,0-.55.16-1,.48-1.36.32-.36.72-.54,1.2-.54.45,0,.8.14,1.05.41.25.28.38.57.39.9"/>
      <path class="cls-1" d="M107.43,40.7l-1.01-2.44-1.01,2.44h2.02ZM107.5,40.89h-2.18l-.15.36c-.22.53-.33.87-.33,1.03,0,.17.06.3.18.39.12.09.27.13.45.13v.19h-1.7v-.19c.25-.04.44-.13.57-.27.12-.14.27-.43.45-.88.01-.04.08-.21.2-.49l1.66-3.98h.17l1.91,4.55.26.6c.06.13.14.24.24.32.1.08.25.13.45.15v.19h-2.25v-.19c.28,0,.46-.02.56-.06.1-.04.15-.12.15-.24,0-.06-.06-.25-.19-.55l-.44-1.06Z"/>
      <path class="cls-1" d="M111.07,40.29c.1-.25.25-.46.47-.63.22-.17.43-.25.63-.25.19,0,.33.06.44.17.11.12.16.23.16.35,0,.08-.03.15-.08.21-.05.06-.12.09-.2.09-.14,0-.25-.1-.32-.31-.05-.14-.13-.21-.23-.21-.12,0-.27.08-.44.25-.17.16-.28.34-.33.51-.05.18-.07.42-.07.73v.62c0,.37,0,.6.02.7,0,.1.05.17.12.22.07.05.2.08.38.08h.12v.19h-1.84v-.19h.09c.17,0,.29-.02.36-.07.07-.05.11-.11.13-.2.01-.08.02-.33.02-.73v-.98c0-.37,0-.6-.01-.7,0-.09-.05-.17-.12-.22s-.2-.08-.38-.08h-.09v-.19c.27-.03.61-.11,1.04-.25.08.22.13.52.13.88"/>
      <path class="cls-1" d="M115.16,39.74h-1.04v2.09c0,.32.01.54.04.65.03.11.09.2.18.27.09.07.19.1.29.1.2,0,.38-.12.53-.35l.13.08c-.09.19-.22.33-.39.42-.17.09-.34.14-.52.14-.2,0-.38-.06-.53-.18-.15-.12-.25-.26-.29-.42-.04-.16-.06-.44-.06-.84v-1.96h-.5v-.19c.23,0,.44-.1.62-.29.18-.19.3-.45.35-.79h.13v1.09h1.04v.19Z"/>
      <path class="cls-1" d="M118.02,40.55c0-.07.01-.12.01-.17,0-.25-.07-.44-.22-.58-.15-.14-.32-.21-.53-.21-.51,0-.82.32-.92.96h1.66ZM118.76,40.72h-2.41c-.01.17-.02.29-.02.37,0,.61.09,1.07.29,1.37.19.31.47.46.85.46.51,0,.88-.23,1.09-.69h.2c-.09.29-.27.51-.54.67-.27.16-.56.24-.88.24-.29,0-.57-.07-.83-.22-.26-.15-.47-.36-.64-.63-.17-.27-.25-.6-.25-.98,0-.55.16-1,.48-1.36.32-.36.72-.54,1.2-.54.45,0,.8.14,1.05.41.25.28.38.57.39.9"/>
      <path class="cls-1" d="M71.63,51.83l2.09-4.74h1.76v.19h-.21c-.28,0-.47.02-.55.07-.09.05-.15.13-.18.26-.03.13-.04.43-.04.9v2.81c0,.45.01.75.03.89.02.14.08.24.17.31.09.07.27.1.53.1h.25v.19h-2.74v-.19h.2c.24,0,.41-.03.51-.09.09-.06.15-.16.18-.29.03-.13.04-.44.04-.91v-3.65l-2.27,5.14h-.2l-2.29-5.14v3.36c0,.46.01.77.04.94.03.17.12.31.26.44.15.13.35.2.62.21v.19h-2.05v-.19c.24-.01.44-.08.6-.2.15-.12.25-.27.28-.44.03-.18.05-.5.05-.97v-2.49c0-.46-.01-.75-.04-.88-.03-.13-.08-.22-.17-.27-.09-.05-.27-.08-.56-.08h-.16v-.19h1.75l2.1,4.74Z"/>
      <path class="cls-1" d="M76.66,51.1c0,.61.1,1.04.3,1.29.2.25.48.37.84.37s.65-.12.85-.37c.2-.25.29-.68.29-1.29s-.1-1.04-.29-1.3-.48-.39-.85-.39-.65.13-.85.39c-.2.26-.29.69-.29,1.3M75.96,51.08c0-.53.18-.97.53-1.33.35-.36.79-.53,1.31-.53s.96.18,1.31.54c.35.36.53.8.53,1.33,0,.58-.18,1.04-.54,1.38-.36.33-.8.5-1.31.5s-.94-.17-1.3-.51c-.36-.34-.54-.8-.54-1.37"/>
      <path class="cls-1" d="M83.21,49.97c-.19-.16-.37-.28-.56-.36-.19-.08-.38-.12-.56-.12-.32,0-.58.12-.8.37-.21.24-.32.64-.32,1.2s.11.98.33,1.25c.22.27.49.4.81.4.21,0,.41-.05.6-.15.18-.1.35-.25.51-.46v-2.13ZM83.21,49.72v-1.35c0-.37,0-.6-.02-.7,0-.1-.05-.17-.12-.22-.07-.05-.2-.08-.38-.08h-.09v-.19c.34,0,.71-.07,1.12-.18h.09v4.65c0,.4,0,.65.02.74.01.09.06.15.13.19.07.04.21.06.42.06v.19c-.41,0-.77.04-1.09.11-.03-.13-.05-.34-.05-.63-.21.21-.42.36-.64.47-.22.1-.45.16-.69.16-.45,0-.83-.18-1.16-.54-.33-.36-.49-.8-.49-1.31,0-.56.17-1.02.5-1.37.33-.35.73-.52,1.19-.52.23,0,.46.04.66.13.21.08.41.21.59.38"/>
      <path class="cls-1" d="M87.19,50.35c0-.07.01-.12.01-.17,0-.25-.07-.44-.22-.58-.15-.14-.32-.21-.53-.21-.51,0-.82.32-.92.96h1.66ZM87.93,50.52h-2.41c-.01.17-.02.29-.02.37,0,.61.09,1.07.29,1.37.19.31.47.46.85.46.51,0,.88-.23,1.09-.69h.2c-.09.29-.27.51-.54.67-.27.16-.56.24-.87.24-.29,0-.57-.07-.83-.22-.26-.15-.47-.36-.64-.63-.17-.27-.25-.6-.25-.98,0-.55.16-1,.48-1.36.32-.36.72-.54,1.2-.54.45,0,.8.14,1.05.41.25.28.38.57.39.9"/>
      <path class="cls-1" d="M89.7,50.1c.1-.25.25-.46.47-.63.22-.17.43-.25.63-.25.19,0,.33.06.44.17.11.12.16.23.16.35,0,.08-.03.15-.08.21-.05.06-.12.09-.2.09-.14,0-.25-.1-.32-.31-.05-.14-.13-.21-.23-.21-.12,0-.27.08-.44.25-.17.16-.28.34-.33.51-.05.18-.07.42-.07.73v.62c0,.37,0,.6.01.7,0,.1.05.17.12.22.07.05.2.08.38.08h.12v.19h-1.84v-.19h.09c.17,0,.29-.02.36-.07.07-.05.11-.11.13-.2.01-.08.02-.33.02-.73v-.98c0-.37,0-.6-.01-.7,0-.09-.05-.17-.12-.22s-.2-.08-.38-.08h-.09v-.19c.27-.03.61-.11,1.04-.25.08.22.13.52.14.88"/>
      <path class="cls-1" d="M92.84,49.21h.11c.07.17.1.41.11.71.2-.24.42-.42.64-.54.22-.12.45-.18.7-.18.28,0,.5.06.68.17.18.12.29.26.34.42.05.17.08.41.08.73v1.08c0,.4,0,.64.02.73.01.09.06.15.13.2.07.04.21.07.41.07v.19h-1.77v-.19h.08c.2,0,.33-.03.4-.09.06-.06.1-.13.11-.21,0-.08.01-.31.01-.7v-1.12c0-.27-.01-.47-.04-.59-.03-.12-.1-.22-.22-.31-.12-.09-.27-.14-.45-.14-.21,0-.4.06-.59.18-.19.12-.36.31-.53.55v1.41c0,.4,0,.64.02.73.02.09.06.15.14.2.07.04.21.07.42.07v.19h-1.75v-.19c.19,0,.33-.02.41-.06.08-.04.12-.1.14-.18.02-.08.03-.33.03-.75v-1.03c0-.4,0-.65-.02-.73-.02-.09-.06-.15-.14-.19-.07-.04-.21-.07-.42-.07v-.19c.31-.03.63-.1.95-.19"/>
      <path class="cls-1" d="M97.27,51.1c0,.61.1,1.04.3,1.29.2.25.48.37.84.37s.65-.12.85-.37c.2-.25.29-.68.29-1.29s-.1-1.04-.29-1.3-.48-.39-.85-.39-.65.13-.85.39c-.2.26-.29.69-.29,1.3M96.57,51.08c0-.53.18-.97.53-1.33.35-.36.79-.53,1.31-.53s.96.18,1.31.54c.35.36.53.8.53,1.33,0,.58-.18,1.04-.54,1.38-.36.33-.8.5-1.31.5s-.94-.17-1.3-.51c-.36-.34-.54-.8-.54-1.37"/>
      <path class="cls-1" d="M70.86,59.77c-.19-.16-.37-.28-.56-.36-.19-.08-.38-.12-.56-.12-.32,0-.58.12-.8.37-.21.24-.32.64-.32,1.2s.11.98.33,1.25c.22.27.49.4.81.4.21,0,.41-.05.6-.15.18-.1.35-.25.51-.46v-2.13ZM70.86,59.53v-1.35c0-.37,0-.6-.02-.7,0-.1-.05-.17-.12-.22-.07-.05-.2-.08-.38-.08h-.09v-.19c.34,0,.71-.07,1.12-.18h.09v4.65c0,.4,0,.65.02.74.01.09.06.15.13.19.07.04.21.06.42.06v.19c-.41,0-.77.04-1.09.11-.03-.13-.05-.34-.05-.63-.21.21-.42.36-.64.47-.22.1-.45.16-.69.16-.45,0-.83-.18-1.16-.54-.33-.36-.49-.8-.49-1.31,0-.56.17-1.02.5-1.37.33-.35.73-.52,1.19-.52.23,0,.46.04.66.13.21.09.41.21.59.38"/>
      <path class="cls-1" d="M74.84,60.16c0-.07.01-.12.01-.17,0-.25-.07-.44-.22-.58-.15-.14-.32-.21-.53-.21-.51,0-.82.32-.92.96h1.66ZM75.58,60.33h-2.41c-.01.17-.02.29-.02.37,0,.61.09,1.07.29,1.37.19.31.47.46.85.46.51,0,.88-.23,1.09-.69h.2c-.09.29-.27.51-.54.67-.27.16-.56.24-.88.24-.29,0-.57-.07-.83-.22-.26-.15-.47-.36-.64-.63-.17-.27-.25-.6-.25-.98,0-.55.16-1,.48-1.36.32-.36.72-.54,1.2-.54.45,0,.8.14,1.05.41.25.28.38.57.39.9"/>
      <path class="cls-1" d="M80.06,59.72h.41c.33,0,.6-.03.8-.1.2-.07.37-.2.51-.42.13-.21.2-.47.2-.78,0-.47-.12-.82-.35-1.04-.23-.22-.61-.33-1.13-.33-.19,0-.34,0-.44.02v2.65ZM80.06,59.93v1.2c0,.45.01.75.03.89.02.14.08.24.17.31.09.07.27.1.52.1h.19v.19h-2.62v-.19h.15c.24,0,.41-.03.51-.09.09-.06.15-.16.18-.29.03-.13.04-.44.04-.92v-2.81c0-.46-.01-.75-.04-.88-.03-.13-.08-.22-.17-.27-.09-.05-.28-.08-.57-.08h-.11v-.19l.72-.03c.57-.02,1.02-.03,1.34-.03.59,0,1.05.05,1.37.14.32.09.58.26.79.49.2.24.31.54.31.9,0,.31-.07.59-.21.83-.14.24-.34.42-.6.55-.26.12-.72.19-1.38.19h-.63Z"/>
      <path class="cls-1" d="M83.56,60.91c0,.61.1,1.04.3,1.29.2.25.48.37.84.37s.65-.12.85-.37c.2-.25.29-.68.29-1.29s-.1-1.04-.29-1.3-.48-.39-.85-.39-.65.13-.85.39c-.2.26-.29.69-.29,1.3M82.86,60.89c0-.53.18-.97.53-1.33.35-.36.79-.53,1.31-.53s.96.18,1.31.54.53.8.53,1.33c0,.58-.18,1.04-.54,1.38-.36.33-.8.5-1.31.5s-.94-.17-1.3-.51c-.36-.34-.54-.8-.54-1.37"/>
      <path class="cls-1" d="M88.12,61.97c.15.19.31.33.48.42.17.09.35.14.54.14.32,0,.6-.14.83-.41.24-.27.35-.71.35-1.31,0-.52-.11-.91-.34-1.16-.23-.26-.5-.38-.82-.38-.19,0-.38.05-.55.15-.17.1-.34.25-.5.45v2.1ZM87.94,59.02h.11c.05.16.07.35.07.57.18-.19.37-.33.58-.43.21-.09.43-.14.66-.14.48,0,.88.17,1.2.51.32.34.48.78.48,1.33s-.16.99-.48,1.36c-.32.36-.74.55-1.26.55-.21,0-.42-.04-.61-.13-.2-.09-.38-.21-.56-.38v1.31c0,.4,0,.64.02.73.02.09.06.15.13.2.07.04.21.07.41.07v.19h-1.81v-.19h.13c.2,0,.33-.03.39-.09.06-.06.1-.13.11-.21,0-.08.01-.31.01-.7v-3.14c0-.37,0-.6-.01-.7-.01-.1-.05-.17-.12-.22-.07-.05-.2-.08-.38-.08h-.13v-.19c.28-.03.63-.1,1.06-.21"/>
      <path class="cls-1" d="M93.96,60.51l-.46.19c-.73.3-1.09.67-1.09,1.12,0,.18.05.32.14.43.09.11.21.16.36.16.13,0,.29-.04.46-.13.18-.09.37-.22.59-.39v-1.37ZM95.19,61.99h.16c-.03.48-.26.72-.71.72-.19,0-.34-.05-.45-.15-.11-.1-.18-.25-.22-.45-.28.2-.54.35-.77.45-.23.1-.44.15-.62.15-.23,0-.44-.07-.6-.2-.17-.14-.25-.31-.25-.54,0-.29.14-.54.42-.76.28-.22.67-.43,1.17-.63l.66-.27v-.17c0-.24-.02-.41-.05-.52s-.11-.2-.24-.29c-.13-.08-.3-.13-.51-.13-.42,0-.66.14-.71.42-.04.29-.16.43-.35.43-.17,0-.26-.08-.26-.24s.11-.33.34-.52c.23-.18.58-.28,1.06-.28.36,0,.64.06.83.17.2.11.33.24.39.38.06.14.09.36.09.66v1.4c0,.33.02.54.05.63.03.09.11.14.22.14.19,0,.3-.14.35-.41"/>
      <path class="cls-1" d="M97.59,61.97l.8-1.92c.12-.28.17-.44.17-.47,0-.14-.16-.21-.47-.22v-.19h1.22v.19c-.19,0-.33.06-.41.15-.09.09-.2.29-.33.61l-1.54,3.72c-.15.35-.28.6-.39.73-.11.13-.24.19-.37.19-.18,0-.27-.08-.27-.25,0-.19.15-.35.44-.49.17-.08.29-.14.34-.19.06-.05.11-.15.17-.29l.33-.82-1.3-2.79c-.12-.24-.21-.4-.29-.46-.08-.07-.21-.1-.39-.1v-.19h1.59v.19c-.28,0-.42.07-.42.17,0,.04.05.18.16.41l.95,2.02Z"/>
      <path class="cls-1" d="M100.88,58.39h-.14l.63-.99c.13-.2.23-.34.31-.41.07-.07.16-.1.25-.1.08,0,.14.02.19.07.05.05.07.1.07.16,0,.08-.03.15-.09.22-.06.07-.25.24-.58.51l-.64.53ZM101.9,60.51l-.46.19c-.73.3-1.09.67-1.09,1.12,0,.18.05.32.14.43.09.11.21.16.36.16.13,0,.29-.04.46-.13.17-.09.37-.22.59-.39v-1.37ZM103.13,61.99h.16c-.03.48-.26.72-.71.72-.19,0-.34-.05-.45-.15-.11-.1-.18-.25-.22-.45-.28.2-.54.35-.77.45-.23.1-.44.15-.62.15-.23,0-.44-.07-.6-.2-.17-.14-.25-.31-.25-.54,0-.29.14-.54.42-.76.28-.22.67-.43,1.17-.63l.66-.27v-.17c0-.24-.02-.41-.05-.52s-.11-.2-.24-.29c-.13-.08-.3-.13-.51-.13-.42,0-.66.14-.71.42-.04.29-.16.43-.35.43-.17,0-.26-.08-.26-.24s.11-.33.34-.52c.23-.18.58-.28,1.06-.28.36,0,.64.06.83.17.2.11.33.24.39.38.06.14.09.36.09.66v1.4c0,.33.02.54.05.63.03.09.11.14.22.14.19,0,.3-.14.35-.41"/>
      <path class="cls-1" d="M104.57,59.02h.11c.07.17.1.41.11.71.2-.24.42-.42.64-.54.22-.12.45-.18.7-.18.28,0,.5.06.68.17.18.12.29.26.34.42.05.17.08.41.08.73v1.08c0,.4,0,.64.02.73.01.09.06.15.13.2.07.04.21.07.41.07v.19h-1.77v-.19h.08c.2,0,.33-.03.4-.09.06-.06.1-.13.11-.21,0-.08.01-.31.01-.7v-1.12c0-.27-.01-.47-.04-.59-.03-.12-.1-.22-.22-.31-.12-.09-.27-.14-.45-.14-.21,0-.4.06-.59.18-.19.12-.36.31-.53.55v1.41c0,.4,0,.64.02.73.02.09.06.15.14.2.07.04.21.07.42.07v.19h-1.75v-.19c.19,0,.33-.02.41-.06.08-.04.12-.1.14-.18.02-.08.03-.33.03-.75v-1.03c0-.4,0-.65-.02-.73-.02-.09-.06-.15-.14-.19-.07-.04-.21-.07-.42-.07v-.19c.31-.03.63-.1.95-.19"/>
    </g>
  </g>
</svg>