<?xml version="1.0" encoding="UTF-8"?>
<svg id="Layer_2" data-name="Layer 2" xmlns="http://www.w3.org/2000/svg" viewBox="0 0 84.06 93.39">
  <defs>
    <style>
      .cls-1 {
        fill: #fff;
      }
    </style>
  </defs>
  <g id="Layer_2-2" data-name="Layer 2">
    <g>
      <path class="cls-1" d="M11,12.67c-3.52,3.04-6.44,6.74-9.91,9.85-.8.25-1.44-.73-.88-1.35l9.18-9.34c1.24-.93,3.51-.44,5.01-.54,1.17-.08,4.17-.66,5.2-1.13.14-.06.28-.12.35-.27.17-.34.11-3.36.03-3.9-.19-1.34-2.47-3.84-.88-4.98C19.66.62,22.6.01,23.34,0c.86-.02,2.51.27,3.1.93.72.82-.67,2.95-.81,3.98-.1.67-.16,1.73-.19,2.43-.14,2.89.1,5.83,0,8.72.44-.16,1.29.2,1.59.13.26-.06.71-.75,1.15-.86.84-.22,1.34.1,1.97.58.28.21,1.6,1.41,1.76,1.64,1.13,1.62-.65,3.87-.86,5.57-.11.9.18,1.58.13,2.27-.03.36-.31.68-.29.9.05.55,1.76,2.31,2.36,2.57.06-1.12-1.81-1.63.04-2.28.89-.31,2.16-.75,2.97-1.2.22-.12.71-1.09,1.08-1.39,1.03-.85,1.58-.49,2.78-.38.03-.39-.47-.61-.46-1.01,0-.34.61-.6.61-1.08,0-.4-.55-.71-.45-1.06.06-.18.4-.24.52-.42.26-.38.6-1.32.87-1.6.31-.31.86-.3,1.22-.48.43-.22,1.6-.9,1.87-1.26.11-.14.13-.49.15-.51.15-.11,3.12.99,3.16,1.7.96-.75.41-2.33,1.97-2.13,1.12.15,2.57.93,3.89.74.75-.11,2.5-1.38,3.33-1.62,1.02-.3,3.04.09,3.33-1.31.05-.24-.12-.57-.09-.62.11-.16.91.03,1.14,0,.62-.09,1.25-.63,2.02-.63.38,0,1.86.42,2.19.6.61.33,2.7,3.23,1.97,3.89-.06.06-1.42.64-1.62.7-.99.3-2.52.24-3.28.58-.64.28-1.21,1.61-1.82,1.88-.5.23-1.06-.08-1.24,0s-.33.52-.53.7c-.73.64-1.63,1.3-2.04,2.28-.37.89-.34,1.91-.53,2.54-.1.32-.46.31-.6.54-.36.63.94,1.75,1.22,2.44.22.53.2,1.08.42,1.59.26.61,1.27,1.61,1.41,2.14.06.24.1,1.45.05,1.64s-.98-.08-.51,1.13c.11.29.96,1.48,1.22,1.56.43.13.84-.12,1.31-.09,1.14.06,1.9.84,3.12.74.63-.06,1-.44,1.86-.3.53.09,1.28.76,1.74.88.4.1.82-.04,1.24.15.56.26,2.44,3.51,3,4.18.42-.15,1.09.33,1.26.32.27-.02.47-.44.93-.43.65,0,1.72.68,2.18.7,1.35.06,2.82-.17,4.19-.19.73-.01,1.91.37,2.45.87.12.11,1.26,1.7,1.28,1.81.02.07-.12,1.35-.15,1.41-.05.09-.96.28-1.13.64-.42.89.45,1.74-1.47,1.86.69,1.16-.66,2.53-.61,3.48.01.21.25.39.29.62.12.71-.07,1.51.28,2.34.23.54,1.73,2.63,1.73,2.9,0,.76-2.07,1.24-2.45,1.85,0,.19,2.13,2.15,2.27,2.97.06.35-.16.61-.13.88.09.92.76,2.67.92,3.72.05.35.13,1.32-.25,1.44-.12.04-1.22.14-1.29.11-.1-.05-1.2-1.65-1.27-1.83-.24-.61.47-2.07.19-2.88-.15-.18-1.5,1.18-1.74,1.27-.7.29-1.57.26-1.89-.5l-.08.62c-2.06-.28-4.15-.5-6.21-.82-.42-.07-.88-.35-1.16-.39-.74-.09-1.66.11-1.42,1.04.41.22.76-.08,1.15.15.41.24,1.96,2.23,2.12,2.69.03.09-.08,1.76-.3,1.78-.97.32-1.46-.48-1.85-.56-.76-.15-1.98.7-2.84.27.18.73-.46,2.24-.32,2.83.03.13.48.21.7.42.43.42,1.61,2.39,1.48,2.98-.03.12-.33.09-.32.17.12.79.97.83.76,2.46l-4.45,13.92c-.61,1.25-1.85-1.21-2.17-1.41-.17-.1-.47.1-.77.02-.06-.02-1.13-.56-1.18-.61-.3-.25-1.48-1.96-1.21-2.42l3.09-3.55.08-.46c-1,.25-1.09-.95-1.97-1.2-.65-.18-2.05.57-2.56.42-.17-.05-.18-.32-.31-.4-.32-.22-.44-.38-.63-.51-.94-.67-1,.14-1.59.28-.24.06-.49-.11-.66-.04-.14.05-.19.32-.54.37-1.01.17-1.53-.32-2.17-.41-.4-.06-1.62.22-1.91.03-.12-.08-.17-.34-.32-.45-.21-.15-.44-.16-.69-.39-.23-.22-1.61-2.35-1.58-2.53.03-.14.28-.24.21-.41-.14-.35-1.15-1.52-1.45-1.96-.49-.72-.23-.98-1.21-1.57-1.37-.82-1.65-.95-2.45-2.49-.18-.35-.24-.97-.36-1.14-.09-.13-1.48-1.01-1.77-1.21-.18-.13-.24-.41-.45-.49-.3-.12-.45.27-.92.19-.55-.1-1.48-1.06-1.74-1.06s-.9.74-1.3.86c-1.87.56-2.34-1.5-.94-2.32-1.36-1.26-.83.2-1.39.47-.27.13-1.11-.26-1.55-.17-.46.1-1.6.79-2.23,1.01-4.93,1.72-9.3,1.67-14.12-.39-15.27-6.54-13.72-29.84,2-34.58.4-.12,2.08-.39,2.17-.45.27-.19.1-.99.15-1.32h-2.7c-.92,0-1.44-2.46-1.7-3.09-.15-.37-.58-.74-.66-1.04-.3-1.16.59-2.12.03-3.12-.15-.27-.5-.43-.61-.78-.47-1.47.81-1.8.93-2.77.05-.44-.4-.91-.4-1.49,0-2.05,3.71-3.19,5.11-4.17v-4.55c-.68.41-1.6,1.22-2.07,1.86-.91,1.23-1.2,3.03-2.09,4.24-1.55,2.1-3.53,1.93-4.97,4.76-.42.82-2.33,6.36-2.7,6.44-.66.16-1.32-.46-1.1-1.13,1.2-2.21,1.88-5.1,3.1-7.25,1.1-1.94,3.22-2.27,4.43-3.75.78-.95,1.28-2.43,1.55-3.62-2.6.48-3.22,3.31-5.5,4.46-.43.22-.95.27-1.35.5-1.53.9-3.39,5.76-4.39,7.49-.2.35-.77,1.45-1.16,1.42-.33-.03-1.06-.66-.82-1.06l4.42-8.26c.94-1.02,2.4-1.22,3.47-2.09.98-.8,1.72-2.14,2.55-3.08h-2.55ZM25.28,2.02c-1.8-.83-3.78-.92-5.56,0l1.18,3.25,3.59-.03.79-3.22ZM24.35,9.12h-3.4c.01.23-.06.59.07.78.16.24,2.94.22,3.24,0,.21-.15.05-.58.09-.79ZM24.35,12.82c-.04-.35.15-2.01-.23-2.01h-3.16v2.01h3.4ZM66.08,16.75c.35-.16.76-.13,1-.44.03-.35-1.68-2.77-2.1-2.98-.27-.13-1.85-.58-2.02-.47-.18.12-.15.77-.95.28-.06.06.3.48-.1.6-.72.21-.66-.25-.78-.29-.67-.2-.47.36-.82.85-.85,1.17-2.25.73-3.4,1.07-.82.24-2.38,1.42-3.19,1.59-.42.09-1.95-.06-2.42-.13-.51-.09-1.78-.62-2.1-.54-.65.17-.35.67-.49,1.07-.07.21-.35.22-.44.37-.15.26-.47,1.4-.93.87-.66-.75-.65-1.32-1.96-1.57-.77-.15-.91.35-1.44.65-.41.23-.9.57-1.17.71-.35.18-.81.12-1.12.39-.41.35-.48,1.13-.66,1.42-.08.12-.41.17-.51.35-.12.22.26.55.26,1,0,.5-.46,1-.44,1.22.03.44.77.79.06,1.19-.72.4-1.31-.18-2.18.14-.99.36-1.07,1.43-1.56,1.72-.22.13-.56.1-.8.24-.95.53-1.65,1.09-2.79,1.14.21.51.67.89.8,1.45.13.55.15,1.73-.56,1.16-.24-.19-1.21-1.05-1.39-1.23-.19-.2-1.38-1.91-1.48-1.85-.72,1.11-.63,2.46-1.27,3.6-.54.97-1.28,1.41-2.13,2.04.56.35,1.08,1.82,1.5,2.09.43.29,1.82.6,2.46.89,3.1,1.43,5.8,3.47,7.74,6.31.35.52,1.46,2.86,1.6,2.95.25.16,1.1-.12,1.21.57.14.85-.62.62-.63.77-.01.27.48,1.46.57,1.9,1.52,7.16-.52,13.53-5.89,18.41l-1.16.92c.37.22,1.2.44,1.49.67.43.34.65,1.45,1.44,1.34-.12-.52-1.36-1.32-1.23-1.75.02-.07,1.07-.96,1.15-.97.23-.02.68.36,1.01.26-.57-.28-.49-1.38,0-1.16.38.17,1.24,1.41,1.69,1.7-.38.34-.78.96-1.32,1-.95.08-.57-.64-.77-.79-.07-.05-.95-.32-.99-.29.09.56,1.31,1.27,1.21,1.75-.03.16-.34.32-.28.41.05.07,1.38.89,1.49.9.2.01.33-.22.48-.25.58-.13,1.03.64,1.38.9.33.23,1.22.65,1.55.97.28.27.84,2.53,1.63,3.16.29.23.69.18,1.31.66.17.13,1.06.74,1.1.8.08.14-.1.39-.05.6.17.59,1.69,2.04,1.75,2.26.08.35-.35.45-.23.81.04.11,1.25,1.92,1.36,1.98.15.08.4-.02.54.07.11.06.14.41.34.52.27.14,1.08-.28,1.46-.24.29.03.72.47,1.16.55.87.16,1.16-.26,1.66-.37.22-.05.43.14.65.05.32-.13.44-.73,1.12-.67.95.09,1.11,1.44,2.34,1.2.53-.1,1.1-.6,1.79-.39.52.16.94.9,1.24,1.09.25.16,1.3.28,1.34.78.03.42-3.36,3.85-3.36,4.32,0,.52,1.41,2.04,1.99,2.16.28.06.61-.21.95,0,.25.15.81,1.42,1.31,1.62.17,0,.93-2.45,1.04-2.81,1.21-3.66,2.34-7.36,3.46-11.04.15-1.2-.69-1.56-.73-2.13-.02-.29.22-.44.24-.61.06-.44-.98-1.91-1.32-2.32-.2-.24-.64-.32-.74-.65-.23-.74.44-2.33.3-3.19.16-.51.88-.1,1.25-.13.55-.05,1.31-.5,2.04-.44.59.05.81.73,1.46.63-.1-.38.14-.94.07-1.25-.08-.41-1.36-2.02-1.78-2.21-.26-.12-1.23-.21-1.36-.42-.08-.12.08-1.6.14-1.66.06-.06,1.58-.18,1.74-.16,1.77.21,4.52,1.2,6.34,1.08.45-.03-.08-.25.31-.77.83-1.07.94.93,1.85.93,1.12,0,1.75-1.72,2.76-1.39.65.22-.01,2.55.13,3.11.02.08.85,1.43.92,1.47.13.08.87.1.9-.06-.13-1.15-.27-2.37-.74-3.42.28-.58-.29-.95-.31-1.38-.01-.26.26-.44.2-.67-.04-.15-.9-1.32-1.08-1.55-.4-.5-1.25-.91-1.33-1.76l2.49-1.42c.06-.38-1.34-2.21-1.56-2.75-.43-1.06-.17-1.67-.3-2.47-.04-.26-.31-.43-.32-.78-.01-.62.57-1.53.69-2.07.1-.44-.14-1.21,0-1.55.25-.59,1.09-.38,1.25-.61.19-.26-.24-2.16,1.3-2.02.03-1.27-1.07-3.04-2.41-3.23-.67-.09-1.12.12-1.67.13-1.07,0-2.2.02-3.27,0-.49-.01-1.52-.73-2.16-.68-.29.02-.59.36-.94.4-.46.05-.57-.23-.78-.27-.2-.03-.41.14-.57.12-.27-.03-2.66-4.16-3.19-4.41-.33-.16-.76-.02-1.12-.11-.41-.1-1.32-.81-1.74-.89-.66-.12-1.02.24-1.55.3-1.52.16-2.07-.62-3.3-.69-.53-.03-1.19.26-1.71,0-.26-.13-.81-1.22-1.08-1.55-.13-.16-.45-.19-.47-.33-.02-.12.11-.36.11-.57,0-.19-.14-.42-.11-.62.02-.14.56-.27.7-.57.49-1.06-1.02-2.14-1.38-2.94-.22-.51-.16-1.16-.42-1.74-.32-.71-1.11-1.72-1.83-2.03-.05-.19,1.02-1,1.14-1.3.27-.65.27-1.93.73-2.83.06-.12,1.17-1.68,1.25-1.76.18-.19.66-.21.84-.39.22-.22.19-.84.74-.89.37-.03.7.31,1.16.08.29-.14,1.25-1.71,1.54-1.86.72-.36,2.82-.32,3.89-.71.1-.04.13-.21.18-.24ZM25.59,31.81c3.27-.52,2.8-3,3.88-5.15.2-.41.81-.99.88-1.29.08-.36-.19-1.58-.11-2.26.14-1.23,1.39-3.71,1.22-4.64-.07-.36-2.23-2.36-2.56-2.4-.53-.08-1.29.75-1.61,1.16-.28.36-1.2,1.97-1.21,2.35,0,.5,1.66,1.21,2.13,1.37.71.23.88-.19,1.02.99.15,1.18-.56,1.63-.56,1.93,0,.26.48.7.47,1.24,0,.56-.53,1.01-.61,1.55-.09.6.12,1.44-.04,1.97-.21.7-2.59,1.11-2.83,1.49-.22.36,0,1.25-.07,1.7ZM26.51,16.84c-1.49.23-3.72-.57-5.1-.24-.53.13-4.14,2.17-4.67,2.59-.39.3-.93.91-.88,1.43.03.29.36.5.43.81.3,1.25-1.11,2.06-1.05,2.74.04.47.83.94.92,1.57.14.88-.44,1.66-.27,2.43.08.39.62.93.78,1.39.21.61.21,1.86.83,2.26.66.42,1.93,0,2.68.17.24-1.09-.6-.36-1.08-.69-.16-.11-.22-.43-.15-.54.32-.47,6.6-1.38,7.56-1.86l-.16-1.23-6.55.92c-.95-.12-.9-1.12.03-1.34l7.8-1.16c.86-.32.89-1.81-.09-1.81l-8.34,1.03c-1.63-1.02.32-1.34,1.23-1.48,2.5-.38,5.16-.48,7.68-.81.37-.09.39-1.07.23-1.2-.06-.05-1.26-.15-1.52-.33v1.54s-.46,0-.46,0c-.02-1.02.13-2.39-1.04-2.76l-6.61,1.52c-.72.1-.94-.13-.86-.86.04-.35.57-.39.91-.49,1.7-.53,3.94-1.02,5.71-1.39.28-.06.8.02.94-.06.11-.06.77-1.89,1.1-2.14ZM27.75,34.28c-.33-.34-.91-1.62-1.24-1.78-.72-.37-1.24.91-.91,1.31.07.08,1.83.33,2.14.48ZM38.09,44.78c-2.3-4.73-7.22-8.34-12.5-8.8l-.15,9.26c.24.01.17-.3.4-.45.61-.41,1.69-.34,2.38-.17-.14-.72-.42-1.25-1.23-1.08-.1-.09.25-1.07.39-1.23.21-.23.59-.24.76-.47.43-.57.09-1.04,1.39-1.09s1.55,1.18,2.53,1.82c.09.36-1.19,1.45-1.22,2.05,1.03.07,2-.27,2.84.45l4.41-.3ZM20.19,36.14c-5.27.9-9.77,4.83-11.86,9.67-.41.94-1.26,3.36-1.26,4.3v3.32c.38-.11,1.41-.51,1.61-.78.26-.35.58-1.79.88-2.37.78-1.52,2.02-2.17,3.68-2.41-.65-.32-.54-1.93-.62-2.01-.06-.06-.72.06-.77,0-.04-.04-.04-1.04,0-1.08.07-.07.71.1.9-.02.25-.16.18-1.2,1.35-1.35,1.72-.23,1.4,1.12,1.79,1.35.35.21,1.05-.43.76,1.02-.03.17-.36.03-.44.1-.1.09-.18,1.58-.65,1.83.87.15,1.65.84,2.55.32,1.05-.6.74-2.38.84-2.48.05-.05,1.24.13,1.24-.23v-9.19ZM31.38,42.47c-.53-.14-2.24,0-2.93,0-.05,0-.15-.15-.39-.09-.41.09-.86.83-.54.87,1.36-.12,2.79-.02,4.09-.47.04-.05-.18-.29-.23-.31ZM30.99,43.39c-.53,0-1.07-.03-1.6.02-.91.08-1.7.03-.71.98.98.56,2.1.13,2.31-.99ZM23.74,43.7c-.07-.08-1.83.06-2.16,0-.32,1.33.61,2.34,1.89,1.66.49-.26.41-1.51.27-1.66ZM32.97,44.96c-.29-.18-6.52-.05-6.82.12-.25.15-1.02,1.18-.58,1.48.38.26,2.66-.07,3.32.06.19.04-.01.45.17.48.44.09,2.84-.64,2.54.37-.1.33-.82.14-1.01.38-.16.21.38.88-.17,1.06-.67.1-4.21.01-4.54.24-.21.15-.22,1.75-.08,1.95.28.39,1.56,0,2.01-.02.81-.03,5.26.05,5.6-.34.23-.27.2-1.35.19-1.74-.02-.81-.16-2.44-.34-3.2-.07-.3-.2-.58-.29-.87ZM41.02,45.09l-7.41.31.16,1.54c1.92-.4,3.89-.67,5.86-.62.03-.21-.08-.59.02-.75.21-.34,1.52.12,1.37-.48ZM15.86,45.86h-2.93c-.06,2.4,2.95,2.57,2.93,0ZM23.74,45.86c-.15-.1-3.04,0-3.55,0-.03,0-.03.62,0,.62h3.7c0-.11-.13-.6-.15-.62ZM24.2,46.79h-2.39c-.27,0-.26.86-.23,1.08.99-.41,1.81-.38,2.62.39,1.34,1.26-.52.63-.84.7s-.05.54-.15.77c-.27.58-1.29.14-1.64.38-.3.21-.07,1.09-.14,1.17-.05.06-1.49.06-1.54,0-.08-.09.28-1.38-.68-1.07-.4.13-.22.9-.25,1.22h6.1c.06,0,.18-.17.21-.26-.16-.75-.03-5.04-.29-5.29-.08-.07-.72.03-.92,0l.15.93ZM38.99,46.81c-.68,0-1.38-.08-2.06-.02-.34.03-2.74.45-2.86.53-.28.2-.1,1.25,0,1.32.08.05.39-.15.55-.14.68.02.94.05,1.64-.14l3.51,1.98c.14-.16-.64-3.43-.79-3.53ZM28.5,47.12c-.21-.24-2.76-.16-2.91-.01-.07.07-.24,1.73.49,1.66.45-.04,2.16-.12,2.35-.26.15-.11.13-1.33.07-1.39ZM14.44,48.07c-1.4.1-3.37.61-4.2,1.82-.49.71-1.51,4.3-1.6,5.2-.02.18-.06.31.12.43l10.75-.85c.39-.55-1.08-3.35-1.45-3.97-.98-1.67-1.5-2.78-3.61-2.63ZM24.2,48.8c-.76-1.07-2.75-1.26-2.58.51.06.64,1.15.47,1.2.42.17-.19-.3-1.59,1.39-.93ZM18.1,49.88c.75.21,2.45-.16,3.32,0-.25-.48-.14-1.02-.15-1.54-1.39.08-2.77.23-4.17.16.3.24.74,1.31,1,1.39ZM39.94,52.66c-.06-.49.15-1.23-.14-1.63-.11-.15-3.01-1.86-3.3-1.95-.85-.26-2.78.64-2.27,1.26.05.06,1.21.26,1.54.39.49.19,4,2.12,4.17,1.93ZM39.93,53.13c-.05-.07-1.35-.47-1.64-.6-.82-.38-2.84-1.6-3.56-1.69-.27-.04-1.25.35-1.29.54-.04.22.18,1.42.41,1.58.77.15,5.66,2.15,5.93,1.87-.15-.36.26-1.52.14-1.69ZM33.15,51.42c-1.19.17-6.56-.11-7.26.38-.63.44.59,2.3.74,2.83.15.55.19,1.31.19,1.89.19-.03.65.07.76-.02.07-.06.25-1.33.47-1.76.17-.32,1.16-1.47,1.47-1.47.81,0,1.1,2.64,1.49,3.23.43.26,1.86-.86,2.44-.83.68-.42-.46-3.43-.3-4.24ZM25.28,51.73h-6.17c.31,1.28,1.93,3.24-.31,3.55-.02.02.15.35.21.41.93.96,4.94.46,6.19.04,1.83-.61.64-1.04.28-2.27-.16-.55-.22-1.16-.2-1.73ZM9.85,56.06c-2.41.38-1.74-.96-1.39-2.63-.25.14-1.3.62-1.34.84-.04.24.3,1.68.39,2.04.48,1.91,1.37,3.66,2.41,5.31.11,0,.12-1.57.06-1.76-.11-.31-.66-.21-.73-.49-.09-.34.54-2.74.6-3.31ZM39.17,57.13c.02-.39.66-1.55.31-1.78l-5.56-1.78c0,.51-.05,1.66.4,1.99.78.58,3.82.87,4.85,1.56ZM24.35,58.22h-2.86c-.22,0-.32.82-.23.92.04.05.95.15,1.23.24s1.96.57,1.62,1.01c-.22.29-5.55,1.48-6.32,1.85-.32-.38-.93-2.56-1.17-2.72-.15-.1-.43.11-.62.02-.2-.1-.33-.52-.54-.71-1.28-1.13-3.22.28-3,1.76.13.94.63.58,1.23.78.95.3.55,1.63.46,1.63h-2.93c.24.59.97,1.27,1.46,1.7,8.52,7.54,22.83,3.74,26.32-7.1l-4.78-1.55c.33.49,1.56.58,1.86.99.6.83-.65,1.48-1.36,1.6-.58.1-1.31-.07-1.79.04-.12.03-.04.28-.33.32-2.59.36-1.52-1.99-2.49-3.55-.16-.26-1.15-.92-1.38-.9-.68.05-.86,2.49-.46,3.05.25.34,1.55.25,1.86,1.23.28.88-.25.6-.51.82-.15.13-.12.49-.22.56-.39.26-2.37.04-2.82.16-.17.05-.08.57-.32.6-.31.04-1.31-.56-1.77-.44l-.16-2.31ZM18.64,58.67c.13-.13-.18-2.98-.38-3.24-.19-.24-.79-.17-1.08-.15-2.28.14-4.58.42-6.85.64l-.49,3.37c.54-.1,1.63.36,2.07.27.29-.06.96-1.05,1.34-1.26.53-.3,1.39-.36,1.95-.13.43.17.83.95.92.97.62.14,1.82-.51,2.51-.48ZM26.36,55.9c-1.75.35-1.96.68-1.39,2.4.29-.06,1.42-.1,1.53-.26s.01-2.03-.13-2.14ZM31.47,58.65c.32.3,1.04-.24,1.3-.27.92-.13,1.88.08,2.8-.44,1.04-.59-.86-1.11-1.33-1.36-.2-.1-.32-.37-.48-.45-.82-.39-1.75.8-2.6.87-.06.1-.06.93-.01,1.1.02.1.2.11.24.18.08.13.04.34.08.37ZM21.11,56.67c-.7.02-1.38.05-2.01-.31l.15,2.01c1.14-.21,2.03-.29,1.85-1.7ZM27.75,56.82c-.64-.04-1-.05-.92.68.09.87,2.21,2.03,3.08,1.79-.21-1.6-2.47-.47-2.16-2.47ZM20.96,58.37l-1.7.46c.36,1.24,1.21.72,1.97,1.04.38.16.56.74.72.77.25.04,1.39-.43,1.78-.42l-2.63-.84c-.27-.23-.13-.7-.15-1.01ZM26.21,59.91c.09-.1,2.39.08,2.78,0,.08-.37-.06-.25-.2-.34-.36-.25-2-1.16-2.34-1.18-.21,0-1.61.26-1.64.38-.3,1.07.36,1.75,1.4,1.76.03-.15-.04-.57,0-.62ZM18.92,59.01c-.32-.19-1.38.39-1.83.28-.12.12.71,2.26.93,2.4.32.2,2.81-.79,3.4-.86-.16-1-.94-.55-1.43-.64-.72-.12-.89-1.08-1.07-1.19ZM11.98,59.94c-.15-.09-1.37-.11-1.67-.18l.18,2.76c.54.2,3.84.56,3.53-.51-.14-.47-1.26-.03-1.62-.39s-.16-1.53-.4-1.68Z"/>
      <path class="cls-1" d="M8.81,65.73c.09.12.4.16.5.36.14.27-.22.64.29.93.3.17.6.11.85.23,1.14.59.85,1.13,1.09,2.23.67-.42.41-1.4,1.22-.53-.86,1.76-1.97,3.09-2,.06-.3.07-.44.86-.7.92-.17.04-.49-.27-.52-.41-.06-.32,1.05-1.31,1.06-1.75-.25-.24-4.11,2.72-1.85-1.85l-.62.31c.08-.13-.16-1.28-.46-.92-.06.07.61,1.56-.4,1.7-.8.11-1.65-1.15-.69-1.55.04.37.26.77.62.93-.3-.6-.58-1.73.41-1.82.65-.06.92.8,1.18,1.16Z"/>
      <path class="cls-1" d="M2.71,46.2c1.71-.35,2.04,2.38.41,2.59-1.83.24-1.87-2.29-.41-2.59Z"/>
      <path class="cls-1" d="M4.49,62.12c1.02-1.11,2.61.55,2.41,1.24-.06.21-1.75,1.24-1.99,1.12-.61-.32-.98-1.74-.41-2.36Z"/>
      <path class="cls-1" d="M34.08,69.18c-.24.71.66,2.9-.53,2.79-.36-.04-1.34-1.19-1.78-1.4l.55,2.01c-1.03.7-2.68.8-2.57-.85.09-1.28,1.63-1.05,2.4-1.73,1.39.82.75-.99,1.93-.82Z"/>
      <path class="cls-1" d="M6.56,38.17c.59-.11,1.39.53,1.43,1.15.03.52-.63,1.38-1,1.75l-1.93-1.45c.37-.42.92-1.34,1.5-1.44Z"/>
      <path class="cls-1" d="M20.32,71.82c.25.4-.42,1.76-.29,2.3-1.15.04-2.44-.34-2.13-1.74.25-1.11,2.21-.87,2.42-.55Z"/>
      <path class="cls-1" d="M10.44,34.3c.07.05.94,1.22,1.03,1.37.83,1.42-1.29.38-1.63.63.04.21.59.73.59.85,0,.09-.33.4-.49.37-.2-.03-1.5-1.61-1.48-1.74.43-.76,1.16-.12,1.84-.25.07-.05-.52-.67-.47-.99.02-.12.53-.28.61-.23Z"/>
      <path class="cls-1" d="M22.35,73.19l.16-1.24c.99-.37.56,2.37.46,2.47-.09.09-.54-.04-.7-.15-.47-.29-1.07-2.03-.99,0h-.77c.31-.73.1-1.55.15-2.32.98-.26,1.07.79,1.7,1.24Z"/>
      <path class="cls-1" d="M1.2,52.04c.03-.57-.17-1.33.32-1.77s1.41.43,2.15-.39c.23,1.23-.3.75-.92,1.39.65.03,1.08.01.93.77H1.2Z"/>
      <path class="cls-1" d="M15.69,72.09c.31-.2.13-1.43-.44-1.06-.03.02.31.52-.08.61-1.09.27-1.06-1.62.28-1.36,1.65.33,1.38,2.46.02,2.59-.94.09-1.98-1.09-1.22-1.23.18-.03.86.81,1.44.44Z"/>
      <path class="cls-1" d="M1.36,54.82v-.77c.64-.05,1.92.31,1.71-.68-.07-.33-1.53.02-1.86-.09v-.77c.87.08,2.35-.39,2.48.85.17,1.66-1.07,1.5-2.33,1.47Z"/>
      <path class="cls-1" d="M3.36,56.82l-.15-1.08c0,.72-.65,1.82-1.38,1.15-.45-.41-.58-1.79.3-1.61l.08,1.08c.37-.38.11-.92.61-1.24,1.14-.74,1.8,1.78.55,1.71Z"/>
      <path class="cls-1" d="M14.47,69.81c.07.1-.83,2.07-.93,2.14-.21.15-2.21-.67-1.3-1.22l.85.46c.1-.44-.52-.44-.6-.71-.31-1,.98.03,1.06-.06.37-.41-.59-.61-.7-.77-.04-.06.07-.45.09-.47.07-.06,1.49.56,1.53.63Z"/>
      <path class="cls-1" d="M2.9,60.53c.84-.42.43.62,1.08.62-.14-.71-.73-.94.31-1.08.11.08,0,.9.38.77.44-.15-.08-.59-.08-.85.03-1.18,1.16.66,1.07,1.07-.04.19-1.94,1.03-2.06,1.01-.21-.05-.84-1.38-.71-1.53Z"/>
      <path class="cls-1" d="M14.46,31.98s.18.43.17.45c-.05.06-.92.12-.77.62.05.05.98-.75,1.08.08l-.77.7c.34.13.79-.35,1-.31.18.03.32.47.23.61-.05.07-1.32.54-1.54.62,0-.46-.98-1.78-.92-2.07.05-.21,1.36-.83,1.52-.7Z"/>
      <path class="cls-1" d="M27.26,71.83c.05.03.23.54.18.59l-1.08.15c.54.16,1.22.17,1.23.87.02.94-1.97,1.33-1.69.06l.92.08c-.49-.44-1.18-.09-1.23-.94s1.21-1.09,1.67-.81Z"/>
      <path class="cls-1" d="M28.06,73.96s-.03-.54.02-.6c.03-.04,1.15-.15.75-.48-.07-.06-.59.22-.82.17-.09-.02-.27-.45-.26-.47.03-.04.9-.14.92-.39.03-.37-.84.05-1.05-.1-.02-.01-.19-.42-.18-.44.07-.09,1.45-.28,1.7-.47.03.36.65,2.19.56,2.32-.11.16-1.58.52-1.63.45Z"/>
      <path class="cls-1" d="M4.33,42.89c.64.62,1.33-.37,1.2-1.04.71.11.63.48.47,1.01-.56,1.78-3.08.83-2.36-.97.17-.42.99-1,1.12-.42.06.27-.99.87-.42,1.42Z"/>
      <path class="cls-1" d="M3.67,43.7c.18.23-.81.71-.39,1.39.52.86,1.51-.26,1.16-1.08,1.21.01.54,1.86-.4,2-2.15.31-1.65-2.3-.89-2.43.07-.01.5.1.52.13Z"/>
      <path class="cls-1" d="M7.84,37.37c.22.21.57-.52.85-.46.72.15-.56.9-.07,1.16.21.11.53-.46.7-.54l.38.38c-.24.16-.86,1.04-1.13.99-.14-.03-1.6-1.32-1.63-1.48.06-.25,1.06-1.29,1.15-1.29.03,0,.38.36.38.38,0,.09-.82.65-.61.85Z"/>
      <path class="cls-1" d="M12.34,33.53c-.24.41,1.31,1.78.52,1.99-.68.18-.94-1.22-1.17-1.38-.18-.12-1.1.74-1.03-.09.01-.13,1.97-1.61,2.12-.92.07.33-.39.32-.44.4Z"/>
      <path class="cls-1" d="M4.44,57.75l.46,1.7c-.43-.07-2.09.78-2.31.61-.03-.02-.19-.49-.1-.62.18-.27,1.35-.33,1.57-.61.18-.23-.8-1.07.37-1.09Z"/>
      <path class="cls-1" d="M70.96,47.25c.79,0,1.72-.23,1.71.85,0,.37-.33.69-.29.9s.49.53.44.88c.13.1,1.47-1.76,1.54-1.93.19-.47-1.27-.11-1.39-.23v-.46h2.32l-1.39,2.47c.39-.05,1.07.12,1.39-.07s.84-2.29.94-2.38c.05-.04.44-.05.51-.03.15.05.91,2.6,1.17,2.94-1.04.2-.46-.85-1.47-.78-.73.05-.42.64-.79.77-.2.07-2.77.08-3.07.02-.52-.1-.56-1.05-1.16-1.24v1.24s-.46,0-.46,0v-2.93Z"/>
      <path class="cls-1" d="M66.33,56.52c-.22.51-1.2,3.62-1.48,3.69-.14.03-.7-.08-.69-.36.02-.45.97-2.21.78-2.39-.23.04-1.18-.06-1.23,0-.05.05.02.93-.12,1.35-.21.66-1.44,2.01-1.88.88-.11-.28.79-.5.77-.84-2.66-.29-.63-3.71,1.23-1.7.02-.1-.03-.62,0-.62h2.62Z"/>
      <path class="cls-1" d="M58.62,51.89v2.47c1.96.47,1.46-1.4,2.15-2.38.11-.15.25-.14.38-.08.34.14,1.1,2.57,1.32,3.08-.92.32-.61-.88-1.15-.94-1.19-.14-.93.94-1.01.94h-2.16v-3.09h.46Z"/>
      <path class="cls-1" d="M68.34,56.52c.07.07-.05,1.62-.01,1.94.04.29.29.2.32.32.16.56-.28.5-.31.62-.05.19.04.62,0,.67-.03.03-.9.03-.93,0-.06-.06.06-.72,0-.77s-1.15.04-1.39,0c-.31-.44,1.41-2.65,1.58-2.74.19-.11.51-.01.74-.03Z"/>
      <path class="cls-1" d="M59.23,47.25v2.47c1.95.5,1.43-1.46,2.15-2.38.11-.14.27-.14.39-.09.17.07,1.27,2.82,1.16,2.93-.42.41-.67-.74-1-.78-1.31-.17-.88.78-1.01.78h-2.16v-2.93h.46Z"/>
      <path class="cls-1" d="M45.14,47.76c1.22,1.22-.6,3.1-1.8,2.04-1.28-1.13.52-3.32,1.8-2.04Z"/>
      <path class="cls-1" d="M40.97,66.04c-1.33,1.22-2.97-.86-1.73-1.96,1.41-1.26,2.93.87,1.73,1.96Z"/>
      <path class="cls-1" d="M33.51,35.16c-1.25-1.37.85-2.99,1.96-1.73,1.21,1.37-.88,2.91-1.96,1.73Z"/>
      <path class="cls-1" d="M45.65,51.42c.59,3.28-2.94,3.29-2.31,0h2.31Z"/>
      <path class="cls-1" d="M39.79,38.3c2.73-.21.49,1.16-.39,2l-.54-.54.92-.85h-.93s.15-.77.15-.77c-.06-.08-1.13,1.39-1.39,0,1.22-.66,2.52-2.73,2.16.15Z"/>
      <path class="cls-1" d="M31.92,32.59c2.67-1.83.87,1.82.68,1.86-1.01.23-.55-.77-.22-1.24-.26-.11-.61.31-.7.3-.22-.02-.2-.95-.54-.61-.04.04-.08.9-.39.92-.05,0-.49-.27-.52-.39-.03-.11.68-1.99.77-2.05.6-.42,1.01.74.91,1.22Z"/>
      <path class="cls-1" d="M52.13,54.97v-3.09c3.56-.64,3.51,3.63,0,3.09ZM52.75,54.36c1.92.2,1.89-2.14,0-2.01v2.01Z"/>
      <path class="cls-1" d="M43.03,44.17c.37-.35,1.64-.44,1.16.32-.06.09-1.91.92-2.02.91-.65-.06.19-1.72.39-2l-1.23.46c0-.2-.25-.61-.15-.76.07-.09,2.06-.93,2.16-.87.77.46-.49,1.72-.31,1.94Z"/>
      <path class="cls-1" d="M52.4,47.29c2.39-.7,2.79,2.9.72,3.05-1.86.14-2.08-2.65-.72-3.05ZM52.86,47.74c-1.07.16-.97,2.16.26,1.99,1.1-.16.85-2.16-.26-1.99Z"/>
      <path class="cls-1" d="M65.85,52.06c.08.14,0,.41.02.59-.75-.15-1.22-.67-1.77.16-.83,1.27.89,1.8,1.15,1.54.02-.02.02-.45,0-.46-.09-.09-.65.28-.46-.62h1.08c-.02.87.28,1.63-.85,1.71-2.05.14-2.18-2.84-.61-3.09.27-.04,1.32-.02,1.43.17Z"/>
      <path class="cls-1" d="M68.34,51.89c.41-.43,1.72,1.75,1.93,2.01l.08-2.01h.46v3.09c-.27.04-.34,0-.53-.16-.45-.38-.89-1.48-1.47-1.85v2.01s-.46,0-.46,0v-3.09Z"/>
      <path class="cls-1" d="M54.76,47.25c.56-.53,1.48,1.67,2,1.85v-1.85s.46,0,.46,0v2.93c-.95-.02-1.25-1.4-2-1.85v1.85s-.46,0-.46,0c.08-.4-.11-2.83,0-2.93Z"/>
      <path class="cls-1" d="M44.7,58.96c-.13.11-2.51.27-2.6.18-.09-.8,1.02-.62.77-1.6-.03-.11-.51-.09-.15-.87.15-.13,2.79,1.6,1.98,2.29Z"/>
      <path class="cls-1" d="M44.1,60.68c-.29.22-1.78-.93-2-.23-.18.61,1.15.83,1.54,1.01.08.11-.24.74-.38.75-.08,0-1.34-.57-1.46-.68-.51-.42-.44-1.57.09-1.91.86-.55,2.98.48,2.21,1.06Z"/>
      <path class="cls-1" d="M73.59,51.89h1.7s0,.46,0,.46h-1.08s0,.77,0,.77c.22.04,1.05-.1,1.08.08.12.69-.66.29-1.08.38v.77c.69.08,1.44-.37,1.24.62h-1.85s0-3.09,0-3.09Z"/>
      <path class="cls-1" d="M42.4,40.31c-.02.37.85,1.26.62,1.54-.01.02-.41.13-.46.09-.2-.16-.28-.63-.62-.7.11.58.7,1.08-.31,1.08l-.46-.62c-.13.29.42.93.31,1.08-.02.03-.58.18-.61.15-.07-.05-.7-1.31-.55-1.54.13-.2,1.93-1.19,2.08-1.08Z"/>
      <path class="cls-1" d="M66.18,51.89c.27.05,1.67-.1,1.7.08.14.79-1.04.14-1.08.47v.68s1.08,0,1.08,0v.46h-1.08s0,.77,0,.77h1.08c.27,1.06-.94.49-1.7.62v-3.09Z"/>
      <path class="cls-1" d="M51.36,48.02c-.3.06-.47-.23-.73-.29-1.45-.29-1.75,2.28.03,1.99.21-.03.59-.44.7-.31.07.08.02.55-.15.69-1.11.94-2.91-.53-2.2-2.2.36-.85,2.63-1.11,2.35.11Z"/>
      <path class="cls-1" d="M45.65,54.36l-.16,1.54c-.87.14-.59-.2-.62-.93-.57-.17-.19.66-.31.77-1.37.25.16-1.11-.92-.93-.03.72.26,1.07-.62.93l.16-1.69,2.46.3Z"/>
      <path class="cls-1" d="M66.02,47.25h.46c-.46,3.35,1.88,3.41,1.39,0h.46v2.39c0,.98-2.31.72-2.31,0v-2.39Z"/>
      <path class="cls-1" d="M55.07,51.89c.27.05,1.67-.1,1.7.08.14.77-.88.15-1.24.47v.68s1.24,0,1.24,0v.46h-1.24s0,.77,0,.77h1.24c.27,1.06-.94.49-1.7.62v-3.09Z"/>
      <path class="cls-1" d="M36.7,35.67c.54-.27.92-.62,1.53-.3,0,.18.09.33-.09.46-.16.12-2.16.94-2.29.91-.27-.06-.15-.29-.13-.43.03-.24.43-2.13.52-2.2.05-.04.37,0,.47.07.42.31-.11,1.34,0,1.48Z"/>
      <path class="cls-1" d="M68.8,47.25c.27.05,1.67-.1,1.7.08.14.77-.88.15-1.24.47v.68s1.24,0,1.24,0v.46h-1.24s0,.77,0,.77h1.24s0,.46,0,.46h-1.7s0-2.93,0-2.93Z"/>
      <path class="cls-1" d="M42.41,62.85l.16-.62c1.26,0-.33,2.27-.85,2.16-.5-.11.21-.63,0-.93-.26-.41-2.12-.64-.94-1.52l1.62.9Z"/>
      <path class="cls-1" d="M44.57,44.78c-.12.44.71,2.06.46,2.32-.4.4-.65-.62-.7-.63-.36-.04-1.66.55-1.76.47-.79-1.22,1.31-.92,1.54-1.24.1-.14-.61-.93.46-.92Z"/>
      <path class="cls-1" d="M64.02,47.25c.27.05,1.67-.1,1.7.08.14.79-1.04.14-1.08.47v.68s1.08,0,1.08,0v.46c-1.36-.12-1.1,0-1.08,1.24-.11-.02-.62.03-.62,0v-2.93Z"/>
      <rect class="cls-1" x="59.7" y="56.52" width=".77" height="3.55"/>
      <path class="cls-1" d="M73.43,51.89v.46c-.05.05-.93-.05-.93,0v2.62h-.46v-2.62c0-.05-1.03.06-1.08,0v-.46h2.47Z"/>
      <path class="cls-1" d="M28.63,62.27c1.43-.27,2.74.34,2.83,1.89.11,1.87-1.4,2.61-3.1,2.17-1.85-.48-1.81-3.67.27-4.06ZM28.94,63.34c-.79.23-.81,1.71,0,1.95,1.71.51,1.66-2.42,0-1.95Z"/>
      <path class="cls-1" d="M19.7,62.26c.19.12,1.38,3.62,1.57,4.14-.28-.05-1.25.09-1.37-.02-.14-.12.07-.71-.4-.77-.19-.02-1.25-.02-1.3.03-.09.08-.03.7-.27.76-.34.08-.91-.07-1.29,0,.26-.52,1.53-4.02,1.72-4.14.1-.06,1.23-.06,1.34,0Z"/>
      <path class="cls-1" d="M26.51,63.62c-.06.07-1.87-.84-1.85-.23.01.33,2.2.39,2,1.99-.19,1.5-3.72,1.56-3.08-.37.2-.21,1.47.94,1.85.23-.91-.38-2.98-1.4-1.69-2.62.79-.74,3.36-.66,2.77.99Z"/>
      <rect class="cls-1" x="21.58" y="62.23" width="1.23" height="4.17"/>
      <path class="cls-1" d="M27.86,17.49c.66-.2,2.38,1.08,2.68,1.58.56.95-.69,2.03-1.6,1.75-.27-.08-.52-.54-.83-.72-.71-.42-1.75-.33-1.36-1.41.09-.26.85-1.14,1.11-1.21ZM28.16,17.78c-.16.03-1.18,1.15-1.17,1.3.4.39.97.43,1.44.72.27.17.68.76.92.73.23-.04,1.1-.76.96-1.06-.11-.24-1.95-1.71-2.14-1.68Z"/>
    </g>
  </g>
</svg>