<?xml version="1.0" encoding="UTF-8"?>
<svg id="Layer_2" data-name="Layer 2" xmlns="http://www.w3.org/2000/svg" viewBox="0 0 80.74 79.46">
  <defs>
    <style>
      .cls-1 {
        fill: #fff;
      }
    </style>
  </defs>
  <g id="Layer_2-2" data-name="Layer 2">
    <g>
      <path class="cls-1" d="M64.16,15.98c6.1,5.86,9.89,14.25,10.26,22.72l-.21.4-.96-.39c-.17.5-.35.43-.87.39-.38-10.28-6.1-20.07-14.72-25.6-9.7-6.22-22.09-6.78-32.3-1.37-9.84,5.21-16.7,15.61-17.05,26.85l-.83.33-.3-.4c-.04.61-.45.63-.97.58.04-6.79,2.45-13.54,6.42-19.01C24.87,3.58,49.1,1.51,64.16,15.98ZM43.15,7.39c-1.45-.29-2.9.25-4.35-.15l-3.58.54,7.26-.19.67-.19ZM61.92,15.51c-.67-.83-1.69-1.82-2.71-2.12l2.71,2.12ZM15.29,18.99c-.22-.23-1.1,1.01-1.24,1.18-.53.65-1.25,1.51-1.47,2.3l2.71-3.48ZM7.74,36l.39-2.9c-.44.21-.51,1.21-.55,1.67-.03.26-.21,1.17.17,1.23Z"/>
      <path class="cls-1" d="M54.76,3.91c-.03-.08.05-.26,0-.38-1.71-.31-3.33-1.06-5.02-1.47C26.05-3.67,3.24,12.98.97,37.07c-.1,1.01.45,2.32-.97,2.41C-.06,25.92,7.74,12.95,19.17,5.96c24-14.67,55.42-.88,60.85,26.56.26,1.33.9,4.93.67,6.1-.09.48-.79.9-.94.36-.26-9.05-4-18.23-10.08-24.91-3.86-4.25-9.4-8.49-14.91-10.15.03.08-.06.25.02.36,2.41.68,4.82,2.06,6.93,3.43,10.53,6.83,17.49,18.95,17.63,31.59h-.77c-.16-17.13-13.12-32.57-29.76-36.29C27.35-1.81,5.63,12.84,2.34,34.57c-.16,1.05-.06,3.32-.37,4.07-.13.31-.34.35-.61.46C1.51,23.6,11.79,9.56,26.09,3.97c9.97-3.9,18.7-3.06,28.67-.06Z"/>
      <path class="cls-1" d="M66.25,14.67c4.95,4.95,8.41,11.14,9.91,18.04.49,2.24.62,4.52.86,6.77h-.97c-.18-11.8-6.72-23.04-16.66-29.27-12.78-8.02-29.06-7.3-40.99,1.93-8.4,6.5-13.7,16.67-13.95,27.34l-.78-.31.42-5.18C9.62,5.05,45.04-6.55,66.25,14.67Z"/>
      <path class="cls-1" d="M43.06,26.53c.33.08.27.55,0,.58-.14.02-.5-.19-.77-.19-3.02-.05-7.22.68-7.64,4.35-.89,7.72,10.72,4.7,10.98.53.32-5.03-10.43-5.18-9.42,1,.61,3.73,9.86,1.35,7.5-2.28-1.55-2.38-6.44-.83-5.96,1.7.24,1.29,2.43,1.31,3.43.92,2.32-.92,1.51-3.57-.85-2.59-1.97.82-.25,1.93.33,1.29.23-.25.08-.83.48-.68.6.23.06,1.03-.33,1.21-1.41.66-2.76-.96-1.21-1.99,3.17-2.09,4.81,2.03,1.84,3.19-3.56,1.38-5.87-2.05-2.69-4.04,3.81-2.39,8.13,1.63,4.42,4.41-3.25,2.43-9.03,1.36-7.19-3.51,1.22-3.23,7.16-3.76,9.2-1.16,4.14,5.28-7.26,9.85-10.32,5.46-.91-1.3-.81-4.25.03-5.58.83-1.31,3.38-2.64,4.9-2.64.83,0,2.63-.15,3.29,0Z"/>
      <path class="cls-1" d="M39.28,54.17h1.16v6.57c-.48-.02-1.04.13-1.47-.18s-1.95-3.28-2.54-4.02c-.12-.16,0-.35-.44-.24v4.45c-.42-.02-1.17.17-1.33-.32.07-.88-.25-5.89.15-6.17.3-.21,1.17-.13,1.48.09.54.4,1.73,3.06,2.41,3.78.17.18.58.43.58,0v-3.96Z"/>
      <path class="cls-1" d="M51.67,54.46c.13-.43,2.14-.34,2.61-.29,2.5.26,2.74,2.4.68,3.57l2.13,2.99c-.45-.05-1.17.14-1.55-.09-.39-.24-1.11-2.54-1.84-2.62-1.25-.14-.06,1.81-.57,2.54-.42.31-1.14.31-1.46-.11v-5.99ZM53.22,57.07c2.24.29,2.32-2.24,0-1.94v1.94Z"/>
      <path class="cls-1" d="M28.06,60.74c-1.73.28-1.41-.44-2.06-1.52l-2.28-.04-.53,1.53-1.33.03,2.32-6.48,1.65.1,2.22,6.38ZM25.15,55.72c-.56-.52-.8,1.99-1.08,2.12-.14.57,1.54.55,1.65.09l-.57-2.21Z"/>
      <path class="cls-1" d="M16.84,54.17v4.74c0,.14.49.76.71.83,2.86.89,1.4-3.96,1.83-5.25.22-.5.87-.29,1.33-.32v4.54c0,1.13-1.57,2.05-2.61,2.05s-2.61-.92-2.61-2.05v-4.54h1.35Z"/>
      <path class="cls-1" d="M65.41,55.33c-4.8-1.55-4.95,5.85,0,4.25.24,1.13-1,1.2-1.84,1.17-4.49-.16-4.01-6.53.2-6.6.8-.01,1.88.12,1.64,1.17Z"/>
      <path class="cls-1" d="M50.51,55.33c-4.87-1.58-4.88,5.88,0,4.25.24,1.13-.99,1.2-1.84,1.17-4.52-.16-3.99-6.49.2-6.6.8-.02,1.88.13,1.64,1.17Z"/>
      <path class="cls-1" d="M33.67,54.17l-.02.96-.57.12v4.43l.57.12.02.96-2.2-.03-.32-.84.6-.2c-.19-.89.26-3.77-.11-4.35-.13-.2-.73-.09-.46-.84.22-.59,1.94-.21,2.49-.31Z"/>
      <path class="cls-1" d="M30.77,54.17c.28.98-.3.89-.48,1.16-.14.22-.19,3.54-.11,3.97.09.48.93.5.59,1.44l-2.19-.03c-.93-.59.21-.86.26-1.07.11-.47.08-3.61.01-4.22-.05-.49-.75-.3-.59-.96.16-.53,2.01-.21,2.51-.29Z"/>
      <path class="cls-1" d="M59.8,54.17l-.02.96-.57.12v4.43s.57.12.57.12l.02.96-2.2-.03c-.77-.54.23-.92.27-1.07.11-.4.07-3.65.01-4.22-.05-.49-.75-.3-.59-.96.16-.53,2.01-.21,2.51-.29Z"/>
      <path class="cls-1" d="M33.67,25.37l-3.83,5.35c-.57.58-2.45,4.57-2.83,4.63-.16.02-.46-.18-.69-.12.38-.5.76-.98,1.07-1.54.43-.78.34-1.43,1.06-1.93l-.77.19-1.36-2.51.96-.58-.34.87,1.4,1.81c.79,0,4.03-5.3,4.37-6.34l.95.18Z"/>
      <path class="cls-1" d="M51.07,29.84c.12.17-.36,1.21-.76.86l-5.13-6.29.68-.3c1.6,1.97,3.1,4.31,5.21,5.74Z"/>
      <path class="cls-1" d="M40.39,47.94c-.13.11-.49.08-.73.32-.31.31-.36,1.16-.68,1.26l-.67-.37c.3,0,.49-.18.67-.4,1.65-2.08,3.43-4.82,4.95-7.05.13-.2.18-.72.29-.68.41.32.28.32.11.69-.47,1-1.92,2.73-2.61,3.77-.28.43-1.22,2.36-1.33,2.45Z"/>
      <path class="cls-1" d="M30.72,75.89s.05.32.16.33c.24,0,.57-.31.93-.19.36.12.18,1.08,1.38.23.86.07.14,2.06-.2,2.46-.51.08-.24-.32-.2-.59.04-.28.45-1.28,0-1.35-.96-.14-.98,1.43-1.25,1.65l-.38-.19.38-1.84c-1.09.09-1.08.82-1.35,1.64l-.39-.2.39-2.03c.19,0,.35-.03.53.07Z"/>
      <path class="cls-1" d="M43.43,21.42c.47.52,1.07.94,1.46,1.55l-.76.86-3.1-3.67c1.72-.45,1.5.26,2.4,1.27Z"/>
      <path class="cls-1" d="M53.41,28.66l-1.29,2.22c.06.74,2.43,2.51,2.06,2.99-.56.74-1.98-1.77-2.71-1.74.58-.76.61-1.02-.39-1.16-.04-.39.5-.07.74-.22.11-.07,1.23-1.99.81-2.29l.77.19Z"/>
      <path class="cls-1" d="M17.41,67.51l-.99,3.46-.56.02.51-1.26c-.21-.39-.76-.84-1.21-.87-.59-.04-1,.71-1.44.1l3.67-1.45Z"/>
      <path class="cls-1" d="M14.9,65.19c.23.24-2.03,2.4-2.42,2.51-.53.15-.15-.56-.31-.75l-1.32-.72c.52-1.27,2.17-1.32,2.99-.27l1.06-.77ZM13.16,65.77l-1.36.09-.19.68,1.53-.02.02-.75Z"/>
      <path class="cls-1" d="M51.26,75.65c.35,1.49,1.52,3.68-.95,3.66l1.08-.78-.11-.96c-.52.31-.8.98-1.53.75-.55-1.18.03-2.87,1.51-2.67ZM50.6,76.02c-.36.01-1.08,1.58-.38,1.73.59.13.91-1.75.38-1.73Z"/>
      <path class="cls-1" d="M46.83,78.92c-.89-.55-1.3.46-2.03.4-1.27-.11-.02-2.86,1.26-2.53l-.19-1.35c.42-.07.47.16.57.49.27.9.09,2.06.4,2.99ZM46.05,77.38l-.58-.1c-.3.13-1.07,1.32-.48,1.45.72,0,1.19-.68,1.06-1.35Z"/>
      <path class="cls-1" d="M4.64,42.58c-.4.81-3.16.17-3.07,1.22.14,1.59,2.37.53,3.14.73.22.06.42.31.12.47-.61.32-2.77.42-3.3-.24-1.72-2.13,1.7-2.36,3.11-2.18Z"/>
      <path class="cls-1" d="M8.51,62.32c-.13-.17-1.71-.43-1.13-1.25.72-1.03,2.14-.43,2.78.42.27,0,.89-1.08,1.26-.45l-2.8,2.03c-.47-.21-.03-.64-.1-.74ZM9.48,61.9c.45-.7-1.29-1.39-1.74-.48.15.47,1.56.75,1.74.48Z"/>
      <path class="cls-1" d="M36.19,79.11c-.49-.33-2.2.29-2.32-.29-.23-1.15,2.66-1.04,1.93-1.83l-1.35.19c.16-.55,1.56-.62,1.85-.2l-.11,2.13Z"/>
      <path class="cls-1" d="M77.77,43.75h-.56s.19,1.14.19,1.14c-.55-.14-.69-1.5-.36-1.71l2.21.16c-.17.47.34,2.02-.21,2.13-.7.14-1.18-1.18-1.27-1.72Z"/>
      <path class="cls-1" d="M60.76,73.7c-.8-.21-.92,1.19-1.64.97-1.05-.32.5-2.08.48-2.22-.15-.83-1.01.8-1.35.38,1.07-2.06,2.16-.73,2.51.87Z"/>
      <path class="cls-1" d="M69.28,65.58c.84.15.83-.53.77-1.16l.56.31c-.56,3.44-3.79,0-1.43-1.28l.65.52-.55,1.61Z"/>
      <path class="cls-1" d="M11.75,64.36c-.07.09-1.31,1.03-1.4,1.02-.2-.58-1.43-1.03-1.25-1.63.8-.8,1.56.05,2.32.28.18-.69-.44-.62-.77-1.06.77-.34,1.65.65,1.1,1.39Z"/>
      <path class="cls-1" d="M39.61,16.54c.24.31.4.84.76,1.27.67.79,1.63.74-.22,1.55-.53-1.1-.85-2.33-2.02-2.89l.12-.4.65-.37c-.05.54.54.61.71.84Z"/>
      <path class="cls-1" d="M4.64,54.36c-.93.27-1.94-1.25-1.15-1.82.9-.65,2.51-.07,2.48,1.11l-.48.51c-.47.08-1.6-2.13-1.81-1.05-.11.53.76.87.97,1.25Z"/>
      <path class="cls-1" d="M54.36,74.68c.57.8-1.65,1.61-1.15,2.11.73.03,1.12-.23,1.16-.97.52-.46.58.95-.38,1.27-1.91.63-1.7-2.2-.4-2.54.18-.05.7.04.76.13Z"/>
      <path class="cls-1" d="M8.13,58.23c-.58.13-.37-.41-.64-.72-.06-.07-.69-.47-.72-.44-.11.83,1.21,1.2.45,1.95-.88.56-2.07-.62-2-1.56l.57.14c-.04.63.29,1.11.97,1.02.1-.78-1.2-1.24-.27-1.92.69-.22,1.58.86,1.62,1.53Z"/>
      <path class="cls-1" d="M28.38,75.1c.31-.03.69.14.94.34,1.05,1.04-1.64,3.11-2.32,1.53-.34-.77.64-1.8,1.39-1.87ZM29.02,75.64c-.83-.37-1.68.48-1.54,1.35l1.31-.24.23-1.11Z"/>
      <path class="cls-1" d="M23.18,72.96c1.81-.23,1.23,2.46-.61,2.28-1.65-.16-.72-2.12.61-2.28ZM23.8,73.51c-.87-.33-1.3.18-1.71.87l.49.45c.73.04,1.4-.57,1.21-1.32Z"/>
      <path class="cls-1" d="M1.94,48.18c-.08-.5.08-.35.42-.44.4-.11,1.39.01,1.33-.43l-.53-.64-1.41.16v-.58s2.03-.38,2.03-.38l.26.3c-.36.65.47,1,.14,1.64l-2.24.37Z"/>
      <path class="cls-1" d="M25.54,73.89c.1.87.54.33,1.15.4.47.33-.38,1.91-.67,2.31-.76,0,.14-1.09.21-1.34.2-.73-.75-.56-1.04-.36-.18.13-.23,1.24-.81,1.31l.78-2.32h.38Z"/>
      <path class="cls-1" d="M43.15,79.3c-.52.68-.36-1.46-.38-1.63-1.37-.49-.82.79-1,1.51-.06.23-.29.42-.46.12-.11-.18-.17-2,.09-2.24l1.66.1.09,2.13Z"/>
      <path class="cls-1" d="M68.09,68.06c-1.02.64-1.36-1.55-2.49-.75v-1.35c.73.32.82.02,1.35-.39l-.37,1.04,1.05,1.09.58-1.15c.51-.03-.04,1.47-.12,1.51Z"/>
      <path class="cls-1" d="M21.48,70.99l-.19.77.78.39-1.16-.11-.58,1.36,1.16.19c-.27.38-1.25.41-1.56.2-.71-.48.56-1.5.52-1.95-.02-.21-.43-.33-.32-.67l1.35-.19Z"/>
      <path class="cls-1" d="M75.47,51.85l-.11.77c.29.27,1.53.92,1.66.28.07-.31-.84-1.09-.1-1.06.53.52.8,1.82-.19,1.85-.74.03-1.32-1.09-1.74.08l-.68-1.35,1.16-.58Z"/>
      <path class="cls-1" d="M75.86,50.5c-.15-.94,1.69.25,1.93,0,.09-1.21-.38-1.22-1.42-1.35l-.13-.58,2.32.87c-.53.27-.16.79-.28,1.06-.36.81-1.79.17-2.42,0Z"/>
      <path class="cls-1" d="M57.06,73.34c.04.42,1.03,1.81.8,2.1-.47.6-.73-2.04-1.53-1.53-.4.25-.07,1.46.18,1.83l-.39.29-.78-2.13c.95.29.79-.86,1.72-.55Z"/>
      <path class="cls-1" d="M66.18,69.83c-.54-.03-.69-.71-1.16-1.06-.19-.15-.24-.38-.58-.29-.56,1,.67,1.4.48,2.32l-1.45-1.93c.8.33.61-1,1.23-.95.39.03,1.58,1.38,1.48,1.91Z"/>
      <path class="cls-1" d="M36.19,20.92c-.55.53-.68,1.52-.99,2.01-.3.48-1.37.76-.95,1.66l-.77-.39,1.92-3.16.79-.12Z"/>
      <path class="cls-1" d="M72.96,57.46c.69.35,2.81,1.16,1.76-.31-.27-.37-1.59-.51-.89-1.04l1.84,1.07c-.32.41-.31,1.4-.87,1.45-.29.07-2.21-.83-1.84-1.17Z"/>
      <path class="cls-1" d="M39.47,46.83l-4.17-5.42.4-.58c.18.17-.07.36.07.69.54,1.24,2.63,3.21,3.42,4.53.15.26.38.39.28.78Z"/>
      <path class="cls-1" d="M44.51,58.81h-2.52l.02-.65c.16-.49,2.31-.49,2.47,0l.02.65Z"/>
      <path class="cls-1" d="M18.38,69.83c.31.38-.99,1.4-.77,1.93.32,0,.66.05.97-.09.34-.16.48-1.12.97-.77l-1.09,1.63-1.19-.41c-.48-.65.21-1.37.62-1.91.07-.1.21-.71.5-.37Z"/>
      <path class="cls-1" d="M72.55,59.38s-.56-.03-.47.62c.1.71.72,1.28,1.37.76.29-.4-.57-1.31.28-1.17.87,3.07-2.95,2.04-1.83-.38.3-.66.86-.14.66.18Z"/>
      <path class="cls-1" d="M35.8,13.19l-.19.58h-.58c-.1-.55.32-.82.68-1.15l2.03,2.02c-.71.84-1.84-.79-1.93-1.45Z"/>
      <path class="cls-1" d="M38.7,17.63c-.95.19-1.09,1.44-1.74,2.04l.39.48c-1.73-.43-.53-1.04.08-1.95.39-.59.4-1.89,1.28-.56Z"/>
      <path class="cls-1" d="M4.64,49.73c.17.6-1.15.78-1.16,1.06.32.38.86.33,1.29.46.32.09.54-.15.45.41l-2.52-.39c-.49-.51,1.77-1.7,1.94-1.54Z"/>
      <path class="cls-1" d="M78.95,47.41c-.1.98-.48.29-.91.23-.47-.06-.94-.05-1.41-.04l.09-1.55c.73-.48,1.05-.02.5.66l.17.22,1.56.47Z"/>
      <path class="cls-1" d="M41.17,13.81c.1.16.04.36.05.54l-.48-.38c-.25.76-1.21,1.09-.87,1.93l-.77-.2,1.16-2.32c.1-.07.87.36.92.42Z"/>
      <path class="cls-1" d="M6.38,54.56c-.25.78.43.85.53,1,.4.64-.74,1.11-.91-.15l-1.75.3c-.11-.51.13-.33.38-.48.24-.14,1.64-.81,1.75-.68Z"/>
      <path class="cls-1" d="M39.48,76.02h.58c-.08.89-.06,1.71-.15,2.61-.02.25.37,1.24-.43.58v-3.19Z"/>
      <path class="cls-1" d="M71.16,61.86c-.03.06-.55-.03-.3.68.18.52.98.47.93,1.1l-1.93-1.26c.68-.08.56-1.19.87-1.26.35-.08.61.4.42.73Z"/>
      <path class="cls-1" d="M31.73,35.42l-.77.58-1.94-2.9.58-.2c.24.85,1.17,2.43,2.13,2.52Z"/>
      <path class="cls-1" d="M61.64,69.06c.42-.07,1.41,1.95,1.84,2.22.4.19.03.69-.1.67-.14-.02-1.53-2-1.74-2.32-.11-.17-.5-.5,0-.58Z"/>
      <path class="cls-1" d="M76.44,55.33c.02.35.09.41-.29.39-.46-.02-2.15-.8-2.61-1.07-.25-.15-.49.03-.38-.48l3.29,1.16Z"/>
      <path class="cls-1" d="M34.25,40.25c-.44-.96-1.38-2.26-2.33-2.71l.48-.57,2.13,2.9-.29.38Z"/>
      <path class="cls-1" d="M79.53,41.8h-3.68v-.39h3.39s.3.26.29.39Z"/>
      <path class="cls-1" d="M45.47,40.45l-.58-.58.55-.32,1.96-2.78.02.67c-.63.97-1.83,1.83-1.95,3Z"/>
      <path class="cls-1" d="M48.76,35.81l-.58-.58c.87-.43,1.95-1.93,2.03-2.9l.4.58-1.85,2.9Z"/>
      <path class="cls-1" d="M48.57,78.53h-.58c.22-.26-.69-2.33-.1-2.31l.68,2.31Z"/>
      <path class="cls-1" d="M4.45,48.57s.1.62-.13.58l-1.99.39v-.58s2.13-.39,2.13-.39Z"/>
      <path class="cls-1" d="M8.71,59.01c.29.28-1.31,1.22-1.49,1.31s-.66.37-.63-.06c.01-.19,1.98-1.4,2.12-1.26Z"/>
    </g>
  </g>
</svg>