<?xml version="1.0" encoding="UTF-8"?>
<svg id="Layer_2" data-name="Layer 2" xmlns="http://www.w3.org/2000/svg" viewBox="0 0 88.54 87.85">
  <defs>
    <style>
      .cls-1 {
        fill: #fff;
      }

      .cls-2 {
        stroke-width: .79px;
      }

      .cls-2, .cls-3 {
        fill: none;
        stroke: #fff;
        stroke-miterlimit: 10;
      }

      .cls-3 {
        stroke-width: .19px;
      }
    </style>
  </defs>
  <g id="Layer_2-2" data-name="Layer 2">
    <g>
      <path class="cls-3" d="M51.93,66.24c.52.05,1.07.1,1.54-.11.54-.25.88-.79,1.31-1.2.59-.57,1.64-.66,2.38-1.02.82-.4,1.45-.12,2.23-.02.31.04.62-.02.94.03,1.54.26,1.93,1.38,3.05,2.1,1.11.71,1.7.02,2.71-.08.68-.07,1.31.1,1.94.1.65,0,1.9-.2,2.41-.08,1.06.24.38,1.24.95,1.77.25.24.66.08.97,0,1.62-.37,2.75-.87,4.52-.73,1.07.09,2.62,1.25,3.6,1.58l2.84-4.72c.05-.18-1.24-.27-1.41-.33-1.99-.39-4-.4-6-.51-2.19-.11-4.5.18-6.39-1.09-1.16-.78-2.47-2.42-3.67-3.13-.52-.31-1.84-.95-2.4-1.2-.28-.12-.67-.1-.94-.32-.19-.04-.19.06-.1.2.23.36,1.3.86,1.75,1.46.11.15.11.38.17.46.07.09.94.35.14.73-.28.13-1.35-.39-1.69-.49-.74-.21-1-.2-1.72-.21-.75-.01-1.58-.68-2.22-.99-.22-.11-.54-.1-.74-.23-.16-.1-.19-.32-.3-.38-.12-.07-.87-.26-1.01-.24s-.61.22-.64.35c-.02.12.15.26.17.4.07.47-1.32.97-1.34,1.06-.09.43.81.88.88,1.45.03.27-.17.53-.44.53h-1.51c-.04.28.06.16.22.21.61.16,2.39.17,2.09,1.18-.14.48-1.09.33-1.35.51-.36.25-.16.58-.75.57.47.88-1.31,2.09-2.21,2.11-.9.02-1.8.25-2.7.18-1.34-.12-2.53-.9-3.85-1.17-.93-.19-1.89-.12-2.84-.21-.95-.1-1.88-.37-2.83-.36-1.66.02-3.22.89-4.4,2.05-1.18,1.16-2.04,2.61-2.89,4.03-.82-.74-2.39-.12-2.48.97-.03.3.04.61-.06.9-.27.82-1.49.72-2.23.28-.74-.44-1.53-1.09-2.36-.84.07,1.09.15,2.19.22,3.28-2.25.48-.69-2.37-2.37-2.67-.7-.13-.77.27-1.29.42-.88.25-.51-.31-.7-.43-.09-.06-.61.02-.87-.06-.05-.02-.89-.45-.96-.5-.13-.08-.13-.34-.35-.34-.37,0-.29.45-.37.61-.07.14-.19.22-.24.34-.13.26-.08.64-.48.69-.25.03-.34-.19-.62.06-.3.26-.11.54-.23.74-.11.19-.38-.05-.44,0-.05.04-.1.8-.35.87-.57.16-.38-.89-.43-.96-.03-.03-.31-.02-.45-.13-.28-.23-.44-1.21-.57-1.23-1.14.2-1.18,1.09-1.31,2.04l-1.31-1.26-.24.39c-.39-.42-.8-.75-1.17-1.17.2-.06.22-.26.2-.44-.02-.35-1.12-1.52-1.41-1.9-3.75-5.08-6.21-10.25-7.69-16.41-.08-.35-.43-2.32-.53-2.39-.13-.1-.35.03-.49.06C-.29,44.79-.02,38.77,1.9,32.41c.29-.17.42.25.53.19.09-.05.16-.23.31-.27.17-.05.37.01.54-.04.21-.06.42-.44.85-.27-.02.33,1.03-.16.98.16-.08.55-.21,1.17-.1,1.86.12.82.63,1.02.98,1.5.11.15-.4.12-.21.26.14.11,1.34.22,1.55.26.97.18,1.45.18,2.33-.26.54-.27.75-.43.98-.88.03-.05.02-.75.06-.86.07-.2.2-1.43.24-1.63.01-.06-.17-.95-.12-1.39.12-1.17.02.14-.18-1.01-.03-.19.82-.57,1.11-.52,0,.16-.25.5-.24.66l1.49-.12c0,.16,1.03.16,1.19.24,0,.45,3.38,4.53,3.38,4.53.09.05.92-.05,1.11-.08s.98,1.45,1.34,1.46c.34,0,.66.84,1.11.93.33.07.48-.08.72-.06s.92.23,1.06.19c.12-.04.15-.24.27-.32.26-.18.79-.34.86-.69.08-.41.03-2.84-.12-3.19-.07-.16-.25-.09-.28-.3-.2-1.64,1.19-2.5,2.06-3.94.08-.13.16-.74.28-.82.16-.11-.75.51-.56.48.41-.06.84-1.06,1.37-1.17.39-.08.75-.21.99-.43,1.09-1,1.84-1.98,3.05-2.97.14-.12.16-.3.37-.41.74-.39,1.58.3,2.24.44.22.05.49.06.71-.03.09-.04,1.24-1.16,1.43-1.34.2-.2.45-.64.72-.88.48-.43,1.23-.74,1.65-1.17.18-.19.23-.43.39-.58.35-.34,1.24-1.21,1.59-1.42.1-.06.16-.11.29-.1.2.02,1.59,1.89,2,2.19.53.38,1.26.53,1.87.76.13.05.21.21.33.25.19.06.43-.04.61.07.28.16,1.19,1.47,1.5,1.8,1.45,1.54,3.56,2.07,5.42,2.9.85.38,1.69,1.19,2.54,1.45.35.11.74-.12,1.15.02.56.2.81.87,1.44.98.21.04.43,0,.65.02.42.04.79.34.93.73.56-.43,1.06-.93,1.49-1.49,1.74-.04,2.43-.41,4.1.06,2.49.71,4.45-.35,6.44-1.49.55-.32.92-.77,1.66-.54.13.04.19.2.33.25,1.25.43,2.57.24,3.85.43.18.03.3.24.6.28.27.03,2.17.02,2.29-.05.18-.11.58-.55.85-.62.16-.04.33.11.45.09.09-.01.1-.27.26-.35s.39-.05.62-.16c.14-.07.87-.68.95-.81.13-.22.39-.78.79-.91,2.86,5.37,4.34,11.5,4.7,17.64l.05,5.55c-.43,5.07-1.08,6.21-2.49,11.03-.71,2.41-4.13,8.48-5.15,10.1.07-.35-.2.07-.3.18M29.3,70.31c-.06,1.47.97.39.39.05-.12-.07-.26-.05-.39-.05ZM31.76,73.87c-.16-.17-.3-.75-.32-.99-.05-.59.36-1.44-.36-1.59-.42-.08-1.09.37-1.58.32-.28.18.36,1.16,0,1.74-.25.4-.64.1-1,.16-.21.04-.35.26-.6.29-.38.04-.87-.52-1.21-.72-.12-.07-.36-.05-.43-.15-.18-.25.24-1.29-.62-1.02-.63.2-.27.63-.2.97.1.57.19,1.26.32,1.82.14.64.64.4,1.09.47,1.2.2,1.84,0,3.02-.01.18,0,.38.1.58.1.45,0,2.15-.53,1.78-1.15-.03-.06-.34-.13-.44-.24Z"/>
      <path class="cls-1" d="M35.33,66.23s.11.02.2-.07c.07-.08.44-.54.39-.61-.59-.09-2.05-.22-2.39-.78-.27-.44.44-.36.57-.4.15-.05.16-.26.26-.32.53-.33,1.4-.42,1.99-.43,1.21-.02.23-1.08-.19-1.57-.56-.64-2.22-2.33-2.89-2.69-.13-.07-.36.02-.56-.07-.07-.03-.82-.6-.83-.67-.18-1.21,1.18-.85,1.85-.82.67.03,1.25.08,1.94.19.2.03.37.27.64.19.21-.75-.67-1.02-.83-1.45-.19-.51-.51-1.92-.2-2.34.58-.79,1.39.04,1.51-.09,0-.29-.13-.7-.25-.96-.05-.12-.21-.18-.28-.3s-.03-.35-.06-.38c-.09-.09-1.17-.06-1.38-.13-.06-.02-.5-.3-.46-.41.08-.22.7-.48.92-.73.18-.2.5-.93.55-.95.16-.09,1.18-.04,1.34.12.28.28.07,1.32-.2,1.66-.07.09-.26.12-.28.16-.09.15.81,2.08.86,2.44.21.21.48.3.78.26-.12-.4.2-.55.29-.83.28-.9.1-1.68.19-2.53.12-1.05,1.2-.24,1.85-.24.12-.83,1.16-2.88,2.09-2.92.34-.01.58.26.85.19.21-.06.43-.51.91-.54.58-.03,1.28.66,1.54,1.14.22.41.6,2.12.74,2.23.26.19.93-.56,1.12-.58.71-.1.46.62.53,1.02.04.2.24.38.27.61.03.25-.34,2.87.58,1.8.42-.49.58-1.18.89-1.74-.3-.73-1.41-2.07-.1-2.42.93-.25.84.32,1.26.79.23.26.57.34.83.62.26.28.45.63.06.92-.13.1-.29.15-.45.19-.39.1-.79.16-1.19.18-.41.77-.77,1.56-1.09,2.37.56-.12.98-.58,1.35-1.02.37-.44.75-.92,1.3-1.11.02,0,.05-.02.07,0,.03.02.04.06.04.1.01.63.23,1.2.23,1.82,0,.47-.55,2.33-.46,2.47.24.39,1.57,0,1.98,0s1.64.12,1.79.56c.33.98-2.1,1.08-1.92,1.72.03.12.23.2.27.32.11.38-.33.27-.53.42-.1.08-.13.27-.24.34-.17.11-.49.11-.77.3s-.35.46-.54.63c-.08.07-1.58.97-.87,1.16.22.06.44-.26.62-.15.08.05.16.29.29.4.41.35.93.58,1.39.86.12.07.41.19.47.33.14.32-.31.67-.52.82-.36.25-.75.52-1.19.53-.05,0-.1,0-.15.02-.17.07-.13.32-.06.49.19.47.39.94.67,1.37.15.23.34.51.25.77-.02.06-.06.12-.07.19-.01.12.07.23.13.33.12.2.19.52.13.75-.03.09-.48.55-.48.54.18.65.74,1.11.6,1.83-.01.05-.04.12-.09.13-.03,0-.07-.02-.1,0-.03.02-.03.06-.03.09,0,.13.05.38-.03.49-.06.09-.2.21-.28.06.04.09.04.2-.02.28s-.17.12-.26.1c-.06-.02-.14-.06-.19-.01-.02.02-.03.06-.03.09,0,.28.16.54.34.76.08.09.16.17.2.28s.04.24-.04.32c-.05.05-.13.07-.15.14,0,.03,0,.06,0,.09.01.21.07.55-.03.75-.03.05-.23.2-.23.2-.01.14-.03.28-.04.42-.12-.07-.27-.09-.41-.06.19.49.41.97.66,1.43.08.15.17.3.18.47s-.08.36-.24.4c.03.22-.01.44-.1.64-.08-.11-.26-.08-.38,0s-.22.18-.36.2c-.21.03-.43-.15-.63-.08-.07.19.1.37.19.56.17.36.04.8.19,1.18.09.23.27.41.36.63.07.19.09.41.13.62.01.05.02.11,0,.16-.02.04-.07.06-.1.1-.17.17.05.48-.04.71-.21-.07-.46,0-.62.16-.13-.1-.32-.13-.47-.06-.05.02-.1.06-.16.06-.11,0-.19-.13-.3-.11-.09.01-.13.12-.15.21-.21.89-.42,1.83-.19,2.72.05.19.12.39.08.58s-.27.36-.44.26c-.15-1.25-.21-2.56.13-3.79.02-.08.05-.16.1-.23.18-.24.54-.14.84-.12.29.02.6-.06.84-.23.05-.03.09-.08.07-.13-.01-.03-.04-.04-.07-.06-.17-.11-.22-.35-.25-.55-.05-.37-.1-.73-.15-1.1-.03-.19-.05-.38-.13-.55-.09-.19-.25-.35-.44-.45-.02-.27.04-.53.17-.77.02-.04.05-.08.09-.1.07-.03.16.02.23.05.12.04.24.03.37.03.23-.02.47-.04.66-.18s.28-.42.14-.6c-.05-.07-.14-.11-.19-.18-.15-.2,0-.48-.07-.72-.05-.18-.2-.3-.32-.44-.26-.32-.32-.78-.14-1.15.04-.09.1-.18.19-.23.24-.13.63.03.74-.21-.1-.06-.2-.16-.21-.29s.12-.25.23-.2c.02-.31-.17-.59-.2-.89-.03-.26-.02-.34-.11-.56-.06-.14-.23-.7-.09-.84.04-.04.53.05.58,0,.03-.03-.03-.25.06-.38.05-.07.22-.07.24-.17.03-.13.02-.61-.02-.74-.05-.16-.49-.82-.52-.93-.04-.16-.08-.49-.05-.64.02-.11.25-.02.29-.06.05-.05-.02-.29.03-.42.04-.14.25-.12.28-.23.03-.11.02-.53,0-.66-.02-.09-.79-1.49-.89-1.64-.54-.75-1.42-.09-2.22-.26-.18.19.7,1.51.85,1.83.24.5,1.15,2.4.89,2.82-.13.21-1.02.08-1.27-.02-.28-.11-2.13-1.52-2.22-1.43.23.73.52,1.61.59,2.38.04.52.12,1.5-.39,1.76-.19.1-1.07-.61-1.26-.78-1.24-1.12-1.91-2.34-2.65-3.76-.08-.16-.41-.84-.45-.89-.07-.08-.18-.09-.25-.06-.1.04-.33.93-.4,1.06-.49.96-2.73,4.16-3.71,4.45-.93.28-.88-.74-.81-1.39.02-.23.26-1.4.32-1.62.07-.28.44-.57.27-1.04-.95.35-1.86,1.67-2.96,1.46-.32-.06-.35-.55-.34-.82.02-.72.63-2.11.99-2.71.23-.38.64-.73.77-1.18,0-.1-1.6-.43-1.83-.32-.21.1-.8,1.16-.96,1.42-.04.07-.16.09-.19.14-.42.69-.79,1.63.35,1.67-.19.31-.02.78-.11,1.06-.02.05-.52.65-.61.75-.49.6-.13.38-.01.57.08.12.02.33.06.38.03.04.72.04.77.26.02.08-.22.3-.21.58,0,.19.3.09.2.46-.01.04-.42.43-.45.49-.06.09-.01.25-.08.36-.06.09-.22.08-.23.11-.02.03.28.7.31.74.09.12.42.18.51.32.19.32-.21.77.44.78.14.19-1.34,1.79-1.27,2.17.01.07.18.08.24.16.08.12.08.28.2.39.13.12.52.17.54.19.05.07-.41.62.43.66.18.01.52-.23.62.08.22.66-1.42,1.86-1.25,2.5.02.07.19.06.19.1-.02.3-.28.45.27.6.09.03.24-.08.33-.02.16.1.06.42.11.58.14.46,1.72-.17,1.98.26s-.13,2.74.05,3.4c-6.67-.89-14.49-3.83-19.82-7.97l.3-.45c5.66,4.05,12.29,6.86,19.23,7.73-.23-.87.04-1.76-.1-2.62h-1.8c-.11,0-.23-.39-.31-.4-.19-.02-.42.23-.68.02-.21-.18-.08-.46-.15-.58-.05-.08-.36-.04-.38-.17-.09-.54,1.64-2.03,1.66-2.76-.66,0-1.1.18-.97-.68-.36.6-.52-.04-1.07.19,0-.29.33-.19.2-.62-.03-.09-.76-.06-.2-.76.38-.48.51-.72.84-1.23.09-.13.23-.01.24-.34.05-1.22-.96-.51-1.08-.64-.21-.22.76-.92-.29-.78.13-1.07,1.44-1.48,1.07-2.62-.31.33-.59.06-.97.19.03-.23.15-.48.1-.73-.02-.11-.26-.02-.3-.05-.31-.32,1.5-1.75,1.16-2.33l-.78.1c.15-.9-.65-.46-.19-1.36.21-.42.69-.74.91-1.08.25-.39.3-.76.64-1.16Z"/>
      <path class="cls-1" d="M36.01,47.28h-.58s.01-8.59.01-8.59c.03-.13.12-.14.23-.16.25-.05,1.81-.05,2.04,0,.31.06.18.29.26.38.05.05.14,0,.18.02,0,.06,0,.13,0,.19,0,.02-.1.05-.06.29.03.15.17.47.35.39,0,.06,0,.13,0,.19-.02.14-.15.17-.07.51.07.33.23.29.36.37,0,.06,0,.13,0,.19-.04.76.24,1.28.46,2.01.04.12-.01,1.02.36.61.04-.04.31-.51.33-.56.06-.21-.08-.29-.08-.31,0-.06,0-.13,0-.19l.36-.57c.27-1.17.6-2.34,1-3.47.82-.04,1.74-.13,2.53.05-.03.19.06.74.1.97v.1c-.16.1-.1.37-.1.53,0,.65,0,1.3,0,1.95,0,.16-.06.43.1.53v4.57s-.07,0-.1,0c-.74.07-1.58-.05-2.33,0v-5.93c-.12.01-.21-.07-.29.07-.06.09-.3.54-.33.63-.16.51-.23,1.3-.38,1.85-.21.75-.66,1.76-.83,2.48-.08.34.13.81-.36.9-.19.04-.77.04-.97.01-.23-.03-.16-.33-.43-.3-.01-.13,0-.26,0-.39,0-.01.1-.06.08-.21-.02-.13-.2-.68-.37-.56,0-.06,0-.13,0-.19,0-.02.13-.08.08-.31-.03-.13-.21-.57-.37-.47,0-.06,0-.13,0-.19,0-.02.12-.09.08-.31-.03-.15-.19-.55-.37-.47,0-.06,0-.13,0-.19-.04-.69-.2-1.38-.54-2.04-.11-.21.07-.35-.34-.29v5.93Z"/>
      <path class="cls-1" d="M76.04,36.2c0-.19-.02-.39,0-.58.05-.59.01-.81,0-1.36,0-.29,0-.59,0-.87.01-.41.01-.65,0-1.07,0-.23,0-.45,0-.68,0-.46.03-.96,0-1.46-.02-.29.01-.58,0-.87.15-.06.15-.42,0-.49,0-.19-.02-.41,0-.58,0-.02.08-.07.09-.15.04-.33-.3-.54.44-.63,1.22-.14,4.26-.09,5.32.42,2.59,1.24,2.62,6.81.03,8.14-1.13.58-4.1.47-5.45.39-.18-.01-.36.02-.43-.2ZM78.77,28.15c-.25.16-.05,2.36-.05,2.77,0,1.32-.17,2.96-.06,4.26.04.5.12.67.63.64.62-.04,1.21-.41,1.46-.97.48-1.12.6-5.44-.3-6.31-.3-.29-1.36-.58-1.68-.38Z"/>
      <path class="cls-1" d="M59.81,28.62c0-.26-.1-.97.16-1.06,2.78.12,6.58-.92,7.38,2.7.53,2.41.01,5.68-2.87,6.13-.06,0-.13,0-.19,0-1,.08-3.17.12-4.13,0-.1-.01-.22,0-.29-.1-.17-.24-.05-5.19-.04-5.93,0-.58-.01-1.17,0-1.75ZM62.44,30.57c0,.13,0,.26,0,.39.01.63-.09,4.57.04,4.77.21.3,1.4-.09,1.65-.3.13-.12.28-.45.35-.62.45-1.08.44-4.76,0-5.84-.17-.42-.58-.74-1.03-.81-.2-.03-.97-.06-1.07.08-.08.12-.06,1.71-.05,2.01,0,.17.1.31.1.33Z"/>
      <path class="cls-1" d="M44.56,27.46s-.03.12.02.17l1.54.6s.16.33.19.39c.15.29.31.54.39.87,0,.06,0,.13,0,.19-.09.71-.19,1.29-.86,1.72-.16.1-.79.34-.8.38-.11.52.56.57.88.72.05.35.31.63.38.93.09.37.05.96.11,1.35.08.5.32,1.06.28,1.61h-2.28c-.11,0-.32-.2-.34-.34-.17-.96.18-3.24-.69-3.78-.23-.14-.81-.32-1.06-.2-.05.02-.29.27-.29.29v3.89c0,.22-1.64.16-1.9.15-.18,0-.37,0-.53-.1-.06-.78-.09-1.44-.1-2.23,0-.04,0-.25,0-.29-.01-1.75-.06-3.55,0-5.3,0-.28.13-.52.1-.82,1.41-.22,2.9-.04,4.33-.09.13,0,.22-.1.24-.1.13,0,.26.01.39,0ZM42.39,28.25c-.1.03-.15.11-.19.2-.09.2-.13,2.51-.06,2.73.08.25.85.18,1.08.14,1.18-.24,1.25-2.42.24-2.91-.23-.11-.83-.24-1.07-.16Z"/>
      <path class="cls-1" d="M14.34,27.56c1.3,1.62,2.38,4.03,3.69,5.56.1.11.25.15.34.27.25-.54.06-1.23.07-1.8,0-.15.08-.31.08-.48.02-1.18-.02-2.37,0-3.55.26-.06.78.03.78.34v8.36c0,.33-.78.15-.91.15-.37,0-.78.16-1.18-.1-1.25-1.75-2.29-3.68-3.64-5.35.03.1-.1.21-.1.24v5.2l-.87-.1c0-.06,0-.13,0-.19v-.1c.02-1.13-.02-2.27,0-3.4,0-.2,0-.46,0-.68,0-.45,0-.91,0-1.36,0-.02.1-.15.1-.33.02-.89-.03-1.79,0-2.68.55-.01,1.1.02,1.65,0Z"/>
      <path class="cls-1" d="M36.98,28.43c-.45.01-.91-.02-1.36,0-.2,0-.59-.08-.67.16-.04.12-.05,2.14-.02,2.3.05.21.8.16.98.16.45.01.91,0,1.36,0h.1c.06,0,.13,0,.19,0,.19.2.1.97-.15.97h-2.23s-.15.13-.24.1v3.3c.41.15.84.09,1.26.1.26,0,.52,0,.78,0,.35,0,.71-.02,1.07,0,.1,0,.2-.01.29,0,.33.04.43.1.49.49.01.07,0,.21,0,.29l-.33.2c-.84-.16-5.81.21-6.18-.05-.1-.07-.08-.19-.1-.29-.19-1.57-.02-3.82-.09-5.49-.01-.26.01-.52,0-.78.15-.06.15-.42,0-.49,0-.1,0-.2,0-.29.03-.32-.02-.46,0-.72.02-.3.16-.6.11-.92l.44-.09h5.22c.33.1.35.69.17.92s-.78.13-1.08.14Z"/>
      <path class="cls-1" d="M75.17,35.72c.01.06,0,.13,0,.19.01.16,0,.33,0,.49-.57-.11-1.78.15-2.27-.02-.41-.14-.32-1.64-.84-1.88-.22-.1-2.21-.09-2.43,0-.4.16-.57,1.26-.68,1.7-.01.05,0,.13,0,.19h-.87c-.2-.2.72-2.75.85-3.18.05-.16.02-.35.07-.51.5-1.71,1.11-3.4,1.52-5.13.55-.07,2.2-.28,2.44.31.58,2.39,1.31,4.73,1.93,7.11.06.23.25.55.29.73ZM70.99,29.89c-.08.01-.27-.02-.29,0-.05.05-.28,1.27-.34,1.46-.1.34-.74,2.12-.54,2.33.69,0,1.35.09,2.04,0l-.02-.71-.85-3.08Z"/>
      <path class="cls-1" d="M45.82,42.71c.04-.12.19-.31.24-.49.36-1.22.7-2.45,1.04-3.67.15-.15,2-.18,2.21-.07.23.12.31.94.41,1.25.05.16.04.31.27.26,0,.06,0,.13,0,.19,0,1.61,1.24,4.43,1.63,6.2.08.34.32,1.08-.26.99-.13-.02-.35,0-.49,0-.31-.02-1.35.07-1.53-.12-.21-.22-.23-1.65-.7-1.87-.18-.09-2.36-.09-2.53,0-.31.17-.61,1.82-.69,1.88-.02.02-.6.09-.63.08-.43-.07.15-1.22.15-1.53,0-.06,0-.13,0-.19.33-.25.24-.65.33-.98.17-.58.37-1.16.54-1.74.02-.05-.02-.14,0-.19ZM47.57,40.77c-.2-.04-.23.09-.3.24-.25.57-.71,2.21-.84,2.85-.04.2-.03.41-.02.61.35,0,1.91.3,2.03-.06.14-.42-.14-.74-.23-1.1-.21-.84-.42-1.69-.63-2.53Z"/>
      <path class="cls-1" d="M31.05,29.6c0,.06,0,.13,0,.19-.27-.07-.39.57-.39.78,0,.06,0,.13,0,.19-.2.18-.28.52-.29.78,0,.1,0,.19,0,.29-.2.37-.58,1.35-.58,1.75,0,.06,0,.13,0,.19-.16.22-.27.5-.29.78,0,.1,0,.2,0,.29-.19.17-.29.52-.29.78,0,.06,0,.13,0,.19-.25.08-.15.38-.29.54-.17.19-1.78.2-2.09.14-.11-.02-.19-.05-.24-.15l-2.02-7.5c.04-.22-.27-1.29.03-1.29h2.28c.07.45.21.92.34,1.36.05.16-.02.35.24.29,0,.1,0,.2,0,.29,0,0-.07.05-.07.12.01.21.08.84.36.75,0,.06,0,.13,0,.19.01.09-.02.35.03.6.07.33.61,2.44.72,2.51.05.04.28.12.32.09l.97-3.6c0-.06,0-.13,0-.19l.24-.49.46-1.78c.14-.32.92-.42.95-.02s-.44,1.26-.47,1.68c-.01.15.08.2.08.21Z"/>
      <path class="cls-1" d="M58.65,38.73c.11.33.29.36.41.61.5,1.02.71,1.88-.7,2.01.08-.36-.05-.68-.1-.97-.01-.09.02-.21,0-.29-.15-.58-.39-1.03-1.04-1.14-.78-.13-1.27.04-1.65.73-.48.87-.69,3.06-.61,4.05.06.76.3,2.39,1.07,2.67.01.02-.02.1.02.17.22.32,1.71.41,1.82-.17.13-.04.24-.03.36-.13.22-.18.58-1.1.61-1.39.05-.48-.4-1.25.5-.97.7.22.38,1.58.11,2.06-.86,1.56-3.1,1.74-4.66,1.32-1.51-.4-2.1-1.73-2.45-3.14,0-.16,0-.32,0-.49.05-1.99.23-4.05,2.27-5.07,1.46-.73,2.64-.36,4.05.11Z"/>
      <path class="cls-1" d="M53.01,27.85c.08.03.13.07.19.1.38.61.58,1.07.68,1.79l-.68.35c-.06,0-.14.01-.19,0,0-.64.12-1.13-.35-1.64-.48-.52-1.77-.86-2.37-.4-.06,0-.13,0-.19,0-.58.04-.91.87-.76,1.39.04.14.35.4.47.5.17.13,1.06.65,1.2.64.08,0,.14-.1.16-.1.06,0,.13,0,.19,0-.01.25.14.25.29.34.58.33,1.09.49,1.65.93.02.02.08-.02.1,0,.02.01.25.24.29.29.04.04.18.18.19.19.02.02-.02.07,0,.1.04.06.09.09.1.1.01.03,0,.07,0,.1.02.07,0,.17.1.19,0,.03,0,.07,0,.1.04.16-.09.23.19.19h.1c0,.06,0,.13,0,.19,0,.1,0,.19,0,.29,0,.07,0,.18,0,.19-.07.86-.09,1.14-.49,1.94-1.06.77-2.1,1.09-3.44.96-1.29-.13-2.5-.65-2.59-2.08-.06-.97-.08-1.12.98-1.02-.31,1.45.33,2.53,1.89,2.53.81,0,1.51-.2,1.6-1.08,0-.09,0-.2,0-.29-.12-1.24-2.11-1.57-3.04-2.16-.49-.31-1.22-1.12-1.33-1.68-.08-.4-.03-1.79.09-2.18,0-.03-.01-.07,0-.1l.1-.1c.1-.07.4-.13.49-.19l.1-.1s-.01-.08,0-.1c.34-.03.58-.32.89-.42,1.18-.4,2.27-.24,3.38.23Z"/>
      <path class="cls-1" d="M25.03,38.15s.11.09.23.1c.42.04.92.03,1.35.01.09.02.36.3.36.32v7.82c.1-.03.21.1.24.1h3.45c0,.16.06.87-.15.87h-6.02c-.11,0-.14-.24-.15-.34-.3-2.57.24-5.73,0-8.37l.3-.53c.13.01.26-.01.39,0Z"/>
      <path class="cls-1" d="M71.18,46.6v.68s-6.7,0-6.7,0c.12-.31.04-.73.1-1,.02-.08.16-.07.19-.13,1.09-2.23,2.61-4.37,3.83-6.54.12-.13.05-.58-.09-.58h-3.35v-.49h6.32c.05.39-.12.76-.29,1.1-.86,1.71-2.2,3.47-3.19,5.19-.16.27-.91,1.48-.75,1.69.05.06.12.09.2.09,1.21-.05,2.44.07,3.64,0,.03,0,.07,0,.1,0Z"/>
      <path class="cls-1" d="M55.54,28.53c.02-.25.17-.6.11-.91.02-.08.07-.12.15-.15.23-.08,2.27-.03,2.35.1-.04,1.16.09,2.33.11,3.48.03,1.45.01,2.92,0,4.37v.39c0,.06.01.15,0,.19-.07.23.02.41-.34.48s-1.55.04-1.95,0c-.18-.02-.3-.08-.43-.2,0-.06,0-.13,0-.19.08-.91,0-1.53,0-2.43,0-.06,0-.13,0-.19,0-.23,0-.45,0-.68,0-.42,0-.84,0-1.26,0-.87-.01-1.75,0-2.62,0-.13-.01-.26,0-.39Z"/>
      <path class="cls-1" d="M61.17,38.24c.23,0,.45,0,.68,0,.45,0,.91.02,1.36,0l.25.28.03,8.74c-.07.01-.19.11-.23.11h-2.23c-.08,0-.17-.24-.15-.34.08-2.75-.1-5.52,0-8.27,0-.18,0-.37.1-.53.06,0,.13,0,.19,0Z"/>
      <path class="cls-1" d="M6.95,27.56s0,.06,0,.1c.18,1.4-.02,3.46,0,4.96,0,.39-.02.78,0,1.17.03.78,0,1.5.89,1.78,1.44.45,2.5-.31,2.51-1.82l.09-5.93c.04-.35.42-.23.68-.24-.12,1.99.23,3.99.1,5.97-.05.79-.18,1.67-.79,2.22-1.38,1.26-4.92,1.24-5.76-.62-.05-.11-.35-.96-.35-1.01v-6.41c0-.07.16-.13.24-.15.67-.12,1.67.09,2.38,0Z"/>
      <path class="cls-1" d="M12.44,38.34c.87.08,1.92.45,2.48,1.15,1.42,1.77,1.39,5.89-.59,7.25-.15.1-1.5.64-1.59.64h-4.47s-.15-.14-.15-.15v-8.65s.13-.15.1-.24c1.37.09,2.88-.12,4.23,0ZM12.56,46.18c.32-.4.58-1.99.62-2.54.06-.89-.06-3.48-.64-4.13-.45-.49-1.03-.4-1.63-.4-.08.02-.12.28-.12.36,0,.46.06.99.07,1.44,0,1.84-.03,3.69,0,5.53.13.4,1.43.1,1.71-.26Z"/>
      <path class="cls-1" d="M22.89,38.34c0,.16.06.87-.15.87h-2.96c-.07.53-.24,2.21-.05,2.62.02.05.18.2.19.2h2.33c.21,0,.21.87,0,.87h-2.43s-.15.14-.15.15v3.3s.14.15.15.15h3.5c.21,0,.21.87,0,.87h-6.12s-.15-.14-.15-.15v-8.74s.14-.15.15-.15h5.68Z"/>
      <path class="cls-1" d="M20.85,27.8s.15-.26.19-.29c.19-.11,2.28-.1,2.34.11.16,2.8.07,5.63.1,8.44.02.6-1.88.51-2.29.43-.11-.02-.34-.17-.34-.24v-8.45Z"/>
      <path class="cls-1" d="M75.83,38.17c1.03-.03,2.14.12,2.94.8,2.14,1.82,1.88,7.84-1.32,8.4-4.4.78-5.66-1.94-5.28-5.86.2-2,1.69-3.27,3.66-3.34ZM74.87,41.84c0,.39,0,.78,0,1.17,0,.03,0,.06,0,.1,0,.16,0,.32,0,.49.02.89-.11,1.76.27,2.6.55,1.22,1.98.65,2.15-.61.17-1.24.21-4.64-.12-5.79-.21-.74-.85-1.2-1.59-.78-.83.47-.69,2.02-.71,2.84Z"/>
      <ellipse class="cls-2" cx="44.27" cy="43.93" rx="43.87" ry="43.53"/>
    </g>
  </g>
</svg>